<?xml version="1.0" encoding="UTF-8"?>
<svg version="1.1" xmlns="http://www.w3.org/2000/svg" width="512" height="512">
<path d="M0 0 C1.27178792 -0.00256327 1.27178792 -0.00256327 2.56926852 -0.00517833 C5.42067909 -0.00848217 8.27185622 0.00254516 11.12324524 0.01345825 C13.16307062 0.01402217 15.20289641 0.01370618 17.24272156 0.01257324 C22.78992301 0.01199798 28.33703847 0.02378031 33.88421988 0.03772116 C39.67782391 0.05019967 45.47142977 0.05139674 51.26504517 0.05377197 C62.2403726 0.05999522 73.21566032 0.07641746 84.19097024 0.09647095 C96.68414603 0.11880369 109.17732369 0.12981677 121.67051446 0.13986182 C147.373937 0.16078295 173.07732425 0.19597533 198.78071594 0.24050903 C198.78658218 1.42766006 198.79244843 2.6148111 198.79849243 3.8379364 C198.85574697 15.03487497 198.92852314 26.23161984 199.01643085 37.42836094 C199.06112626 43.18449563 199.10038442 48.94055967 199.12715149 54.69680786 C199.15319244 60.25365063 199.19360097 65.81022142 199.24390221 71.36689568 C199.26056547 73.48509268 199.2720831 75.60333671 199.27832985 77.72159004 C199.28797661 80.69245934 199.31604351 83.66263368 199.3483429 86.6333313 C199.34690781 87.50583527 199.34547272 88.37833923 199.34399414 89.27728271 C199.42634464 94.64584052 199.92241985 98.62191987 202.78071594 103.24050903 C208.16636143 106.57351158 213.17240909 106.68310527 219.38789368 106.67288208 C220.32525864 106.68307373 221.2626236 106.69326538 222.22839355 106.70376587 C225.30709378 106.73380681 228.38548238 106.74314829 231.46430969 106.75222778 C233.60665921 106.76908104 235.74899887 106.78723216 237.8913269 106.80662537 C243.5152936 106.85406101 249.13922035 106.88391213 254.76332092 106.9100647 C260.50813178 106.9399026 266.25280511 106.98642188 271.99751282 107.03152466 C283.25850849 107.11748464 294.51953252 107.18486252 305.78071594 107.24050903 C305.89511167 152.49064086 305.98323958 197.74075741 306.03604259 242.99100528 C306.04229627 248.33084661 306.04876787 253.67068766 306.05537415 259.01052856 C306.0566857 260.07361356 306.05799725 261.13669856 306.05934855 262.23199825 C306.08111664 279.45481557 306.12054591 296.67754962 306.16647992 313.90031751 C306.21320547 331.56695515 306.24100308 349.23354912 306.25115842 366.90024602 C306.25802567 377.80526235 306.27973028 388.71004329 306.32029828 399.61498718 C306.34668846 407.08866653 306.35472539 414.56222386 306.34822283 422.03594644 C306.34501413 426.35066905 306.34999966 430.66497979 306.37674332 434.97962952 C306.40104428 438.92896529 306.40232457 442.87761158 306.38521042 446.82697885 C306.38309474 448.25643051 306.38946472 449.6859249 306.40513185 451.11529227 C306.52918797 463.13105626 306.52918797 463.13105626 303.36813641 467.06780052 C299.8408725 470.0297143 298.26362555 470.36604915 293.75405407 470.37473011 C292.1486025 470.38141688 292.1486025 470.38141688 290.51071757 470.38823873 C288.7327903 470.38796218 288.7327903 470.38796218 286.91894531 470.38768005 C285.66711372 470.39135674 284.41528212 470.39503343 283.12551624 470.39882153 C279.63940325 470.40885745 276.15330748 470.41256087 272.66718209 470.41521084 C268.91179617 470.41910915 265.15642395 470.42868777 261.40104675 470.43742371 C252.32651301 470.4572009 243.25197813 470.46725564 234.17742822 470.4761515 C229.90687739 470.4805321 225.63632781 470.48589947 221.36577797 470.49114037 C207.17452979 470.50815345 192.98328238 470.52264863 178.79202557 470.52988911 C175.10799852 470.53179908 171.42397148 470.5337194 167.73994446 470.53567505 C166.82426828 470.53615879 165.9085921 470.53664253 164.96516816 470.53714093 C150.12472309 470.54544502 135.28435854 470.57078797 120.44394865 470.60325573 C105.21694246 470.63629844 89.98997722 470.65433532 74.76293498 470.65753335 C66.20970056 470.65970097 57.65658356 470.66848643 49.10338402 470.69399452 C41.82057374 470.71566345 34.53790939 470.72377077 27.25507053 470.71402774 C23.53795901 470.70947199 19.82114881 470.71144267 16.10407829 470.73078918 C12.07698422 470.75156868 8.05056322 470.74147131 4.0234375 470.72825623 C2.84484482 470.73922547 1.66625214 470.75019472 0.45194453 470.76149637 C-7.41080975 470.69891596 -7.41080975 470.69891596 -11.35945415 468.46002483 C-14.35631263 464.88358231 -15.47201273 462.23712762 -15.44633484 457.56375122 C-15.44618378 456.64309875 -15.44603271 455.72244629 -15.44587708 454.77389526 C-15.4355545 453.78834656 -15.42523193 452.80279785 -15.41459656 451.78738403 C-15.41176666 450.77202576 -15.40893677 449.75666748 -15.40602112 448.71054077 C-15.39483407 445.47040987 -15.36973197 442.23055627 -15.34428406 438.99050903 C-15.33425236 436.79259636 -15.32512684 434.59467935 -15.31694031 432.39675903 C-15.29489957 427.01124789 -15.26143657 421.62589828 -15.21928406 416.24050903 C-14.1616794 416.23812068 -13.10407475 416.23573233 -12.01442146 416.2332716 C13.7340977 416.17444481 39.48252353 416.09854223 65.23093987 416.00479412 C77.68274463 415.95985223 90.1345209 415.92043379 102.58638 415.89407349 C113.44097708 415.87108048 124.29548384 415.83766773 135.15000927 415.79180747 C140.89597288 415.76789299 146.64184713 415.74915252 152.38785934 415.74289513 C157.80019075 415.73683634 163.21229361 415.71680745 168.62454033 415.68623352 C170.60699436 415.67746608 172.58947828 415.67372802 174.57195091 415.67550087 C193.61427832 415.90382648 193.61427832 415.90382648 209.59321594 406.45144653 C216.20781992 399.31318641 218.88547884 392.31509562 218.92788696 382.5501709 C218.93504227 381.41486938 218.94219757 380.27956787 218.9495697 379.10986328 C218.95225861 377.87342072 218.95494751 376.63697815 218.9577179 375.36306763 C218.96757469 373.39874786 218.96757469 373.39874786 218.97763062 371.39474487 C218.99860698 367.05949108 219.00902847 362.72423721 219.01899719 358.38894653 C219.02304745 356.89186205 219.02716445 355.39477775 219.03134727 353.89769363 C219.05038655 346.86094929 219.064619 339.82421533 219.07295924 332.78745019 C219.08272069 324.68709424 219.10901675 316.58701233 219.14946014 308.48675287 C219.17970785 302.21137057 219.19443637 295.93606644 219.19774026 289.6606127 C219.20008128 285.91940411 219.20891683 282.1784887 219.23420143 278.43735886 C219.25763895 274.91270523 219.26165339 271.38853456 219.25144005 267.86382294 C219.25071583 265.97061497 219.26969709 264.07743066 219.289505 262.18432617 C219.22364752 251.25628226 216.66691537 241.19905891 208.78071594 233.24050903 C201.75024495 227.72861977 194.88355636 225.94075179 186.08677673 225.96203613 C184.79276792 225.95334753 184.79276792 225.95334753 183.47261751 225.9444834 C180.58911347 225.92751165 177.70576976 225.92460932 174.82221985 225.92166138 C172.75239165 225.91236126 170.6825672 225.90219246 168.61274719 225.89122009 C162.99758704 225.86391553 157.38245199 225.84876927 151.76724291 225.83579206 C145.89754895 225.82016358 140.02790626 225.79337244 134.1582489 225.76776123 C123.04493745 225.72096849 111.93161637 225.68422674 100.81825674 225.65108836 C88.16536411 225.61287051 75.51252297 225.56345944 62.85967374 225.5131042 C36.83339262 225.40977696 10.80707844 225.32051909 -15.21928406 225.24050903 C-15.31268564 197.05088019 -15.38324286 168.8612745 -15.42653275 140.67152214 C-15.44716638 127.58281154 -15.47530245 114.49419703 -15.52104187 101.4055481 C-15.5608849 89.99876184 -15.58671103 78.59204518 -15.59563804 67.18519127 C-15.60085703 61.14417478 -15.61314054 55.10335738 -15.64220428 49.06240463 C-15.66933315 43.3776183 -15.67773406 37.69311327 -15.67171478 32.00826836 C-15.67281614 29.92089879 -15.68078489 27.83351991 -15.69610596 25.74620628 C-15.71599401 22.8971896 -15.71122732 20.04923637 -15.70030212 17.20019531 C-15.71195349 16.37333658 -15.72360486 15.54647785 -15.73560929 14.69456279 C-15.68092683 9.42252203 -14.72857582 6.41277677 -11.21928406 2.24050903 C-7.42036425 -0.29210417 -4.39965975 -0.03217198 0 0 Z " fill="#000000" transform="translate(153.2192840576172,20.759490966796875)"/>
<path d="M0 0 C0.99068165 -0.00583219 1.9813633 -0.01166439 3.0020656 -0.01767331 C4.088142 -0.01389399 5.17421841 -0.01011467 6.29320621 -0.00622082 C7.4487414 -0.01004636 8.60427659 -0.01387191 9.794828 -0.01781338 C13.00283019 -0.02635603 16.21068654 -0.02590615 19.41869271 -0.02163279 C22.87820372 -0.01916946 26.33768762 -0.02817482 29.79718876 -0.03567028 C36.57486815 -0.04843016 43.35250796 -0.05020938 50.13019734 -0.04787002 C55.63826394 -0.04608818 61.1463185 -0.04783362 66.65438366 -0.05209446 C67.43782532 -0.05268965 68.22126697 -0.05328484 69.02844929 -0.05389806 C70.6199255 -0.05510979 72.2114017 -0.05632393 73.80287791 -0.05754044 C88.73314346 -0.06842089 103.66338644 -0.06625106 118.59365327 -0.06015559 C132.25705327 -0.05498569 145.92038199 -0.0662429 159.58376788 -0.08525381 C173.60850932 -0.10461815 187.63321702 -0.1128907 201.65797192 -0.10913056 C209.53374645 -0.10721641 217.40946031 -0.10972682 225.28522396 -0.1238451 C231.98973361 -0.13574198 238.69414523 -0.13718287 245.39865618 -0.12505493 C248.82004235 -0.11915434 252.24124905 -0.11809915 255.66262341 -0.13005733 C259.36989333 -0.14045493 263.07667689 -0.13247993 266.78392887 -0.11974621 C267.86777455 -0.12712049 268.95162023 -0.13449478 270.06830972 -0.14209253 C279.13880655 -0.07628398 279.13880655 -0.07628398 283.10205936 3.25447559 C283.69218846 3.69654913 284.28231756 4.13862267 284.89032936 4.59409237 C286.65306304 7.00949302 286.48258331 8.85084208 286.48973942 11.82060719 C286.50459637 13.55768436 286.50459637 13.55768436 286.51975346 15.32985401 C286.51525181 16.60161488 286.51075016 17.87337574 286.5061121 19.18367481 C286.51181395 20.5355991 286.51877749 21.88751857 286.52690983 23.23943043 C286.54487935 26.91309425 286.54366555 30.58651972 286.53796744 34.26021433 C286.53488034 37.32680618 286.54096286 40.39335192 286.54700619 43.45993721 C286.56106291 50.69536258 286.55948129 57.93066992 286.54810429 65.16609669 C286.53662788 72.62963663 286.55068784 80.09281704 286.57750076 87.55630958 C286.59965873 93.96406424 286.60629477 100.37170606 286.60042435 106.77949631 C286.59705303 110.60657965 286.59948088 114.43343263 286.61667538 118.26048374 C286.63214369 121.86064626 286.62819092 125.46027665 286.60937023 129.06041813 C286.60392711 131.00963384 286.61820027 132.95887342 286.63306522 134.90804005 C286.62323109 136.07173115 286.61339695 137.23542225 286.60326481 138.43437672 C286.60305552 139.44353075 286.60284624 140.45268478 286.60263062 141.49241924 C285.96567165 145.00703689 284.54029429 146.69388007 282.10205936 149.25447559 C279.66738483 150.47181286 278.10971006 150.38418441 275.3877449 150.39148998 C274.38711177 150.39656453 273.38647864 150.40163907 272.35552329 150.40686738 C270.69432447 150.40761402 270.69432447 150.40761402 268.99956608 150.40837574 C267.82940553 150.41275799 266.65924498 150.41714025 265.45362502 150.4216553 C262.19554092 150.43273658 258.93748395 150.4392729 255.6793853 150.44383645 C252.16939801 150.44978646 248.65942849 150.46139773 245.14945316 150.47212696 C236.66818076 150.49666363 228.18690246 150.51127937 219.70560548 150.52418703 C217.31111589 150.52789785 214.91662689 150.53187116 212.52213788 150.53593969 C197.6602303 150.56117359 182.79832183 150.58323184 167.93639755 150.59566784 C164.49300159 150.59859765 161.04960565 150.6015593 157.60620975 150.60457325 C156.75034587 150.6053193 155.89448199 150.60606535 155.01268283 150.60683401 C141.14219266 150.61949289 127.27183052 150.65272243 113.40140023 150.69437508 C99.16880571 150.73676586 84.9362768 150.7603595 70.7036193 150.7655884 C62.7092618 150.76900563 54.71510444 150.7807974 46.72080898 150.81369114 C39.91374653 150.84165358 33.10692522 150.85270783 26.29980978 150.84149568 C22.82565158 150.83629924 19.35199868 150.83925839 15.87791348 150.86396122 C12.11335021 150.88649934 8.3500714 150.87842743 4.58550358 150.8624773 C3.48472986 150.87635939 2.38395615 150.89024148 1.24982566 150.90454423 C-6.14934395 150.82697659 -6.14934395 150.82697659 -10.0531559 147.84147549 C-12.68237649 144.15443642 -13.02582936 142.37212173 -13.04511166 137.88452625 C-13.05226696 136.74467777 -13.05942226 135.60482929 -13.0667944 134.43043995 C-13.0694833 133.17378529 -13.0721722 131.91713062 -13.07494259 130.62239552 C-13.08151379 129.30364933 -13.08808498 127.98490314 -13.09485531 126.62619495 C-13.1122704 123.00213239 -13.12281843 119.37808302 -13.13106084 115.75398898 C-13.13620991 113.49021058 -13.14228568 111.22643629 -13.14857197 108.96266079 C-13.16762545 101.8810679 -13.18185627 94.79948545 -13.19018394 87.71787184 C-13.19995808 79.54101653 -13.22628129 71.3644318 -13.26668483 63.18767184 C-13.2968359 56.86913198 -13.31165184 50.55066972 -13.31496495 44.2320593 C-13.3173166 40.45746444 -13.32629145 36.6831586 -13.35142612 32.90864086 C-13.3746946 29.35696073 -13.37894541 25.80576013 -13.36866474 22.25402355 C-13.36793276 20.33100629 -13.38703273 18.40801345 -13.4067297 16.48509693 C-13.39978588 15.33678898 -13.39284206 14.18848103 -13.38568783 13.00537586 C-13.38927036 11.51181962 -13.38927036 11.51181962 -13.39292526 9.98809052 C-12.75096857 6.44280387 -11.40066766 4.80913192 -8.89794064 2.25447559 C-5.84596265 0.37976527 -3.55783049 0.00360491 0 0 Z M21.48291874 37.93166065 C19.59642149 41.10503521 19.71408302 43.46513617 19.69800663 47.14680958 C19.69114338 47.83186573 19.68428013 48.51692188 19.6772089 49.22273731 C19.65894121 51.48222684 19.66277816 53.74102197 19.66846561 56.00056934 C19.66390362 57.57471409 19.65859799 59.14885685 19.65258121 60.72299671 C19.6436501 64.02076278 19.64607294 67.31828668 19.65601444 70.61604786 C19.66750167 74.8374528 19.64729723 79.05802094 19.61809731 83.27931595 C19.59973037 86.52990478 19.60002873 89.78029328 19.60573483 93.03092098 C19.605888 94.58701787 19.59984714 96.14312838 19.58744335 97.69917583 C19.57252559 99.87756309 19.58321382 102.05440734 19.60035038 104.23274708 C19.60051655 105.47088657 19.60068272 106.70902607 19.60085392 107.98468494 C20.1954597 111.86380563 21.35978744 113.49810519 24.10205936 116.25447559 C29.3243698 118.85385117 34.83003612 118.58698093 40.53955936 118.56697559 C41.45543827 118.58308887 42.37131718 118.59920216 43.31494999 118.61580372 C49.78306631 118.62044702 54.9837796 117.97039668 60.03955936 113.56697559 C61.61911471 110.12911983 61.89312855 106.9122634 61.10205936 103.25447559 C58.5675228 100.03492914 56.98908632 98.55015124 53.10205936 97.25447559 C50.87387495 97.18510497 48.64371412 97.16990475 46.41455936 97.19197559 C45.23506718 97.20099903 44.05557499 97.21002247 42.84034061 97.21931934 C41.9367078 97.23092091 41.03307499 97.24252247 40.10205936 97.25447559 C40.10205936 93.62447559 40.10205936 89.99447559 40.10205936 86.25447559 C42.63893436 86.31635059 42.63893436 86.31635059 45.22705936 86.37947559 C51.00311393 86.35723148 55.08373719 86.11345654 59.47705936 82.06697559 C61.55342894 78.47325902 61.61409121 76.35073034 61.10205936 72.25447559 C59.87803269 69.50041557 58.94231774 67.82719888 56.44580936 66.12556934 C53.18653597 64.91420607 50.31622285 65.06532442 46.85205936 65.12947559 C45.58877811 65.14752247 44.32549686 65.16556934 43.02393436 65.18416309 C42.05971561 65.20736622 41.09549686 65.23056934 40.10205936 65.25447559 C40.10205936 61.62447559 40.10205936 57.99447559 40.10205936 54.25447559 C42.63893436 54.31635059 42.63893436 54.31635059 45.22705936 54.37947559 C51.00311393 54.35723148 55.08373719 54.11345654 59.47705936 50.06697559 C61.55342894 46.47325902 61.61409121 44.35073034 61.10205936 40.25447559 C59.40385364 36.43351272 57.96389408 34.76207244 54.10205936 33.25447559 C49.80043905 32.82663342 45.48523636 32.93021545 41.16455936 32.94197559 C39.39435429 32.91780567 39.39435429 32.91780567 37.58838749 32.89314747 C36.44950077 32.89250294 35.31061405 32.89185841 34.13721561 32.89119434 C33.09960087 32.88821339 32.06198612 32.88523243 30.9929285 32.88216114 C26.86706088 33.4135308 24.35243502 34.95927533 21.48291874 37.93166065 Z M75.10205936 37.25447559 C72.79038683 40.75404653 72.84323663 43.83261588 72.82740116 47.96321583 C72.82229023 48.62876484 72.8171793 49.29431385 72.81191349 49.98003101 C72.79804274 52.17446925 72.79897229 54.36859254 72.80127811 56.56306934 C72.7973898 58.09237249 72.79305485 59.62167455 72.78829288 61.15097523 C72.78083611 64.35453767 72.78111799 67.5579899 72.78638554 70.76155567 C72.79217965 74.86175221 72.77524832 78.96149695 72.75204086 83.0616188 C72.73729103 86.21953425 72.7364335 89.3773412 72.73955059 92.535285 C72.73903801 94.04672166 72.73381209 95.5581645 72.72373867 97.06956768 C72.71136677 99.18545524 72.71816941 101.30046673 72.72974491 103.41634083 C72.72911549 104.61895054 72.72848606 105.82156025 72.72783756 107.06061268 C73.13829304 110.56371841 74.02638761 112.43477535 76.10205936 115.25447559 C79.53125509 117.82637239 82.94145423 117.75661759 87.10205936 117.25447559 C89.6973323 115.85256477 91.02387799 114.48109849 93.10205936 112.25447559 C94.04717263 108.86714758 94.22120906 105.67587575 94.19971561 102.17244434 C94.19488163 100.77542286 94.19488163 100.77542286 94.18994999 99.35017872 C94.18157108 98.39047169 94.17319218 97.43076466 94.16455936 96.44197559 C94.16004765 95.46293262 94.15553593 94.48388966 94.15088749 93.47517872 C94.1391462 91.06821449 94.12272356 88.66137702 94.10205936 86.25447559 C94.85229374 86.24029591 95.60252811 86.22611622 96.37549686 86.21150684 C105.53138672 85.78484699 113.12376598 83.83067758 119.53955936 76.94197559 C124.99064901 69.74591958 126.29981419 62.18005245 125.10205936 53.25447559 C122.89046907 46.0565683 118.59296407 40.15108559 112.10205936 36.25447559 C105.43224623 33.26940259 99.15134692 32.7627859 91.91455936 32.81697559 C90.9561414 32.79699512 89.99772343 32.77701466 89.01026249 32.75642872 C83.23721141 32.76041839 79.56156248 33.2074943 75.10205936 37.25447559 Z M140.10205936 36.25447559 C137.54678966 39.78860903 136.72361525 42.26762354 136.69800663 46.60457325 C136.68532246 47.64981159 136.67263828 48.69504993 136.65956974 49.77196217 C136.66250538 50.89283222 136.66544102 52.01370228 136.66846561 53.16853809 C136.66322376 54.33396137 136.65798191 55.49938465 136.65258121 56.70012379 C136.64616169 59.16631239 136.64749707 61.63253162 136.65601444 64.09871387 C136.66448192 67.8452112 136.63582806 71.59016172 136.60401249 75.33650684 C136.60239913 77.73885014 136.60298058 80.14119611 136.60596561 82.54353809 C136.59473164 83.65226276 136.58349766 84.76098743 136.57192326 85.90330982 C136.65103064 94.87705077 138.14625386 103.31714973 144.28955936 110.19197559 C150.93083422 116.04530258 157.4445463 117.92396598 166.24659061 117.56697559 C174.1442162 116.70266636 179.878188 113.2543988 185.10205936 107.25447559 C190.23662473 98.87936321 190.25912041 90.03889022 190.27002811 80.50056934 C190.27335651 79.48148991 190.27668491 78.46241047 190.28011417 77.41244984 C190.28515783 75.26677875 190.28752329 73.12109987 190.2873621 70.97542286 C190.28955455 67.69916882 190.30775392 64.42324856 190.32666874 61.14705372 C190.32960203 59.05656007 190.33158726 56.96606484 190.33252811 54.87556934 C190.33971363 53.90042881 190.34689915 52.92528828 190.35430241 51.92059803 C190.33423454 45.93324679 190.06350586 40.94238375 186.41455936 35.94197559 C183.21928349 33.6102878 181.04655182 33.25447559 177.10205936 33.25447559 C173.05784218 35.31473718 170.73836495 37.03022 169.10205936 41.25447559 C168.77681251 43.87904878 168.77681251 43.87904878 168.78321171 46.75740528 C168.76334202 47.85824451 168.74347233 48.95908375 168.72300053 50.09328175 C168.70567371 51.86690083 168.70567371 51.86690083 168.68799686 53.67635059 C168.66863071 54.89147327 168.64926456 56.10659595 168.62931156 57.35854053 C168.5695213 61.24044743 168.52313191 65.12238399 168.47705936 69.00447559 C168.43887914 71.63599896 168.39982739 74.26750983 168.35987186 76.89900684 C168.26382007 83.35071891 168.17877072 89.80250616 168.10205936 96.25447559 C161.94971561 96.35213184 161.94971561 96.35213184 160.10205936 96.25447559 C158.47738967 94.6298059 158.95266082 92.81473585 158.92847538 90.57039356 C158.91498554 89.57200459 158.9014957 88.57361561 158.88759708 87.54497242 C158.8771587 86.45653034 158.86672031 85.36808826 158.85596561 84.24666309 C158.82301043 81.95759701 158.78979908 79.6685346 158.75635624 77.37947559 C158.70903751 73.75873471 158.6646522 70.13800692 158.62525272 66.51717091 C158.58540944 63.03100291 158.53387392 59.5451539 158.48096561 56.05916309 C158.47255146 54.9828664 158.46413731 53.90656971 158.45546818 52.79765797 C158.52988924 43.41075803 158.52988924 43.41075803 154.35205936 35.37947559 C148.85413393 32.63051287 145.23188522 32.83459169 140.10205936 36.25447559 Z M203.10205936 37.25447559 C200.81523025 40.729984 200.84339632 43.75544099 200.82740116 47.85554981 C200.82229023 48.50973896 200.8171793 49.16392811 200.81191349 49.83794117 C200.79804255 51.99510889 200.79897254 54.15195614 200.80127811 56.30916309 C200.79738934 57.81365038 200.79305429 59.31813657 200.78829288 60.82262135 C200.78083572 63.97490975 200.78111793 67.12708615 200.78638554 70.27937794 C200.79217458 74.30997705 200.77526078 78.34011581 200.75204086 82.37063885 C200.73727451 85.47798288 200.73643583 88.58521685 200.73955059 91.69258976 C200.73903867 93.17808028 200.73382524 94.66357718 200.72373867 96.14903355 C200.71133692 98.23119292 200.71818753 100.31246605 200.72974491 102.39461231 C200.72911549 103.57723652 200.72848606 104.75986073 200.72783756 105.97832203 C201.15275451 109.69829014 202.12749179 112.0856742 204.10205936 115.25447559 C209.23316798 118.26345904 213.61425433 118.7132821 219.47705936 118.56697559 C220.22729374 118.5542461 220.97752811 118.54151661 221.75049686 118.52840137 C231.33107516 118.27682803 238.72032208 116.8190975 246.10205936 110.25447559 C252.59511485 102.27768206 254.03889107 95.47661399 253.10205936 85.25447559 C252.19600593 82.73806808 251.09616252 80.48429437 249.86768436 78.11385059 C249.10205936 76.25447559 249.10205936 76.25447559 249.72705936 73.50447559 C250.18080936 72.76197559 250.63455936 72.01947559 251.10205936 71.25447559 C254.17603235 64.70952203 254.31725513 57.34092462 252.26221561 50.43025684 C248.85543489 42.9399275 243.77911518 37.50447061 236.03565311 34.59041309 C230.66424881 32.90819645 225.50731845 32.77509653 219.91455936 32.81697559 C218.9561414 32.79699512 217.99772343 32.77701466 217.01026249 32.75642872 C211.23721141 32.76041839 207.56156248 33.2074943 203.10205936 37.25447559 Z " fill="#000000" transform="translate(65.89794063568115,265.7455244064331)"/>
<path d="M0 0 C7.87530023 6.75025734 7.87530023 6.75025734 10.61314392 9.48616028 C11.23699982 10.10719635 11.86085571 10.72823242 12.50361633 11.36808777 C13.16105331 12.02754898 13.8184903 12.68701019 14.49584961 13.36645508 C15.20888245 14.0777356 15.92191528 14.78901611 16.65655518 15.52185059 C18.99099093 17.8519173 21.32178837 20.18558384 23.65234375 22.51953125 C25.27887098 24.14538447 26.9055466 25.77108924 28.53236389 27.39665222 C31.92888376 30.79170221 35.32359894 34.18854368 38.71704102 37.58666992 C43.07745209 41.9528052 47.44237365 46.31439942 51.80863094 50.67468739 C55.16200495 54.02445983 58.51300841 57.37659548 61.86328316 60.72946739 C63.47299253 62.33984575 65.08345029 63.94947637 66.69465446 65.55835915 C68.93549432 67.79667619 71.17313219 70.03814442 73.40991211 72.28051758 C74.08151871 72.95009995 74.75312531 73.61968231 75.44508362 74.30955505 C80 78.88573232 80 78.88573232 80 80 C53.6 80 27.2 80 0 80 C0 53.6 0 27.2 0 0 Z " fill="#000000" transform="translate(373,27)"/>
<path d="M0 0 C7.60344828 0.60344828 7.60344828 0.60344828 10 3 C10.32339354 6.03989923 10.45670212 8.14368353 9 10.875 C5.74686316 12.70488947 2.68609891 12.18128355 -1 12 C-1.02687279 10.18757948 -1.04633715 8.37504767 -1.0625 6.5625 C-1.07410156 5.55316406 -1.08570313 4.54382813 -1.09765625 3.50390625 C-1 1 -1 1 0 0 Z " fill="#000000" transform="translate(289,351)"/>
<path d="M0 0 C7.60344828 0.60344828 7.60344828 0.60344828 10 3 C10.32339354 6.03989923 10.45670212 8.14368353 9 10.875 C5.74686316 12.70488947 2.68609891 12.18128355 -1 12 C-1.02687279 10.18757948 -1.04633715 8.37504767 -1.0625 6.5625 C-1.07410156 5.55316406 -1.08570313 4.54382813 -1.09765625 3.50390625 C-1 1 -1 1 0 0 Z " fill="#000000" transform="translate(289,319)"/>
<path d="M0 0 C7.60344828 0.60344828 7.60344828 0.60344828 10 3 C10.32339354 6.03989923 10.45670212 8.14368353 9 10.875 C5.74686316 12.70488947 2.68609891 12.18128355 -1 12 C-1.02687279 10.18757948 -1.04633715 8.37504767 -1.0625 6.5625 C-1.07410156 5.55316406 -1.08570313 4.54382813 -1.09765625 3.50390625 C-1 1 -1 1 0 0 Z " fill="#000000" transform="translate(161,319)"/>
</svg>
