<?xml version="1.0" encoding="UTF-8"?>
<svg version="1.1" xmlns="http://www.w3.org/2000/svg" width="512" height="512">
<path d="M0 0 C2.66304666 1.91718349 4.85465645 3.9248256 6.98046875 6.42578125 C7.66109375 7.12703125 8.34171875 7.82828125 9.04296875 8.55078125 C15.30427419 17.84175061 17.23045084 30.38187336 20.0390625 41.10546875 C20.53635243 42.98844026 21.03412326 44.87128481 21.53233337 46.75401306 C22.60368597 50.8063332 23.67193245 54.85945435 24.73773193 58.91323853 C26.44128088 65.39232893 28.15184462 71.86955392 29.86376953 78.34643555 C30.45631313 80.58854297 31.04884229 82.83065422 31.64135742 85.07276917 C32.08765503 86.76158298 32.08765503 86.76158298 32.54296875 88.48451424 C33.46219505 91.96401996 34.38072995 95.44370753 35.29907227 98.92344666 C41.66265286 123.03302108 48.07309172 147.13007955 54.48855591 171.22589111 C56.01014713 176.94085044 57.53115482 182.65596476 59.05170727 188.37120056 C59.63607823 190.56738187 60.22061644 192.76351867 60.80532551 194.95960999 C62.22174802 200.27998939 63.63582752 205.60096647 65.04450989 210.92340088 C67.52289128 220.27638327 70.02169398 229.6216343 72.62000847 238.94212437 C73.7632198 243.04694677 74.89302555 247.15540911 76.0221138 251.26413536 C76.55198712 253.1766919 77.08862586 255.08739019 77.63282394 256.99592018 C85.54655533 284.7585078 85.54655533 284.7585078 79.3125 296.43359375 C72.94603351 305.9552885 66.14883646 310.4671244 55.27734375 313.46875 C54.25235779 313.75952927 53.22737183 314.05030853 52.17132568 314.34989929 C35.24246594 319.1004622 18.21406765 323.50157219 1.2062149 327.95846558 C-6.88764652 330.07952015 -14.98073417 332.20352656 -23.07355881 334.32853317 C-25.11624345 334.86487116 -27.15897064 335.40104711 -29.20174026 335.93706131 C-42.2214929 339.35436303 -55.22838109 342.81494106 -68.2192688 346.34038353 C-72.91478979 347.61335828 -77.61241349 348.87856068 -82.30986786 350.14437962 C-86.6308947 351.31008472 -90.94781761 352.48966309 -95.26217079 353.67981434 C-97.27457744 354.23219477 -99.2888398 354.77706649 -101.3041687 355.31867981 C-103.70711514 355.96456758 -106.10703757 356.62189071 -108.50271606 357.29423523 C-120.03080289 360.35165227 -131.47232081 361.20401882 -142.13671875 355.2421875 C-154.34626992 347.11016568 -156.58441375 332.45297317 -160 319.19140625 C-160.56634542 317.04067125 -161.13411108 314.8903098 -161.70318604 312.74029541 C-163.23605998 306.93374158 -164.74985863 301.12236748 -166.26038742 295.30996704 C-167.85285764 289.19644002 -169.46338759 283.08767669 -171.07250977 276.97851562 C-173.74068094 266.84130209 -176.39955092 256.7016926 -179.05273438 246.56054688 C-182.82171137 232.15942253 -186.62494515 217.76751125 -190.44140625 203.37890625 C-190.88590622 201.70296103 -190.88590622 201.70296103 -191.33938599 199.99315834 C-192.51647244 195.5552895 -193.6936133 191.11743511 -194.8710022 186.67964649 C-196.86667016 179.15624616 -198.85767054 171.63162254 -200.84570312 164.10620117 C-201.11875778 163.07264968 -201.39181244 162.03909819 -201.67314148 160.97422695 C-202.21528573 158.9220822 -202.75742548 156.86993626 -203.29956055 154.81778908 C-206.93475743 141.0580139 -210.57931694 127.30103296 -214.27082634 113.55624771 C-215.45209715 109.15487714 -216.62810587 104.7520967 -217.8052063 100.34960938 C-218.66976746 97.12717275 -219.54343029 93.90730656 -220.41772461 90.6875 C-220.91438761 88.83085961 -221.41060039 86.97409869 -221.90625 85.1171875 C-222.12661926 84.31837662 -222.34698853 83.51956573 -222.57403564 82.69654846 C-224.98528484 73.56638227 -224.39521636 65.25821497 -219.61328125 56.99609375 C-211.04535861 44.99291911 -198.07506454 42.39470456 -184.58203125 38.92578125 C-182.53012126 38.38561784 -180.4786231 37.84388813 -178.42749023 37.30078125 C-173.71545898 36.05573101 -169.00104753 34.82019018 -164.28515625 33.58984375 C-154.88708782 31.13614392 -145.50033628 28.63996985 -136.11328125 26.14453125 C-132.55960998 25.19988322 -129.00590828 24.25534992 -125.45214844 23.31103516 C-124.55941601 23.07381556 -123.66668358 22.83659595 -122.74689865 22.59218788 C-116.3983078 20.90607571 -110.04777697 19.22740911 -103.69628906 17.55224609 C-100.13210054 16.61188435 -96.56796905 15.67130687 -93.00390625 14.73046875 C-92.13395271 14.50082806 -91.26399918 14.27118736 -90.36768341 14.03458786 C-79.34407834 11.12269613 -68.33749205 8.15797109 -57.34765625 5.12109375 C-54.02189575 4.20950088 -50.69579613 3.29915614 -47.36959839 2.38916016 C-44.45182017 1.5838434 -41.54064152 0.75738543 -38.62915039 -0.0703125 C-26.02504139 -3.56717851 -11.99054822 -7.13005799 0 0 Z " fill="#5FC3D8" transform="translate(251.01953125,3.57421875)"/>
<path d="M0 0 C3.2239517 1.41539343 5.35666792 3.11414928 7.8125 5.625 C8.43769531 6.25664062 9.06289063 6.88828125 9.70703125 7.5390625 C10.93793708 8.8601369 12.16117192 10.18985717 13.32972717 11.56639099 C18.36637771 17.49740419 23.86091257 22.93543382 29.402668 28.38613701 C31.13885241 30.09530337 32.87030874 31.80913014 34.60043335 33.52442932 C39.514164 38.39577793 44.43063117 43.2642558 49.36328125 48.11645508 C52.39513186 51.09952899 55.41690887 54.09249804 58.43253708 57.09196663 C59.57463705 58.2242398 60.72036479 59.35286699 61.86992264 60.47756767 C70.57680565 69.00019489 78.87820841 77.75428223 79.03125 90.62890625 C77.93407688 110.35059306 60.29285171 122.87145948 47.27807617 135.93066406 C45.48326863 137.73502429 43.68863107 139.5395536 41.89414978 141.34423828 C36.53667736 146.7302165 31.17490906 152.1119007 25.81165716 157.49212325 C24.29442965 159.01415947 22.77728868 160.53628191 21.2601645 162.05842113 C11.81341997 171.53611819 2.36452021 181.0116633 -7.0892992 190.48230362 C-9.27058159 192.66753454 -11.45183663 194.85279275 -13.63305664 197.03808594 C-14.17509252 197.58113018 -14.7171284 198.12417442 -15.27558961 198.68367454 C-24.06460418 207.48971297 -32.84148767 216.30774231 -41.6135811 225.13063338 C-50.64278861 234.21169255 -59.68336026 243.28131544 -68.73490733 252.34010863 C-73.80771415 257.41756453 -78.87542229 262.49988828 -83.93027687 267.59522247 C-88.68306386 272.38602839 -93.45100923 277.16121356 -98.22948265 281.92642212 C-99.97612239 283.6731157 -101.71767099 285.42491814 -103.45358276 287.18227386 C-123.33638035 307.29740781 -123.33638035 307.29740781 -135.3203125 308.76171875 C-136.57585937 308.73722656 -137.83140625 308.71273438 -139.125 308.6875 C-140.38570312 308.69136719 -141.64640625 308.69523437 -142.9453125 308.69921875 C-152.28798166 307.64428833 -158.9670961 301.72716149 -165.125 295.125 C-166.43750515 293.75011836 -167.75260375 292.37770773 -169.0703125 291.0078125 C-169.63508301 290.40598145 -170.19985352 289.80415039 -170.78173828 289.18408203 C-172.64106441 287.35340499 -174.53207353 285.67389799 -176.5138855 283.9811554 C-181.56066408 279.57674398 -186.27077833 274.86168747 -190.99609375 270.11743164 C-191.9724157 269.14082697 -192.94895918 268.16444372 -193.92570496 267.18826294 C-196.55342329 264.56082929 -199.17806605 261.9303433 -201.80213165 259.29926229 C-204.55361766 256.54148767 -207.30797176 253.78658051 -210.06201172 251.03135681 C-215.2663631 245.82390826 -220.46816203 240.61391787 -225.66902924 235.4029898 C-231.59456004 229.46624752 -237.52296047 223.53237434 -243.4515934 217.59873021 C-255.63757202 205.40232378 -267.81997543 193.20235244 -280 181 C-276.39360394 179.97169107 -274.3348626 180.1966247 -270.69116211 181.20214844 C-269.60589737 181.49646759 -268.52063263 181.79078674 -267.40248108 182.09402466 C-266.20618576 182.42909027 -265.00989044 182.76415588 -263.77734375 183.109375 C-262.48428059 183.4639058 -261.19097334 183.81754736 -259.89744568 184.17037964 C-257.07292278 184.94282982 -254.25019254 185.72143404 -251.4286499 186.50469971 C-246.88615428 187.76564012 -242.34011511 189.01344237 -237.79345703 190.25927734 C-231.92408629 191.86855666 -226.05571124 193.48139348 -220.18832016 195.0978756 C-206.62003189 198.83541982 -193.04321182 202.54145222 -179.46484375 206.2421875 C-178.34176504 206.54828445 -177.21868633 206.85438141 -176.06157494 207.16975403 C-171.53712458 208.40283778 -167.01265323 209.6358444 -162.48812771 210.86865234 C-154.66201083 213.0011846 -146.8365707 215.13618631 -139.01147461 217.27246094 C-135.87117543 218.1296065 -132.73086937 218.98672682 -129.59056282 219.84384537 C-127.60224835 220.38662506 -125.61397035 220.92953837 -123.62573051 221.4725914 C-120.8943086 222.21860063 -118.16274636 222.96409388 -115.43115234 223.70947266 C-114.62963714 223.92853649 -113.82812193 224.14760033 -113.00231838 224.37330246 C-111.00241946 224.91874923 -109.00128875 225.45967489 -107 226 C-106.33381968 226.18106985 -105.66763935 226.3621397 -104.98127174 226.54869652 C-93.01748434 229.2738648 -80.4801255 226.59192076 -70.1875 220.25 C-56.43358468 210.27654603 -52.98204159 195.32009327 -48.88671875 179.7109375 C-48.39954942 177.88357784 -47.91148788 176.05645584 -47.42260742 174.22955322 C-46.37854212 170.3209225 -45.3403855 166.41079011 -44.30697632 162.49932861 C-42.67273703 156.31394538 -41.02565492 150.1320297 -39.3762207 143.95068359 C-37.66072737 137.51958581 -35.94601738 131.08828567 -34.23576355 124.65579224 C-30.23818101 109.62205639 -26.2097588 94.59687602 -22.15625 79.578125 C-21.88139078 78.5597266 -21.60653156 77.5413282 -21.32334328 76.49206924 C-19.97017333 71.47919755 -18.61636404 66.46649886 -17.26211548 61.45391846 C-14.98838831 53.03787814 -12.71749429 44.62107373 -10.44702148 36.20415497 C-9.78955579 33.76724123 -9.13175085 31.33041929 -8.47387695 28.89361572 C-8.27076212 28.14080826 -8.06764729 27.38800079 -7.85837746 26.61238098 C-7.46624216 25.15934583 -7.07373658 23.70641054 -6.68082237 22.25358582 C-5.72355169 18.70866583 -4.77799948 15.16118206 -3.85147095 11.60809326 C-3.66828969 10.90915136 -3.48510843 10.21020947 -3.29637623 9.49008751 C-2.79669201 7.58004913 -2.30084135 5.66900902 -1.80525208 3.75790405 C-1 1 -1 1 0 0 Z " fill="#C7C7C6" transform="translate(406,204)"/>
<path d="M0 0 C9.33350566 1.69742584 18.43295066 4.1730555 27.58203125 6.6484375 C29.28531713 7.10703654 30.98866195 7.56541671 32.69206238 8.02359009 C36.25042213 8.98145782 39.80817247 9.94154697 43.36547852 10.90332031 C47.88949869 12.12633288 52.41482395 13.34443064 56.9406023 14.56091881 C60.45614511 15.50634308 63.97105743 16.45409412 67.48578453 17.40254593 C69.1523109 17.85203445 70.81900487 18.3009021 72.4858799 18.74909592 C80.11484066 20.80184053 87.7371234 22.87729963 95.31518555 25.11181641 C96.79573677 25.54779648 96.79573677 25.54779648 98.30619812 25.99258423 C106.98341318 29.23764964 112.15468504 35.80123917 116 44 C120.04109679 56.90093788 115.49251927 70.63877894 112.015625 83.08203125 C111.48613761 85.03107942 110.95835374 86.98059106 110.43214417 88.93052673 C109.01967991 94.14661982 107.58445864 99.3561946 106.14490128 104.56486511 C104.63429372 110.04692434 103.14561806 115.53493155 101.6550293 121.02246094 C99.24627284 129.88125028 96.82647755 138.73694346 94.39794922 147.59033203 C91.44902162 158.34365403 88.52827486 169.10431258 85.62890625 179.87109375 C85.32225981 181.00957827 85.32225981 181.00957827 85.00941849 182.17106247 C84.20136252 185.17122768 83.39334402 188.17140295 82.58558464 191.17164803 C81.21034844 196.27809798 79.82992426 201.38312445 78.44628906 206.48730469 C78.2497278 207.21244703 78.05316654 207.93758938 77.85064888 208.68470573 C77.45125896 210.1580248 77.05186075 211.63134162 76.65245438 213.10465622 C73.21363922 225.79039027 69.79484777 238.48134009 66.39274597 251.17697144 C64.54289665 258.07949074 62.68801807 264.98065585 60.83200932 271.88152122 C59.54575943 276.66529608 58.26220263 281.4497587 56.98501587 286.23596191 C55.79315552 290.70237279 54.59444581 295.16688985 53.39066505 299.63010216 C52.949137 301.27211346 52.51014355 302.91480879 52.0739193 304.55823708 C45.08948522 330.85484947 45.08948522 330.85484947 34.875 337.3515625 C18.44038391 345.75013469 1.13588536 338.88247659 -15.48302031 334.22886586 C-18.95107253 333.26224264 -22.42515748 332.3177806 -25.89859009 331.37071228 C-32.49290188 329.56919843 -39.08174025 327.74846382 -45.66875899 325.92048591 C-53.04100802 323.87554331 -60.4189343 321.85149881 -67.79752874 319.82959294 C-79.67688332 316.57401838 -91.55250128 313.30511577 -103.42480469 310.02392578 C-115.14460737 306.78497316 -126.86924235 303.56440616 -138.6015625 300.37109375 C-139.2802879 300.18631029 -139.95901329 300.00152683 -140.65830612 299.81114388 C-144.10521489 298.87290688 -147.55240655 297.9357179 -151 297 C-151 296.34 -151 295.68 -151 295 C-150.10102997 294.76292831 -149.20205994 294.52585663 -148.27584839 294.28160095 C-132.56146999 290.13714709 -116.84758164 285.99085404 -101.13745117 281.83032227 C-99.65721482 281.43831965 -99.65721482 281.43831965 -98.1470747 281.03839779 C-94.07833718 279.96083044 -90.00962083 278.88318341 -85.94099236 277.80520439 C-73.48816456 274.50600294 -61.03271191 271.21716262 -48.572258 267.94687557 C-40.65470633 265.86841434 -32.73962174 263.78073521 -24.8262558 261.68639469 C-20.11989356 260.44125511 -15.41240197 259.2008264 -10.70184326 257.97164917 C-6.26486999 256.81375145 -1.83137346 255.64337046 2.59986687 254.46372986 C4.21638678 254.0357226 5.83409311 253.61216476 7.45309639 253.19364929 C22.83705956 249.2119468 37.4856934 244.11544794 46.375 230.0625 C47.28417059 228.39316178 48.16175012 226.70605345 49 225 C49.3403125 224.31550781 49.680625 223.63101563 50.03125 222.92578125 C55.6200811 209.34181676 51.00588749 194.13473998 47.2265625 180.7578125 C46.72377481 178.91920461 46.22314375 177.0800058 45.72451782 175.24026489 C44.68362002 171.4071254 43.63320869 167.57678686 42.57580566 163.74816895 C40.30679831 155.50644658 38.15040936 147.23535395 35.98686981 138.96546173 C34.78347688 134.37193702 33.5711316 129.78077724 32.359375 125.18945312 C31.86651014 123.32105186 31.37367178 121.45264361 30.88085938 119.58422852 C30.51054596 118.18036392 30.51054596 118.18036392 30.13275146 116.74813843 C29.36136167 113.82328803 28.59029927 110.89835151 27.81933594 107.97338867 C22.66536401 88.42009036 17.5076213 68.86789907 12.29246902 49.33081436 C11.67468283 47.01635033 11.05730183 44.70177857 10.44003296 42.38717651 C8.74848683 36.04544194 7.05561145 29.70409071 5.35339928 23.36520958 C4.52457236 20.2754429 3.7002198 17.18448169 2.875 14.09375 C2.57937164 12.99833893 2.28374329 11.90292786 1.97915649 10.77432251 C1.58341934 9.28791763 1.58341934 9.28791763 1.1796875 7.77148438 C0.95007324 6.91566772 0.72045898 6.05985107 0.48388672 5.17810059 C0 3 0 3 0 0 Z " fill="#C7C7C6" transform="translate(293,78)"/>
</svg>
