<?xml version="1.0" encoding="UTF-8"?>
<svg version="1.1" xmlns="http://www.w3.org/2000/svg" width="512" height="512">
<path d="M0 0 C1.31647522 -0.00571014 2.63295044 -0.01142029 3.98931885 -0.01730347 C5.45179739 -0.01854882 6.91427604 -0.01967392 8.37675476 -0.02069092 C9.91424173 -0.02531935 11.45172755 -0.03034405 12.98921204 -0.03573608 C17.16905558 -0.04885979 21.34888306 -0.055305 25.52874398 -0.05974674 C28.1401181 -0.06267755 30.75148782 -0.06678238 33.36285973 -0.07125092 C41.53314993 -0.08492585 49.7034301 -0.09459249 57.87373096 -0.09845281 C67.30529852 -0.10293351 76.73672116 -0.12048198 86.16824466 -0.1494534 C93.45836284 -0.17106963 100.74844024 -0.18115706 108.03859013 -0.18249393 C112.39272995 -0.18354201 116.74673353 -0.18945048 121.10083961 -0.20731354 C125.19746268 -0.2237932 129.29384708 -0.2259503 133.39049149 -0.21717453 C134.89249625 -0.21640409 136.39451385 -0.2207478 137.89648628 -0.23063278 C139.95047999 -0.24335598 142.00362887 -0.23747443 144.05761719 -0.22705078 C145.20596196 -0.22851734 146.35430674 -0.2299839 147.53744984 -0.2314949 C151.81771976 0.26884225 155.19921577 1.72147078 158.36381531 4.67559814 C161.54718393 8.8384648 162.83839633 10.8802773 162.89286804 16.07403564 C162.90635788 17.10270752 162.91984772 18.13137939 162.93374634 19.19122314 C162.94940392 20.86764893 162.94940392 20.86764893 162.96537781 22.57794189 C162.99834035 24.94122651 163.03155155 27.30450767 163.06498718 29.66778564 C163.11222974 33.39578665 163.15660756 37.12377614 163.1960907 40.85186768 C163.2360714 44.44821522 163.2875784 48.04426279 163.34037781 51.64044189 C163.35299904 53.2925769 163.35299904 53.2925769 163.36587524 54.97808838 C163.66145566 73.69633278 170.80505177 82.47476582 183.25688171 95.58526611 C185.00014872 97.43912435 186.68262702 99.3382416 188.34428406 101.26544189 C191.23673355 104.61838085 194.21967498 107.88357992 197.21928406 111.14044189 C200.81946296 115.05020957 204.36346129 118.99910793 207.84428406 123.01544189 C210.26478912 125.75868096 212.74151362 128.44907773 215.21928406 131.14044189 C219.45654118 135.74916309 223.64203512 140.38948444 227.71928406 145.14044189 C228.54686218 146.07759033 229.37444031 147.01473877 230.22709656 147.98028564 C239.37566404 158.47973809 243.27829829 167.20364669 242.99272156 181.24591064 C242.25234325 191.79101307 237.35916621 199.46093528 230.05131531 206.82012939 C222.88999564 212.92226933 213.05735974 215.34292661 204.27397156 218.30059814 C203.28654968 218.63962158 202.29912781 218.97864502 201.28178406 219.32794189 C200.41682312 219.61024658 199.55186218 219.89255127 198.66069031 220.18341064 C198.02002625 220.49923096 197.37936218 220.81505127 196.71928406 221.14044189 C195.76096553 224.01539748 195.58325697 225.9042058 195.54350281 228.89434814 C195.51965515 229.83214111 195.4958075 230.76993408 195.47123718 231.73614502 C195.42886703 233.68645598 195.39729765 235.63703696 195.37748718 237.58770752 C195.0287724 249.50077777 190.44097438 258.81951185 181.85209656 266.99591064 C176.71234157 271.31949878 170.54026274 273.61532841 164.40678406 276.20294189 C162.05557333 277.21245018 159.70529672 278.22413712 157.35600281 279.23809814 C156.23629089 279.72036865 155.11657898 280.20263916 153.9629364 280.69952393 C149.46977925 282.69550568 145.08291977 284.87714536 140.71928406 287.14044189 C141.34383484 287.55294189 141.96838562 287.96544189 142.61186218 288.39044189 C145.48745744 290.29757243 148.35332507 292.21886379 151.21928406 294.14044189 C152.20154968 294.78884033 153.18381531 295.43723877 154.19584656 296.10528564 C161.84970211 301.25888172 169.73812928 306.74429968 173.65678406 315.39044189 C174.0370575 316.19997314 174.41733093 317.00950439 174.80912781 317.84356689 C176.71066018 322.64228377 176.96393438 327.12695938 177.03178406 332.26544189 C177.06078796 332.97442627 177.08979187 333.68341064 177.11967468 334.41387939 C177.24805062 345.39495993 171.03370045 354.60820166 165.64872742 363.79058838 C164.53642245 365.69500036 163.44699906 367.6113282 162.35795593 369.52911377 C155.54310087 381.32730175 147.49127057 391.48703473 133.87553406 395.18414307 C127.83235508 396.49234038 121.84728959 396.41911848 115.68803406 396.41387939 C113.16068582 396.4341612 110.6333421 396.45501184 108.10600281 396.47637939 C104.15625673 396.49898588 100.20668958 396.51546052 96.25688171 396.52130127 C92.42111105 396.53084655 88.5861274 396.56463747 84.75053406 396.60137939 C83.5784137 396.59633392 82.40629333 396.59128845 81.19865417 396.58609009 C72.81897899 396.68608676 67.14976844 398.52300876 60.00834656 402.74200439 C56.43303957 406.48814517 54.39290662 410.90794015 52.09428406 415.51544189 C51.57648376 416.52679199 51.05868347 417.53814209 50.52519226 418.58013916 C47.87195049 423.78220245 45.28605346 429.01466285 42.73881531 434.26934814 C42.26202332 435.24532959 41.78523132 436.22131104 41.29399109 437.22686768 C40.39611045 439.07224784 39.50957658 440.9232104 38.63676453 442.78057861 C35.47285313 449.30004121 31.84561008 456.38824476 24.8992157 459.33795166 C19.26930373 460.758721 13.62130495 460.50948006 7.84428406 460.51544189 C6.60291687 460.53993408 5.36154968 460.56442627 4.08256531 460.58966064 C-3.18135527 460.61286806 -8.17030538 460.19214782 -14.28071594 456.14044189 C-18.59371927 450.72154028 -19.40566324 446.82319503 -19.41493702 440.01570606 C-19.41728925 439.28188712 -19.41964148 438.54806818 -19.42206499 437.7920123 C-19.4287636 435.31372453 -19.42829651 432.83548908 -19.42788696 430.35719299 C-19.43118505 428.5701412 -19.4349105 426.78309014 -19.43902844 424.99604005 C-19.44906281 420.06997885 -19.45276754 415.14392984 -19.45541775 410.21785986 C-19.45931653 404.91095626 -19.46889514 399.60406235 -19.47763062 394.29716492 C-19.49740678 381.47364724 -19.50746256 368.65012875 -19.51635841 355.82659963 C-19.5207393 349.79117502 -19.52610661 343.75575129 -19.53134727 337.72032738 C-19.54836048 317.66316186 -19.56285544 297.60599689 -19.57009602 277.54882526 C-19.57200598 272.34214083 -19.5739263 267.13545639 -19.57588196 261.92877197 C-19.5763657 260.63464015 -19.57684944 259.34050833 -19.57734784 258.00716039 C-19.58565107 237.03531652 -19.61099254 216.06352964 -19.64346264 195.09171066 C-19.6765106 173.57161975 -19.69454272 152.05155782 -19.69774026 130.53144139 C-19.69990742 118.44413069 -19.70868625 106.35690309 -19.73420143 94.26961708 C-19.75587749 83.97712501 -19.76397409 73.68473623 -19.75423465 63.39222393 C-19.74968102 58.1396151 -19.75163792 52.88721951 -19.77099609 47.63463974 C-19.78856457 42.82620323 -19.78768146 38.01813653 -19.7720988 33.20969643 C-19.76971312 31.47008149 -19.77409585 29.73044137 -19.78592745 27.99086503 C-19.89002305 11.67541731 -19.89002305 11.67541731 -15.28071594 5.14044189 C-10.17057464 1.07318658 -6.42522855 0.01666027 0 0 Z " fill="#000000" transform="translate(45.28071594238281,25.85955810546875)"/>
<path d="M0 0 C5.69388671 3.33014821 10.27152275 7.65901556 14.89477539 12.32250977 C15.67715576 13.11133545 16.45953613 13.90016113 17.265625 14.71289062 C48.14435421 46.55174397 60.08250929 87.21697648 59.55102539 130.77172852 C59.08526381 154.86848439 51.57286062 177.12248258 40.20727539 198.13500977 C39.32362305 199.77663086 39.32362305 199.77663086 38.42211914 201.45141602 C30.97946263 214.72613139 20.59925746 225.74019712 10.01977539 236.57250977 C9.53283203 237.08088379 9.04588867 237.58925781 8.54418945 238.11303711 C4.74528078 241.94666837 1.07003037 244.64387251 -4.32006836 245.56860352 C-10.37432202 245.57841592 -13.92938106 244.83115087 -18.79272461 241.13500977 C-22.45795111 236.89106329 -24.08674374 232.71157255 -23.79272461 227.13500977 C-22.78423074 219.65381888 -18.13440643 216.05615508 -12.79272461 211.07250977 C-5.05458731 203.59669446 1.48487989 196.22813138 7.20727539 187.13500977 C7.83504883 186.19141602 8.46282227 185.24782227 9.10961914 184.27563477 C24.79967688 159.41873804 28.98515262 126.98992134 24.08227539 98.32250977 C18.16765695 72.87589553 5.99872941 51.17975561 -12.95678711 33.09204102 C-13.49907959 32.56932617 -14.04137207 32.04661133 -14.60009766 31.50805664 C-15.65758496 30.49570696 -16.7262515 29.49485932 -17.80761719 28.50805664 C-21.98054401 24.51877437 -23.60679734 20.66143021 -23.90991211 14.91235352 C-23.27711009 10.10509949 -22.04192857 6.89724593 -18.79272461 3.13500977 C-13.28849533 -1.04820449 -6.60902435 -3.1888565 0 0 Z " fill="#000000" transform="translate(404.792724609375,197.864990234375)"/>
<path d="M0 0 C2.09074194 1.5259044 3.90109997 3.16531828 5.75 4.9765625 C6.45511719 5.60691406 7.16023438 6.23726562 7.88671875 6.88671875 C25.8137185 23.62484243 37.11290169 48.15082876 38.0859375 72.66796875 C38.55340891 103.29638586 28.95155011 129.40696171 7.5 151.6015625 C3.50463996 155.63714428 -0.32132641 158.56224252 -6.06640625 159.375 C-15.48958633 159.29457457 -15.48958633 159.29457457 -19.25 155.9765625 C-23.76982865 151.25011311 -25.3151294 147.79507092 -25.578125 141.20703125 C-24.71821176 135.36166864 -21.33999071 131.81928908 -17.125 127.9765625 C-4.4827594 115.83563034 3.60151353 99.62897495 4.04248047 81.89892578 C4.20569755 63.16877095 -1.55738288 46.97746022 -14.25 32.9765625 C-16.58691604 30.63590739 -18.94344202 28.33265206 -21.3671875 26.08203125 C-24.90618878 22.12451737 -25.65847884 18.23035897 -25.5 12.9609375 C-24.78734649 7.30425029 -21.39737445 3.60551515 -17.25 -0.0234375 C-11.82761354 -1.83089965 -5.30655755 -2.41374666 0 0 Z " fill="#000000" transform="translate(363.25,241.0234375)"/>
<path d="M0 0 C3.3125 1.5625 3.3125 1.5625 6 4 C6.82371094 4.7115625 6.82371094 4.7115625 7.6640625 5.4375 C17.1754303 14.15276213 24.25175316 27.04909572 25.140625 40.05810547 C25.59600785 51.0077861 25.30601248 60.74826831 21 71 C20.67257812 71.85464844 20.34515625 72.70929688 20.0078125 73.58984375 C16.3019969 82.15108928 8.57128944 91.99918175 0 96 C-5.49675939 96.82118478 -10.43780554 96.72530457 -15.5 94.375 C-19.94772257 90.14966356 -22.63212743 86.36003534 -23.0859375 80.06640625 C-22.77797053 72.66120038 -18.71393496 68.3709444 -13.875 63.140625 C-9.08768709 57.67510942 -8.38804485 52.08645992 -8.58984375 45.05859375 C-9.66257029 37.05911872 -14.18232219 31.56827649 -19.48046875 25.796875 C-22.58387194 22.12704089 -23.21015129 18.65683901 -22.875 14 C-21.98611295 8.6462435 -19.3921755 5.32256672 -15.5 1.625 C-10.33292335 -0.77399987 -5.60208842 -0.7495208 0 0 Z " fill="#000000" transform="translate(308,272)"/>
</svg>
