<?xml version="1.0" encoding="UTF-8"?>
<svg version="1.1" xmlns="http://www.w3.org/2000/svg" width="960" height="480">
<path d="M0 0 C35.31 0 70.62 0 107 0 C107 4.29 107 8.58 107 13 C105.95199219 13.19335938 104.90398438 13.38671875 103.82421875 13.5859375 C102.44524407 13.84859934 101.06634151 14.11164 99.6875 14.375 C98.99720703 14.50132813 98.30691406 14.62765625 97.59570312 14.7578125 C94.16296686 15.42114318 91.94753542 16.03497639 89 18 C88.29875 18.33 87.5975 18.66 86.875 19 C84.82955462 19.85860158 84.82955462 19.85860158 84 22 C88.14470144 33.95382304 96.93196324 44.61135808 104 54.9375 C105.87770176 57.69514626 107.7533136 60.45420631 109.62890625 63.21328735 C110.87147217 65.04055561 112.11495487 66.8672008 113.359375 68.69320679 C119.97914879 78.41350585 126.49651269 88.20164875 133 98 C136.59564041 94.70442742 139.20188269 90.9404242 141.8515625 86.8828125 C142.53996719 85.84240311 142.53996719 85.84240311 143.24227905 84.78097534 C144.70763225 82.56521387 146.16676958 80.34545427 147.625 78.125 C149.53053486 75.22956851 151.43922078 72.33625292 153.3515625 69.4453125 C153.82164734 68.73450531 154.29173218 68.02369812 154.77606201 67.29135132 C158.64327578 61.47355533 162.66897597 55.78452674 166.77294922 50.13183594 C169.79233507 45.88576252 172.60675462 41.52710238 175.40625 37.1328125 C175.9321875 36.42898437 176.458125 35.72515625 177 35 C177.66 35 178.32 35 179 35 C179.48260467 27.48020572 179.48260467 27.48020572 176 21 C170.6756231 15.51427834 163.23450523 14.44690105 156 13 C156 8.71 156 4.42 156 0 C168.10841944 -0.02312178 180.21683367 -0.04091424 192.32527065 -0.05181217 C197.94707962 -0.05704136 203.56887353 -0.06413966 209.19067383 -0.07543945 C214.61118277 -0.08626706 220.0316772 -0.09227656 225.45219612 -0.09487724 C227.52514945 -0.09673172 229.59810194 -0.10035277 231.67104912 -0.10573006 C234.56383893 -0.1129388 237.45656796 -0.11399101 240.34936523 -0.11352539 C241.64840034 -0.1189183 241.64840034 -0.1189183 242.97367859 -0.12442017 C248.88594784 -0.11405216 248.88594784 -0.11405216 250 1 C250.09851171 2.83115883 250.12972629 4.66619933 250.125 6.5 C250.12757813 7.5003125 250.13015625 8.500625 250.1328125 9.53125 C250 12 250 12 249 13 C247.51075736 13.24948604 246.01215318 13.44362438 244.51171875 13.61328125 C243.58294922 13.72478516 242.65417969 13.83628906 241.69726562 13.95117188 C240.70404297 14.07041016 239.71082031 14.18964844 238.6875 14.3125 C230.35525394 15.37881316 222.77137649 16.70345358 215 20 C214.33613281 20.26941406 213.67226563 20.53882812 212.98828125 20.81640625 C211.15757016 21.58567578 211.15757016 21.58567578 209 23 C208.67 23.99 208.34 24.98 208 26 C207.360625 26.144375 206.72125 26.28875 206.0625 26.4375 C205.381875 26.623125 204.70125 26.80875 204 27 C203.29848848 28.3153341 202.63474075 29.65117592 202 31 C200.66666667 32 199.33333333 33 198 34 C197.30674516 35.31970449 196.64273471 36.6549668 196 38 C194.401077 40.6070159 192.69520543 43.14227013 191 45.6875 C190.54882812 46.37650391 190.09765625 47.06550781 189.6328125 47.77539062 C186.23966771 52.88016615 186.23966771 52.88016615 184 54 C183.32004804 55.66129093 182.6555198 57.32891771 182 59 C181.00289833 60.58918354 179.95447762 62.14688745 178.8671875 63.67578125 C178.23345215 64.57474121 177.5997168 65.47370117 176.94677734 66.39990234 C176.26309082 67.36105957 175.5794043 68.3222168 174.875 69.3125 C167.02482145 80.46480892 159.4195668 91.76561743 151.89599609 103.14013672 C149.27169234 107.0985573 146.63571345 111.04917049 144 115 C148.24767258 121.45986591 152.49817621 127.91786571 156.75 134.375 C157.39615265 135.35639954 158.0423053 136.33779907 158.70803833 137.34893799 C168.98618193 152.95538139 179.33639802 168.5122165 189.72366333 184.0461731 C196.87176297 194.74116158 203.9489673 205.46553678 210.78759766 216.36206055 C214.4896713 222.25338215 218.37324117 227.98114064 222.42578125 233.63671875 C224 236 224 236 225 239 C226.28965176 240.37562854 227.62689293 241.70766393 229 243 C229.45834229 243.50297607 229.91668457 244.00595215 230.38891602 244.52416992 C236.27820434 249.91904004 246.06839237 249.69512041 253.5625 250.1875 C254.66658203 250.26935547 255.77066406 250.35121094 256.90820312 250.43554688 C259.60473088 250.63399264 262.30228247 250.8184434 265 251 C265 255.29 265 259.58 265 264 C229.69 264 194.38 264 158 264 C158 259.71 158 255.42 158 251 C160.1346875 250.62875 160.1346875 250.62875 162.3125 250.25 C168.11458674 249.10452365 173.5041881 247.15235219 179 245 C180.23436199 240.76001674 180.68643593 238.38696969 178.69238281 234.35791016 C176.7551046 231.43657683 174.72727949 228.61742309 172.625 225.8125 C171.21421156 223.88672266 169.81026975 221.95590614 168.4140625 220.01953125 C167.7845166 219.17495361 167.1549707 218.33037598 166.50634766 217.46020508 C164.93762246 214.89812343 164.47388228 212.93587334 164 210 C162.7087646 208.37514541 162.7087646 208.37514541 161 207 C158.07690406 204.25943358 155.8941225 201.5226897 153.77734375 198.125 C153.1652002 197.15232178 152.55305664 196.17964355 151.92236328 195.17749023 C150.93985596 193.60463257 150.93985596 193.60463257 149.9375 192 C144.04781017 182.69229778 138.05812231 173.46041693 131.8989563 164.32836914 C131.04960833 163.06772475 130.20282369 161.80534955 129.35861206 160.54125977 C128.17565074 158.77144067 126.98381815 157.00796496 125.7890625 155.24609375 C125.10537598 154.23216553 124.42168945 153.2182373 123.71728516 152.17358398 C123.15058105 151.45630127 122.58387695 150.73901855 122 150 C121.34 150 120.68 150 120 150 C118.66438184 151.58890089 118.66438184 151.58890089 117.32421875 153.73828125 C116.4736792 155.03270142 116.4736792 155.03270142 115.60595703 156.35327148 C114.97286621 157.32981689 114.33977539 158.3063623 113.6875 159.3125 C112.26313595 161.47751277 110.83728317 163.64149908 109.41015625 165.8046875 C108.8098056 166.71682259 108.8098056 166.71682259 108.19732666 167.64738464 C102.39118565 176.4605559 96.50494032 185.2202413 90.6144104 193.97714233 C88.63188773 196.92725066 86.65516117 199.88118953 84.6784668 202.83520508 C83.44483003 204.67030741 82.2108759 206.50519646 80.9765625 208.33984375 C80.40324692 209.19921539 79.82993134 210.05858704 79.23924255 210.94400024 C78.44526817 212.12015396 78.44526817 212.12015396 77.63525391 213.32006836 C77.17277252 214.00934921 76.71029114 214.69863007 76.23379517 215.40879822 C75 217 75 217 73 218 C72.71125 218.721875 72.4225 219.44375 72.125 220.1875 C71 223 71 223 68.875 225.75 C66.42480627 229.99700246 66.40666583 233.209048 67 238 C67.9866438 241.49120114 69.09834535 243.79874475 72 246 C77.09402864 248.59695578 81.3383906 249.41431627 87 250 C90.77859468 253.77859468 88 260.65626015 88 266 C67.21 266 46.42 266 25 266 C24.67 268.31 24.34 270.62 24 273 C23.34 273 22.68 273 22 273 C21.37944623 280.32781584 20.79606276 287.65610572 20.28125 294.9921875 C19.99719613 298.02998582 19.53773625 300.99763928 19 304 C18.34 304 17.68 304 17 304 C16.27358508 308.03198919 15.56232854 312.06636072 14.86376953 316.10327148 C14.62519767 317.47017615 14.3828149 318.83642233 14.13623047 320.2019043 C12.66991098 328.33848121 11.737973 336.11114281 12.10742188 344.41918945 C11.98403643 347.38352473 11.12344096 348.87655904 9 351 C6.13005352 351.09793898 3.28416945 351.12992291 0.4138031 351.12025452 C-0.4976835 351.12110894 -1.4091701 351.12196337 -2.34827751 351.12284368 C-5.42694734 351.12450128 -8.50556364 351.11897256 -11.58422852 351.11352539 C-13.7813924 351.11324355 -15.97855638 351.11340118 -18.17572021 351.1139679 C-24.16101549 351.11425601 -30.14629091 351.10835713 -36.13158154 351.10139394 C-42.3789747 351.09516261 -48.62636826 351.09455678 -54.87376404 351.09336853 C-65.36628542 351.09060884 -75.85880063 351.08435334 -86.35131836 351.07543945 C-97.16056278 351.06626601 -107.96980521 351.05918485 -118.77905273 351.05493164 C-119.77780867 351.05453756 -119.77780867 351.05453756 -120.79674149 351.05413551 C-124.13691874 351.05283051 -127.47709599 351.05156904 -130.81727326 351.05032361 C-158.54485394 351.03985773 -186.27242646 351.02225702 -214 351 C-214 346.38 -214 341.76 -214 337 C-212.15535156 336.96261719 -210.31070313 336.92523438 -208.41015625 336.88671875 C-205.96091814 336.82103037 -203.51170028 336.75458404 -201.0625 336.6875 C-199.85013672 336.66494141 -198.63777344 336.64238281 -197.38867188 336.61914062 C-190.32086046 336.40844706 -184.57124664 335.64409385 -178 333 C-177.18764973 327.31244504 -176.8550755 321.81530367 -176.86628723 316.07469177 C-176.8628889 314.77940279 -176.8628889 314.77940279 -176.85942191 313.45794636 C-176.85312456 310.58319713 -176.8539085 307.70849557 -176.85473633 304.83374023 C-176.85174227 302.76512593 -176.84833918 300.69651219 -176.84455872 298.62789917 C-176.83574206 293.02270676 -176.83338165 287.41752963 -176.83274293 281.81233096 C-176.83203139 278.30926845 -176.82989514 274.80620981 -176.82724571 271.30314827 C-176.81800178 259.07945637 -176.81390985 246.85577536 -176.81469727 234.63208008 C-176.81529861 223.24061404 -176.80473323 211.84919527 -176.7889536 200.4577412 C-176.77588095 190.67156198 -176.77051322 180.88539821 -176.77115268 171.09921032 C-176.77140764 165.25676596 -176.7685571 159.41436368 -176.75797462 153.57192802 C-176.7482977 148.07996263 -176.74821171 142.58807959 -176.75549126 137.0961113 C-176.75653742 135.08173439 -176.75417231 133.06735236 -176.7481308 131.05298424 C-176.74041288 128.30133411 -176.74505433 125.54996858 -176.75276184 122.79832458 C-176.7450465 121.60560972 -176.7450465 121.60560972 -176.73717529 120.38879961 C-176.77131992 114.86482778 -176.8982934 109.1017066 -181 105 C-187.20912779 100.86058147 -195.68478653 101.71212168 -202.9375 101.4375 C-204.53561523 101.37272461 -204.53561523 101.37272461 -206.16601562 101.30664062 C-208.77723443 101.20125511 -211.38853746 101.09912912 -214 101 C-214.02693575 98.87506859 -214.04636628 96.75004088 -214.0625 94.625 C-214.07410156 93.44164062 -214.08570313 92.25828125 -214.09765625 91.0390625 C-214 88 -214 88 -213 86 C-204.75 86 -196.5 86 -188 86 C-187.51892996 70.24495628 -188.58365109 54.95595442 -194 40 C-194.66 40 -195.32 40 -196 40 C-199.875 33.375 -199.875 33.375 -201 30 C-201.99 29.01 -201.99 29.01 -203 28 C-203.9590625 26.824375 -203.9590625 26.824375 -204.9375 25.625 C-216.32936993 14.33305875 -240.24412459 16.03633199 -255.1875 15.875 C-262.14097026 15.93367907 -269.0691518 16.46977118 -276 17 C-276 17.66 -276 18.32 -276 19 C-276.66 19.33 -277.32 19.66 -278 20 C-278.99 21.485 -278.99 21.485 -280 23 C-280.33 23 -280.66 23 -281 23 C-281 94.28 -281 165.56 -281 239 C-280.34 239 -279.68 239 -279 239 C-279.1546875 240.1446875 -279.1546875 240.1446875 -279.3125 241.3125 C-279.29058112 244.12919399 -279.29058112 244.12919399 -277.0625 245.6875 C-270.17395249 248.63973465 -263.01198394 249.32525361 -255.58984375 249.6328125 C-254.31047691 249.69515579 -254.31047691 249.69515579 -253.00526428 249.75875854 C-250.31629459 249.88813369 -247.6269797 250.00675459 -244.9375 250.125 C-243.09957559 250.21152487 -241.26168438 250.29875801 -239.42382812 250.38671875 C-234.94956038 250.59932651 -230.47495022 250.80229995 -226 251 C-226 255.29 -226 259.58 -226 264 C-274.51 264 -323.02 264 -373 264 C-373 259.71 -373 255.42 -373 251 C-371.88141602 250.95512451 -370.76283203 250.91024902 -369.61035156 250.86401367 C-365.40516623 250.69197921 -361.20084565 250.50345939 -356.99658203 250.31030273 C-355.18720317 250.2294034 -353.3776264 250.15279881 -351.56787109 250.08081055 C-336.4442264 249.85099755 -336.4442264 249.85099755 -322 246 C-320.07717996 243.00365304 -320.07717996 243.00365304 -320 240 C-319.34 240 -318.68 240 -318 240 C-318 168.06 -318 96.12 -318 22 C-318.66 22 -319.32 22 -320 22 C-323 18.42307692 -323 18.42307692 -323 17 C-332.01722448 16.31015769 -340.95186682 15.75195821 -350 16 C-350.66370605 16.01788574 -351.32741211 16.03577148 -352.01123047 16.05419922 C-374.10182542 16.54596455 -374.10182542 16.54596455 -394 25 C-395.95500857 27.52980707 -395.95500857 27.52980707 -397 30 C-397.99 30.66 -398.98 31.32 -400 32 C-400.73519522 33.97583715 -401.39072482 35.98177598 -402 38 C-404.54271357 44.77135678 -404.54271357 44.77135678 -407 46 C-406.979375 47.216875 -406.95875 48.43375 -406.9375 49.6875 C-406.93175884 52.91977322 -407.21233685 55.84934741 -408 59 C-408.66 59 -409.32 59 -410 59 C-411.32 69.23 -412.64 79.46 -414 90 C-417.63 90 -421.26 90 -425 90 C-422.69 61.29 -420.38 32.58 -418 3 C-388.09647715 2.82850297 -358.19294185 2.66415671 -328.28929714 2.51568707 C-324.76187479 2.49816459 -321.23445289 2.48055464 -317.70703125 2.46289062 C-317.0047614 2.45937539 -316.30249155 2.45586015 -315.57894079 2.4522384 C-304.1959375 2.39505159 -292.81298469 2.33077235 -281.43003471 2.263889 C-269.75702936 2.19545859 -258.08400298 2.13476097 -246.41092145 2.08085597 C-239.85140603 2.05031792 -233.29195189 2.01620816 -226.73250198 1.97373581 C-220.56520569 1.93391287 -214.39793509 1.90339908 -208.23055458 1.88018608 C-205.96089536 1.869973 -203.69124885 1.85628829 -201.42163277 1.83896446 C-198.33505201 1.81591161 -195.24866941 1.80507945 -192.16201782 1.79745483 C-191.25347066 1.7877382 -190.34492349 1.77802157 -189.40884459 1.7680105 C-183.22824242 1.77175758 -183.22824242 1.77175758 -181 4 C-180.53170776 6.89797974 -180.53170776 6.89797974 -180.22216797 10.65283203 C-180.16335449 11.33587402 -180.10454102 12.01891602 -180.04394531 12.72265625 C-179.8514132 14.98374346 -179.67176863 17.24566289 -179.4921875 19.5078125 C-179.36131523 21.07443759 -179.22964199 22.64099597 -179.09719849 24.20748901 C-178.75054792 28.3332497 -178.41480909 32.45982905 -178.08129883 36.58666992 C-177.73914272 40.79660727 -177.38672424 45.0056838 -177.03515625 49.21484375 C-176.34669722 57.4757526 -175.66975794 65.73755403 -175 74 C-174.34 74 -173.68 74 -173 74 C-173 77.96 -173 81.92 -173 86 C-171.64356274 85.99585193 -171.64356274 85.99585193 -170.25972271 85.99162006 C-148.27743068 85.925427 -126.29515578 85.87575199 -104.31278515 85.84456348 C-93.68236403 85.82908088 -83.05200934 85.80796478 -72.42163086 85.77368164 C-63.158442 85.74382189 -53.89530124 85.72443514 -44.63206559 85.71773452 C-39.72520737 85.71381644 -34.81848679 85.70457959 -29.91167259 85.68280983 C-25.29638931 85.66249873 -20.68130082 85.65615526 -16.0659771 85.66067696 C-14.36920362 85.65984934 -12.67242386 85.65385173 -10.97568893 85.64238358 C-8.66435214 85.62752325 -6.35375706 85.63102227 -4.04240417 85.63923645 C-2.74728503 85.63647107 -1.45216589 85.63370569 -0.11780071 85.63085651 C3 86 3 86 4.89387512 87.31591797 C6.72419674 90.10259406 6.88382201 93.22507147 7.25854492 96.46557617 C7.35651871 97.22369598 7.45449249 97.9818158 7.55543518 98.76290894 C7.87632011 101.27152323 8.17862805 103.78199753 8.48046875 106.29296875 C8.69940007 108.040839 8.91932925 109.78858452 9.14021301 111.53620911 C9.60096762 115.20297877 10.05318624 118.87066414 10.4987793 122.53930664 C11.0683051 127.22691869 11.65323316 131.91243521 12.24392223 136.5974226 C12.69855838 140.20956104 13.14772571 143.82236173 13.5949955 147.43541908 C13.80887602 149.16220015 14.02377583 150.88885529 14.23973656 152.61537743 C14.541464 155.03881024 14.83651549 157.46296443 15.12963867 159.88745117 C15.21843292 160.59268417 15.30722717 161.29791718 15.39871216 162.02452087 C15.95738146 166.724407 16.07354385 171.27761812 16 176 C11.71 176 7.42 176 3 176 C2.74605469 174.26234375 2.49210937 172.5246875 2.23046875 170.734375 C1.88312066 168.406204 1.53544697 166.07808157 1.1875 163.75 C0.9390332 162.04070312 0.9390332 162.04070312 0.68554688 160.296875 C-0.45353365 152.73166094 -2.00220441 145.38502439 -4 138 C-4.66 138 -5.32 138 -6 138 C-7.80317221 134.03302114 -8.49202991 130.3177458 -9 126 C-9.99 125.67 -10.98 125.34 -12 125 C-12.4021875 123.948125 -12.4021875 123.948125 -12.8125 122.875 C-15.90802897 115.38056144 -21.3100474 111.70341079 -28.515625 108.3515625 C-43.488307 102.54377329 -58.44026888 101.84289759 -74.33203125 101.8671875 C-75.89759842 101.86651251 -77.46316549 101.86554086 -79.0287323 101.86428833 C-82.29056813 101.86282271 -85.55237638 101.86493059 -88.81420898 101.86962891 C-92.98806588 101.87534932 -97.16185879 101.87202544 -101.33571339 101.86605644 C-104.56050599 101.86244027 -107.78528346 101.86359387 -111.01007652 101.86618423 C-112.54941503 101.86684935 -114.08875493 101.86603965 -115.62809181 101.86370468 C-117.77659373 101.86115818 -119.9249921 101.8650458 -122.07348633 101.87060547 C-123.29352859 101.87140106 -124.51357086 101.87219666 -125.77058411 101.87301636 C-128.64221237 101.98593146 -131.21096243 102.33628363 -134 103 C-135.89619543 108.62101053 -136.3040587 113.60610548 -136.31884766 119.51538086 C-136.32889328 120.44299225 -136.3389389 121.37060364 -136.34928894 122.32632446 C-136.38001885 125.37249163 -136.39712772 128.41857132 -136.4140625 131.46484375 C-136.43278234 133.58477018 -136.45235636 135.70468921 -136.4727478 137.82460022 C-136.5239887 143.38937009 -136.56365749 148.9541641 -136.60089111 154.51904297 C-136.64098119 160.20351086 -136.6920507 165.88787904 -136.7421875 171.57226562 C-136.83885158 182.71477362 -136.92328681 193.85733803 -137 205 C-129.77763004 205.10194982 -122.5554477 205.17169539 -115.33251953 205.21972656 C-112.87867294 205.23976324 -110.42487363 205.26700032 -107.97119141 205.30175781 C-104.43119597 205.35062498 -100.89183532 205.3730492 -97.3515625 205.390625 C-96.26573883 205.41127014 -95.17991516 205.43191528 -94.06118774 205.45318604 C-87.2334601 205.4551689 -80.87378829 204.77370039 -75 201 C-73.84366405 198.97789004 -73.84366405 198.97789004 -73 197 C-72.34 196.67 -71.68 196.34 -71 196 C-66.50214018 186.03724049 -66.80471228 173.72634136 -66 163 C-61.71 163 -57.42 163 -53 163 C-53 196.99 -53 230.98 -53 266 C-56.63 266 -60.26 266 -64 266 C-64.04898437 265.00097656 -64.09796875 264.00195312 -64.1484375 262.97265625 C-64.26058594 261.03712891 -64.26058594 261.03712891 -64.375 259.0625 C-64.44460938 257.77472656 -64.51421875 256.48695313 -64.5859375 255.16015625 C-64.72257812 254.11730469 -64.85921875 253.07445312 -65 252 C-65.66 251.67 -66.32 251.34 -67 251 C-67 247.04 -67 243.08 -67 239 C-67.66 239 -68.32 239 -69 239 C-69.2475 237.948125 -69.495 236.89625 -69.75 235.8125 C-70.86645293 232.07087398 -72.07115129 229.70918505 -75 227 C-94.22841129 219.30863548 -116.29036724 223 -137 223 C-136.67 259.63 -136.34 296.26 -136 334 C-131.82113103 336.08943449 -128.9822385 336.29046358 -124.47192383 336.2746582 C-123.71836105 336.27976913 -122.96479828 336.28488007 -122.18840027 336.29014587 C-119.69452976 336.30405086 -117.20093597 336.30308202 -114.70703125 336.30078125 C-112.9598531 336.30467256 -111.21267588 336.30900812 -109.46549988 336.31376648 C-105.79443306 336.32123419 -102.12346233 336.32093698 -98.45239258 336.31567383 C-93.79513776 336.30993048 -89.13828733 336.32668163 -84.48109913 336.3500185 C-80.86461666 336.36491995 -77.24822734 336.36560466 -73.63171959 336.36250877 C-71.91807961 336.36301553 -70.20443349 336.36812903 -68.49082375 336.37832069 C-48.89475797 336.48041277 -26.28219914 334.85795199 -11.41015625 320.4609375 C-8.78447434 317.49277534 -7.44102549 314.6301792 -6 311 C-4.71082787 308.2694593 -3.35623784 305.57273397 -2 302.875 C-1.64421875 302.15957031 -1.2884375 301.44414062 -0.921875 300.70703125 C-0.40367187 299.67255859 -0.40367187 299.67255859 0.125 298.6171875 C0.43695312 297.99440918 0.74890625 297.37163086 1.0703125 296.72998047 C2 295 2 295 4 292 C4.3721042 290.67696283 4.70630173 289.34262065 5 288 C5.5471555 286.35853351 6.10059005 284.71892265 6.68359375 283.08984375 C8.65922015 277.44958391 9.9236639 271.87845101 11 266 C5.72 266 0.44 266 -5 266 C-5 261.05 -5 256.1 -5 251 C-1.98993723 249.99664574 0.75606143 249.72000255 3.90234375 249.45629883 C18.92684936 248.13602977 33.54677333 244.6273271 44 232.875 C46.07022741 230.14112477 46.07022741 230.14112477 47.0625 227.25 C48 225 48 225 50.0625 224 C50.701875 223.67 51.34125 223.34 52 223 C52.11037598 222.30358398 52.22075195 221.60716797 52.33447266 220.88964844 C53.2395381 216.95995125 55.34000953 214.0435153 57.5859375 210.765625 C58.04352448 210.08699402 58.50111145 209.40836304 58.9725647 208.70916748 C59.93863389 207.28109024 60.90880846 205.85578267 61.8828125 204.43310547 C63.37419589 202.25117643 64.84794842 200.05807613 66.3203125 197.86328125 C67.26198695 196.47586021 68.20466132 195.08911721 69.1484375 193.703125 C69.58916595 193.0458844 70.02989441 192.3886438 70.48397827 191.71148682 C73.65498171 187.1150061 73.65498171 187.1150061 77 186 C77.07943848 185.31067383 77.15887695 184.62134766 77.24072266 183.91113281 C78.19583198 180.24916382 80.03308482 177.49984304 82.1484375 174.421875 C82.76822983 173.50381073 82.76822983 173.50381073 83.40054321 172.56719971 C84.27245177 171.28035006 85.14846544 169.9962734 86.02832031 168.71484375 C87.37486477 166.75019731 88.70372865 164.7744105 90.03125 162.796875 C90.88177885 161.54617145 91.73330738 160.29614702 92.5859375 159.046875 C93.18140884 158.15944611 93.18140884 158.15944611 93.78890991 157.25408936 C96.65496012 153.11501329 96.65496012 153.11501329 100 152 C101.12085312 149.6569191 101.12085312 149.6569191 102 147 C103.79314665 143.03706402 106.33515565 139.76900345 108.953125 136.31640625 C110.27795457 134.05581419 110.27795457 134.05581419 109.34887695 131.78491211 C107.68413578 128.34786187 105.62729028 125.26003001 103.46484375 122.125 C102.56427526 120.7969956 101.66389017 119.46886681 100.76367188 118.140625 C99.34887391 116.06503056 97.9315094 113.99126776 96.51049805 111.91992188 C95.13404033 109.90966004 93.76770827 107.89280638 92.40234375 105.875 C91.97630356 105.26027832 91.55026337 104.64555664 91.11131287 104.01220703 C88.88165568 100.70575965 87.43347684 97.99118742 87 94 C86.01 93.67 85.02 93.34 84 93 C82.60117734 90.9864481 81.3580632 88.98847731 80.125 86.875 C76.50912871 80.85336998 72.68001615 75.00473517 68.70703125 69.21484375 C68.23658386 68.52807556 67.76613647 67.84130737 67.28143311 67.13372803 C65.35426283 64.32346536 63.42523617 61.51467737 61.48126221 58.71600342 C60.09373446 56.71777657 58.71618794 54.71297078 57.33984375 52.70703125 C56.91733841 52.10543686 56.49483307 51.50384247 56.05952454 50.88401794 C53.83251728 47.62078377 52.43435464 44.95091204 52 41 C51.01 40.67 50.02 40.34 49 40 C47.36716722 37.77632042 45.88757769 35.58715622 44.4375 33.25 C44.03853516 32.62867188 43.63957031 32.00734375 43.22851562 31.3671875 C41.52379894 28.66923855 40.06426605 26.16373083 38.89453125 23.18359375 C37.50411092 19.78951093 35.13575972 18.74878908 32 17 C27.85734194 15.41762983 24.14303738 14.67327982 19.7265625 14.3671875 C18.57285156 14.28339844 17.41914062 14.19960937 16.23046875 14.11328125 C14.44576172 13.99533203 14.44576172 13.99533203 12.625 13.875 C11.41199219 13.78863281 10.19898438 13.70226562 8.94921875 13.61328125 C5.96662936 13.40191665 2.98337124 13.20002632 0 13 C0 8.71 0 4.42 0 0 Z M-405 38 C-404 40 -404 40 -404 40 Z M-409 49 C-408 53 -408 53 -408 53 Z M-187 76 C-187 79.3 -187 82.6 -187 86 C-186.67 86 -186.34 86 -186 86 C-186 82.7 -186 79.4 -186 76 C-186.33 76 -186.66 76 -187 76 Z M5 97 C5 99.31 5 101.62 5 104 C5.33 104 5.66 104 6 104 C6 101.69 6 99.38 6 97 C5.67 97 5.34 97 5 97 Z M6 105 C6 107.31 6 109.62 6 112 C6.33 112 6.66 112 7 112 C7 109.69 7 107.38 7 105 C6.67 105 6.34 105 6 105 Z M-138 107 C-137 109 -137 109 -137 109 Z M-176 110 C-175 113 -175 113 -175 113 Z M-139 110 C-139 141.35 -139 172.7 -139 205 C-138.67 205 -138.34 205 -138 205 C-138 173.65 -138 142.3 -138 110 C-138.33 110 -138.66 110 -139 110 Z M-175 113 C-175 182.96 -175 252.92 -175 325 C-174.67 325 -174.34 325 -174 325 C-174 255.04 -174 185.08 -174 113 C-174.33 113 -174.66 113 -175 113 Z M7 113 C7 115.31 7 117.62 7 120 C7.33 120 7.66 120 8 120 C8 117.69 8 115.38 8 113 C7.67 113 7.34 113 7 113 Z M8 121 C8 123.31 8 125.62 8 128 C8.33 128 8.66 128 9 128 C9 125.69 9 123.38 9 121 C8.67 121 8.34 121 8 121 Z M9 129 C9 131.31 9 133.62 9 136 C9.33 136 9.66 136 10 136 C10 133.69 10 131.38 10 129 C9.67 129 9.34 129 9 129 Z M-7 131 C-6 133 -6 133 -6 133 Z M112 132 C113 134 113 134 113 134 Z M10 137 C10 139.31 10 141.62 10 144 C10.33 144 10.66 144 11 144 C11 141.69 11 139.38 11 137 C10.67 137 10.34 137 10 137 Z M11 145 C11 147.31 11 149.62 11 152 C11.33 152 11.66 152 12 152 C12 149.69 12 147.38 12 145 C11.67 145 11.34 145 11 145 Z M12 153 C12 155.31 12 157.62 12 160 C12.33 160 12.66 160 13 160 C13 157.69 13 155.38 13 153 C12.67 153 12.34 153 12 153 Z M13 161 C13 163.31 13 165.62 13 168 C13.33 168 13.66 168 14 168 C14 165.69 14 163.38 14 161 C13.67 161 13.34 161 13 161 Z M-66 177 C-66 179.64 -66 182.28 -66 185 C-65.67 185 -65.34 185 -65 185 C-65 182.36 -65 179.72 -65 177 C-65.33 177 -65.66 177 -66 177 Z M-67 185 C-66 187 -66 187 -66 187 Z M-137 206 C-137 206.33 -137 206.66 -137 207 C-121.82 207 -106.64 207 -91 207 C-91 206.67 -91 206.34 -91 206 C-106.18 206 -121.36 206 -137 206 Z M-137 221 C-137 221.33 -137 221.66 -137 222 C-121.82 222 -106.64 222 -91 222 C-91 221.67 -91 221.34 -91 221 C-106.18 221 -121.36 221 -137 221 Z M-139 223 C-139 257.98 -139 292.96 -139 329 C-138.67 329 -138.34 329 -138 329 C-138 294.02 -138 259.04 -138 223 C-138.33 223 -138.66 223 -139 223 Z M64 230 C64 232.64 64 235.28 64 238 C64.33 238 64.66 238 65 238 C65 235.36 65 232.72 65 230 C64.67 230 64.34 230 64 230 Z M182 237 C183 240 183 240 183 240 Z M181 242 C182 244 182 244 182 244 Z M19 285 C19 286.98 19 288.96 19 291 C19.33 291 19.66 291 20 291 C20 289.02 20 287.04 20 285 C19.67 285 19.34 285 19 285 Z M18 292 C18 293.65 18 295.3 18 297 C18.33 297 18.66 297 19 297 C19 295.35 19 293.7 19 292 C18.67 292 18.34 292 18 292 Z M3 295 C4 297 4 297 4 297 Z M2 298 C3 300 3 300 3 300 Z M0 302 C1 304 1 304 1 304 Z M-176 325 C-175 328 -175 328 -175 328 Z M-138 329 C-137 331 -137 331 -137 331 Z M10 341 C10 342.65 10 344.3 10 346 C10.33 346 10.66 346 11 346 C11 344.35 11 342.7 11 341 C10.67 341 10.34 341 10 341 Z " fill="#000000" transform="translate(695,68)"/>
<path d="M0 0 C40.59 0 81.18 0 123 0 C123 4.29 123 8.58 123 13 C120.42832031 13.07347656 120.42832031 13.07347656 117.8046875 13.1484375 C97.47609165 13.12405 97.47609165 13.12405 78 18 C77.67 20.64 77.34 23.28 77 26 C76.34 26 75.68 26 75 26 C75 96.95 75 167.9 75 241 C75.66 241 76.32 241 77 241 C77.12375 242.134375 77.2475 243.26875 77.375 244.4375 C77.684375 246.2009375 77.684375 246.2009375 78 248 C86.00288944 252.00144472 97.9861779 250.2012082 106.8125 250.1875 C107.97526962 250.18609512 107.97526962 250.18609512 109.16152954 250.18466187 C142.40758066 250.52604138 142.40758066 250.52604138 172 237 C174.36702059 233.95202627 174.36702059 233.95202627 176 231 C177.32392972 229.98758315 178.65599167 228.98560611 180 228 C180.350625 227.29875 180.70125 226.5975 181.0625 225.875 C182 224 182 224 185 223 C185.1546875 221.7315625 185.1546875 221.7315625 185.3125 220.4375 C186.0828854 216.58557299 187.36274514 213.55924969 189 210 C189.66 210 190.32 210 191 210 C191.33 207.03 191.66 204.06 192 201 C192.66 201 193.32 201 194 201 C194.86859084 193.67902003 195.46589137 186.35251669 196 179 C196.66 179 197.32 179 198 179 C198.13277344 177.92878906 198.26554688 176.85757813 198.40234375 175.75390625 C198.5805056 174.35674231 198.75890319 172.95960841 198.9375 171.5625 C199.02451172 170.85544922 199.11152344 170.14839844 199.20117188 169.41992188 C199.88671875 164.11328125 199.88671875 164.11328125 201 163 C204.33618231 162.85742811 207.65975606 162.95771843 211 163 C209.01335879 196.77290056 204.60415201 230.36124789 201 264 C134.67 264 68.34 264 0 264 C0 259.71 0 255.42 0 251 C1.85625 250.89042969 3.7125 250.78085937 5.625 250.66796875 C8.08337516 250.50845586 10.54170632 250.3482638 13 250.1875 C14.22074219 250.11724609 15.44148437 250.04699219 16.69921875 249.97460938 C23.33832901 249.52602084 28.98134659 248.9281929 35 246 C36.35439668 243.29120665 36.06501451 240.99066732 36 238 C36.66 238.33 37.32 238.66 38 239 C38 168.38 38 97.76 38 25 C37.34 25 36.68 25 36 25 C35.71125 24.05125 35.4225 23.1025 35.125 22.125 C33.71618854 18.21163483 32.4534184 17.30227893 29 15 C22.704223 13.93899294 16.37169542 13.70555063 10 13.4375 C9.03449219 13.39431641 8.06898437 13.35113281 7.07421875 13.30664062 C4.71627081 13.20158354 2.35815116 13.1003923 0 13 C0 8.71 0 4.42 0 0 Z M196 187 C196 188.65 196 190.3 196 192 C196.33 192 196.66 192 197 192 C197 190.35 197 188.7 197 187 C196.67 187 196.34 187 196 187 Z M192 205 C193 207 193 207 193 207 Z M189 213 C190 215 190 215 190 215 Z " fill="#000000" transform="translate(0,68)"/>
<path d="M0 0 C0.76183594 -0.00515625 1.52367187 -0.0103125 2.30859375 -0.015625 C4.9417017 0.29468928 6.39341798 0.70644163 8.5625 2.25 C11.91709562 8.2087022 13.86976414 14.46118862 14.5625 21.25 C15.53799761 24.06862203 15.53799761 24.06862203 16.5625 26.25 C17.2225 26.25 17.8825 26.25 18.5625 26.25 C18.5625 27.9 18.5625 29.55 18.5625 31.25 C19.2225 31.25 19.8825 31.25 20.5625 31.25 C22.23890918 35.53513447 23.91111816 39.82187613 25.57958984 44.11010742 C26.14681967 45.56627709 26.71516048 47.02201454 27.28466797 48.47729492 C28.106826 50.57876541 28.92487031 52.68179904 29.7421875 54.78515625 C29.99435028 55.42711441 30.24651306 56.06907257 30.50631714 56.73048401 C32.72197503 62.45298903 34.46445045 68.21072746 35.5625 74.25 C36.2225 74.25 36.8825 74.25 37.5625 74.25 C37.69270833 76.17057292 37.82291667 78.09114583 37.953125 80.01171875 C38.43747525 82.41255884 38.43747525 82.41255884 40.40063477 84.42358398 C42.86822922 87.64970945 44.31129741 90.95894029 45.76171875 94.7109375 C46.04223587 95.41973053 46.32275299 96.12852356 46.61177063 96.85879517 C47.19997129 98.35144862 47.78381967 99.84582374 48.36352539 101.34179688 C49.24638856 103.61569837 50.14651017 105.88219626 51.04882812 108.1484375 C51.62083888 109.6063604 52.19183626 111.06468138 52.76171875 112.5234375 C53.02836838 113.19345795 53.29501801 113.86347839 53.56974792 114.55380249 C55.19405014 118.78408625 56.0139421 122.7636656 56.5625 127.25 C57.53799761 130.06862203 57.53799761 130.06862203 58.5625 132.25 C59.2225 132.25 59.8825 132.25 60.5625 132.25 C60.500625 133.013125 60.43875 133.77625 60.375 134.5625 C60.2499399 137.24117733 60.2499399 137.24117733 61.86669922 138.42993164 C64.4435612 141.195625 65.52872101 144.58617099 66.8828125 148.05859375 C67.33900467 149.2032888 67.33900467 149.2032888 67.80441284 150.37110901 C68.44502204 151.98270041 69.0819128 153.5957742 69.71533203 155.21020508 C70.68372913 157.67789101 71.66306763 160.14100127 72.64453125 162.60351562 C73.26626974 164.17161952 73.8873845 165.73997089 74.5078125 167.30859375 C74.94530319 168.41188271 74.94530319 168.41188271 75.39163208 169.53746033 C76.64982122 172.74995729 77.77583144 175.89214364 78.5625 179.25 C86.19850985 181.02541538 93.7437896 181.78430878 101.5625 182.25 C101.5625 185.88 101.5625 189.51 101.5625 193.25 C76.1525 193.25 50.7425 193.25 24.5625 193.25 C24.5625 189.62 24.5625 185.99 24.5625 182.25 C25.58730469 182.12882813 26.61210937 182.00765625 27.66796875 181.8828125 C29.02868979 181.71389541 30.3893645 181.5446048 31.75 181.375 C32.42353516 181.29636719 33.09707031 181.21773437 33.79101562 181.13671875 C37.66577484 180.64528587 41.01334723 179.89019099 44.5625 178.25 C44.5625 175.61 44.5625 172.97 44.5625 170.25 C43.9025 170.25 43.2425 170.25 42.5625 170.25 C42.5625 168.6 42.5625 166.95 42.5625 165.25 C41.9025 165.25 41.2425 165.25 40.5625 165.25 C40.5625 163.6 40.5625 161.95 40.5625 160.25 C39.9025 160.25 39.2425 160.25 38.5625 160.25 C38.43875 159.033125 38.315 157.81625 38.1875 156.5625 C37.77358694 153.18520941 37.01676549 150.35243305 35.5625 147.25 C34.9025 147.25 34.2425 147.25 33.5625 147.25 C31.95894899 143.74223216 31.34213136 141.10645121 31.5625 137.25 C30.9025 137.25 30.2425 137.25 29.5625 137.25 C29.2325 136.26 28.9025 135.27 28.5625 134.25 C4.4725 133.92 -19.6175 133.59 -44.4375 133.25 C-44.7675 133.91 -45.0975 134.57 -45.4375 135.25 C-45.7675 135.91 -46.0975 136.57 -46.4375 137.25 C-46.7675 138.24 -47.0975 139.23 -47.4375 140.25 C-48.0975 140.91 -48.7575 141.57 -49.4375 142.25 C-49.66998642 144.17839182 -49.89854928 146.10742724 -50.09765625 148.03955078 C-50.65196998 151.64497931 -52.01915165 154.84568396 -53.4375 158.1875 C-53.71078125 158.85845703 -53.9840625 159.52941406 -54.265625 160.22070312 C-56.27221386 165.08471386 -56.27221386 165.08471386 -57.4375 166.25 C-57.48889158 168.51798259 -57.48889158 168.51798259 -57.25 171.125 C-57.19457031 172.00929687 -57.13914063 172.89359375 -57.08203125 173.8046875 C-56.6292691 176.33184754 -56.6292691 176.33184754 -54.77734375 177.96484375 C-51.9583291 179.51318402 -49.32080152 180.22228987 -46.1875 180.9375 C-44.57101563 181.31455078 -44.57101563 181.31455078 -42.921875 181.69921875 C-41.69210938 181.97185547 -41.69210938 181.97185547 -40.4375 182.25 C-40.4375 185.88 -40.4375 189.51 -40.4375 193.25 C-60.5675 193.25 -80.6975 193.25 -101.4375 193.25 C-101.4375 189.62 -101.4375 185.99 -101.4375 182.25 C-100.36371094 182.07984375 -99.28992188 181.9096875 -98.18359375 181.734375 C-96.74727477 181.49029465 -95.31108338 181.24546271 -93.875 181 C-93.17052734 180.89042969 -92.46605469 180.78085938 -91.74023438 180.66796875 C-86.56273872 179.76131052 -82.8286631 178.16433971 -78.4375 175.25 C-77.10956394 173.18299345 -77.10956394 173.18299345 -76.4375 171.25 C-75.7775 170.92 -75.1175 170.59 -74.4375 170.25 C-73.70674352 167.9359378 -73.03611742 165.60171131 -72.4375 163.25 C-71.7775 163.25 -71.1175 163.25 -70.4375 163.25 C-70.4375 161.6 -70.4375 159.95 -70.4375 158.25 C-69.7775 158.25 -69.1175 158.25 -68.4375 158.25 C-68.4375 156.6 -68.4375 154.95 -68.4375 153.25 C-67.7775 153.25 -67.1175 153.25 -66.4375 153.25 C-66.251875 151.331875 -66.251875 151.331875 -66.0625 149.375 C-65.6875 145.5 -65.6875 145.5 -63.4375 143.25 C-61.23381492 139.94447238 -59.79026665 136.53759868 -58.3125 132.875 C-58.03535156 132.215 -57.75820312 131.555 -57.47265625 130.875 C-55.98843556 127.20466116 -55.08510615 124.21826118 -55.4375 120.25 C-54.7775 120.25 -54.1175 120.25 -53.4375 120.25 C-53.4375 118.6 -53.4375 116.95 -53.4375 115.25 C-52.7775 115.25 -52.1175 115.25 -51.4375 115.25 C-51.4375 113.6 -51.4375 111.95 -51.4375 110.25 C-50.7775 110.25 -50.1175 110.25 -49.4375 110.25 C-48.2567952 107.35969565 -47.09549879 104.46196801 -45.9375 101.5625 C-45.60363281 100.74587891 -45.26976562 99.92925781 -44.92578125 99.08789062 C-42.62637431 93.36538852 -42.62637431 93.36538852 -42.4375 87.25 C-41.7775 87.25 -41.1175 87.25 -40.4375 87.25 C-40.4375 85.6 -40.4375 83.95 -40.4375 82.25 C-39.7775 82.25 -39.1175 82.25 -38.4375 82.25 C-38.251875 80.331875 -38.251875 80.331875 -38.0625 78.375 C-37.6875 74.5 -37.6875 74.5 -35.4375 72.25 C-33.23381492 68.94447238 -31.79026665 65.53759868 -30.3125 61.875 C-30.03535156 61.215 -29.75820312 60.555 -29.47265625 59.875 C-27.98843556 56.20466116 -27.08510615 53.21826118 -27.4375 49.25 C-26.7775 49.25 -26.1175 49.25 -25.4375 49.25 C-25.4375 47.6 -25.4375 45.95 -25.4375 44.25 C-24.7775 44.25 -24.1175 44.25 -23.4375 44.25 C-23.251875 42.331875 -23.251875 42.331875 -23.0625 40.375 C-22.6875 36.5 -22.6875 36.5 -20.4375 34.25 C-18.67832094 31.6112314 -17.50830116 29.28921171 -16.3125 26.375 C-15.95929688 25.53195313 -15.60609375 24.68890625 -15.2421875 23.8203125 C-14.40567302 21.14833906 -14.28797367 19.03118973 -14.4375 16.25 C-13.7775 16.25 -13.1175 16.25 -12.4375 16.25 C-12.4375 14.6 -12.4375 12.95 -12.4375 11.25 C-11.7775 11.25 -11.1175 11.25 -10.4375 11.25 C-10.4375 9.6 -10.4375 7.95 -10.4375 6.25 C-9.7775 6.25 -9.1175 6.25 -8.4375 6.25 C-8.334375 5.63125 -8.23125 5.0125 -8.125 4.375 C-6.79569069 0.26622576 -3.82516696 -0.02580214 0 0 Z M8.5625 6.25 C9.5625 9.25 9.5625 9.25 9.5625 9.25 Z M10.5625 11.25 C11.5625 14.25 11.5625 14.25 11.5625 14.25 Z M19.5625 34.25 C20.5625 36.25 20.5625 36.25 20.5625 36.25 Z M-21.4375 37.25 C-20.4375 39.25 -20.4375 39.25 -20.4375 39.25 Z M-9.4375 38.25 C-8.4375 41.25 -8.4375 41.25 -8.4375 41.25 Z M-7.4375 38.25 C-6.4375 40.25 -6.4375 40.25 -6.4375 40.25 Z M-22.4375 39.25 C-21.4375 41.25 -21.4375 41.25 -21.4375 41.25 Z M21.5625 39.25 C22.5625 41.25 22.5625 41.25 22.5625 41.25 Z M-8.4375 41.25 C-9.44169637 43.7066947 -10.44100501 46.16518353 -11.4375 48.625 C-11.86675781 49.67300781 -11.86675781 49.67300781 -12.3046875 50.7421875 C-13.88274399 54.37885961 -13.88274399 54.37885961 -14.4375 58.25 C-15.4275 58.58 -16.4175 58.91 -17.4375 59.25 C-18.03811233 61.15178785 -18.03811233 61.15178785 -18.4375 63.25 C-19.0975 64.24 -19.7575 65.23 -20.4375 66.25 C-20.63632342 68.13882248 -20.8336731 70.02782646 -21.01953125 71.91796875 C-21.67003207 75.54739855 -23.13256601 78.7802941 -24.59765625 82.1484375 C-25.56119769 84.18233822 -25.56119769 84.18233822 -25.4375 86.25 C-26.9225 86.745 -26.9225 86.745 -28.4375 87.25 C-29.21226627 89.41934556 -29.47899268 91.53353335 -29.8125 93.8125 C-30.4375 96.25 -30.4375 96.25 -31.9375 97.5625 C-33.78138729 99.31598773 -33.78138729 99.31598773 -33.875 102.75 C-34.4375 107.25 -34.4375 107.25 -38.4375 118.25 C-18.3075 118.25 1.8225 118.25 22.5625 118.25 C23.65061297 114.05999121 23.65061297 114.05999121 22.125 110.5 C21.609375 109.4275 21.09375 108.355 20.5625 107.25 C19.9025 107.25 19.2425 107.25 18.5625 107.25 C18.36333984 106.21939453 18.36333984 106.21939453 18.16015625 105.16796875 C17.98355469 104.26691406 17.80695313 103.36585938 17.625 102.4375 C17.45097656 101.54417969 17.27695313 100.65085938 17.09765625 99.73046875 C16.3690813 96.35349726 15.49701093 94.15176639 13.5625 91.25 C12.73441923 88.69537083 12.04415099 86.1195887 11.34375 83.52734375 C10.69327487 81.08784466 10.69327487 81.08784466 8.5625 79.25 C6.24892812 75.77964218 6.07405902 73.34247216 5.5625 69.25 C4.66482344 66.1184413 4.66482344 66.1184413 2.5625 63.25 C2.03855714 61.68091459 1.563405 60.09510068 1.125 58.5 C-0.10146281 54.23241001 -1.59478283 50.2864281 -3.4375 46.25 C-4.0975 46.25 -4.7575 46.25 -5.4375 46.25 C-6.0975 44.6 -6.7575 42.95 -7.4375 41.25 C-7.7675 41.25 -8.0975 41.25 -8.4375 41.25 Z M-6.4375 41.25 C-5.4375 43.25 -5.4375 43.25 -5.4375 43.25 Z M-5.4375 43.25 C-4.4375 45.25 -4.4375 45.25 -4.4375 45.25 Z M-11.4375 44.25 C-10.4375 46.25 -10.4375 46.25 -10.4375 46.25 Z M23.5625 44.25 C24.5625 46.25 24.5625 46.25 24.5625 46.25 Z M-13.4375 49.25 C-12.4375 51.25 -12.4375 51.25 -12.4375 51.25 Z M25.5625 49.25 C26.5625 51.25 26.5625 51.25 26.5625 51.25 Z M-15.4375 54.25 C-14.4375 56.25 -14.4375 56.25 -14.4375 56.25 Z M27.5625 54.25 C28.5625 56.25 28.5625 56.25 28.5625 56.25 Z M29.5625 59.25 C30.5625 62.25 30.5625 62.25 30.5625 62.25 Z M31.5625 64.25 C32.5625 67.25 32.5625 67.25 32.5625 67.25 Z M-22.4375 71.25 C-21.4375 74.25 -21.4375 74.25 -21.4375 74.25 Z M6.5625 74.25 C7.5625 76.25 7.5625 76.25 7.5625 76.25 Z M-36.4375 75.25 C-35.4375 77.25 -35.4375 77.25 -35.4375 77.25 Z M7.5625 76.25 C8.5625 78.25 8.5625 78.25 8.5625 78.25 Z M-37.4375 77.25 C-36.4375 79.25 -36.4375 79.25 -36.4375 79.25 Z M-24.4375 77.25 C-23.4375 79.25 -23.4375 79.25 -23.4375 79.25 Z M-26.4375 82.25 C-25.4375 84.25 -25.4375 84.25 -25.4375 84.25 Z M40.5625 87.25 C41.5625 89.25 41.5625 89.25 41.5625 89.25 Z M42.5625 92.25 C43.5625 94.25 43.5625 94.25 43.5625 94.25 Z M44.5625 97.25 C45.5625 99.25 45.5625 99.25 45.5625 99.25 Z M17.5625 102.25 C18.5625 104.25 18.5625 104.25 18.5625 104.25 Z M46.5625 102.25 C47.5625 104.25 47.5625 104.25 47.5625 104.25 Z M-35.4375 104.25 C-34.4375 107.25 -34.4375 107.25 -34.4375 107.25 Z M18.5625 104.25 C19.5625 106.25 19.5625 106.25 19.5625 106.25 Z M48.5625 107.25 C49.5625 109.25 49.5625 109.25 49.5625 109.25 Z M-37.4375 110.25 C-36.4375 112.25 -36.4375 112.25 -36.4375 112.25 Z M50.5625 112.25 C51.5625 115.25 51.5625 115.25 51.5625 115.25 Z M-39.4375 115.25 C-38.4375 117.25 -38.4375 117.25 -38.4375 117.25 Z M52.5625 117.25 C53.5625 120.25 53.5625 120.25 53.5625 120.25 Z M-40.4375 119.25 C-40.4375 119.58 -40.4375 119.91 -40.4375 120.25 C-18.6575 120.25 3.1225 120.25 25.5625 120.25 C25.5625 119.92 25.5625 119.59 25.5625 119.25 C3.7825 119.25 -17.9975 119.25 -40.4375 119.25 Z M-45.4375 131.25 C-45.4375 131.58 -45.4375 131.91 -45.4375 132.25 C-20.6875 132.25 4.0625 132.25 29.5625 132.25 C29.5625 131.92 29.5625 131.59 29.5625 131.25 C4.8125 131.25 -19.9375 131.25 -45.4375 131.25 Z M29.5625 132.25 C30.5625 134.25 30.5625 134.25 30.5625 134.25 Z M32.5625 140.25 C33.5625 142.25 33.5625 142.25 33.5625 142.25 Z M61.5625 140.25 C62.5625 142.25 62.5625 142.25 62.5625 142.25 Z M33.5625 142.25 C34.5625 144.25 34.5625 144.25 34.5625 144.25 Z M63.5625 145.25 C64.5625 147.25 64.5625 147.25 64.5625 147.25 Z M-64.4375 146.25 C-63.4375 148.25 -63.4375 148.25 -63.4375 148.25 Z M-52.4375 147.25 C-51.4375 150.25 -51.4375 150.25 -51.4375 150.25 Z M-65.4375 148.25 C-64.4375 150.25 -64.4375 150.25 -64.4375 150.25 Z M65.5625 150.25 C66.5625 152.25 66.5625 152.25 66.5625 152.25 Z M-54.4375 153.25 C-53.4375 155.25 -53.4375 155.25 -53.4375 155.25 Z M67.5625 155.25 C68.5625 157.25 68.5625 157.25 68.5625 157.25 Z M-56.4375 158.25 C-55.4375 160.25 -55.4375 160.25 -55.4375 160.25 Z M69.5625 160.25 C70.5625 163.25 70.5625 163.25 70.5625 163.25 Z M71.5625 165.25 C72.5625 168.25 72.5625 168.25 72.5625 168.25 Z M-59.4375 166.25 C-59.4375 167.9 -59.4375 169.55 -59.4375 171.25 C-59.1075 171.25 -58.7775 171.25 -58.4375 171.25 C-58.4375 169.6 -58.4375 167.95 -58.4375 166.25 C-58.7675 166.25 -59.0975 166.25 -59.4375 166.25 Z M73.5625 170.25 C74.5625 173.25 74.5625 173.25 74.5625 173.25 Z M45.5625 173.25 C46.5625 175.25 46.5625 175.25 46.5625 175.25 Z " fill="#000000" transform="translate(196.4375,61.75)"/>
<path d="M0 0 C77.22 0 154.44 0 234 0 C234 0.33 234 0.66 234 1 C156.78 1 79.56 1 0 1 C0 0.67 0 0.34 0 0 Z " fill="#000000" transform="translate(278,68)"/>
<path d="M0 0 C72.93 0 145.86 0 221 0 C221 0.33 221 0.66 221 1 C148.07 1 75.14 1 0 1 C0 0.67 0 0.34 0 0 Z " fill="#000000" transform="translate(482,420)"/>
<path d="M0 0 C0.33 0 0.66 0 1 0 C1 71.94 1 143.88 1 218 C0.67 218 0.34 218 0 218 C0 146.06 0 74.12 0 0 Z " fill="#000000" transform="translate(376,90)"/>
<path d="M0 0 C0.33 0 0.66 0 1 0 C1 71.28 1 142.56 1 216 C0.67 216 0.34 216 0 216 C0 144.72 0 73.44 0 0 Z " fill="#000000" transform="translate(414,91)"/>
<path d="M0 0 C0.33 0 0.66 0 1 0 C1 70.29 1 140.58 1 213 C0.67 213 0.34 213 0 213 C0 142.71 0 72.42 0 0 Z " fill="#000000" transform="translate(37,93)"/>
<path d="M0 0 C0.33 0 0.66 0 1 0 C1 69.63 1 139.26 1 211 C0.67 211 0.34 211 0 211 C0 141.37 0 71.74 0 0 Z " fill="#000000" transform="translate(75,96)"/>
<path d="M0 0 C66 0 132 0 200 0 C200 0.33 200 0.66 200 1 C134 1 68 1 0 1 C0 0.67 0 0.34 0 0 Z " fill="#000000" transform="translate(0,333)"/>
<path d="M0 0 C42.57 0 85.14 0 129 0 C129 0.33 129 0.66 129 1 C86.43 1 43.86 1 0 1 C0 0.67 0 0.34 0 0 Z " fill="#000000" transform="translate(331,332)"/>
<path d="M0 0 C36.96 0 73.92 0 112 0 C112 0.33 112 0.66 112 1 C75.04 1 38.08 1 0 1 C0 0.67 0 0.34 0 0 Z " fill="#000000" transform="translate(5,67)"/>
<path d="M0 0 C0.33 0 0.66 0 1 0 C1 33.66 1 67.32 1 102 C0.67 102 0.34 102 0 102 C0 68.34 0 34.68 0 0 Z " fill="#000000" transform="translate(643,231)"/>
<path d="M0 0 C30.36 0 60.72 0 92 0 C92 0.33 92 0.66 92 1 C61.64 1 31.28 1 0 1 C0 0.67 0 0.34 0 0 Z " fill="#000000" transform="translate(704,67)"/>
<path d="M0 0 C30.36 0 60.72 0 92 0 C92 0.33 92 0.66 92 1 C61.64 1 31.28 1 0 1 C0 0.67 0 0.34 0 0 Z " fill="#000000" transform="translate(852,66)"/>
<path d="M0 0 C29.04 0 58.08 0 88 0 C88 0.33 88 0.66 88 1 C58.96 1 29.92 1 0 1 C0 0.67 0 0.34 0 0 Z " fill="#000000" transform="translate(861,332)"/>
<path d="M0 0 C26.07 0 52.14 0 79 0 C79 0.33 79 0.66 79 1 C52.93 1 26.86 1 0 1 C0 0.67 0 0.34 0 0 Z " fill="#000000" transform="translate(563,403)"/>
<path d="M0 0 C25.08 0 50.16 0 76 0 C76 0.33 76 0.66 76 1 C50.92 1 25.84 1 0 1 C0 0.67 0 0.34 0 0 Z " fill="#000000" transform="translate(222,256)"/>
<path d="M0 0 C23.1 0 46.2 0 70 0 C70 0.33 70 0.66 70 1 C46.9 1 23.8 1 0 1 C0 0.67 0 0.34 0 0 Z " fill="#000000" transform="translate(566,170)"/>
<path d="M0 0 C19.8 0 39.6 0 60 0 C60 0.33 60 0.66 60 1 C40.2 1 20.4 1 0 1 C0 0.67 0 0.34 0 0 Z " fill="#000000" transform="translate(96,256)"/>
<path d="M0 0 C14.85 0 29.7 0 45 0 C45 0.33 45 0.66 45 1 C30.15 1 15.3 1 0 1 C0 0.67 0 0.34 0 0 Z " fill="#000000" transform="translate(94,316)"/>
<path d="M0 0 C14.85 0 29.7 0 45 0 C45 0.33 45 0.66 45 1 C30.15 1 15.3 1 0 1 C0 0.67 0 0.34 0 0 Z " fill="#000000" transform="translate(419,85)"/>
<path d="M0 0 C14.52 0 29.04 0 44 0 C44 0.33 44 0.66 44 1 C29.48 1 14.96 1 0 1 C0 0.67 0 0.34 0 0 Z " fill="#000000" transform="translate(327,85)"/>
<path d="M0 0 C0.33 0 0.66 0 1 0 C3.38776806 24.98265839 3.38776806 24.98265839 3 35 C2.67 35 2.34 35 2 35 C-0.38776806 10.01734161 -0.38776806 10.01734161 0 0 Z " fill="#000000" transform="translate(518,107)"/>
<path d="M0 0 C11.88 0 23.76 0 36 0 C36 0.33 36 0.66 36 1 C24.12 1 12.24 1 0 1 C0 0.67 0 0.34 0 0 Z " fill="#000000" transform="translate(325,316)"/>
<path d="M0 0 C8.25 0 16.5 0 25 0 C25 0.33 25 0.66 25 1 C16.75 1 8.5 1 0 1 C0 0.67 0 0.34 0 0 Z " fill="#000000" transform="translate(482,403)"/>
<path d="M0 0 C8.25 0 16.5 0 25 0 C25 0.33 25 0.66 25 1 C16.75 1 8.5 1 0 1 C0 0.67 0 0.34 0 0 Z " fill="#000000" transform="translate(98,82)"/>
<path d="M0 0 C7.59 0 15.18 0 23 0 C23 0.33 23 0.66 23 1 C15.41 1 7.82 1 0 1 C0 0.67 0 0.34 0 0 Z " fill="#000000" transform="translate(430,316)"/>
<path d="M0 0 C6.93 0 13.86 0 21 0 C21 0.33 21 0.66 21 1 C14.07 1 7.14 1 0 1 C0 0.67 0 0.34 0 0 Z " fill="#000000" transform="translate(482,170)"/>
<path d="M0 0 C6.6 0 13.2 0 20 0 C20 0.33 20 0.66 20 1 C13.4 1 6.8 1 0 1 C0 0.67 0 0.34 0 0 Z " fill="#000000" transform="translate(0,82)"/>
<path d="M0 0 C5.94 0 11.88 0 18 0 C18 0.33 18 0.66 18 1 C12.06 1 6.12 1 0 1 C0 0.67 0 0.34 0 0 Z " fill="#000000" transform="translate(9,316)"/>
<path d="M0 0 C5.61 0 11.22 0 17 0 C17 0.33 17 0.66 17 1 C11.39 1 5.78 1 0 1 C0 0.67 0 0.34 0 0 Z " fill="#000000" transform="translate(936,316)"/>
<path d="M0 0 C5.61 0 11.22 0 17 0 C17 0.33 17 0.66 17 1 C11.39 1 5.78 1 0 1 C0 0.67 0 0.34 0 0 Z " fill="#000000" transform="translate(695,82)"/>
<path d="M0 0 C0.33 0 0.66 0 1 0 C0.67 4.95 0.34 9.9 0 15 C-0.33 15 -0.66 15 -1 15 C-1.10251672 9.87416389 -1.03590199 5.05002222 0 0 Z " fill="#000000" transform="translate(198,232)"/>
<path d="M0 0 C0.33 0 0.66 0 1 0 C1 4.62 1 9.24 1 14 C0.67 14 0.34 14 0 14 C0 9.38 0 4.76 0 0 Z " fill="#000000" transform="translate(629,320)"/>
<path d="M0 0 C4.62 0 9.24 0 14 0 C14 0.33 14 0.66 14 1 C9.38 1 4.76 1 0 1 C0 0.67 0 0.34 0 0 Z " fill="#000000" transform="translate(691,316)"/>
<path d="M0 0 C0.33 0 0.66 0 1 0 C1 4.29 1 8.58 1 13 C0.67 13 0.34 13 0 13 C0 8.71 0 4.42 0 0 Z " fill="#000000" transform="translate(784,319)"/>
<path d="M0 0 C0.33 0 0.66 0 1 0 C1 4.29 1 8.58 1 13 C0.67 13 0.34 13 0 13 C0 8.71 0 4.42 0 0 Z " fill="#000000" transform="translate(688,319)"/>
<path d="M0 0 C0.33 0 0.66 0 1 0 C1 4.29 1 8.58 1 13 C0.67 13 0.34 13 0 13 C0 8.71 0 4.42 0 0 Z " fill="#000000" transform="translate(470,319)"/>
<path d="M0 0 C0.33 0 0.66 0 1 0 C1 4.29 1 8.58 1 13 C0.67 13 0.34 13 0 13 C0 8.71 0 4.42 0 0 Z " fill="#000000" transform="translate(320,319)"/>
<path d="M0 0 C4.29 0 8.58 0 13 0 C13 0.33 13 0.66 13 1 C8.71 1 4.42 1 0 1 C0 0.67 0 0.34 0 0 Z " fill="#000000" transform="translate(80,316)"/>
<path d="M0 0 C0.33 0 0.66 0 1 0 C1 4.29 1 8.58 1 13 C0.67 13 0.34 13 0 13 C0 8.71 0 4.42 0 0 Z " fill="#000000" transform="translate(479,156)"/>
<path d="M0 0 C0.33 0 0.66 0 1 0 C1 4.29 1 8.58 1 13 C0.67 13 0.34 13 0 13 C0 8.71 0 4.42 0 0 Z " fill="#000000" transform="translate(269,143)"/>
<path d="M0 0 C0.33 0 0.66 0 1 0 C1 4.29 1 8.58 1 13 C0.67 13 0.34 13 0 13 C0 8.71 0 4.42 0 0 Z " fill="#000000" transform="translate(271,118)"/>
<path d="M0 0 C0.33 0 0.66 0 1 0 C1 4.29 1 8.58 1 13 C0.67 13 0.34 13 0 13 C0 8.71 0 4.42 0 0 Z " fill="#000000" transform="translate(273,93)"/>
<path d="M0 0 C0.33 0 0.66 0 1 0 C1 3.96 1 7.92 1 12 C0.67 12 0.34 12 0 12 C0 8.04 0 4.08 0 0 Z " fill="#000000" transform="translate(479,406)"/>
<path d="M0 0 C0.33 0 0.66 0 1 0 C1 3.96 1 7.92 1 12 C0.67 12 0.34 12 0 12 C0 8.04 0 4.08 0 0 Z " fill="#000000" transform="translate(851,319)"/>
<path d="M0 0 C3.96 0 7.92 0 12 0 C12 0.33 12 0.66 12 1 C8.04 1 4.08 1 0 1 C0 0.67 0 0.34 0 0 Z " fill="#000000" transform="translate(454,316)"/>
<path d="M0 0 C3.96 0 7.92 0 12 0 C12 0.33 12 0.66 12 1 C8.04 1 4.08 1 0 1 C0 0.67 0 0.34 0 0 Z " fill="#000000" transform="translate(286,242)"/>
<path d="M0 0 C0.33 0 0.66 0 1 0 C1 3.96 1 7.92 1 12 C0.67 12 0.34 12 0 12 C0 8.04 0 4.08 0 0 Z " fill="#000000" transform="translate(270,131)"/>
<path d="M0 0 C0.33 0 0.66 0 1 0 C1 3.96 1 7.92 1 12 C0.67 12 0.34 12 0 12 C0 8.04 0 4.08 0 0 Z " fill="#000000" transform="translate(272,106)"/>
<path d="M0 0 C0.33 0 0.66 0 1 0 C1 3.96 1 7.92 1 12 C0.67 12 0.34 12 0 12 C0 8.04 0 4.08 0 0 Z " fill="#000000" transform="translate(517,95)"/>
<path d="M0 0 C0.33 0 0.66 0 1 0 C1 3.96 1 7.92 1 12 C0.67 12 0.34 12 0 12 C0 8.04 0 4.08 0 0 Z " fill="#000000" transform="translate(516,83)"/>
<path d="M0 0 C0.33 0 0.66 0 1 0 C1 3.96 1 7.92 1 12 C0.67 12 0.34 12 0 12 C0 8.04 0 4.08 0 0 Z " fill="#000000" transform="translate(274,81)"/>
<path d="M0 0 C0.33 0 0.66 0 1 0 C1 3.96 1 7.92 1 12 C0.67 12 0.34 12 0 12 C0 8.04 0 4.08 0 0 Z " fill="#000000" transform="translate(515,71)"/>
<path d="M0 0 C0.33 0 0.66 0 1 0 C1 3.96 1 7.92 1 12 C0.67 12 0.34 12 0 12 C0 8.04 0 4.08 0 0 Z " fill="#000000" transform="translate(803,69)"/>
<path d="M0 0 C0.33 0 0.66 0 1 0 C1 3.96 1 7.92 1 12 C0.67 12 0.34 12 0 12 C0 8.04 0 4.08 0 0 Z " fill="#000000" transform="translate(124,69)"/>
<path d="M0 0 C0.33 0 0.66 0 1 0 C1 3.63 1 7.26 1 11 C0.67 11 0.34 11 0 11 C0 7.37 0 3.74 0 0 Z " fill="#000000" transform="translate(946,69)"/>
<path d="M0 0 C0.33 0 0.66 0 1 0 C1 3.63 1 7.26 1 11 C0.67 11 0.34 11 0 11 C0 7.37 0 3.74 0 0 Z " fill="#000000" transform="translate(849,69)"/>
<path d="M0 0 C0.33 0 0.66 0 1 0 C1 3.63 1 7.26 1 11 C0.67 11 0.34 11 0 11 C0 7.37 0 3.74 0 0 Z " fill="#000000" transform="translate(693,69)"/>
<path d="M0 0 C3.3 0 6.6 0 10 0 C10 0.33 10 0.66 10 1 C6.7 1 3.4 1 0 1 C0 0.67 0 0.34 0 0 Z " fill="#000000" transform="translate(631,335)"/>
<path d="M0 0 C3.3 0 6.6 0 10 0 C10 0.33 10 0.66 10 1 C6.7 1 3.4 1 0 1 C0 0.67 0 0.34 0 0 Z " fill="#000000" transform="translate(950,333)"/>
<path d="M0 0 C0.33 0 0.66 0 1 0 C0.67 2.97 0.34 5.94 0 9 C-0.33 9 -0.66 9 -1 9 C-0.67 6.03 -0.34 3.06 0 0 Z " fill="#000000" transform="translate(194,260)"/>
<path d="M0 0 C3.3 0 6.6 0 10 0 C10 0.33 10 0.66 10 1 C6.7 1 3.4 1 0 1 C0 0.67 0 0.34 0 0 Z " fill="#000000" transform="translate(699,245)"/>
<path d="M0 0 C0.33 0 0.66 0 1 0 C1 3.3 1 6.6 1 10 C0.67 10 0.34 10 0 10 C0 6.7 0 3.4 0 0 Z " fill="#000000" transform="translate(299,244)"/>
<path d="M0 0 C0.33 0 0.66 0 1 0 C1 3.3 1 6.6 1 10 C0.67 10 0.34 10 0 10 C0 6.7 0 3.4 0 0 Z " fill="#000000" transform="translate(219,244)"/>
<path d="M0 0 C0.33 0 0.66 0 1 0 C1 3.3 1 6.6 1 10 C0.67 10 0.34 10 0 10 C0 6.7 0 3.4 0 0 Z " fill="#000000" transform="translate(157,244)"/>
<path d="M0 0 C0.33 0 0.66 0 1 0 C1 3.3 1 6.6 1 10 C0.67 10 0.34 10 0 10 C0 6.7 0 3.4 0 0 Z " fill="#000000" transform="translate(93,244)"/>
<path d="M0 0 C3.3 0 6.6 0 10 0 C10 0.33 10 0.66 10 1 C6.7 1 3.4 1 0 1 C0 0.67 0 0.34 0 0 Z " fill="#000000" transform="translate(636,171)"/>
<path d="M0 0 C3.3 0 6.6 0 10 0 C10 0.33 10 0.66 10 1 C6.7 1 3.4 1 0 1 C0 0.67 0 0.34 0 0 Z " fill="#000000" transform="translate(271,159)"/>
<path d="M0 0 C0.33 0 0.66 0 1 0 C1 3.3 1 6.6 1 10 C0.67 10 0.34 10 0 10 C0 6.7 0 3.4 0 0 Z " fill="#000000" transform="translate(275,71)"/>
<path d="M0 0 C2.97 0 5.94 0 9 0 C9 0.33 9 0.66 9 1 C6.03 1 3.06 1 0 1 C0 0.67 0 0.34 0 0 Z " fill="#000000" transform="translate(322,333)"/>
<path d="M0 0 C2.97 0 5.94 0 9 0 C9 0.33 9 0.66 9 1 C6.03 1 3.06 1 0 1 C0 0.67 0 0.34 0 0 Z " fill="#000000" transform="translate(854,316)"/>
<path d="M0 0 C2.97 0 5.94 0 9 0 C9 0.33 9 0.66 9 1 C6.03 1 3.06 1 0 1 C0 0.67 0 0.34 0 0 Z " fill="#000000" transform="translate(201,229)"/>
<path d="M0 0 C0.33 0 0.66 0 1 0 C1 2.97 1 5.94 1 9 C0.67 9 0.34 9 0 9 C0 6.03 0 3.06 0 0 Z " fill="#000000" transform="translate(283,142)"/>
<path d="M0 0 C0.33 0 0.66 0 1 0 C1 2.97 1 5.94 1 9 C0.67 9 0.34 9 0 9 C0 6.03 0 3.06 0 0 Z " fill="#000000" transform="translate(506,135)"/>
<path d="M0 0 C0.33 0 0.66 0 1 0 C1 2.97 1 5.94 1 9 C0.67 9 0.34 9 0 9 C0 6.03 0 3.06 0 0 Z " fill="#000000" transform="translate(873,94)"/>
<path d="M0 0 C2.97 0 5.94 0 9 0 C9 0.33 9 0.66 9 1 C6.03 1 3.06 1 0 1 C0 0.67 0 0.34 0 0 Z " fill="#000000" transform="translate(928,83)"/>
<path d="M0 0 C2.97 0 5.94 0 9 0 C9 0.33 9 0.66 9 1 C6.03 1 3.06 1 0 1 C0 0.67 0 0.34 0 0 Z " fill="#000000" transform="translate(88,83)"/>
<path d="M0 0 C2.97 0 5.94 0 9 0 C9 0.33 9 0.66 9 1 C6.03 1 3.06 1 0 1 C0 0.67 0 0.34 0 0 Z " fill="#000000" transform="translate(192,60)"/>
<path d="M0 0 C2.64 0 5.28 0 8 0 C8 0.33 8 0.66 8 1 C5.36 1 2.72 1 0 1 C0 0.67 0 0.34 0 0 Z " fill="#000000" transform="translate(461,333)"/>
<path d="M0 0 C0.33 0 0.66 0 1 0 C1 2.64 1 5.28 1 8 C0.67 8 0.34 8 0 8 C0 5.36 0 2.72 0 0 Z " fill="#000000" transform="translate(203,316)"/>
<path d="M0 0 C2.64 0 5.28 0 8 0 C8 0.33 8 0.66 8 1 C5.36 1 2.72 1 0 1 C0 0.67 0 0.34 0 0 Z " fill="#000000" transform="translate(774,316)"/>
<path d="M0 0 C0.33 0 0.66 0 1 0 C1 2.64 1 5.28 1 8 C0.67 8 0.34 8 0 8 C0 5.36 0 2.72 0 0 Z " fill="#000000" transform="translate(204,306)"/>
<path d="M0 0 C0.33 0 0.66 0 1 0 C1 2.64 1 5.28 1 8 C0.67 8 0.34 8 0 8 C0 5.36 0 2.72 0 0 Z " fill="#000000" transform="translate(205,297)"/>
<path d="M0 0 C0.33 0 0.66 0 1 0 C1 2.64 1 5.28 1 8 C0.67 8 0.34 8 0 8 C0 5.36 0 2.72 0 0 Z " fill="#000000" transform="translate(206,287)"/>
<path d="M0 0 C0.33 0 0.66 0 1 0 C1 2.64 1 5.28 1 8 C0.67 8 0.34 8 0 8 C0 5.36 0 2.72 0 0 Z " fill="#000000" transform="translate(208,268)"/>
<path d="M0 0 C0.33 0 0.66 0 1 0 C1 2.64 1 5.28 1 8 C0.67 8 0.34 8 0 8 C0 5.36 0 2.72 0 0 Z " fill="#000000" transform="translate(209,258)"/>
<path d="M0 0 C0.33 0 0.66 0 1 0 C1 2.64 1 5.28 1 8 C0.67 8 0.34 8 0 8 C0 5.36 0 2.72 0 0 Z " fill="#000000" transform="translate(210,249)"/>
<path d="M0 0 C2.64 0 5.28 0 8 0 C8 0.33 8 0.66 8 1 C5.36 1 2.72 1 0 1 C0 0.67 0 0.34 0 0 Z " fill="#000000" transform="translate(221,242)"/>
<path d="M0 0 C2.64 0 5.28 0 8 0 C8 0.33 8 0.66 8 1 C5.36 1 2.72 1 0 1 C0 0.67 0 0.34 0 0 Z " fill="#000000" transform="translate(278,241)"/>
<path d="M0 0 C0.33 0 0.66 0 1 0 C1 2.64 1 5.28 1 8 C0.67 8 0.34 8 0 8 C0 5.36 0 2.72 0 0 Z " fill="#000000" transform="translate(211,239)"/>
<path d="M0 0 C2.64 0 5.28 0 8 0 C8 0.33 8 0.66 8 1 C5.36 1 2.72 1 0 1 C0 0.67 0 0.34 0 0 Z " fill="#000000" transform="translate(633,229)"/>
<path d="M0 0 C2.64 0 5.28 0 8 0 C8 0.33 8 0.66 8 1 C5.36 1 2.72 1 0 1 C0 0.67 0 0.34 0 0 Z " fill="#000000" transform="translate(503,171)"/>
<path d="M0 0 C2.64 0 5.28 0 8 0 C8 0.33 8 0.66 8 1 C5.36 1 2.72 1 0 1 C0 0.67 0 0.34 0 0 Z " fill="#000000" transform="translate(20,83)"/>
<path d="M0 0 C2.64 0 5.28 0 8 0 C8 0.33 8 0.66 8 1 C5.36 1 2.72 1 0 1 C0 0.67 0 0.34 0 0 Z " fill="#000000" transform="translate(695,66)"/>
<path d="M0 0 C2.31 0 4.62 0 7 0 C7 0.33 7 0.66 7 1 C4.69 1 2.38 1 0 1 C0 0.67 0 0.34 0 0 Z " fill="#000000" transform="translate(643,402)"/>
<path d="M0 0 C0.33 0 0.66 0 1 0 C1 2.31 1 4.62 1 7 C0.67 7 0.34 7 0 7 C0 4.69 0 2.38 0 0 Z " fill="#000000" transform="translate(202,325)"/>
<path d="M0 0 C2.31 0 4.62 0 7 0 C7 0.33 7 0.66 7 1 C4.69 1 2.38 1 0 1 C0 0.67 0 0.34 0 0 Z " fill="#000000" transform="translate(1,316)"/>
<path d="M0 0 C0.33 0 0.66 0 1 0 C1 2.31 1 4.62 1 7 C0.67 7 0.34 7 0 7 C0 4.69 0 2.38 0 0 Z " fill="#000000" transform="translate(207,278)"/>
<path d="M0 0 C2.31 0 4.62 0 7 0 C7 0.33 7 0.66 7 1 C4.69 1 2.38 1 0 1 C0 0.67 0 0.34 0 0 Z " fill="#000000" transform="translate(229,241)"/>
<path d="M0 0 C2.31 0 4.62 0 7 0 C7 0.33 7 0.66 7 1 C4.69 1 2.38 1 0 1 C0 0.67 0 0.34 0 0 Z " fill="#000000" transform="translate(100,241)"/>
<path d="M0 0 C0.33 0 0.66 0 1 0 C1 2.31 1 4.62 1 7 C0.67 7 0.34 7 0 7 C0 4.69 0 2.38 0 0 Z " fill="#000000" transform="translate(696,237)"/>
<path d="M0 0 C0.33 0 0.66 0 1 0 C1 2.31 1 4.62 1 7 C0.67 7 0.34 7 0 7 C0 4.69 0 2.38 0 0 Z " fill="#000000" transform="translate(695,229)"/>
<path d="M0 0 C0.33 0 0.66 0 1 0 C1 2.31 1 4.62 1 7 C0.67 7 0.34 7 0 7 C0 4.69 0 2.38 0 0 Z " fill="#000000" transform="translate(284,134)"/>
<path d="M0 0 C0.33 0 0.66 0 1 0 C1 2.31 1 4.62 1 7 C0.67 7 0.34 7 0 7 C0 4.69 0 2.38 0 0 Z " fill="#000000" transform="translate(505,128)"/>
<path d="M0 0 C2.31 0 4.62 0 7 0 C7 0.33 7 0.66 7 1 C4.69 1 2.38 1 0 1 C0 0.67 0 0.34 0 0 Z " fill="#000000" transform="translate(464,86)"/>
<path d="M0 0 C2.31 0 4.62 0 7 0 C7 0.33 7 0.66 7 1 C4.69 1 2.38 1 0 1 C0 0.67 0 0.34 0 0 Z " fill="#000000" transform="translate(320,86)"/>
<path d="M0 0 C2.31 0 4.62 0 7 0 C7 0.33 7 0.66 7 1 C4.69 1 2.38 1 0 1 C0 0.67 0 0.34 0 0 Z " fill="#000000" transform="translate(713,83)"/>
<path d="M0 0 C2.31 0 4.62 0 7 0 C7 0.33 7 0.66 7 1 C4.69 1 2.38 1 0 1 C0 0.67 0 0.34 0 0 Z " fill="#000000" transform="translate(937,82)"/>
<path d="M0 0 C0.33 0 0.66 0 1 0 C1 1.98 1 3.96 1 6 C0.67 6 0.34 6 0 6 C0 4.02 0 2.04 0 0 Z " fill="#000000" transform="translate(707,402)"/>
<path d="M0 0 C1.98 0 3.96 0 6 0 C6 0.33 6 0.66 6 1 C4.02 1 2.04 1 0 1 C0 0.67 0 0.34 0 0 Z " fill="#000000" transform="translate(650,401)"/>
<path d="M0 0 C0.33 0 0.66 0 1 0 C1 1.98 1 3.96 1 6 C0.67 6 0.34 6 0 6 C0 4.02 0 2.04 0 0 Z " fill="#000000" transform="translate(708,396)"/>
<path d="M0 0 C0.33 0 0.66 0 1 0 C1 1.98 1 3.96 1 6 C0.67 6 0.34 6 0 6 C0 4.02 0 2.04 0 0 Z " fill="#000000" transform="translate(709,390)"/>
<path d="M0 0 C0.33 0 0.66 0 1 0 C1 1.98 1 3.96 1 6 C0.67 6 0.34 6 0 6 C0 4.02 0 2.04 0 0 Z " fill="#000000" transform="translate(710,384)"/>
<path d="M0 0 C0.33 0 0.66 0 1 0 C1 1.98 1 3.96 1 6 C0.67 6 0.34 6 0 6 C0 4.02 0 2.04 0 0 Z " fill="#000000" transform="translate(711,378)"/>
<path d="M0 0 C0.33 0 0.66 0 1 0 C1 1.98 1 3.96 1 6 C0.67 6 0.34 6 0 6 C0 4.02 0 2.04 0 0 Z " fill="#000000" transform="translate(712,372)"/>
<path d="M0 0 C0.33 0 0.66 0 1 0 C1 1.98 1 3.96 1 6 C0.67 6 0.34 6 0 6 C0 4.02 0 2.04 0 0 Z " fill="#000000" transform="translate(716,347)"/>
<path d="M0 0 C0.33 0 0.66 0 1 0 C1 1.98 1 3.96 1 6 C0.67 6 0.34 6 0 6 C0 4.02 0 2.04 0 0 Z " fill="#000000" transform="translate(717,341)"/>
<path d="M0 0 C1.98 0 3.96 0 6 0 C6 0.33 6 0.66 6 1 C4.02 1 2.04 1 0 1 C0 0.67 0 0.34 0 0 Z " fill="#000000" transform="translate(854,333)"/>
<path d="M0 0 C1.98 0 3.96 0 6 0 C6 0.33 6 0.66 6 1 C4.02 1 2.04 1 0 1 C0 0.67 0 0.34 0 0 Z " fill="#000000" transform="translate(954,316)"/>
<path d="M0 0 C1.98 0 3.96 0 6 0 C6 0.33 6 0.66 6 1 C4.02 1 2.04 1 0 1 C0 0.67 0 0.34 0 0 Z " fill="#000000" transform="translate(705,315)"/>
<path d="M0 0 C1.98 0 3.96 0 6 0 C6 0.33 6 0.66 6 1 C4.02 1 2.04 1 0 1 C0 0.67 0 0.34 0 0 Z " fill="#000000" transform="translate(424,315)"/>
<path d="M0 0 C1.98 0 3.96 0 6 0 C6 0.33 6 0.66 6 1 C4.02 1 2.04 1 0 1 C0 0.67 0 0.34 0 0 Z " fill="#000000" transform="translate(361,315)"/>
<path d="M0 0 C1.98 0 3.96 0 6 0 C6 0.33 6 0.66 6 1 C4.02 1 2.04 1 0 1 C0 0.67 0 0.34 0 0 Z " fill="#000000" transform="translate(140,315)"/>
<path d="M0 0 C1.98 0 3.96 0 6 0 C6 0.33 6 0.66 6 1 C4.02 1 2.04 1 0 1 C0 0.67 0 0.34 0 0 Z " fill="#000000" transform="translate(604,291)"/>
<path d="M0 0 C1.98 0 3.96 0 6 0 C6 0.33 6 0.66 6 1 C4.02 1 2.04 1 0 1 C0 0.67 0 0.34 0 0 Z " fill="#000000" transform="translate(604,272)"/>
<path d="M0 0 C0.33 0 0.66 0 1 0 C1 1.98 1 3.96 1 6 C0.67 6 0.34 6 0 6 C0 4.02 0 2.04 0 0 Z " fill="#000000" transform="translate(212,232)"/>
<path d="M0 0 C0.33 0 0.66 0 1 0 C1 1.98 1 3.96 1 6 C0.67 6 0.34 6 0 6 C0 4.02 0 2.04 0 0 Z " fill="#000000" transform="translate(694,223)"/>
<path d="M0 0 C0.66 0.66 1.32 1.32 2 2 C1.67 2.99 1.34 3.98 1 5 C0.67 3.35 0.34 1.7 0 0 Z " fill="#000000" transform="translate(232,212)"/>
<path d="M0 0 C1.98 0 3.96 0 6 0 C6 0.33 6 0.66 6 1 C4.02 1 2.04 1 0 1 C0 0.67 0 0.34 0 0 Z " fill="#000000" transform="translate(646,172)"/>
<path d="M0 0 C0.33 0 0.66 0 1 0 C1 1.98 1 3.96 1 6 C0.67 6 0.34 6 0 6 C0 4.02 0 2.04 0 0 Z " fill="#000000" transform="translate(282,152)"/>
<path d="M0 0 C0.33 0 0.66 0 1 0 C1 1.98 1 3.96 1 6 C0.67 6 0.34 6 0 6 C0 4.02 0 2.04 0 0 Z " fill="#000000" transform="translate(285,127)"/>
<path d="M0 0 C1.98 0 3.96 0 6 0 C6 0.33 6 0.66 6 1 C4.02 1 2.04 1 0 1 C0 0.67 0 0.34 0 0 Z " fill="#000000" transform="translate(791,83)"/>
<path d="M0 0 C1.98 0 3.96 0 6 0 C6 0.33 6 0.66 6 1 C4.02 1 2.04 1 0 1 C0 0.67 0 0.34 0 0 Z " fill="#000000" transform="translate(117,66)"/>
<path d="M0 0 C1.65 0 3.3 0 5 0 C5 0.33 5 0.66 5 1 C3.35 1 1.7 1 0 1 C0 0.67 0 0.34 0 0 Z " fill="#000000" transform="translate(507,402)"/>
<path d="M0 0 C0.33 0 0.66 0 1 0 C1 1.65 1 3.3 1 5 C0.67 5 0.34 5 0 5 C0 3.35 0 1.7 0 0 Z " fill="#000000" transform="translate(703,339)"/>
<path d="M0 0 C1.65 0 3.3 0 5 0 C5 0.33 5 0.66 5 1 C3.35 1 1.7 1 0 1 C0 0.67 0 0.34 0 0 Z " fill="#000000" transform="translate(95,242)"/>
<path d="M0 0 C1.65 0 3.3 0 5 0 C5 0.33 5 0.66 5 1 C3.35 1 1.7 1 0 1 C0 0.67 0 0.34 0 0 Z " fill="#000000" transform="translate(147,241)"/>
<path d="M0 0 C0.33 0 0.66 0 1 0 C1 1.65 1 3.3 1 5 C0.67 5 0.34 5 0 5 C0 3.35 0 1.7 0 0 Z " fill="#000000" transform="translate(693,218)"/>
<path d="M0 0 C1.65 0 3.3 0 5 0 C5 0.33 5 0.66 5 1 C3.35 1 1.7 1 0 1 C0 0.67 0 0.34 0 0 Z " fill="#000000" transform="translate(652,173)"/>
<path d="M0 0 C1.65 0 3.3 0 5 0 C5 0.33 5 0.66 5 1 C3.35 1 1.7 1 0 1 C0 0.67 0 0.34 0 0 Z " fill="#000000" transform="translate(561,171)"/>
<path d="M0 0 C0.33 0 0.66 0 1 0 C1 1.65 1 3.3 1 5 C0.67 5 0.34 5 0 5 C0 3.35 0 1.7 0 0 Z " fill="#000000" transform="translate(504,123)"/>
<path d="M0 0 C0.33 0 0.66 0 1 0 C1 1.65 1 3.3 1 5 C0.67 5 0.34 5 0 5 C0 3.35 0 1.7 0 0 Z " fill="#000000" transform="translate(503,118)"/>
<path d="M0 0 C1.65 0 3.3 0 5 0 C5 0.33 5 0.66 5 1 C3.35 1 1.7 1 0 1 C0 0.67 0 0.34 0 0 Z " fill="#000000" transform="translate(471,87)"/>
<path d="M0 0 C1.65 0 3.3 0 5 0 C5 0.33 5 0.66 5 1 C3.35 1 1.7 1 0 1 C0 0.67 0 0.34 0 0 Z " fill="#000000" transform="translate(315,87)"/>
<path d="M0 0 C1.65 0 3.3 0 5 0 C5 0.33 5 0.66 5 1 C3.35 1 1.7 1 0 1 C0 0.67 0 0.34 0 0 Z " fill="#000000" transform="translate(922,84)"/>
<path d="M0 0 C1.65 0 3.3 0 5 0 C5 0.33 5 0.66 5 1 C3.35 1 1.7 1 0 1 C0 0.67 0 0.34 0 0 Z " fill="#000000" transform="translate(83,84)"/>
<path d="M0 0 C1.65 0 3.3 0 5 0 C5 0.33 5 0.66 5 1 C3.35 1 1.7 1 0 1 C0 0.67 0 0.34 0 0 Z " fill="#000000" transform="translate(856,83)"/>
<path d="M0 0 C1.65 0 3.3 0 5 0 C5 0.33 5 0.66 5 1 C3.35 1 1.7 1 0 1 C0 0.67 0 0.34 0 0 Z " fill="#000000" transform="translate(797,82)"/>
<path d="M0 0 C1.65 0 3.3 0 5 0 C5 0.33 5 0.66 5 1 C3.35 1 1.7 1 0 1 C0 0.67 0 0.34 0 0 Z " fill="#000000" transform="translate(796,66)"/>
<path d="M0 0 C1.65 0 3.3 0 5 0 C5 0.33 5 0.66 5 1 C3.35 1 1.7 1 0 1 C0 0.67 0 0.34 0 0 Z " fill="#000000" transform="translate(0,66)"/>
<path d="M0 0 C4 1 4 1 4 1 Z " fill="#000000" transform="translate(656,400)"/>
<path d="M0 0 C1 4 1 4 1 4 Z " fill="#000000" transform="translate(704,335)"/>
<path d="M0 0 C4 1 4 1 4 1 Z " fill="#000000" transform="translate(932,315)"/>
<path d="M0 0 C4 1 4 1 4 1 Z " fill="#000000" transform="translate(863,315)"/>
<path d="M0 0 C4 1 4 1 4 1 Z " fill="#000000" transform="translate(27,315)"/>
<path d="M0 0 C4 1 4 1 4 1 Z " fill="#000000" transform="translate(711,314)"/>
<path d="M0 0 C4 1 4 1 4 1 Z " fill="#000000" transform="translate(367,314)"/>
<path d="M0 0 C4 1 4 1 4 1 Z " fill="#000000" transform="translate(146,314)"/>
<path d="M0 0 C4 1 4 1 4 1 Z " fill="#000000" transform="translate(150,313)"/>
<path d="M0 0 C1 4 1 4 1 4 Z " fill="#000000" transform="translate(627,307)"/>
<path d="M0 0 C0 3 0 3 0 3 Z " fill="#000000" transform="translate(746,289)"/>
<path d="M0 0 C0.99 0.495 0.99 0.495 2 1 C1.67 1.66 1.34 2.32 1 3 C0.67 2.01 0.34 1.02 0 0 Z " fill="#000000" transform="translate(858,278)"/>
<path d="M0 0 C0.99 0.495 0.99 0.495 2 1 C1.67 1.66 1.34 2.32 1 3 C0.67 2.01 0.34 1.02 0 0 Z " fill="#000000" transform="translate(856,275)"/>
<path d="M0 0 C0 3 0 3 0 3 Z " fill="#000000" transform="translate(771,252)"/>
<path d="M0 0 C4 1 4 1 4 1 Z " fill="#000000" transform="translate(152,242)"/>
<path d="M0 0 C4 1 4 1 4 1 Z " fill="#000000" transform="translate(107,240)"/>
<path d="M0 0 C0 3 0 3 0 3 Z " fill="#000000" transform="translate(794,218)"/>
<path d="M0 0 C0 3 0 3 0 3 Z " fill="#000000" transform="translate(796,215)"/>
<path d="M0 0 C1 4 1 4 1 4 Z " fill="#000000" transform="translate(691,210)"/>
<path d="M0 0 C0.99 0.495 0.99 0.495 2 1 C1.67 1.66 1.34 2.32 1 3 C0.67 2.01 0.34 1.02 0 0 Z " fill="#000000" transform="translate(781,162)"/>
<path d="M0 0 C1 4 1 4 1 4 Z " fill="#000000" transform="translate(502,114)"/>
<path d="M0 0 C0.99 0.495 0.99 0.495 2 1 C1.67 1.66 1.34 2.32 1 3 C0.67 2.01 0.34 1.02 0 0 Z " fill="#000000" transform="translate(746,109)"/>
<path d="M0 0 C4 1 4 1 4 1 Z " fill="#000000" transform="translate(311,88)"/>
<path d="M0 0 C4 1 4 1 4 1 Z " fill="#000000" transform="translate(918,85)"/>
<path d="M0 0 C4 1 4 1 4 1 Z " fill="#000000" transform="translate(787,84)"/>
<path d="M0 0 C4 1 4 1 4 1 Z " fill="#000000" transform="translate(852,82)"/>
<path d="M0 0 C3 1 3 1 3 1 Z " fill="#000000" transform="translate(560,402)"/>
<path d="M0 0 C3 1 3 1 3 1 Z " fill="#000000" transform="translate(512,401)"/>
<path d="M0 0 C3 1 3 1 3 1 Z " fill="#000000" transform="translate(660,399)"/>
<path d="M0 0 C3 1 3 1 3 1 Z " fill="#000000" transform="translate(663,398)"/>
<path d="M0 0 C3 1 3 1 3 1 Z " fill="#000000" transform="translate(666,397)"/>
<path d="" fill="#000000" transform="translate(0,0)"/>
<path d="" fill="#000000" transform="translate(0,0)"/>
<path d="" fill="#000000" transform="translate(0,0)"/>
<path d="M0 0 C3 1 3 1 3 1 Z " fill="#000000" transform="translate(771,315)"/>
<path d="M0 0 C3 1 3 1 3 1 Z " fill="#000000" transform="translate(929,314)"/>
<path d="M0 0 C3 1 3 1 3 1 Z " fill="#000000" transform="translate(867,314)"/>
<path d="M0 0 C3 1 3 1 3 1 Z " fill="#000000" transform="translate(421,314)"/>
<path d="M0 0 C3 1 3 1 3 1 Z " fill="#000000" transform="translate(31,314)"/>
<path d="M0 0 C3 1 3 1 3 1 Z " fill="#000000" transform="translate(715,313)"/>
<path d="M0 0 C3 1 3 1 3 1 Z " fill="#000000" transform="translate(418,313)"/>
<path d="M0 0 C3 1 3 1 3 1 Z " fill="#000000" transform="translate(718,312)"/>
<path d="M0 0 C3 1 3 1 3 1 Z " fill="#000000" transform="translate(154,312)"/>
<path d="M0 0 C3 1 3 1 3 1 Z " fill="#000000" transform="translate(721,311)"/>
<path d="M0 0 C3 1 3 1 3 1 Z " fill="#000000" transform="translate(159,310)"/>
<path d="M0 0 C3 1 3 1 3 1 Z " fill="#000000" transform="translate(613,293)"/>
<path d="M0 0 C3 1 3 1 3 1 Z " fill="#000000" transform="translate(610,292)"/>
<path d="M0 0 C3 1 3 1 3 1 Z " fill="#000000" transform="translate(610,271)"/>
<path d="M0 0 C3 1 3 1 3 1 Z " fill="#000000" transform="translate(275,240)"/>
<path d="M0 0 C3 1 3 1 3 1 Z " fill="#000000" transform="translate(236,240)"/>
<path d="M0 0 C3 1 3 1 3 1 Z " fill="#000000" transform="translate(144,240)"/>
<path d="" fill="#000000" transform="translate(0,0)"/>
<path d="" fill="#000000" transform="translate(0,0)"/>
<path d="" fill="#000000" transform="translate(0,0)"/>
<path d="" fill="#000000" transform="translate(0,0)"/>
<path d="" fill="#000000" transform="translate(0,0)"/>
<path d="" fill="#000000" transform="translate(0,0)"/>
<path d="" fill="#000000" transform="translate(0,0)"/>
<path d="" fill="#000000" transform="translate(0,0)"/>
<path d="" fill="#000000" transform="translate(0,0)"/>
<path d="" fill="#000000" transform="translate(0,0)"/>
<path d="" fill="#000000" transform="translate(0,0)"/>
<path d="M0 0 C3 1 3 1 3 1 Z " fill="#000000" transform="translate(663,176)"/>
<path d="M0 0 C3 1 3 1 3 1 Z " fill="#000000" transform="translate(660,175)"/>
<path d="M0 0 C3 1 3 1 3 1 Z " fill="#000000" transform="translate(657,174)"/>
<path d="M0 0 C3 1 3 1 3 1 Z " fill="#000000" transform="translate(511,172)"/>
<path d="" fill="#000000" transform="translate(0,0)"/>
<path d="" fill="#000000" transform="translate(0,0)"/>
<path d="" fill="#000000" transform="translate(0,0)"/>
<path d="" fill="#000000" transform="translate(0,0)"/>
<path d="" fill="#000000" transform="translate(0,0)"/>
<path d="" fill="#000000" transform="translate(0,0)"/>
<path d="" fill="#000000" transform="translate(0,0)"/>
<path d="" fill="#000000" transform="translate(0,0)"/>
<path d="" fill="#000000" transform="translate(0,0)"/>
<path d="" fill="#000000" transform="translate(0,0)"/>
<path d="" fill="#000000" transform="translate(0,0)"/>
<path d="" fill="#000000" transform="translate(0,0)"/>
<path d="" fill="#000000" transform="translate(0,0)"/>
<path d="" fill="#000000" transform="translate(0,0)"/>
<path d="" fill="#000000" transform="translate(0,0)"/>
<path d="" fill="#000000" transform="translate(0,0)"/>
<path d="" fill="#000000" transform="translate(0,0)"/>
<path d="" fill="#000000" transform="translate(0,0)"/>
<path d="" fill="#000000" transform="translate(0,0)"/>
<path d="" fill="#000000" transform="translate(0,0)"/>
<path d="" fill="#000000" transform="translate(0,0)"/>
<path d="" fill="#000000" transform="translate(0,0)"/>
<path d="M0 0 C3 1 3 1 3 1 Z " fill="#000000" transform="translate(482,90)"/>
<path d="" fill="#000000" transform="translate(0,0)"/>
<path d="M0 0 C3 1 3 1 3 1 Z " fill="#000000" transform="translate(476,88)"/>
<path d="M0 0 C3 1 3 1 3 1 Z " fill="#000000" transform="translate(912,87)"/>
<path d="M0 0 C3 1 3 1 3 1 Z " fill="#000000" transform="translate(915,86)"/>
<path d="M0 0 C3 1 3 1 3 1 Z " fill="#000000" transform="translate(724,85)"/>
<path d="M0 0 C3 1 3 1 3 1 Z " fill="#000000" transform="translate(80,85)"/>
<path d="M0 0 C3 1 3 1 3 1 Z " fill="#000000" transform="translate(861,84)"/>
<path d="M0 0 C3 1 3 1 3 1 Z " fill="#000000" transform="translate(721,84)"/>
<path d="" fill="#000000" transform="translate(0,0)"/>
<path d="" fill="#000000" transform="translate(0,0)"/>
<path d="M0 0 C3 1 3 1 3 1 Z " fill="#000000" transform="translate(29,84)"/>
<path d="" fill="#000000" transform="translate(0,0)"/>
<path d="M0 0 C2 1 2 1 2 1 Z " fill="#000000" transform="translate(515,400)"/>
<path d="M0 0 C2 1 2 1 2 1 Z " fill="#000000" transform="translate(669,396)"/>
<path d="M0 0 C2 1 2 1 2 1 Z " fill="#000000" transform="translate(671,395)"/>
<path d="M0 0 C2 1 2 1 2 1 Z " fill="#000000" transform="translate(673,394)"/>
<path d="M0 0 C2 1 2 1 2 1 Z " fill="#000000" transform="translate(675,393)"/>
<path d="M0 0 C2 1 2 1 2 1 Z " fill="#000000" transform="translate(678,391)"/>
<path d="M0 0 C2 1 2 1 2 1 Z " fill="#000000" transform="translate(78,315)"/>
<path d="M0 0 C2 1 2 1 2 1 Z " fill="#000000" transform="translate(769,314)"/>
<path d="M0 0 C2 1 2 1 2 1 Z " fill="#000000" transform="translate(927,313)"/>
<path d="M0 0 C2 1 2 1 2 1 Z " fill="#000000" transform="translate(870,313)"/>
<path d="M0 0 C2 1 2 1 2 1 Z " fill="#000000" transform="translate(371,313)"/>
<path d="M0 0 C2 1 2 1 2 1 Z " fill="#000000" transform="translate(872,312)"/>
<path d="M0 0 C2 1 2 1 2 1 Z " fill="#000000" transform="translate(765,312)"/>
<path d="M0 0 C2 1 2 1 2 1 Z " fill="#000000" transform="translate(157,311)"/>
<path d="M0 0 C2 1 2 1 2 1 Z " fill="#000000" transform="translate(724,310)"/>
<path d="M0 0 C2 1 2 1 2 1 Z " fill="#000000" transform="translate(726,309)"/>
<path d="M0 0 C2 1 2 1 2 1 Z " fill="#000000" transform="translate(162,309)"/>
<path d="M0 0 C2 1 2 1 2 1 Z " fill="#000000" transform="translate(164,308)"/>
<path d="M0 0 C2 1 2 1 2 1 Z " fill="#000000" transform="translate(729,307)"/>
<path d="M0 0 C2 1 2 1 2 1 Z " fill="#000000" transform="translate(732,305)"/>
<path d="M0 0 C2 1 2 1 2 1 Z " fill="#000000" transform="translate(169,305)"/>
<path d="M0 0 C2 1 2 1 2 1 Z " fill="#000000" transform="translate(618,295)"/>
<path d="M0 0 C2 1 2 1 2 1 Z " fill="#000000" transform="translate(616,294)"/>
<path d="" fill="#000000" transform="translate(0,0)"/>
<path d="" fill="#000000" transform="translate(0,0)"/>
<path d="M0 0 C2 1 2 1 2 1 Z " fill="#000000" transform="translate(614,270)"/>
<path d="M0 0 C2 1 2 1 2 1 Z " fill="#000000" transform="translate(616,269)"/>
<path d="M0 0 C2 1 2 1 2 1 Z " fill="#000000" transform="translate(618,268)"/>
<path d="M0 0 C2 1 2 1 2 1 Z " fill="#000000" transform="translate(142,239)"/>
<path d="M0 0 C2 1 2 1 2 1 Z " fill="#000000" transform="translate(111,239)"/>
<path d="M0 0 C2 1 2 1 2 1 Z " fill="#000000" transform="translate(113,238)"/>
<path d="" fill="#000000" transform="translate(0,0)"/>
<path d="" fill="#000000" transform="translate(0,0)"/>
<path d="" fill="#000000" transform="translate(0,0)"/>
<path d="" fill="#000000" transform="translate(0,0)"/>
<path d="" fill="#000000" transform="translate(0,0)"/>
<path d="" fill="#000000" transform="translate(0,0)"/>
<path d="" fill="#000000" transform="translate(0,0)"/>
<path d="" fill="#000000" transform="translate(0,0)"/>
<path d="" fill="#000000" transform="translate(0,0)"/>
<path d="" fill="#000000" transform="translate(0,0)"/>
<path d="" fill="#000000" transform="translate(0,0)"/>
<path d="" fill="#000000" transform="translate(0,0)"/>
<path d="" fill="#000000" transform="translate(0,0)"/>
<path d="" fill="#000000" transform="translate(0,0)"/>
<path d="" fill="#000000" transform="translate(0,0)"/>
<path d="" fill="#000000" transform="translate(0,0)"/>
<path d="" fill="#000000" transform="translate(0,0)"/>
<path d="" fill="#000000" transform="translate(0,0)"/>
<path d="" fill="#000000" transform="translate(0,0)"/>
<path d="M0 0 C2 1 2 1 2 1 Z " fill="#000000" transform="translate(673,181)"/>
<path d="" fill="#000000" transform="translate(0,0)"/>
<path d="M0 0 C2 1 2 1 2 1 Z " fill="#000000" transform="translate(670,179)"/>
<path d="M0 0 C2 1 2 1 2 1 Z " fill="#000000" transform="translate(668,178)"/>
<path d="M0 0 C2 1 2 1 2 1 Z " fill="#000000" transform="translate(666,177)"/>
<path d="" fill="#000000" transform="translate(0,0)"/>
<path d="" fill="#000000" transform="translate(0,0)"/>
<path d="" fill="#000000" transform="translate(0,0)"/>
<path d="" fill="#000000" transform="translate(0,0)"/>
<path d="" fill="#000000" transform="translate(0,0)"/>
<path d="" fill="#000000" transform="translate(0,0)"/>
<path d="" fill="#000000" transform="translate(0,0)"/>
<path d="" fill="#000000" transform="translate(0,0)"/>
<path d="" fill="#000000" transform="translate(0,0)"/>
<path d="" fill="#000000" transform="translate(0,0)"/>
<path d="" fill="#000000" transform="translate(0,0)"/>
<path d="" fill="#000000" transform="translate(0,0)"/>
<path d="" fill="#000000" transform="translate(0,0)"/>
<path d="" fill="#000000" transform="translate(0,0)"/>
<path d="" fill="#000000" transform="translate(0,0)"/>
<path d="" fill="#000000" transform="translate(0,0)"/>
<path d="" fill="#000000" transform="translate(0,0)"/>
<path d="" fill="#000000" transform="translate(0,0)"/>
<path d="" fill="#000000" transform="translate(0,0)"/>
<path d="" fill="#000000" transform="translate(0,0)"/>
<path d="" fill="#000000" transform="translate(0,0)"/>
<path d="" fill="#000000" transform="translate(0,0)"/>
<path d="" fill="#000000" transform="translate(0,0)"/>
<path d="" fill="#000000" transform="translate(0,0)"/>
<path d="" fill="#000000" transform="translate(0,0)"/>
<path d="" fill="#000000" transform="translate(0,0)"/>
<path d="" fill="#000000" transform="translate(0,0)"/>
<path d="" fill="#000000" transform="translate(0,0)"/>
<path d="" fill="#000000" transform="translate(0,0)"/>
<path d="" fill="#000000" transform="translate(0,0)"/>
<path d="" fill="#000000" transform="translate(0,0)"/>
<path d="" fill="#000000" transform="translate(0,0)"/>
<path d="M0 0 C2 1 2 1 2 1 Z " fill="#000000" transform="translate(302,92)"/>
<path d="" fill="#000000" transform="translate(0,0)"/>
<path d="" fill="#000000" transform="translate(0,0)"/>
<path d="M0 0 C2 1 2 1 2 1 Z " fill="#000000" transform="translate(904,91)"/>
<path d="M0 0 C2 1 2 1 2 1 Z " fill="#000000" transform="translate(485,91)"/>
<path d="M0 0 C2 1 2 1 2 1 Z " fill="#000000" transform="translate(304,91)"/>
<path d="M0 0 C2 1 2 1 2 1 Z " fill="#000000" transform="translate(906,90)"/>
<path d="M0 0 C2 1 2 1 2 1 Z " fill="#000000" transform="translate(306,90)"/>
<path d="M0 0 C2 1 2 1 2 1 Z " fill="#000000" transform="translate(908,89)"/>
<path d="M0 0 C2 1 2 1 2 1 Z " fill="#000000" transform="translate(480,89)"/>
<path d="M0 0 C2 1 2 1 2 1 Z " fill="#000000" transform="translate(309,89)"/>
<path d="M0 0 C2 1 2 1 2 1 Z " fill="#000000" transform="translate(910,88)"/>
<path d="M0 0 C2 1 2 1 2 1 Z " fill="#000000" transform="translate(729,87)"/>
<path d="" fill="#000000" transform="translate(0,0)"/>
<path d="" fill="#000000" transform="translate(0,0)"/>
<path d="M0 0 C2 1 2 1 2 1 Z " fill="#000000" transform="translate(866,86)"/>
<path d="M0 0 C2 1 2 1 2 1 Z " fill="#000000" transform="translate(727,86)"/>
<path d="M0 0 C2 1 2 1 2 1 Z " fill="#000000" transform="translate(78,86)"/>
<path d="M0 0 C2 1 2 1 2 1 Z " fill="#000000" transform="translate(864,85)"/>
<path d="M0 0 C2 1 2 1 2 1 Z " fill="#000000" transform="translate(785,85)"/>
<path d="" fill="#000000" transform="translate(0,0)"/>
<path d="" fill="#000000" transform="translate(0,0)"/>
<path d="" fill="#000000" transform="translate(0,0)"/>
<path d="" fill="#000000" transform="translate(0,0)"/>
<path d="" fill="#000000" transform="translate(0,0)"/>
<path d="" fill="#000000" transform="translate(0,0)"/>
<path d="" fill="#000000" transform="translate(0,0)"/>
<path d="" fill="#000000" transform="translate(0,0)"/>
<path d="" fill="#000000" transform="translate(0,0)"/>
<path d="" fill="#000000" transform="translate(0,0)"/>
<path d="" fill="#000000" transform="translate(0,0)"/>
<path d="" fill="#000000" transform="translate(0,0)"/>
<path d="" fill="#000000" transform="translate(0,0)"/>
<path d="" fill="#000000" transform="translate(0,0)"/>
<path d="" fill="#000000" transform="translate(0,0)"/>
<path d="" fill="#000000" transform="translate(0,0)"/>
<path d="" fill="#000000" transform="translate(0,0)"/>
<path d="" fill="#000000" transform="translate(0,0)"/>
<path d="" fill="#000000" transform="translate(0,0)"/>
<path d="" fill="#000000" transform="translate(0,0)"/>
<path d="" fill="#000000" transform="translate(0,0)"/>
<path d="" fill="#000000" transform="translate(0,0)"/>
<path d="" fill="#000000" transform="translate(0,0)"/>
<path d="" fill="#000000" transform="translate(0,0)"/>
<path d="" fill="#000000" transform="translate(0,0)"/>
<path d="" fill="#000000" transform="translate(0,0)"/>
<path d="" fill="#000000" transform="translate(0,0)"/>
<path d="" fill="#000000" transform="translate(0,0)"/>
<path d="" fill="#000000" transform="translate(0,0)"/>
<path d="" fill="#000000" transform="translate(0,0)"/>
<path d="" fill="#000000" transform="translate(0,0)"/>
<path d="" fill="#000000" transform="translate(0,0)"/>
<path d="" fill="#000000" transform="translate(0,0)"/>
<path d="" fill="#000000" transform="translate(0,0)"/>
<path d="" fill="#000000" transform="translate(0,0)"/>
<path d="" fill="#000000" transform="translate(0,0)"/>
<path d="" fill="#000000" transform="translate(0,0)"/>
<path d="" fill="#000000" transform="translate(0,0)"/>
<path d="" fill="#000000" transform="translate(0,0)"/>
<path d="" fill="#000000" transform="translate(0,0)"/>
<path d="" fill="#000000" transform="translate(0,0)"/>
<path d="" fill="#000000" transform="translate(0,0)"/>
<path d="" fill="#000000" transform="translate(0,0)"/>
<path d="" fill="#000000" transform="translate(0,0)"/>
<path d="" fill="#000000" transform="translate(0,0)"/>
<path d="" fill="#000000" transform="translate(0,0)"/>
<path d="" fill="#000000" transform="translate(0,0)"/>
<path d="" fill="#000000" transform="translate(0,0)"/>
<path d="" fill="#000000" transform="translate(0,0)"/>
<path d="" fill="#000000" transform="translate(0,0)"/>
<path d="" fill="#000000" transform="translate(0,0)"/>
<path d="" fill="#000000" transform="translate(0,0)"/>
<path d="" fill="#000000" transform="translate(0,0)"/>
<path d="" fill="#000000" transform="translate(0,0)"/>
<path d="" fill="#000000" transform="translate(0,0)"/>
<path d="" fill="#000000" transform="translate(0,0)"/>
<path d="" fill="#000000" transform="translate(0,0)"/>
<path d="" fill="#000000" transform="translate(0,0)"/>
<path d="" fill="#000000" transform="translate(0,0)"/>
<path d="" fill="#000000" transform="translate(0,0)"/>
<path d="" fill="#000000" transform="translate(0,0)"/>
<path d="" fill="#000000" transform="translate(0,0)"/>
<path d="" fill="#000000" transform="translate(0,0)"/>
<path d="" fill="#000000" transform="translate(0,0)"/>
<path d="" fill="#000000" transform="translate(0,0)"/>
<path d="" fill="#000000" transform="translate(0,0)"/>
<path d="" fill="#000000" transform="translate(0,0)"/>
<path d="" fill="#000000" transform="translate(0,0)"/>
<path d="" fill="#000000" transform="translate(0,0)"/>
<path d="" fill="#000000" transform="translate(0,0)"/>
<path d="" fill="#000000" transform="translate(0,0)"/>
<path d="" fill="#000000" transform="translate(0,0)"/>
<path d="" fill="#000000" transform="translate(0,0)"/>
<path d="" fill="#000000" transform="translate(0,0)"/>
<path d="" fill="#000000" transform="translate(0,0)"/>
<path d="" fill="#000000" transform="translate(0,0)"/>
<path d="" fill="#000000" transform="translate(0,0)"/>
<path d="" fill="#000000" transform="translate(0,0)"/>
<path d="" fill="#000000" transform="translate(0,0)"/>
<path d="" fill="#000000" transform="translate(0,0)"/>
<path d="" fill="#000000" transform="translate(0,0)"/>
<path d="" fill="#000000" transform="translate(0,0)"/>
<path d="" fill="#000000" transform="translate(0,0)"/>
<path d="" fill="#000000" transform="translate(0,0)"/>
<path d="" fill="#000000" transform="translate(0,0)"/>
<path d="" fill="#000000" transform="translate(0,0)"/>
<path d="" fill="#000000" transform="translate(0,0)"/>
<path d="" fill="#000000" transform="translate(0,0)"/>
<path d="" fill="#000000" transform="translate(0,0)"/>
<path d="" fill="#000000" transform="translate(0,0)"/>
</svg>
