<?xml version="1.0" encoding="UTF-8"?>
<svg version="1.1" xmlns="http://www.w3.org/2000/svg" width="512" height="512">
<path d="M0 0 C1.36344334 -0.00346793 2.72688387 -0.00824002 4.09031868 -0.01418173 C7.79006702 -0.02656582 11.48957963 -0.02057973 15.18932819 -0.01122308 C19.19758415 -0.00438055 23.20580211 -0.01493936 27.21405029 -0.02316284 C35.04770911 -0.03644734 42.88128131 -0.03364613 50.71494341 -0.02492492 C57.08603147 -0.01812787 63.45709539 -0.01724036 69.82818604 -0.02049637 C71.19244506 -0.02118592 71.19244506 -0.02118592 72.58426487 -0.0218894 C74.4323659 -0.02284865 76.28046692 -0.02382129 78.12856793 -0.02480717 C95.42601653 -0.03334559 112.7234173 -0.0235513 130.02085805 -0.00740607 C144.83733425 0.0059957 159.65373992 0.00366717 174.47021484 -0.01016235 C191.70912015 -0.02624559 208.94798361 -0.03252176 226.18689537 -0.02332556 C228.02789687 -0.02236999 229.86889839 -0.02142688 231.7098999 -0.02049637 C232.61552079 -0.02003354 233.52114168 -0.01957072 234.45420563 -0.01909386 C240.81178621 -0.0165122 247.16934007 -0.02085714 253.5269165 -0.02793503 C261.2830619 -0.03638078 269.0391163 -0.03400559 276.79525137 -0.0180928 C280.74653469 -0.01025124 284.69766674 -0.00704747 288.64894867 -0.01704025 C292.27606908 -0.02607396 295.90290005 -0.02091411 299.52999473 -0.0051076 C301.44187262 -0.00024472 303.35377112 -0.00987804 305.26562691 -0.02027929 C333.07795717 0.16566716 357.15248179 12.22569324 377.33154297 30.88485718 C397.06215816 51.089766 407.30279211 77.52603036 407.1499939 105.61190796 C407.15346183 106.9753513 407.15823392 108.33879183 407.16417563 109.70222664 C407.17655971 113.40197498 407.17057363 117.10148759 407.16121697 120.80123615 C407.15437445 124.80949211 407.16493326 128.81771007 407.17315674 132.82595825 C407.18644124 140.65961707 407.18364002 148.49318927 407.17491882 156.32685137 C407.16812176 162.69793943 407.16723426 169.06900334 407.17049026 175.44009399 C407.17094996 176.34960001 407.17140966 177.25910603 407.17188329 178.19617283 C407.17284255 180.04427386 407.17381519 181.89237488 407.17480107 183.74047589 C407.18333948 201.03792449 407.17354519 218.33532526 407.15739997 235.63276601 C407.1439982 250.44924221 407.14632673 265.26564787 407.16015625 280.0821228 C407.17623949 297.32102811 407.18251565 314.55989157 407.17331946 331.79880333 C407.17236389 333.63980483 407.17142078 335.48080634 407.17049026 337.32180786 C407.17002744 338.22742875 407.16956461 339.13304964 407.16908776 340.06611359 C407.16650609 346.42369417 407.17085104 352.78124803 407.17792892 359.13882446 C407.18637468 366.89496985 407.18399949 374.65102425 407.16808669 382.40715933 C407.16024514 386.35844265 407.15704137 390.3095747 407.16703415 394.26085663 C407.17606785 397.88797704 407.170908 401.514808 407.15510149 405.14190269 C407.15023862 407.05378058 407.15987194 408.96567908 407.17027318 410.87753487 C406.98432674 438.68986513 394.92430066 462.76438975 376.26513672 482.94345093 C356.0602279 502.67406612 329.62396354 512.91470007 301.53808594 512.76190186 C300.17464259 512.76536978 298.81120207 512.77014188 297.44776726 512.77608359 C293.74801892 512.78846767 290.04850631 512.78248158 286.34875774 512.77312493 C282.34050178 512.76628241 278.33228382 512.77684121 274.32403564 512.7850647 C266.49037683 512.79834919 258.65680463 512.79554798 250.82314253 512.78682677 C244.45205447 512.78002972 238.08099055 512.77914221 231.7098999 512.78239822 C230.34564088 512.78308777 230.34564088 512.78308777 228.95382106 512.78379125 C227.10572004 512.7847505 225.25761902 512.78572315 223.409518 512.78670903 C206.11206941 512.79524744 188.81466864 512.78545315 171.51722789 512.76930793 C156.70075169 512.75590616 141.88434602 512.75823469 127.06787109 512.77206421 C109.82896579 512.78814745 92.59010233 512.79442361 75.35119057 512.78522742 C73.51018906 512.78427185 71.66918755 512.78332874 69.82818604 512.78239822 C68.92256514 512.7819354 68.01694425 512.78147257 67.08388031 512.78099572 C60.72629973 512.77841405 54.36874587 512.782759 48.01116943 512.78983688 C40.25502404 512.79828264 32.49896964 512.79590745 24.74283457 512.77999465 C20.79155125 512.7721531 16.8404192 512.76894933 12.88913727 512.77894211 C9.26201686 512.78797581 5.63518589 512.78281596 2.00809121 512.76700945 C0.09621331 512.76214657 -1.81568518 512.7717799 -3.72754097 512.78218114 C-31.53987123 512.5962347 -55.61439585 500.53620862 -75.79345703 481.87704468 C-95.52407222 461.67213585 -105.76470617 435.2358715 -105.61190796 407.1499939 C-105.61537589 405.78655055 -105.62014798 404.42311002 -105.62608969 403.05967522 C-105.63847378 399.35992687 -105.63248769 395.66041427 -105.62313104 391.9606657 C-105.61628851 387.95240974 -105.62684732 383.94419178 -105.6350708 379.9359436 C-105.6483553 372.10228479 -105.64555409 364.26871259 -105.63683288 356.43505049 C-105.63003583 350.06396243 -105.62914832 343.69289851 -105.63240433 337.32180786 C-105.63286403 336.41230184 -105.63332373 335.50279583 -105.63379735 334.56572902 C-105.63475661 332.717628 -105.63572925 330.86952698 -105.63671513 329.02142596 C-105.64525354 311.72397736 -105.63545925 294.4265766 -105.61931403 277.12913585 C-105.60591226 262.31265965 -105.60824079 247.49625398 -105.62207031 232.67977905 C-105.63815355 215.44087375 -105.64442972 198.20201028 -105.63523352 180.96309853 C-105.63427795 179.12209702 -105.63333484 177.28109551 -105.63240433 175.44009399 C-105.6319415 174.5344731 -105.63147867 173.62885221 -105.63100182 172.69578826 C-105.62842016 166.33820769 -105.6327651 159.98065383 -105.63984299 153.62307739 C-105.64828874 145.866932 -105.64591355 138.1108776 -105.63000076 130.35474253 C-105.6221592 126.40345921 -105.61895543 122.45232716 -105.62894821 118.50104523 C-105.63798192 114.87392481 -105.63282207 111.24709385 -105.61701556 107.61999917 C-105.61215268 105.70812127 -105.621786 103.79622278 -105.63218725 101.88436699 C-105.4462408 74.07203673 -93.38621472 49.99751211 -74.72705078 29.81845093 C-54.52214196 10.08783574 -28.0858776 -0.15279822 0 0 Z M113.76904297 75.38095093 C113.02106445 75.55787476 112.27308594 75.73479858 111.50244141 75.91708374 C89.5894156 81.22350028 69.31467287 90.62807716 50.76904297 103.38095093 C49.78677734 104.05513062 48.80451172 104.7293103 47.79248047 105.42391968 C41.61543432 109.86107008 36.01461043 114.76198449 30.45654297 119.94345093 C29.7986377 120.55656128 29.14073242 121.16967163 28.46289062 121.80136108 C4.31463455 144.71687829 -11.69262009 174.81071805 -19.41845703 207.00595093 C-19.57338623 207.64975708 -19.72831543 208.29356323 -19.88793945 208.95687866 C-22.69357189 221.23782063 -23.63860187 233.20582243 -23.60595703 245.75595093 C-23.60541321 246.54542114 -23.60486938 247.33489136 -23.60430908 248.14828491 C-23.56200665 261.55646503 -22.50858623 274.33322397 -19.23095703 287.38095093 C-19.02196777 288.22963745 -18.81297852 289.07832397 -18.59765625 289.95272827 C-7.54258515 333.45256985 21.42630734 372.41132879 59.92138672 395.52548218 C66.99807533 400.57324604 66.99807533 400.57324604 74.76904297 403.38095093 C74.5861934 398.86645823 74.31527269 394.36703784 73.9609375 389.8633728 C73.8302572 388.17284188 73.71192632 386.48132131 73.60449219 384.78915405 C73.13513476 373.99282293 73.13513476 373.99282293 68.47607422 364.65048218 C65.66534122 362.66433657 62.78102538 361.04150439 59.76904297 359.38095093 C56.27887199 356.54781515 53.03374583 353.46946348 49.76904297 350.38095093 C48.95693359 349.63329468 48.14482422 348.88563843 47.30810547 348.11532593 C23.96992049 325.88147147 8.03601331 292.04903427 6.60791016 259.73495483 C6.56195676 255.4917466 6.5223841 251.2494125 6.51904297 247.00595093 C6.51803085 245.857789 6.51803085 245.857789 6.51699829 244.68643188 C6.5325082 233.63613059 6.8524245 223.10620531 9.76904297 212.38095093 C9.95128418 211.71015503 10.13352539 211.03935913 10.32128906 210.34823608 C17.17186299 185.68731457 29.06030019 163.8543199 46.76904297 145.38095093 C47.52572266 144.56110718 48.28240234 143.74126343 49.06201172 142.89657593 C69.73579063 121.17730412 98.72258146 108.8225665 127.76904297 103.38095093 C128.66953369 103.20821655 129.57002441 103.03548218 130.49780273 102.85751343 C136.96810832 101.91490305 143.55235423 102.13606282 150.08154297 102.13095093 C150.84948181 102.13027618 151.61742065 102.12960144 152.40863037 102.12890625 C163.47739027 102.14440141 174.0258479 102.45945368 184.76904297 105.38095093 C185.43983887 105.56319214 186.11063477 105.74543335 186.80175781 105.93319702 C211.46267932 112.78377095 233.29567399 124.67220815 251.76904297 142.38095093 C252.58888672 143.13763062 253.40873047 143.8943103 254.25341797 144.67391968 C275.97268978 165.34769859 288.32742739 194.33448941 293.76904297 223.38095093 C294.02814453 224.73168701 294.02814453 224.73168701 294.29248047 226.10971069 C295.23509085 232.58001628 295.01393107 239.16426219 295.01904297 245.69345093 C295.01971771 246.46138977 295.02039246 247.22932861 295.02108765 248.02053833 C294.99708668 265.16530311 292.36371327 280.18673961 286.76904297 296.38095093 C286.25083984 297.97616577 286.25083984 297.97616577 285.72216797 299.60360718 C277.75989996 322.42300571 260.12936652 348.60874943 238.88037109 360.96444702 C233.96476207 363.8800273 230.7729281 366.15868435 229.26513672 371.87704468 C228.3053095 377.01787327 228.00585109 382.16520228 227.76904297 387.38095093 C227.65217752 388.99854748 227.52999971 390.61577127 227.40185547 392.23251343 C227.12083268 395.946517 226.91978878 399.65908895 226.76904297 403.38095093 C240.77098252 396.9666546 253.13984402 388.4560173 264.76904297 378.38095093 C266.01234375 377.32134155 266.01234375 377.32134155 267.28076172 376.24032593 C295.19692744 351.87393952 313.13680138 319.17709956 321.76904297 283.38095093 C321.94838379 282.65633667 322.12772461 281.93172241 322.3125 281.18515015 C327.53080913 259.01122289 327.15369517 231.47156468 321.76904297 209.38095093 C321.59211914 208.63297241 321.41519531 207.8849939 321.23291016 207.11434937 C315.92649362 185.20132356 306.52191674 164.92658083 293.76904297 146.38095093 C292.75777344 144.90755249 292.75777344 144.90755249 291.72607422 143.40438843 C287.28892382 137.22734228 282.3880094 131.62651838 277.20654297 126.06845093 C276.59343262 125.41054565 275.98032227 124.75264038 275.34863281 124.07479858 C252.43311561 99.9265425 222.33927585 83.91928787 190.14404297 76.19345093 C189.50023682 76.03852173 188.85643066 75.88359253 188.19311523 75.72396851 C186.05801103 75.23619504 183.91891026 74.79911682 181.76904297 74.38095093 C180.84591309 74.20072388 179.9227832 74.02049683 178.97167969 73.83480835 C169.67404051 72.20528775 160.55144293 72.02374477 151.14404297 72.06845093 C150.34879211 72.07027374 149.55354126 72.07209656 148.73419189 72.07397461 C136.85527001 72.11982015 125.35915817 72.55582619 113.76904297 75.38095093 Z M121.76904297 135.38095093 C120.53669922 135.73286499 119.30435547 136.08477905 118.03466797 136.44735718 C98.43761995 142.35122733 82.20232832 153.15623906 67.76904297 167.38095093 C67.06263672 168.07446655 66.35623047 168.76798218 65.62841797 169.48251343 C51.29798851 184.570242 41.47322259 204.96204341 37.76904297 225.38095093 C37.58728516 226.36450562 37.40552734 227.3480603 37.21826172 228.36141968 C35.14693002 243.52586688 35.43540867 260.66756351 39.76904297 275.38095093 C40.27951172 277.19466187 40.27951172 277.19466187 40.80029297 279.04501343 C45.29767396 293.72227707 52.04165083 306.50835444 61.76904297 318.38095093 C62.32333984 319.06415405 62.87763672 319.74735718 63.44873047 320.45126343 C64.53866799 321.77519884 65.65005259 323.08147823 66.76904297 324.38095093 C69.49501475 321.65497914 69.77616708 318.6505184 70.58154297 315.00595093 C72.27219448 307.76695542 74.73835207 301.17465581 77.76904297 294.38095093 C79.15103007 291.36046279 79.15103007 291.36046279 77.47607422 288.48251343 C76.85087891 287.3352478 76.22568359 286.18798218 75.58154297 285.00595093 C65.44747557 265.77947114 63.1407512 241.97755486 69.37060547 221.05673218 C74.0826843 208.67107244 80.1966825 196.67177139 89.76904297 187.38095093 C89.76904297 186.72095093 89.76904297 186.06095093 89.76904297 185.38095093 C90.36330078 185.11411499 90.95755859 184.84727905 91.56982422 184.57235718 C93.80807751 183.35980433 95.16988439 182.11359719 96.95654297 180.31845093 C115.58099311 163.70933308 139.89426827 161.08631196 163.76904297 162.38095093 C180.42712162 164.15466799 198.15937244 173.4194722 209.76904297 185.38095093 C210.42904297 185.38095093 211.08904297 185.38095093 211.76904297 185.38095093 C212.03587891 185.97520874 212.30271484 186.56946655 212.57763672 187.18173218 C213.79018957 189.41998547 215.03639671 190.78179235 216.83154297 192.56845093 C232.76286962 210.43286743 235.60891333 233.32144613 234.95263672 256.26815796 C234.28775573 267.5410736 230.09077881 280.15256692 223.64404297 289.44345093 C222.33792675 293.82826967 224.27562453 296.35242383 226.29248047 300.31063843 C229.92319866 307.86022705 231.85531463 316.2476055 233.76904297 324.38095093 C251.51214562 307.74679219 263.8548251 281.96295851 264.89331055 257.44735718 C265.42794515 237.19052017 265.42794515 237.19052017 261.76904297 217.38095093 C261.41712891 216.14860718 261.06521484 214.91626343 260.70263672 213.64657593 C254.79876657 194.04952791 243.99375483 177.81423628 229.76904297 163.38095093 C229.07552734 162.67454468 228.38201172 161.96813843 227.66748047 161.24032593 C212.57975189 146.90989647 192.18795049 137.08513055 171.76904297 133.38095093 C170.78548828 133.19919312 169.80193359 133.0174353 168.78857422 132.83016968 C153.62815342 130.75938796 136.47773335 131.04153872 121.76904297 135.38095093 Z M119.76904297 204.38095093 C119.13224609 204.9764978 118.49544922 205.57204468 117.83935547 206.18563843 C109.35198595 214.96441978 106.43275222 226.3231669 106.3840332 238.19515991 C106.59581725 249.70819837 110.93438053 259.02179226 118.76904297 267.38095093 C119.66236328 268.33614624 119.66236328 268.33614624 120.57373047 269.31063843 C129.35251182 277.79800795 140.71125894 280.71724167 152.58325195 280.76596069 C164.09629041 280.55417665 173.4098843 276.21561336 181.76904297 268.38095093 C182.72423828 267.48763062 182.72423828 267.48763062 183.69873047 266.57626343 C192.18609999 257.79748208 195.10533372 246.43873496 195.15405273 234.56674194 C194.94226869 223.05370349 190.6037054 213.74010959 182.76904297 205.38095093 C181.87572266 204.42575562 181.87572266 204.42575562 180.96435547 203.45126343 C172.18557412 194.96389391 160.826827 192.04466018 148.95483398 191.99594116 C137.44179553 192.2077252 128.12820163 196.54628849 119.76904297 204.38095093 Z M128.76904297 286.38095093 C127.92470703 286.78184937 127.08037109 287.1827478 126.21044922 287.59579468 C112.64709569 294.89588355 104.50056562 306.22250279 99.7097168 320.54867554 C95.33908265 338.35450065 100.05586813 358.82824619 102.39453125 376.75033569 C102.92150621 380.79003236 103.42419154 384.8323345 103.92015457 388.87594128 C104.31021986 392.03356614 104.71316707 395.18944723 105.11989594 398.34496498 C105.3104014 399.83500527 105.49700509 401.32555055 105.67935944 402.81661034 C107.33363752 416.2418078 109.89960938 426.99601999 120.61279297 435.91610718 C129.37942918 442.07790271 140.46612755 441.70350667 150.76904297 441.63095093 C152.41646484 441.64255249 152.41646484 441.64255249 154.09716797 441.65438843 C166.0151078 441.62614686 175.97051032 440.70088651 184.93310547 432.36923218 C193.60081446 423.33905536 194.53176852 412.65321972 196.03076172 400.70907593 C196.22784517 399.1803567 196.42534815 397.65169151 196.62324524 396.12307739 C197.03520748 392.92316711 197.44020259 389.72246772 197.84057617 386.52108765 C198.24643563 383.28108137 198.66238085 380.04265485 199.08862305 376.80526733 C204.9158714 344.01757883 204.9158714 344.01757883 198.76904297 312.38095093 C198.36814453 311.53790405 197.96724609 310.69485718 197.55419922 309.82626343 C190.16773776 296.08102211 178.8265283 288.24911717 164.45263672 283.22079468 C152.8388582 280.57290244 139.53155776 281.20260671 128.76904297 286.38095093 Z " fill="#000000" transform="translate(105.23095703125,-0.380950927734375)"/>
</svg>
