<?xml version="1.0" encoding="UTF-8"?>
<svg version="1.1" xmlns="http://www.w3.org/2000/svg" width="1563" height="1563">
<path d="M0 0 C1.73429356 0.00222369 3.46858718 0.00440014 5.20288086 0.00653076 C30.79953254 0.05006979 56.22612173 0.45473073 81.6875 3.3125 C83.0168457 3.45815399 83.0168457 3.45815399 84.37304688 3.60675049 C140.34960167 9.7627555 195.30250604 21.30114946 248.6875 39.3125 C249.68949432 39.64927765 249.68949432 39.64927765 250.71173096 39.99285889 C278.48686475 49.34432811 305.38220843 60.50034683 331.89453125 73.00195312 C334.35996968 74.1588127 336.83275374 75.29611409 339.3125 76.421875 C350.06440387 81.32796224 360.39951717 86.921045 370.72363281 92.66650391 C373.74487125 94.34436136 376.77422858 96.00683186 379.8046875 97.66796875 C415.51120245 117.3307631 449.5851247 140.19239132 481.6875 165.3125 C482.79150111 166.16948415 483.89567163 167.02625011 485 167.8828125 C509.88996048 187.24760786 533.36337271 207.92572835 555.6875 230.1875 C556.2303363 230.72765747 556.77317261 231.26781494 557.3324585 231.82434082 C563.33857619 237.80795007 569.17678542 243.86402993 574.6875 250.3125 C576.30717817 252.08820221 577.93161718 253.85958307 579.5625 255.625 C583.63290056 260.08772832 587.48926909 264.67508 591.28125 269.375 C593.98530389 272.67605281 596.7690942 275.89971603 599.5625 279.125 C604.93454949 285.35772723 610.08062944 291.73407563 615.10058594 298.25292969 C616.23644812 299.72710406 617.37548412 301.19883513 618.51660156 302.66894531 C627.46102928 314.19821013 636.04926769 325.88639758 644.15380859 338.02148438 C645.67087762 340.28766963 647.20277316 342.54315333 648.73828125 344.796875 C660.9091572 362.73642348 671.58425763 381.48857575 682.09033203 400.43847656 C683.49817374 402.97181692 684.91567748 405.49925199 686.33984375 408.0234375 C710.40950096 450.7599486 729.48031884 495.70696244 744.6875 542.3125 C745.03329102 543.36131348 745.37908203 544.41012695 745.73535156 545.49072266 C773.22656968 629.44790501 784.59387973 718.39266904 698.49609375 1135.7265625 C692.00815307 1148.4595057 684.89304545 1160.8161667 677.58886719 1173.09545898 C676.1862435 1175.46864495 674.7973405 1177.84745007 673.41894531 1180.23461914 C667.94693477 1189.68196391 662.17667822 1198.86674585 656.08300781 1207.92504883 C654.6827712 1210.00703115 653.2900923 1212.09391461 651.8984375 1214.18164062 C644.15011031 1225.77423693 636.14506057 1237.17724797 627.75 1248.3125 C627.25330811 1248.9727417 626.75661621 1249.6329834 626.24487305 1250.31323242 C612.79473845 1268.12960231 598.73790215 1285.53778493 583.72265625 1302.0625 C581.91372457 1304.06239375 580.13858199 1306.08519432 578.375 1308.125 C568.85083647 1319.02063159 558.79516424 1329.36619561 548.54980469 1339.58056641 C546.42265216 1341.70231009 544.30096439 1343.82941491 542.1796875 1345.95703125 C540.80240417 1347.3336544 539.42481101 1348.70996766 538.046875 1350.0859375 C537.115336 1351.02051285 537.115336 1351.02051285 536.16497803 1351.97396851 C532.40011849 1355.71909264 528.51943386 1359.27810065 524.49501038 1362.74310303 C521.72040903 1365.15219069 519.05466014 1367.67404984 516.375 1370.1875 C511.55513923 1374.67117269 506.61246022 1378.9287423 501.4765625 1383.05078125 C499.00021944 1385.05890819 496.57270477 1387.11387255 494.15625 1389.19335938 C486.56591525 1395.71397783 478.65667203 1401.77145931 470.67431641 1407.80175781 C468.91056058 1409.14288844 467.16044725 1410.49860115 465.41796875 1411.8671875 C455.78290596 1419.41197351 445.77633753 1426.39147659 435.6875 1433.3125 C434.72279785 1433.97652832 433.7580957 1434.64055664 432.76416016 1435.32470703 C420.98464862 1443.40499482 409.14160498 1450.95738199 396.53515625 1457.67578125 C391.53511223 1460.35448412 386.71048474 1463.28748479 381.875 1466.25 C344.38214388 1488.99349128 303.01096986 1505.02442412 261.6875 1519.3125 C260.55038574 1519.71146484 259.41327148 1520.11042969 258.24169922 1520.52148438 C177.94246927 1548.63470315 94.65179127 1562.0090335 9.6875 1563.3125 C8.66928162 1563.32893555 8.66928162 1563.32893555 7.63049316 1563.34570312 C-74.44155303 1564.62535899 -155.06371971 1553.51464576 -403.9909668 1450.35302734 C-406.91632267 1448.5558848 -409.85809355 1446.79294937 -412.81088257 1445.04167175 C-421.08562241 1440.12774009 -429.13449706 1434.92424552 -437.125 1429.5625 C-438.09871552 1428.9108638 -438.09871552 1428.9108638 -439.09210205 1428.24606323 C-455.43146458 1417.30435153 -471.21702879 1405.92854106 -486.3125 1393.3125 C-486.90434082 1392.81975586 -487.49618164 1392.32701172 -488.10595703 1391.81933594 C-494.53573521 1386.4584836 -500.85300044 1380.98827738 -507.05078125 1375.359375 C-509.11923875 1373.4874031 -511.20810914 1371.6438661 -513.3125 1369.8125 C-517.16360578 1366.45631544 -520.96184814 1363.04375807 -524.75390625 1359.62109375 C-526.40502333 1358.1313072 -528.05850144 1356.64413123 -529.71484375 1355.16015625 C-539.3855111 1346.49260512 -548.94423103 1337.76614621 -558.0703125 1328.5234375 C-559.99046184 1326.63004983 -561.94234572 1324.86473345 -564 1323.125 C-572.82644884 1315.55947242 -581.23121106 1307.05986531 -588.7265625 1298.17578125 C-590.61441407 1295.95778815 -592.58952792 1293.83007845 -594.5625 1291.6875 C-599.11092034 1286.64652653 -603.27983221 1281.36175016 -607.4375 1276 C-609.80269681 1272.95166733 -612.21671313 1269.94680048 -614.6472168 1266.95043945 C-631.06908051 1246.66524616 -646.05433738 1225.16096856 -660.3125 1203.3125 C-660.79154785 1202.57870117 -661.2705957 1201.84490234 -661.76416016 1201.08886719 C-676.77189561 1177.98050972 -689.95120856 1153.91286672 -702.3125 1129.3125 C-702.82876953 1128.29462402 -703.34503906 1127.27674805 -703.87695312 1126.22802734 C-745.13446201 1044.54196479 -769.19696703 950.93488648 -781.515625 803.734375 C-781.51845238 802.88260933 -781.52127975 802.03084366 -781.52419281 801.15326691 C-781.53904772 796.62903048 -781.54835845 792.10482471 -781.55273438 787.58056641 C-781.55707732 783.93755855 -781.57082548 780.29479311 -781.59375 776.65185547 C-781.7900495 744.76597882 -780.29268645 713.18619763 -776 681.5625 C-775.89611969 680.77651428 -775.79223938 679.99052856 -775.68521118 679.1807251 C-765.40010261 601.53445079 -744.31365301 525.90941353 -690.3125 409.3125 C-689.79606934 408.36874512 -689.27963867 407.42499023 -688.74755859 406.45263672 C-672.93505169 377.62837916 -655.54741021 349.97373719 -636.3125 323.3125 C-635.76094238 322.54695801 -635.20938477 321.78141602 -634.64111328 320.99267578 C-624.39286824 306.812805 -613.55350413 293.21569517 -602.20336914 279.90625 C-599.26646794 276.4603435 -596.40248982 272.96350088 -593.5625 269.4375 C-590.54790552 265.73094344 -587.4269398 262.30432091 -583.9921875 258.98828125 C-582.16872107 257.16905544 -580.49231721 255.26482089 -578.8125 253.3125 C-576.5669206 250.70602391 -574.26698488 248.22315479 -571.8125 245.8125 C-569.460774 243.50230559 -567.26210735 241.13467812 -565.125 238.625 C-558.42354322 230.86700724 -551.04222177 223.66015144 -543.23828125 217.01953125 C-541.00113389 215.03650205 -538.91195348 212.94056614 -536.8125 210.8125 C-533.45993221 207.41981601 -530.01774318 204.22149316 -526.3984375 201.1171875 C-524.06224499 199.09598724 -521.78285149 197.01871161 -519.5 194.9375 C-515.26161157 191.11652862 -510.91370897 187.47002669 -506.4765625 183.8828125 C-504.0996519 181.96069539 -501.74574057 180.01284731 -499.3984375 178.0546875 C-490.58884121 170.7165932 -481.63914741 163.65067968 -472.40332031 156.85742188 C-470.23589813 155.25589834 -468.08209394 153.63726221 -465.9296875 152.015625 C-454.26248625 143.26522406 -442.24798186 135.10714557 -430.05273438 127.11230469 C-427.66851068 125.54633025 -425.29340556 123.96790004 -422.921875 122.3828125 C-355.16052616 77.38671177 -275.43147172 43.92555644 -90.6875 4.5 C-89.83651733 4.40054077 -88.98553467 4.30108154 -88.10876465 4.1986084 C-58.75511064 0.81664068 -29.51264045 -0.06704351 0 0 Z M-17.80078125 114.21484375 C-24.28656353 130.22950047 -23.45204788 148.84074367 -23.8125 165.875 C-23.83206757 166.75513763 -23.85163513 167.63527527 -23.87179565 168.54208374 C-24.34125793 189.96022358 -24.58470134 211.38262403 -24.84115601 232.80414963 C-24.87454185 235.58681423 -24.90843944 238.36947227 -24.94238281 241.15213013 C-25.08821456 253.20539812 -25.21650865 265.25872565 -25.3125 277.3125 C-25.3183889 278.04720142 -25.3242778 278.78190285 -25.33034515 279.53886795 C-25.47533443 298.4294975 -25.12226168 317.25184656 -24.3125 336.125 C-23.22426906 362.01065447 -23.22426906 362.01065447 -23.21875 372.59765625 C-23.21814575 373.66401054 -23.21814575 373.66401054 -23.2175293 374.75190735 C-23.2446446 379.67435212 -23.59149018 384.4456837 -24.3125 389.3125 C-31.60875433 387.14869952 -38.82972683 384.82689664 -46.015625 382.32421875 C-46.78023041 382.05794678 -47.54483582 381.7916748 -48.33261108 381.51733398 C-49.92389336 380.96285935 -51.51515067 380.40831304 -53.10638428 379.85369873 C-68.70002097 374.43364962 -84.28304276 369.30962738 -100.3125 365.3125 C-101.02809082 365.12478027 -101.74368164 364.93706055 -102.48095703 364.74365234 C-140.23325979 355.01634903 -179.85969297 368.47527459 -212.51806641 387.14501953 C-223.70406682 393.77509266 -234.45641951 400.93118182 -244.85546875 408.73046875 C-263.39108926 422.62553196 -263.39108926 422.62553196 -272.3125 422.3125 C-272.52345641 414.5774318 -272.1443281 407.38626127 -270.5625 399.8125 C-270.23813965 398.24048828 -270.23813965 398.24048828 -269.90722656 396.63671875 C-261.94229271 359.72251297 -250.20812879 323.51313168 -239.25189209 287.41247559 C-238.39428066 284.5823746 -237.54102582 281.75101467 -236.68994141 278.91894531 C-225.64612033 242.21685334 -212.07736069 206.29329779 -194.32666016 172.26269531 C-193.16721588 170.03312361 -192.02763831 167.79379222 -190.88671875 165.5546875 C-186.1835015 156.39333379 -181.2408268 147.74442297 -175.3125 139.3125 C-173.80435231 137.13060935 -172.30425006 134.94313429 -170.8125 132.75 C-170.1421875 131.77933594 -169.471875 130.80867188 -168.78125 129.80859375 C-167.058931 127.36425998 -167.058931 127.36425998 -167.3125 124.3125 C-175.39956158 124.83991706 -182.8185437 127.54439104 -190.4375 130.125 C-191.15714935 130.36659851 -191.87679871 130.60819702 -192.61825562 130.8571167 C-214.14914886 138.10295642 -235.26483013 146.5306945 -255.84472656 156.15869141 C-257.56551793 156.9632482 -259.28905191 157.76195387 -261.01464844 158.55615234 C-275.8960805 165.40964676 -290.16808895 173.05238997 -304.3125 181.3125 C-305.88929476 182.21879899 -307.46611636 183.12505129 -309.04296875 184.03125 C-336.67594553 200.09971376 -363.14988153 218.62681963 -388.3125 238.3125 C-389.46333467 239.20469415 -390.61438232 240.09661363 -391.765625 240.98828125 C-398.72751345 246.39870705 -405.524478 251.96688655 -412.2265625 257.6953125 C-415.06855565 260.11941756 -417.96540065 262.46981399 -420.875 264.8125 C-425.86418418 268.87075768 -430.58920615 273.15765566 -435.29296875 277.5390625 C-437.5792299 279.65952312 -439.91070647 281.72112172 -442.26171875 283.76953125 C-454.63974805 294.5640018 -466.25625995 306.15240145 -477.875 317.75 C-478.53502014 318.40743195 -479.19504028 319.06486389 -479.87506104 319.74221802 C-489.1482831 328.9489891 -489.1482831 328.9489891 -497.89526367 338.65014648 C-500.23400886 341.39338783 -502.72185069 343.9963017 -505.1875 346.625 C-509.67117269 351.44486077 -513.9287423 356.38753978 -518.05078125 361.5234375 C-520.05861781 363.99942248 -522.11315498 366.42666657 -524.19262695 368.8425293 C-556.29914314 406.22479097 -582.71684555 448.62407663 -603.3125 493.3125 C-602.6525 493.6425 -601.9925 493.9725 -601.3125 494.3125 C-599.01752008 493.11821372 -599.01752008 493.11821372 -596.45703125 491.33203125 C-594.95076172 490.33586792 -594.95076172 490.33586792 -593.4140625 489.31958008 C-592.32867188 488.59536865 -591.24328125 487.87115723 -590.125 487.125 C-579.84449722 480.36278281 -569.3427306 474.40147558 -558.34375 468.86328125 C-541.1712543 460.2105624 -529.70948968 448.09619006 -517.66015625 433.19921875 C-511.10145707 425.13452875 -504.33826545 417.25586886 -497.34765625 409.5625 C-495.53872457 407.56260625 -493.76358199 405.53980568 -492 403.5 C-484.05125293 394.40269544 -475.76667082 385.6869777 -467.17578125 377.19726562 C-464.2402085 374.28457596 -461.40564544 371.36244245 -458.75 368.1875 C-455.32466325 364.14405737 -451.41938123 360.65018962 -447.50292969 357.09643555 C-443.38192709 353.34316948 -439.41584741 349.46619729 -435.5 345.5 C-431.64859556 341.60798321 -427.7689856 337.85158716 -423.58984375 334.30859375 C-420.31312438 331.43654641 -417.16872348 328.42767621 -414 325.4375 C-408.82590862 320.5688171 -403.54264341 315.95479229 -397.98828125 311.51953125 C-394.9975118 309.05269221 -392.14923174 306.45243801 -389.3125 303.8125 C-384.809847 299.63290087 -380.18839802 295.66078377 -375.40234375 291.80859375 C-373.06638832 289.92151977 -370.74881303 288.01909272 -368.44140625 286.09765625 C-358.59200708 277.90303888 -348.56921482 269.99085057 -338.3125 262.3125 C-337.56242676 261.75062988 -336.81235352 261.18875977 -336.03955078 260.60986328 C-330.49503512 256.46754336 -324.91610714 252.37447422 -319.3125 248.3125 C-318.08394287 247.42014648 -318.08394287 247.42014648 -316.83056641 246.50976562 C-285.50969894 223.86227498 -285.50969894 223.86227498 -269.3125 219.3125 C-269.87614814 224.170257 -271.45593365 228.02804208 -273.5625 232.375 C-299.51077658 288.73648357 -317.40305416 354.57609805 -327.40234375 415.7578125 C-327.57833099 416.82825806 -327.75431824 417.89870361 -327.93563843 419.00158691 C-328.80343797 424.31058403 -329.6424492 429.62185415 -330.43652344 434.94238281 C-330.74245083 436.88612877 -331.04874825 438.82981654 -331.35546875 440.7734375 C-331.47921371 441.66451202 -331.60295868 442.55558655 -331.73045349 443.47366333 C-332.60621331 448.87925496 -333.68179232 451.94629438 -338.3125 455.3125 C-341.42993164 456.51586914 -341.42993164 456.51586914 -344.97265625 457.34765625 C-346.31811939 457.67853129 -347.66357817 458.00942405 -349.0090332 458.34033203 C-349.7183902 458.50776917 -350.42774719 458.6752063 -351.15859985 458.84771729 C-355.00913792 459.76376224 -358.84043537 460.75362646 -362.671875 461.74609375 C-363.4692659 461.95242432 -364.2666568 462.15875488 -365.08821106 462.37133789 C-441.09702103 482.30180374 -520.47741275 520.43612899 -583.3125 567.3125 C-584.12726807 567.91892334 -584.12726807 567.91892334 -584.95849609 568.53759766 C-592.2510354 573.99240841 -599.26532068 579.72769069 -606.1796875 585.65234375 C-609.09230802 588.14233818 -612.07143661 590.54214979 -615.0625 592.9375 C-619.39074106 596.45537372 -623.32098381 600.21093645 -627.20703125 604.20703125 C-629.12928541 606.12928541 -631.10504746 607.88047079 -633.1875 609.625 C-649.77226092 623.96768588 -660.86935653 640.9744645 -665.62548828 662.46533203 C-666.06414642 664.44493004 -666.52083301 666.41970945 -666.98046875 668.39453125 C-670.13952746 679.84277356 -670.13952746 679.84277356 -669.3125 691.3125 C-665.26017601 690.71541845 -662.4057965 688.48774764 -659.1875 686.125 C-658.58421875 685.68792725 -657.9809375 685.25085449 -657.359375 684.80053711 C-649.19417337 678.83469204 -641.25926533 672.56414857 -633.3125 666.3125 C-632.05744957 665.32792368 -630.80225104 664.34353611 -629.546875 663.359375 C-626.6949497 661.12223836 -623.84594364 658.88142193 -620.99804688 656.63916016 C-619.27541845 655.28331386 -617.55193022 653.92856851 -615.828125 652.57421875 C-615.24877197 652.11901855 -614.66941895 651.66381836 -614.07250977 651.19482422 C-612.89876722 650.27295846 -611.72477608 649.35140913 -610.55053711 648.43017578 C-607.68948353 646.18473159 -604.8332818 643.93372752 -601.98828125 641.66796875 C-598.45072095 638.85543729 -594.88914234 636.07513513 -591.3125 633.3125 C-590.69004395 632.83071289 -590.06758789 632.34892578 -589.42626953 631.85253906 C-560.57608672 609.68671503 -529.35464833 589.53090285 -497.3125 572.3125 C-496.53036133 571.88791504 -495.74822266 571.46333008 -494.94238281 571.02587891 C-480.30240363 563.09515613 -465.30180529 556.01983486 -450.14208984 549.14300537 C-448.290462 548.3024963 -446.44007292 547.45930562 -444.58984375 546.61572266 C-440.96037186 544.96257422 -437.32466885 543.32364802 -433.6875 541.6875 C-432.59228027 541.19064697 -431.49706055 540.69379395 -430.36865234 540.18188477 C-414.96760839 533.3125 -414.96760839 533.3125 -409.3125 533.3125 C-411.41019212 543.81774213 -414.80489489 553.67138446 -418.5625 563.6875 C-432.04246849 599.74386811 -439.6330437 635.14326262 -441.875 673.5625 C-441.99885717 675.58514387 -442.12305041 677.60776719 -442.24755859 679.63037109 C-443.20940724 695.50134244 -443.98876855 711.3810842 -444.66625977 727.26660156 C-444.72135963 728.54006943 -444.72135963 728.54006943 -444.77757263 729.83926392 C-444.84407547 731.38733269 -444.90874031 732.93548249 -444.97084045 734.48373413 C-445.2544545 741.10571581 -445.78003487 747.70643739 -446.3125 754.3125 C-479.42275032 755.69188586 -512.53573035 756.97433729 -545.65246582 758.1875 C-551.32041471 758.39526731 -556.98833161 758.60390262 -562.65625 758.8125 C-564.33975681 758.874375 -564.33975681 758.874375 -566.05727386 758.9375 C-571.68394752 759.14441491 -577.31057861 759.35238681 -582.93713379 759.5625 C-593.41491164 759.95300669 -603.89274919 760.33561895 -614.37191391 760.68725586 C-619.23213432 760.85123823 -624.09213673 761.02120147 -628.95212555 761.19189453 C-631.25553146 761.27124426 -633.55903494 761.34781856 -635.86263275 761.42138672 C-656.29852805 760.80409169 -656.29852805 760.80409169 -674.3125 768.3125 C-677.38577428 773.195266 -676.68089161 778.66921807 -676.6875 784.25 C-676.71199219 785.33474609 -676.73648438 786.41949219 -676.76171875 787.53710938 C-676.81934288 793.8013246 -676.81934288 793.8013246 -674.47265625 799.48828125 C-665.86845041 806.75440083 -649.27299831 804.46042849 -638.72265625 804.5234375 C-637.38360033 804.53553595 -636.04455 804.54826455 -634.70550537 804.56155396 C-631.79893028 804.59032145 -628.8923478 804.61761556 -625.98574829 804.64379883 C-591.91460396 804.95934438 -557.86009289 805.76871316 -523.80106735 806.71088409 C-520.14865524 806.81184611 -516.49622007 806.91193818 -512.84378052 807.01190186 C-507.00314445 807.17219666 -501.16258845 807.33515543 -495.32209015 807.50039291 C-493.16890964 807.56125925 -491.01571697 807.62169714 -488.86251068 807.68164444 C-474.33888476 808.08803136 -459.82626559 808.64005284 -445.3125 809.3125 C-447.20198183 822.35028532 -449.30987713 835.33489448 -451.59838867 848.30932617 C-461.16014345 902.82210534 -447.35102799 958.29369558 -423.3125 1007.3125 C-421.62770418 1010.79673751 -419.94828266 1014.28350877 -418.27124023 1017.77148438 C-417.19363322 1020.00756288 -416.11003638 1022.24076704 -415.01977539 1024.47070312 C-414.53500732 1025.46779297 -414.05023926 1026.46488281 -413.55078125 1027.4921875 C-413.11805908 1028.37632324 -412.68533691 1029.26045898 -412.23950195 1030.17138672 C-411.3125 1032.3125 -411.3125 1032.3125 -411.3125 1034.3125 C-421.09914196 1032.93838037 -430.54563485 1030.59467843 -440.0625 1028 C-440.85606903 1027.78452515 -441.64963806 1027.56905029 -442.46725464 1027.3470459 C-486.1910865 1015.41877086 -528.40376238 999.79806551 -569.3125 980.3125 C-570.49054199 979.75175781 -571.66858398 979.19101562 -572.88232422 978.61328125 C-595.62262121 967.69845721 -617.08472618 954.89480699 -638.3125 941.3125 C-651.9432249 931.47842467 -651.9432249 931.47842467 -667.3125 926.3125 C-666.74412762 929.60597977 -665.96980807 932.38642429 -664.51171875 935.390625 C-664.12137451 936.20200928 -663.73103027 937.01339355 -663.32885742 937.84936523 C-662.671073 939.19236694 -662.671073 939.19236694 -662 940.5625 C-661.3025769 941.99928101 -661.3025769 941.99928101 -660.59106445 943.46508789 C-659.49519963 945.72079587 -658.39692187 947.97533243 -657.296875 950.22900391 C-655.39973046 954.12367422 -653.52647931 958.02962804 -651.65422058 961.93630981 C-649.88748694 965.61904319 -648.1127818 969.29790448 -646.33682251 972.97619629 C-645.45072281 974.81478489 -644.56736738 976.65469877 -643.68685913 978.49597168 C-642.42840935 981.12508893 -641.15879824 983.74854936 -639.88671875 986.37109375 C-639.51506592 987.15373093 -639.14341309 987.9363681 -638.76049805 988.74272156 C-632.76989514 1001.00548108 -624.72227516 1008.42001175 -612.8125 1014.8125 C-611.37970703 1015.58279541 -611.37970703 1015.58279541 -609.91796875 1016.36865234 C-569.74710898 1037.58340913 -526.27942294 1052.85655577 -483.3125 1067.3125 C-482.53535645 1067.57484436 -481.75821289 1067.83718872 -480.95751953 1068.10748291 C-452.08727932 1077.84659612 -422.77413428 1087.30177613 -392.96459961 1093.74389648 C-387.17711563 1095.06555584 -382.95318656 1097.03395816 -379.43359375 1101.921875 C-378.87800781 1102.95828125 -378.32242187 1103.9946875 -377.75 1105.0625 C-377.42757324 1105.6503125 -377.10514648 1106.238125 -376.77294922 1106.84375 C-375.60126159 1108.99068107 -374.45527522 1111.1500381 -373.3125 1113.3125 C-363.52738976 1131.8211744 -353.90327011 1148.22921444 -339.3125 1163.3125 C-338.42691406 1164.24964844 -337.54132813 1165.18679688 -336.62890625 1166.15234375 C-330.89773651 1172.08314785 -324.91854257 1177.10616207 -318.2578125 1181.92578125 C-310.92793915 1187.8655062 -308.55978023 1193.90018961 -307.12109375 1203.1484375 C-306.90199364 1204.51590136 -306.68214936 1205.88324614 -306.46166992 1207.25048828 C-306.289142 1208.3313974 -306.289142 1208.3313974 -306.11312866 1209.43414307 C-300.39172822 1244.93769509 -291.6696896 1279.7674335 -281.37109375 1314.19921875 C-281.12182129 1315.03323715 -280.87254883 1315.86725555 -280.61572266 1316.72654724 C-279.40277892 1320.77797695 -278.18088986 1324.82633223 -276.94189453 1328.86987305 C-274.58485508 1336.61636012 -272.46820878 1344.27798649 -271.3125 1352.3125 C-275.94002951 1350.94734379 -279.90630648 1349.00715044 -284 1346.5 C-284.96123779 1345.91665894 -284.96123779 1345.91665894 -285.94189453 1345.3215332 C-294.6188958 1339.98303457 -302.96306417 1334.14423839 -311.3125 1328.3125 C-312.39966309 1327.55598145 -312.39966309 1327.55598145 -313.50878906 1326.78417969 C-324.08585657 1319.41670508 -334.49963156 1311.83568717 -344.84472656 1304.14648438 C-346.50956427 1302.90922073 -348.17560885 1301.6735796 -349.84277344 1300.43945312 C-361.23399334 1292.00376945 -372.41384283 1283.3763273 -383.3125 1274.3125 C-383.91739258 1273.81202148 -384.52228516 1273.31154297 -385.14550781 1272.79589844 C-390.88009589 1268.04456041 -396.53108758 1263.28952028 -401.70703125 1257.921875 C-403.50204319 1256.12249563 -405.38653915 1254.47066058 -407.3125 1252.8125 C-409.91897609 1250.5669206 -412.40184521 1248.26698488 -414.8125 1245.8125 C-417.20303167 1243.37860268 -419.66296262 1241.09894441 -422.25 1238.875 C-425.69671216 1235.90644444 -428.90360859 1232.77170896 -432.0625 1229.5 C-433.90096284 1227.71260557 -435.76529571 1226.06289815 -437.71484375 1224.40234375 C-443.42898016 1219.43703837 -448.72654725 1214.04770289 -454.06713867 1208.68823242 C-455.87112085 1206.87889067 -457.68038665 1205.07495681 -459.49023438 1203.27148438 C-464.8233374 1197.94113401 -470.08377191 1192.61096136 -474.97631836 1186.86694336 C-476.65807331 1184.91047821 -478.45712441 1183.10389712 -480.3125 1181.3125 C-483.46170881 1178.20536078 -486.39226967 1174.98759696 -489.2734375 1171.6328125 C-491.85204347 1168.69853674 -494.52160789 1165.85479722 -497.1875 1163 C-501.77651636 1158.07560226 -506.07648506 1152.98799337 -510.29296875 1147.73828125 C-512.59437438 1144.97392361 -515.05372083 1142.47439875 -517.64453125 1139.984375 C-519.42574542 1138.19898937 -521.01303421 1136.31386795 -522.625 1134.375 C-535.07840944 1120.11118302 -553.34310659 1112.72221612 -569.98535156 1104.49707031 C-577.41296977 1100.81753944 -584.7242039 1097.00228619 -591.87109375 1092.80078125 C-594.88768006 1090.90491479 -594.88768006 1090.90491479 -598.3125 1090.3125 C-587.26766952 1126.75483409 -554.88477076 1167.33772687 -530.06298828 1195.89379883 C-527.35404328 1199.01985126 -524.91156498 1202.22238442 -522.5625 1205.625 C-519.40773789 1210.0219833 -515.99588676 1213.98436945 -512.29296875 1217.9140625 C-511.65999374 1218.58710922 -511.02701874 1219.26015594 -510.37486267 1219.95359802 C-500.16748179 1230.71708467 -489.61975277 1241.15496552 -479.12182617 1251.63354492 C-475.97964043 1254.76998401 -472.84203654 1257.91096263 -469.70569706 1261.0532465 C-467.25811575 1263.50445684 -464.80813893 1265.95326177 -462.35745049 1268.40136528 C-461.19943604 1269.55871954 -460.04214472 1270.71679787 -458.88563728 1271.87565804 C-453.38295285 1277.3870998 -447.89376832 1282.86438664 -441.93577576 1287.89109802 C-440.25050864 1289.36678199 -438.72036819 1290.93023984 -437.1875 1292.5625 C-433.46299912 1296.34572049 -429.31216603 1299.5389279 -425.12158203 1302.77905273 C-420.35595399 1306.46935005 -415.69770992 1310.27258035 -411.0625 1314.125 C-396.5772526 1326.11415088 -381.65985946 1337.45212625 -366.3125 1348.3125 C-364.95584229 1349.27639648 -364.95584229 1349.27639648 -363.57177734 1350.25976562 C-351.8817098 1358.54991721 -340.11009946 1366.53835716 -327.77832031 1373.84179688 C-325.02475342 1375.48412232 -322.28947339 1377.15472003 -319.5546875 1378.828125 C-277.37501478 1404.55143588 -233.5599335 1425.0139346 -186.3125 1439.3125 C-185.36020508 1439.60833984 -185.36020508 1439.60833984 -184.38867188 1439.91015625 C-182.48092729 1440.50214906 -180.56862111 1441.07937772 -178.65625 1441.65625 C-177.53412109 1441.99849609 -176.41199219 1442.34074219 -175.25585938 1442.69335938 C-172.41356171 1443.2912415 -170.98929791 1443.31996718 -168.3125 1442.3125 C-168.90675781 1441.36632813 -169.50101563 1440.42015625 -170.11328125 1439.4453125 C-172.37463666 1435.84110397 -174.62332336 1432.22908677 -176.87158203 1428.61669922 C-178.21518241 1426.46812239 -179.57270874 1424.32905915 -180.93359375 1422.19140625 C-208.37851121 1378.71171749 -224.68565946 1327.95715878 -237.3125 1278.3125 C-231.53255761 1280.28613886 -226.76736419 1282.70502328 -221.6875 1286.0625 C-178.07682189 1313.91925108 -122.36672782 1319.16435138 -71.91796875 1323.88671875 C-71.20285252 1323.95382679 -70.48773628 1324.02093483 -69.75094986 1324.09007645 C-62.49935656 1324.769536 -55.24699549 1325.43781519 -47.9912672 1326.07171917 C-45.91993908 1326.25369285 -43.84900106 1326.43956195 -41.77815247 1326.62690735 C-39.20632859 1326.85871234 -36.63380723 1327.0829317 -34.06059265 1327.29875183 C-32.92064346 1327.40278824 -31.78069427 1327.50682465 -30.60620117 1327.61401367 C-29.10267342 1327.74461433 -29.10267342 1327.74461433 -27.56877136 1327.87785339 C-26.82420181 1328.02128677 -26.07963226 1328.16472015 -25.3125 1328.3125 C-23.69508459 1331.54733082 -23.7994259 1335.13671306 -23.51220703 1338.69921875 C-23.43885132 1339.56792603 -23.36549561 1340.4366333 -23.28991699 1341.33166504 C-23.13048039 1343.22489909 -22.97288901 1345.11828921 -22.81689835 1347.0118103 C-22.56825494 1350.02493404 -22.3139729 1353.03753306 -22.05807495 1356.05004883 C-21.33116855 1364.61862283 -20.61372886 1373.18797711 -19.90185547 1381.7578125 C-19.46602631 1386.99969492 -19.02290744 1392.24092308 -18.57564926 1397.48184204 C-18.4078612 1399.4651478 -18.24279262 1401.44868587 -18.08069229 1403.4324646 C-17.28884567 1413.11862869 -16.38308409 1422.74157119 -14.80810547 1432.3359375 C-14.68908937 1433.06511887 -14.57007328 1433.79430023 -14.44745064 1434.545578 C-13.34566027 1440.86498787 -11.94891006 1446.75598116 -7.25 1451.3125 C-1.3684374 1454.34814521 5.24961148 1454.06635111 11.6875 1453.3125 C16.88291781 1449.6157604 17.20579365 1445.57656156 18.2414856 1439.52441406 C19.05678452 1433.65314608 19.36131495 1427.7592921 19.68359375 1421.84375 C19.76480419 1420.44425958 19.84664258 1419.04480549 19.92906189 1417.64538574 C20.10124851 1414.70194459 20.26943954 1411.75831556 20.43426514 1408.81445312 C20.68351202 1404.36545582 20.94248583 1399.91706381 21.20361328 1395.46875 C21.55015286 1389.55221515 21.89462876 1383.63556643 22.23632812 1377.71875 C22.27856318 1376.98789185 22.32079823 1376.25703369 22.36431313 1375.50402832 C22.58166517 1371.73972942 22.79799658 1367.97537476 23.01293945 1364.2109375 C23.22691766 1360.46511021 23.44350472 1356.71944141 23.66177177 1352.97386169 C23.74286757 1351.57382254 23.82301109 1350.17372784 23.90211678 1348.77357483 C24.28986349 1341.91571076 24.71163393 1335.11402333 25.6875 1328.3125 C33.41138491 1326.55318588 41.08359181 1325.68875556 48.96875 1325.015625 C50.91608299 1324.84103982 52.86341419 1324.66643286 54.81065941 1324.49087143 C56.86309457 1324.3061941 58.91569892 1324.12348517 60.96832275 1323.94091797 C147.19827822 1317.35004441 147.19827822 1317.35004441 225.79296875 1284.54980469 C227.8676842 1283.194823 229.94418463 1281.84372236 232.03125 1280.5078125 C232.68287109 1280.08773926 233.33449219 1279.66766602 234.00585938 1279.23486328 C235.6875 1278.3125 235.6875 1278.3125 237.6875 1278.3125 C237.10268613 1285.20343937 235.76621385 1291.5423557 233.875 1298.1875 C233.57295654 1299.25266846 233.27091309 1300.31783691 232.9597168 1301.4152832 C220.00115944 1346.04961019 203.7843027 1392.9909344 176.24511719 1430.76611328 C175.37935059 1431.96083252 175.37935059 1431.96083252 174.49609375 1433.1796875 C173.97845459 1433.88206543 173.46081543 1434.58444336 172.92749023 1435.30810547 C171.67622311 1437.33072864 171.12058667 1438.9877142 170.6875 1441.3125 C177.27232753 1441.60550169 182.9472221 1440.57839827 189.3125 1438.9375 C190.86372559 1438.54038818 190.86372559 1438.54038818 192.44628906 1438.13525391 C216.02916794 1431.91286764 238.51634631 1423.43116101 260.6875 1413.3125 C261.76902344 1412.81991699 262.85054687 1412.32733398 263.96484375 1411.81982422 C278.43275177 1405.17554706 292.38711267 1397.81745877 306.13769531 1389.79833984 C308.42652063 1388.4645797 310.72297918 1387.14558113 313.0234375 1385.83203125 C331.50807098 1375.20829668 349.40444127 1363.58892818 366.53271484 1350.89794922 C368.77562174 1349.24766173 371.03511232 1347.62278393 373.30078125 1346.00390625 C385.56827885 1337.23717754 397.42170731 1328.06386632 409.05859375 1318.4765625 C410.79478158 1317.04736776 412.5368864 1315.62532724 414.28515625 1314.2109375 C425.78663084 1304.89457369 436.89433175 1295.15452643 447.71875 1285.0625 C450.27361913 1282.683604 452.87923282 1280.36877512 455.5 1278.0625 C460.91039075 1273.23052274 465.98563108 1268.06811431 471.06762695 1262.89550781 C474.46537682 1259.45383775 477.87961647 1256.30488989 481.6875 1253.3125 C482.72205506 1252.19776692 483.72345261 1251.0512426 484.6875 1249.875 C488.00254447 1245.98563861 491.55452518 1242.4001977 495.1875 1238.8125 C499.27047076 1234.77092818 503.23617027 1230.70656612 506.95703125 1226.32421875 C509.10283274 1223.82966397 511.33335677 1221.42031018 513.5625 1219 C517.67652173 1214.48824807 521.58859809 1209.85685568 525.421875 1205.10546875 C527.72417913 1202.26728349 530.07741023 1199.47773516 532.4375 1196.6875 C553.8590883 1170.99483768 572.87109428 1143.20347611 589.6875 1114.3125 C590.23277344 1113.37680176 590.77804687 1112.44110352 591.33984375 1111.47705078 C593.00393175 1108.61341668 594.66030934 1105.74551297 596.3125 1102.875 C596.82184082 1101.99263672 597.33118164 1101.11027344 597.85595703 1100.20117188 C598.32888184 1099.37294922 598.80180664 1098.54472656 599.2890625 1097.69140625 C599.70494629 1096.9651001 600.12083008 1096.23879395 600.54931641 1095.49047852 C601.7714747 1093.15180967 602.74672429 1090.77629486 603.6875 1088.3125 C597.19432392 1091.39585177 590.94032403 1094.68168281 584.8125 1098.4375 C578.65560742 1102.19740364 572.39739446 1105.73613205 566.0625 1109.1875 C565.1341333 1109.6932959 564.2057666 1110.1990918 563.24926758 1110.72021484 C558.5238753 1113.27937905 553.77919584 1115.792487 548.99609375 1118.2421875 C532.22800741 1126.83104297 520.96788015 1135.31014725 509.52587891 1150.38232422 C506.21382646 1154.71424264 502.69159886 1158.7954455 498.98828125 1162.80078125 C497.10713268 1164.85439505 495.27051036 1166.93218192 493.44433594 1169.03417969 C480.77913096 1183.51927754 467.10073601 1197.05871878 453.48754883 1210.64282227 C450.7690972 1213.35551947 448.05524207 1216.07276436 445.34263706 1218.7913065 C443.21931952 1220.91825712 441.09360232 1223.04279668 438.96717644 1225.16663933 C437.96546361 1226.16769349 436.96446953 1227.16946749 435.96426582 1228.1720295 C430.91749632 1233.22811151 425.85018138 1238.1892191 420.40122986 1242.81285095 C418.57991386 1244.40664638 416.88162559 1246.08480173 415.1875 1247.8125 C412.24149785 1250.80484375 409.15766993 1253.56574172 405.9765625 1256.3046875 C403.7523286 1258.25563669 401.57677541 1260.25315753 399.40844727 1262.26586914 C393.36390006 1267.86965809 387.15754558 1273.20135485 380.6875 1278.3125 C380.05102539 1278.81620117 379.41455078 1279.31990234 378.75878906 1279.83886719 C367.25411376 1288.91924728 355.53588497 1297.6870132 343.6875 1306.3125 C342.91873535 1306.87356445 342.1499707 1307.43462891 341.35791016 1308.01269531 C330.92054603 1315.62479198 320.38574034 1323.07177612 309.6875 1330.3125 C308.85782715 1330.87646484 308.0281543 1331.44042969 307.17333984 1332.02148438 C279.78111723 1350.61462759 279.78111723 1350.61462759 271.6875 1353.3125 C274.30022427 1342.97843204 276.97446083 1332.66660365 279.9609375 1322.43359375 C280.16006241 1321.75115601 280.35918732 1321.06871826 280.56434631 1320.36560059 C280.76716721 1319.67051392 280.9699881 1318.97542725 281.17895508 1318.25927734 C292.35532352 1279.93421804 303.47257961 1240.18929265 306.62670898 1200.25024414 C307.33280461 1192.2935741 309.67800644 1187.71180627 315.8125 1182.4375 C316.59753906 1181.75945312 317.38257813 1181.08140625 318.19140625 1180.3828125 C320.68065466 1178.31817767 323.2072146 1176.31068267 325.75 1174.3125 C342.80700796 1160.724714 352.999079 1142.88509627 363.09765625 1123.93359375 C363.67410889 1122.85505127 364.25056152 1121.77650879 364.84448242 1120.6652832 C365.96740492 1118.55555486 367.08125877 1116.44096791 368.18481445 1114.32104492 C372.71711102 1105.77014521 376.34278552 1101.44237086 385.6875 1098.3125 C388.29487935 1097.57362048 390.88819711 1096.87329596 393.515625 1096.21875 C395.0339575 1095.83072637 396.55218196 1095.44227983 398.0703125 1095.0534668 C398.86211914 1094.85200043 399.65392578 1094.65053406 400.46972656 1094.44296265 C523.16266013 1063.14903851 523.16266013 1063.14903851 631.6875 1001.3125 C632.36425781 1000.77109375 633.04101562 1000.2296875 633.73828125 999.671875 C647.20396374 987.69038597 654.55467907 968.0153457 662.26611328 952.20214844 C663.79854511 949.0867477 665.38295397 946.00195038 666.98193359 942.92041016 C669.61733488 937.8066654 672.04781255 933.06968701 672.6875 927.3125 C671.48429557 924.81208728 671.48429557 924.81208728 669.6875 923.3125 C660.04394605 924.76682411 651.91901227 931.79004406 644.25 937.4375 C600.86270865 969.27839546 550.00313075 992.24506042 499.6295166 1010.60418701 C497.6215214 1011.33656442 495.61494013 1012.07273264 493.60839844 1012.80908203 C430.75001487 1035.82175777 430.75001487 1035.82175777 413.6875 1035.3125 C412.03293805 1031.25130249 413.44648268 1028.56532292 415 1024.625 C415.40061646 1023.5877478 415.40061646 1023.5877478 415.80932617 1022.52954102 C417.47335767 1018.25450208 419.22456307 1014.01886577 421 1009.7890625 C432.62479518 981.87572874 439.74477941 952.88223819 445.6875 923.3125 C445.90196777 922.25289062 446.11643555 921.19328125 446.33740234 920.1015625 C448.27694045 910.14354286 448.84901934 900.60801541 448.40625 890.47265625 C448.35988907 889.35003891 448.31352814 888.22742157 448.26576233 887.07078552 C447.66465197 873.96633052 446.40346836 860.92747694 445.125 847.875 C444.77146589 844.24006842 444.42023152 840.60497303 444.07521057 836.96922302 C443.86331553 834.73815062 443.64667997 832.50752075 443.42417908 830.27748108 C442.78775791 823.60036816 442.56129759 817.01882067 442.6875 810.3125 C450.23680414 808.5103825 457.52050398 807.91209231 465.265625 807.71875 C466.54109192 807.68172974 467.81655884 807.64470947 469.13067627 807.60656738 C487.69456626 807.09885649 506.2701185 807.01826125 524.83944702 806.86721802 C535.97770804 806.77619918 547.11580249 806.66691774 558.25390625 806.55859375 C559.33790522 806.54811445 560.42190418 806.53763515 561.5387516 806.5268383 C626.10748447 811.49998617 626.10748447 811.49998617 683.5 792.5 C688.71780619 784.89691098 688.56304706 776.2474016 687 767.4375 C685.05035305 762.79548346 682.30576535 760.40482911 678.1875 757.625 C665.85324514 752.99965443 651.98452144 753.98448199 639.02734375 753.93359375 C636.78565338 753.91767203 634.54396925 753.90085071 632.30229187 753.88319397 C627.54417681 753.84734502 622.78607409 753.81712715 618.02789307 753.79150391 C610.58085037 753.75115597 603.13394532 753.69738579 595.68701172 753.640625 C593.18450937 753.62166071 590.68200693 753.6027093 588.17950439 753.58377075 C586.32247265 753.56969366 586.32247265 753.56969366 584.42792511 753.55533218 C580.67320857 753.52732456 576.91848526 753.50052296 573.16375732 753.47409058 C553.12824681 753.33213425 533.09390248 753.13543856 513.05960083 752.87380981 C509.94037975 752.83308987 506.82114594 752.79437869 503.70187378 752.75778198 C489.88961486 752.59500148 476.07845533 752.40266724 462.2734375 751.90625 C461.33714508 751.87728638 460.40085266 751.84832275 459.43618774 751.81848145 C443.54141427 751.16641427 443.54141427 751.16641427 440.6875 748.3125 C440.58732803 746.8138895 440.55668649 745.3105471 440.5546875 743.80859375 C440.55178711 742.37471313 440.55178711 742.37471313 440.54882812 740.91186523 C440.55333984 739.86844971 440.55785156 738.82503418 440.5625 737.75 C440.56443359 736.67242432 440.56636719 735.59484863 440.56835938 734.48461914 C440.60719368 727.06241276 440.83855263 719.66345112 441.1875 712.25 C443.75981648 655.98343259 433.83190031 600.29420265 415.22680664 547.21508789 C414.89672607 546.25723389 414.56664551 545.29937988 414.2265625 544.3125 C413.78111084 543.0440625 413.78111084 543.0440625 413.32666016 541.75 C412.65091406 539.17297594 412.57087072 536.96478017 412.6875 534.3125 C419.77358867 535.41431813 426.32373355 536.94592389 433 539.5625 C433.87897949 539.9032959 434.75795898 540.2440918 435.66357422 540.59521484 C489.66995687 562.04777589 541.40438065 592.35200094 587.6875 627.3125 C588.28997559 627.7657666 588.89245117 628.2190332 589.51318359 628.68603516 C596.72707249 634.12413327 603.74862454 639.77608272 610.74243164 645.49194336 C615.40428527 649.29416441 620.12336455 653.0068458 624.90771484 656.65332031 C628.16936404 659.13981523 631.39946403 661.6607775 634.6105957 664.2121582 C640.86362994 669.17350268 647.21273562 673.99622935 653.625 678.75 C654.41793457 679.34135742 655.21086914 679.93271484 656.02783203 680.54199219 C663.24718008 686.49047349 663.24718008 686.49047349 671.6875 689.3125 C671.93414238 681.57208728 671.27992206 674.35701436 669.875 666.75 C669.70935547 665.78642578 669.54371094 664.82285156 669.37304688 663.83007812 C665.0045188 639.38280593 650.324056 625.7618402 633.36279297 608.80249023 C631.1855804 606.62307846 629.01652822 604.43575521 626.84765625 602.24804688 C619.43081352 594.80171876 611.97898564 587.78500081 603.6875 581.3125 C601.8724197 579.75299815 600.05933674 578.19116188 598.25 576.625 C537.24382827 525.82578107 459.06205828 493.19232849 384.1875 468.8125 C383.31127991 468.52681152 382.43505981 468.24112305 381.5322876 467.94677734 C378.97125185 467.11500343 376.40828811 466.28965912 373.84375 465.46875 C373.01777313 465.20425049 372.19179626 464.93975098 371.34078979 464.66723633 C366.89984256 463.26483763 362.44717058 461.95793053 357.94921875 460.75 C356.52772522 460.36394592 356.52772522 460.36394592 355.07751465 459.97009277 C353.26820814 459.48394088 351.45525101 459.0110962 349.63830566 458.55432129 C343.67985494 456.95327773 338.92678036 454.9861289 335.56616211 449.47290039 C333.47146755 442.18275588 332.12834464 434.73757862 330.73068237 427.28918457 C320.82901977 374.98406522 305.85501303 323.67475314 289.3125 273.125 C288.76260406 271.44360428 288.76260406 271.44360428 288.20159912 269.72824097 C283.87397864 256.53831111 279.37353822 243.42758832 274.53652954 230.41474915 C272.81354995 225.72581473 271.22895757 221.3148659 270.6875 216.3125 C277.51133181 218.78680369 283.43078609 221.75519287 289.4375 225.8125 C290.26967041 226.36510498 291.10184082 226.91770996 291.95922852 227.48706055 C293.82761033 228.72912222 295.6934397 229.97502928 297.55712891 231.22412109 C300.37494566 233.10398418 303.20340493 234.96577167 306.03787231 236.82032776 C321.72443094 247.08659946 336.95869306 257.69347234 351.6875 269.3125 C353.02261898 270.35261403 354.35850952 271.39173872 355.6953125 272.4296875 C365.59860108 280.13688756 375.2861419 288.09343643 384.84521484 296.22216797 C388.3199136 299.17230597 391.83207795 302.06918229 395.375 304.9375 C399.82941113 308.56318347 404.11698601 312.33679653 408.36328125 316.203125 C410.40792335 318.05876657 412.47534149 319.88006376 414.5625 321.6875 C420.03156177 326.45931086 425.36054196 331.38352444 430.6875 336.3125 C431.29126465 336.86969727 431.8950293 337.42689453 432.51708984 338.00097656 C440.39600106 345.28284724 448.14969011 352.67720631 455.75 360.25 C456.43989014 360.93529785 457.12978027 361.6205957 457.84057617 362.32666016 C461.70390417 366.2017365 465.37395518 370.18538968 468.94799805 374.32788086 C471.88972123 377.68412897 474.98631134 380.89250985 478.0625 384.125 C483.14485538 389.501515 487.97144154 394.9512559 492.58203125 400.73828125 C494.85950846 403.52280348 497.25062008 406.16663803 499.6875 408.8125 C504.10057548 413.61814967 508.25422544 418.58135584 512.35058594 423.65771484 C520.83829388 434.1635009 529.40655555 444.49525699 538.6875 454.3125 C539.66009766 455.41658203 539.66009766 455.41658203 540.65234375 456.54296875 C549.28902582 465.98306311 561.8399138 470.94417513 573.13476562 476.51977539 C582.86422945 481.34276189 592.40364148 486.53171392 601.5625 492.375 C604.35798564 494.48814656 604.35798564 494.48814656 606.6875 494.3125 C606.13390113 489.36802792 604.52132918 485.4275827 602.25 481.0625 C601.89510498 480.36922607 601.54020996 479.67595215 601.17456055 478.96166992 C590.3359796 457.96734566 578.08274276 437.77332072 564.6875 418.3125 C564.00204102 417.31621582 564.00204102 417.31621582 563.30273438 416.29980469 C553.33415863 401.87302287 542.75126421 387.91700338 531.6875 374.3125 C531.01847656 373.48105469 530.34945313 372.64960938 529.66015625 371.79296875 C519.95332913 359.80424737 509.77444923 348.24275803 499.23974609 336.97802734 C497.63783951 335.25921534 496.04668054 333.53093105 494.45703125 331.80078125 C487.88058776 324.6650676 481.16279189 317.6860826 474.3125 310.8125 C473.57563965 310.07104736 472.8387793 309.32959473 472.07958984 308.56567383 C468.05199417 304.54942989 463.92950103 300.71358539 459.62109375 297.00097656 C456.45484681 294.23610739 453.42551549 291.32859361 450.375 288.4375 C445.25593001 283.62316673 440.04479114 279.03159989 434.55078125 274.64453125 C431.08581372 271.82244992 427.7350027 268.88295137 424.375 265.9375 C417.98541715 260.36528273 411.45044988 255.04138882 404.7265625 249.87890625 C403.26595101 248.75686562 401.80790813 247.6314782 400.3515625 246.50390625 C372.69363642 225.09270803 343.6882459 205.3041416 313.6875 187.3125 C312.27138428 186.46244385 312.27138428 186.46244385 310.82666016 185.59521484 C296.38109905 176.96215336 281.6928427 168.92745231 266.6875 161.3125 C265.94564453 160.93399902 265.20378906 160.55549805 264.43945312 160.16552734 C260.52946662 158.17290277 256.60583057 156.21121934 252.6640625 154.28222656 C251.31292135 153.61933962 249.96405496 152.95180122 248.6171875 152.28027344 C210.82845693 133.4144231 210.82845693 133.4144231 169.6875 126.3125 C168.3447565 129.18130068 168.3447565 129.18130068 169.62890625 131.2734375 C170.16386719 132.07007813 170.69882812 132.86671875 171.25 133.6875 C171.89324219 134.66074219 172.53648437 135.63398438 173.19921875 136.63671875 C174.02724719 137.8629248 174.85684527 139.08807152 175.6875 140.3125 C183.86531615 152.38913147 191.909478 164.38380476 198.6875 177.3125 C199.01911133 177.94397949 199.35072266 178.57545898 199.69238281 179.22607422 C202.11490311 183.87887001 204.41639978 188.58432315 206.6875 193.3125 C207.02716797 194.00633789 207.36683594 194.70017578 207.71679688 195.41503906 C221.58361779 223.91045225 229.99876027 254.58997876 238.82177734 284.91113281 C239.59425802 287.56458982 240.3672021 290.21791122 241.140625 292.87109375 C241.33160892 293.52638691 241.52259285 294.18168007 241.71936417 294.8568306 C245.25115957 306.95959228 248.98590022 318.99344365 252.80096436 331.00979614 C273.57588652 396.46703451 273.57588652 396.46703451 274.6875 423.3125 C259.19387026 422.66693209 247.66233194 412.08141384 235.68554688 403.28320312 C196.35467584 374.70030709 149.39725777 357.96842245 100.43896484 364.86279297 C77.32539992 368.64053801 55.73173536 376.48473317 34.66015625 386.48388672 C32.68503408 387.31353581 30.76730498 387.81578321 28.6875 388.3125 C28.69069213 387.75818204 28.69388426 387.20386408 28.69717312 386.6327486 C28.90509717 348.51687652 28.36120446 310.45981608 27.40789545 272.35829747 C27.23005997 265.23727401 27.06110373 258.1160467 26.89232779 250.99480379 C26.50726949 234.76694732 26.10479187 218.53956254 25.6875 202.3125 C25.64885078 200.80860403 25.64885078 200.80860403 25.60942078 199.27432632 C25.47811129 194.18798782 25.34379456 189.10174807 25.20347404 184.0156498 C25.14806667 182.00339718 25.09419138 179.99110255 25.04042053 177.97880554 C26.45464171 142.09924606 26.45464171 142.09924606 14.25 110.953125 C9.6159859 107.93274081 4.49042726 107.90943427 -0.875 107.8125 C-1.59518311 107.79380859 -2.31536621 107.77511719 -3.05737305 107.75585938 C-9.01762176 107.82677413 -13.96159366 109.30753572 -17.80078125 114.21484375 Z " fill="#1C273B" transform="translate(781.3125,-0.3125)"/>
<path d="M0 0 C0.64759277 0.15033691 1.29518555 0.30067383 1.96240234 0.45556641 C25.6263428 5.96932751 46.56112733 18.31305219 64 35 C64.80824219 35.73347656 65.61648438 36.46695313 66.44921875 37.22265625 C73.40311533 43.76172069 78.49662012 51.17321475 83.72509766 59.08740234 C87.12575599 64.83895394 87.12575599 64.83895394 92 69 C92.23847656 68.30003906 92.47695313 67.60007812 92.72265625 66.87890625 C97.39041001 56.3586172 107.10672628 47.20783421 115 39 C115.58475098 38.38801758 116.16950195 37.77603516 116.77197266 37.14550781 C141.46463777 11.42907901 173.02519455 -2.42675037 208.87792969 -3.16430664 C242.13995171 -3.51744612 273.8800812 6.95116845 299 29 C299.80179688 29.680625 300.60359375 30.36125 301.4296875 31.0625 C306.42112281 35.36488195 310.73976025 39.98478105 315 45 C321.92263557 52.81015295 330.17000388 54.7498371 340 56.875 C373.40041106 64.57009761 403.11080557 82.88593879 421.88720703 112.21142578 C433.09636716 130.22772834 438.41407071 148.80746279 438.3125 170.125 C438.30976074 171.29772461 438.30702148 172.47044922 438.30419922 173.67871094 C438.17509496 184.50862887 437.22958392 195.20650269 433.8359375 205.546875 C432.80201647 209.81783849 432.58528962 211.79157134 434 216 C436.98419437 219.61680297 440.38511105 222.74564736 443.8125 225.9375 C470.48279145 251.58186015 488.88475419 284.37257612 490 322 C490.03996094 323.2890625 490.07992187 324.578125 490.12109375 325.90625 C490.529653 345.97672338 487.45457297 365.02226272 479.26953125 383.40234375 C477.07530286 389.62044943 476.0673621 394.4996433 478.6953125 400.7265625 C479.48707991 402.36824222 480.2977916 404.00088972 481.125 405.625 C481.96858814 407.39343487 482.80711127 409.16429452 483.640625 410.9375 C484.25260742 412.23107422 484.25260742 412.23107422 484.87695312 413.55078125 C494.38744158 434.29191607 495.2270314 457.29853055 495.1875 479.75 C495.18656342 480.44521759 495.18562683 481.14043518 495.18466187 481.85671997 C495.09451194 512.87850839 488.15960478 538.89344715 471 565 C470.61086426 565.59264648 470.22172852 566.18529297 469.82080078 566.79589844 C461.29682268 579.5975796 451.12528959 591.36099148 438.8046875 600.65625 C438.08539062 601.2234375 437.36609375 601.790625 436.625 602.375 C435.97789062 602.85710938 435.33078125 603.33921875 434.6640625 603.8359375 C429.57715922 610.45129999 430.69449113 620.47645756 430.5625 628.375 C429.48024475 666.42936792 417.26185141 695.40690266 391 723 C390.41863281 723.63421875 389.83726562 724.2684375 389.23828125 724.921875 C376.18459138 738.73182398 358.46097301 750.57516782 340.39331055 756.45605469 C336.63638977 757.79107974 335.1703948 758.70235291 333.1640625 762.20703125 C332.18159371 765.40829701 331.21889081 768.60790694 330.36621094 771.84643555 C324.9874589 792.15905072 313.83807243 810.24235073 299 825 C298.52691406 825.47566406 298.05382812 825.95132813 297.56640625 826.44140625 C290.09950606 833.86783543 282.07516859 839.68192968 273 845 C271.75669922 845.73863281 271.75669922 845.73863281 270.48828125 846.4921875 C265.48243848 849.2288282 260.24742375 851.01973698 254.8125 852.6875 C254.16627686 852.89020508 253.52005371 853.09291016 252.85424805 853.30175781 C240.67821261 856.82388517 228.1556306 857.33166318 215.57397461 857.26074219 C213.30360541 857.24995775 211.03401838 857.26074718 208.76367188 857.2734375 C196.92928054 857.28766423 185.96376234 856.52406858 175.125 851.4375 C174.36251953 851.08816406 173.60003906 850.73882813 172.81445312 850.37890625 C149.61770717 839.44911116 127.44601752 821.43704237 118 797 C112.81844024 776.73951915 114.83810034 753.66887725 114.83203125 732.9609375 C114.82880745 730.33452335 114.82544259 727.70810936 114.82194519 725.08169556 C114.81561962 719.62428495 114.81405609 714.16688644 114.81469727 708.70947266 C114.81530108 702.43865283 114.80466544 696.16791814 114.7889536 689.89711988 C114.77422913 683.79795831 114.77071087 677.69883736 114.77130699 671.59965897 C114.77013424 669.03143589 114.76575249 666.46321203 114.75797462 663.89500046 C114.74810508 660.305417 114.75107833 656.71605232 114.75708008 653.12646484 C114.75146057 652.08724884 114.74584106 651.04803284 114.74005127 649.97732544 C114.78750397 638.72835747 115.09316195 627.66676299 123 619 C129.69771763 612.8742223 136.75869603 611.51879731 145.68359375 611.69140625 C154.43893145 612.50609609 161.13352482 616.56449027 167 623 C172.12495769 629.69958237 172.14096992 637.49654713 172.54492188 645.58959961 C172.58681389 646.41297538 172.6287059 647.23635115 172.67186737 648.0846777 C173.09109309 656.94790483 173.19646951 665.81008466 173.26036072 674.68191719 C173.28191525 677.65826726 173.30887603 680.63453005 173.33703613 683.61082458 C173.40584831 690.99392088 173.46588844 698.37708306 173.52606201 705.76025391 C173.57752522 712.03324706 173.63249139 718.30619163 173.69187927 724.57911491 C173.71793342 727.47562465 173.7390476 730.37214085 173.7598877 733.26869202 C173.83232582 741.81837509 173.99164231 750.35142033 174.44335938 758.89038086 C174.47995415 759.60634965 174.51654892 760.32231844 174.55425262 761.05998325 C175.31264921 774.26114678 175.31264921 774.26114678 181.7578125 785.37890625 C194.07903297 794.28710572 208.35792827 799.1572669 223.5859375 797.5703125 C238.07004011 795.15077133 249.70162676 788.26298364 260 778 C260.93972656 777.09507812 260.93972656 777.09507812 261.8984375 776.171875 C265.89527309 772.01227235 268.7233593 767.33176546 271.5 762.3125 C271.86303223 761.67038574 272.22606445 761.02827148 272.60009766 760.36669922 C274.05115815 757.62358879 274.98449659 755.39964343 275.10546875 752.28125 C273.45998513 748.88562303 271.10037228 747.95217721 267.8125 746.1875 C262.31078333 743.02875966 257.5761196 740.01094574 255 734 C254.14827429 729.62389205 254.48970902 726.23544133 256.1875 722.125 C259.89998311 717.7724336 264.29998545 716.47769845 269.75 715.23828125 C271.08413219 714.9258421 272.41811076 714.6127464 273.75195312 714.29907227 C274.44554932 714.13867462 275.13914551 713.97827698 275.85375977 713.8130188 C311.07914241 705.59820392 343.70553758 691.17598633 363.98291016 659.70605469 C366.37853988 655.68765322 367.82222463 651.50447423 369 647 C369.21011719 646.23945312 369.42023437 645.47890625 369.63671875 644.6953125 C373.90007911 626.73477313 372.32981773 608.86797799 365 592 C363.17577566 587.69280364 362.34643166 584.73837048 363 580 C366.76948723 573.79552522 372.57588805 570.5107919 378.75 567.0625 C397.24368196 556.3216498 412.13548423 542.91136411 417.92358398 521.70068359 C419.44717922 515.54695118 420.73796999 509.3456833 421 503 C421.03996094 502.12730469 421.07992187 501.25460937 421.12109375 500.35546875 C421.49282199 484.02129254 419.22629389 466.35433672 409 453 C406.19094197 452.06364732 404.64124877 451.90310052 401.75390625 451.97265625 C400.9222998 451.98651367 400.09069336 452.00037109 399.23388672 452.01464844 C398.3523291 452.03043945 397.47077148 452.04623047 396.5625 452.0625 C382.19362716 452.17028579 368.52879202 451.02263038 357.625 440.734375 C351.58109154 434.283665 351.55388105 427.37906163 351.7265625 418.90234375 C352.29677648 410.76457562 354.78899878 403.950914 360.94140625 398.43359375 C368.11078852 393.44087403 376.13493574 392.05264836 384.70874023 391.71020508 C397.59934155 391.17213309 408.07707477 388.46913098 417.25 378.875 C428.8902193 364.04258759 429.31162856 342.14920694 427.17553711 324.3527832 C422.55247597 289.61609044 402.56622969 263.73278947 375.125 242.625 C374.02483172 241.80281857 372.9233708 240.98236252 371.8203125 240.1640625 C370.88960937 239.44992187 369.95890625 238.73578125 369 238 C368.21367188 237.40960937 367.42734375 236.81921875 366.6171875 236.2109375 C364.67353491 233.55367333 364.44759574 231.55365617 364.61816406 228.29248047 C365.3639708 223.81477888 367.13663458 219.73397549 368.875 215.5625 C377.93462127 193.45766435 377.51272821 169.90623252 368.62060547 147.7434082 C364.97852775 139.14275299 360.47013058 130.3999191 353.76171875 123.796875 C352 122 352 122 352 120 C351.43152344 119.72800781 350.86304688 119.45601562 350.27734375 119.17578125 C347.93984649 117.96894304 345.7785981 116.60385949 343.5625 115.1875 C329.63825562 106.78777146 313.78204044 102.54643591 297.6015625 105.65234375 C279.51333994 110.75471161 261.47880036 123.00457201 251.890625 139.4609375 C245.36198903 151.48495905 242.84645936 164.16592152 246.1875 177.625 C250.17671731 190.43829247 257.21563288 200.26634328 268.46875 207.74609375 C275.80735094 211.38141922 282.76503282 212.45569196 290.875 212.9375 C303.63526346 213.93494156 313.23033824 215.98796949 322 226 C323.74921842 228.56419519 324.96163524 231.07995766 326 234 C326.22300781 234.62519531 326.44601562 235.25039063 326.67578125 235.89453125 C329.36413065 244.87398402 328.77684623 254.44814103 325 263 C319.4472321 273.27262061 311.12177313 279.66346806 300 283 C290.44710332 285.18920549 281.92217647 284.01821991 273 280 C270.30377308 277.97580562 267.97232825 275.78536125 265.56640625 273.42578125 C258.41406328 266.66534748 250.00787812 261.88887612 241.3125 257.4375 C234.5274858 253.94874891 228.64266601 250.19619244 223 245 C222.11054687 244.20207031 221.22109375 243.40414062 220.3046875 242.58203125 C201.0095183 224.38867534 190.47889645 199.12197717 188.796875 172.82421875 C188.34400966 142.51997989 199.20252643 114.52455598 220 92.5 C226.36354819 86.29800874 233.58844498 81.41779739 240.92333984 76.44287109 C244.3546215 74.05880401 247.67901979 71.53453472 251 69 C250.322694 65.91163046 250.322694 65.91163046 248.0234375 64.75390625 C226.88327379 55.2439506 205.74187993 53.9413699 183.9921875 62.1328125 C181.25383312 63.31085099 178.63478948 64.60648912 176 66 C175.03707031 66.49113281 174.07414062 66.98226562 173.08203125 67.48828125 C164.90167537 71.92239395 158.52846353 77.47153647 152 84 C151.18402344 84.81597656 150.36804688 85.63195312 149.52734375 86.47265625 C139.63360221 96.9094505 131.87199128 109.85038607 128.5 123.875 C128.29133301 124.73593262 128.08266602 125.59686523 127.86767578 126.48388672 C123.89526821 143.52621103 121.86471812 160.84504931 120.3125 178.25 C120.25165222 178.92500549 120.19080444 179.60001099 120.12811279 180.29547119 C118.23522075 201.65252873 117.79944644 223.00500617 117.8125 244.4375 C117.8117749 245.65848389 117.8110498 246.87946777 117.81030273 248.13745117 C117.81152694 266.82992192 118.25352599 285.38333025 120 304 C121.19786133 304.07516846 122.39572266 304.15033691 123.62988281 304.2277832 C128.17815452 304.51552291 132.72561948 304.81471184 137.27294922 305.11694336 C139.22164731 305.24494952 141.17053809 305.370063 143.11962891 305.49194336 C153.42972222 306.13865288 163.66455797 306.945903 173.88671875 308.46875 C174.68092224 308.58684525 175.47512573 308.70494049 176.293396 308.82661438 C192.17954641 311.33796108 205.51156512 316.56758751 216.09765625 329.296875 C223.0760351 339.21276445 226.96772346 349.93661052 229.83447266 361.64160156 C231.55619107 368.42696801 233.9919638 374.38775803 239.375 379.0625 C243.1133845 380.39763732 245.18670507 380.11768989 249 379 C256.55968608 374.75171487 259.18202417 367.20531541 261.9140625 359.3828125 C264.49232122 352.18610774 268.27751421 346.00074618 274.875 341.80859375 C281.7665137 338.83662847 290.52573008 337.97870168 297.75 340 C305.63518398 343.18550005 310.59749421 348.73603929 314.03515625 356.3984375 C318.89116533 369.49196806 317.92794893 383.32296219 312.7109375 396.17578125 C309.56559151 402.79446385 305.7018473 408.40716337 301 414 C300.36320313 414.82886719 299.72640625 415.65773438 299.0703125 416.51171875 C289.1185653 428.47259227 273.29753491 436.70451003 258 439 C253.72561586 439.3609326 249.47614697 439.47738962 245.1875 439.5 C243.64993042 439.50954712 243.64993042 439.50954712 242.08129883 439.51928711 C231.84262279 439.34898531 222.19047589 437.18841116 213.0625 432.5 C212.39210693 432.15743164 211.72171387 431.81486328 211.03100586 431.46191406 C193.77780924 422.23787761 182.35628522 407.35149105 176 389 C174.84783218 385.13434089 173.89402916 381.24208204 173.01953125 377.3046875 C171.22935973 371.50206258 168.07576173 367.30514717 163 364 C158.20665678 362.37529139 154.04914869 361.75188414 149 361.76953125 C147.0509375 361.77243164 147.0509375 361.77243164 145.0625 361.77539062 C144.39476562 361.78159424 143.72703125 361.78779785 143.0390625 361.79418945 C141.00508044 361.81245438 138.97155565 361.81469855 136.9375 361.81445312 C130.84291008 361.84166112 125.02904735 362.03633291 119 363 C119.5867084 410.07190135 119.5867084 410.07190135 123 457 C123.68449219 457.22945312 124.36898438 457.45890625 125.07421875 457.6953125 C128.68454015 459.30525555 131.67614243 461.50796107 134.8125 463.875 C135.463396 464.3604126 136.11429199 464.8458252 136.78491211 465.34594727 C138.16229814 466.37409048 139.53799779 467.40449629 140.91210938 468.43701172 C142.94822802 469.96124366 144.99554616 471.46897849 147.046875 472.97265625 C170.49403886 490.22897114 190.44649224 508.30995263 203 535 C208.61958768 546.89694645 213.83112296 557.7018751 226 564 C232.98137161 566.30342607 240.81336461 565.97354609 247.4375 562.875 C255.41684958 558.25336072 257.52075271 553.33747078 260.09033203 544.75390625 C261.48783739 538.98685248 261.94605942 533.22137901 262.35415649 527.31228638 C264.79644445 492.77734331 264.79644445 492.77734331 274 483 C279.77985346 478.20395138 286.2463241 476.45955884 293.67578125 476.69921875 C301.33279885 477.69012691 306.45404122 481.59029659 311.27734375 487.44921875 C319.0680387 498.98510039 319.34563712 513.58029816 319.25 527 C319.24534729 528.01980453 319.24534729 528.01980453 319.24060059 529.06021118 C319.09291965 556.70859822 315.04799027 578.71227293 295 599 C294.41605469 599.65613281 293.83210937 600.31226563 293.23046875 600.98828125 C283.56817274 611.62903762 268.11673208 619.79666251 254 622 C253.34128906 622.11085938 252.68257812 622.22171875 252.00390625 622.3359375 C229.29207244 625.51301822 205.94205768 621.56623771 187.16796875 607.9453125 C184.73272195 606.01025882 182.35808188 604.02802995 180 602 C178.53626953 600.83597656 178.53626953 600.83597656 177.04296875 599.6484375 C173.87855549 597.00683163 171.27413575 593.99805116 168.75 590.75 C168.27820313 590.14357666 167.80640625 589.53715332 167.3203125 588.91235352 C159.9895277 579.25762174 154.32574631 568.63399735 148.79272461 557.88037109 C144.42618608 549.39393165 140.22731027 541.29762923 134 534 C133.278125 533.1440625 132.55625 532.288125 131.8125 531.40625 C121.39680454 520.03121417 106.5526891 513.15406676 91.24609375 511.625 C78.72190563 511.21394972 67.81699527 514.12172911 58 522 C57.18917969 522.64839844 56.37835937 523.29679688 55.54296875 523.96484375 C42.75703508 534.82601321 35.07480948 549.04230019 27.5625 563.75390625 C14.59245626 589.09357586 -1.92218519 610.1292245 -29.85546875 619.3203125 C-53.21656876 626.20475135 -76.89312359 622.33632847 -98.05761719 611.09863281 C-107.77193719 605.60410792 -116.0267254 597.7309609 -124 590 C-124.71542969 589.32195313 -125.43085937 588.64390625 -126.16796875 587.9453125 C-139.97091489 573.75976871 -138.19805377 547.66221535 -138.24023438 529.20117188 C-138.24995682 526.63639073 -138.28109279 524.07240749 -138.3125 521.5078125 C-138.39916481 508.0760625 -137.66869918 494.57111414 -130 483 C-124.99800663 477.99800663 -120.0903114 476.71036207 -113.125 476.6875 C-105.22165352 476.8113769 -99.74172594 478.25827406 -94 484 C-88.30462426 492.42440994 -85.75858798 501.5848092 -84.4375 511.5625 C-84.31310547 512.45291992 -84.18871094 513.34333984 -84.06054688 514.26074219 C-82.97413836 522.3919189 -82.30932433 530.55258743 -81.82202148 538.74047852 C-81.14288255 549.25402084 -81.14288255 549.25402084 -75.984375 558.0859375 C-75.24703125 558.51132812 -74.5096875 558.93671875 -73.75 559.375 C-72.95207031 559.84035156 -72.15414062 560.30570313 -71.33203125 560.78515625 C-63.77424 564.72229709 -57.39575075 567.11036658 -49 564.9375 C-38.40945218 561.30460151 -32.47455649 553.77983972 -27.4765625 544.02734375 C-25.62018007 540.06411459 -23.88297961 536.05619788 -22.15625 532.03515625 C-7.7715423 498.57786736 12.78778976 475.08154132 46.8125 461.3125 C47.48837158 461.06346924 48.16424316 460.81443848 48.8605957 460.55786133 C52.12468746 459.26332897 53.78647919 458.35194817 55.62869644 455.31540585 C60.0339137 444.66489527 59.29199297 431.88986308 59.25878906 420.55639648 C59.26150759 418.97100668 59.2650733 417.38561814 59.26940918 415.80023193 C59.27843243 411.54201929 59.27503124 407.28390488 59.26865101 403.02569079 C59.26353919 398.54129978 59.26829663 394.05691642 59.27142334 389.57252502 C59.27504765 382.04711417 59.270304 374.52174274 59.26074219 366.99633789 C59.24985665 358.32972729 59.25339016 349.66321081 59.264395 340.99660248 C59.27350708 333.51757873 59.27473419 326.0385831 59.26951766 318.55955559 C59.26641994 314.10924716 59.26592758 309.65898279 59.27259064 305.20867729 C59.27842104 301.02325466 59.2742645 296.83795196 59.26280212 292.65254211 C59.26018586 291.1280951 59.26086779 289.60363776 59.26532745 288.07919502 C59.29405374 277.25109632 58.83779871 266.51660495 56 256 C54.51113281 255.83564453 54.51113281 255.83564453 52.9921875 255.66796875 C25.42474797 252.50969756 25.42474797 252.50969756 20 246 C14.0107495 236.47825466 10.8443283 228.35191445 12 217 C13.98377262 209.30248709 18.57630403 203.91931407 25.125 199.59765625 C32.43798771 195.74193036 40.38214853 194.64000713 48.47094727 193.4309082 C49.39834717 193.28613037 50.32574707 193.14135254 51.28125 192.9921875 C52.11720703 192.87214355 52.95316406 192.75209961 53.81445312 192.62841797 C56.36894688 191.89391541 57.37666795 191.08169199 59 189 C67.04186741 164.87439776 57.87280706 130.54586678 47.25 108.6875 C35.40800948 85.4372497 13.94026587 66.79478068 -10.91796875 58.6484375 C-30.21593548 52.99529235 -48.84754864 53.80311549 -67 63 C-69.48491518 64.54832576 -71.70414212 66.17374941 -74 68 C-71.1109753 71.27422799 -68.38393271 73.44088085 -64.5625 75.5625 C-41.76469428 88.79883795 -21.01307208 114.64499154 -14 140.02734375 C-8.11662095 162.81454243 -8.67089071 188.66301137 -19 210 C-19.64582031 211.35158203 -19.64582031 211.35158203 -20.3046875 212.73046875 C-31.80468241 235.24317066 -50.40337337 252.32271748 -73.53125 262.06640625 C-79.83418796 264.92865814 -84.19271445 268.80112739 -89.1875 273.5546875 C-98.95975055 282.05111645 -108.56468873 283.75867346 -121.06005859 283.17480469 C-129.15568333 282.44532227 -136.38749013 277.65543538 -142 272 C-149.36321465 262.05098834 -151.21200219 252.18668197 -150 240 C-148.09522248 231.01724237 -143.8427513 224.45495897 -136.3125 219.25 C-126.8330084 213.89530771 -116.33130074 213.41604862 -105.69726562 212.91601562 C-95.38338192 212.262737 -89.27345657 209.10322879 -82.17578125 201.61328125 C-74.33120614 192.19134095 -69.19694569 180.79191443 -69.71484375 168.33984375 C-71.93304232 150.13846096 -81.76776852 136.19159315 -96 125 C-111.04481973 113.76893696 -129.69161861 113.4826743 -147.68359375 115.390625 C-164.94653589 119.12574147 -181.32105774 130.36904076 -191 145 C-200.20784965 160.76635825 -203.71990563 176.92385089 -199.375 194.8125 C-197.38817815 201.44681773 -194.63937851 207.13243057 -191 213 C-190.28975329 214.16499212 -189.58015088 215.33037722 -188.87109375 216.49609375 C-187.47183715 218.78810845 -186.05884085 221.06955209 -184.63671875 223.34765625 C-182.2400278 227.23155399 -181.36470785 229.37144287 -182 234 C-186.40265289 238.25728228 -191.29342535 240.92964681 -196.6875 243.75 C-204.25161078 247.82127139 -210.57239051 252.27505033 -217 258 C-218.546875 259.175625 -218.546875 259.175625 -220.125 260.375 C-240.10530536 278.6178875 -252.26921528 306.0685728 -254.203125 332.80859375 C-254.51198352 350.1304091 -250.39576322 371.04079299 -238 384 C-236.948125 385.1446875 -236.948125 385.1446875 -235.875 386.3125 C-228.1775224 390.83058468 -219.26989346 391.22804875 -210.5625 391.9375 C-197.19299772 393.06078886 -186.07718047 395.36409475 -176.625 405.5625 C-171.48149652 413.27775522 -172.39326765 421.89991593 -173.6875 430.75 C-174.99739316 437.1426476 -177.72611529 441.72611529 -182.3125 446.3125 C-193.04027286 453.04854343 -205.47076649 452.23963198 -217.70898438 452.4296875 C-219.39024414 452.47609375 -219.39024414 452.47609375 -221.10546875 452.5234375 C-222.11762451 452.54325684 -223.12978027 452.56307617 -224.17260742 452.58349609 C-228.1789049 453.17366478 -230.83322966 454.63653942 -233.4699707 457.71777344 C-236.49161654 462.71707132 -238.52095757 467.65883547 -240.1875 473.25 C-240.44160645 474.08192871 -240.69571289 474.91385742 -240.95751953 475.77099609 C-247.3860496 497.36834433 -244.95593289 514.99412068 -234.30322266 534.74169922 C-225.76123178 549.54376284 -213.44701937 559.66884608 -198.40600586 567.42675781 C-186.28276345 573.75192776 -186.28276345 573.75192776 -184.2277832 578.95532227 C-183.05630239 585.6748024 -185.32080629 591.84850911 -187.375 598.1875 C-188.03159249 600.28423578 -188.6853315 602.38186768 -189.3359375 604.48046875 C-189.63032715 605.39723389 -189.9247168 606.31399902 -190.22802734 607.25854492 C-195.44629053 625.78981542 -191.97353433 645.8985594 -183.04296875 662.6171875 C-166.60503603 689.83563824 -139.97724457 703.56039186 -110 711 C-107.45486031 711.636904 -104.91079368 712.27726847 -102.36889648 712.92700195 C-100.7627752 713.33627593 -99.15432664 713.73657533 -97.54321289 714.12573242 C-89.48279919 716.16259342 -82.60675174 718.80195041 -78 726 C-77.30276278 729.7185985 -77.74773104 731.47252854 -79.375 734.875 C-82.68173607 739.37982885 -87.4281654 742.86184175 -92 746 C-92.66 746 -93.32 746 -94 746 C-95.72560211 749.34969821 -96.43221484 752.10768592 -95.72265625 755.859375 C-92.52813634 765.32206099 -85.937373 773.03762746 -79 780 C-78.45988281 780.56332031 -77.91976562 781.12664063 -77.36328125 781.70703125 C-65.60221723 792.93484804 -48.9060626 796.55286521 -33.17163086 796.49023438 C-22.45362523 796.13808514 -12.10035102 793.17452857 -3.86328125 786.0078125 C6.24398268 775.11654697 8.13713431 761.33621347 8.17358398 747.07617188 C8.180271 745.98587677 8.18695801 744.89558167 8.19384766 743.77224731 C8.2078735 741.40857549 8.21977535 739.04489032 8.22979546 736.68119812 C8.24626443 732.92987254 8.26950771 729.17864476 8.29469299 725.42736816 C8.36528516 714.762499 8.42541637 704.0975943 8.47680664 693.43261719 C8.50835338 686.90281278 8.55009213 680.373111 8.59700203 673.84339905 C8.6129237 671.36534145 8.62529009 668.88725818 8.63390923 666.40916443 C8.76397297 629.53123173 8.76397297 629.53123173 16 620 C22.62758688 614.03144146 29.44243595 611.73052099 38.3125 612.0625 C47.75258779 613.01626318 54.26797187 616.47240064 60.52734375 623.546875 C64.92849674 630.87823861 65.43029682 638.21196106 65.35644531 646.59301758 C65.35848969 647.71978409 65.36053406 648.8465506 65.36264038 650.00746155 C65.36563858 653.71998539 65.34717654 657.4320603 65.328125 661.14453125 C65.32506127 663.75501903 65.32318982 666.36550845 65.32244873 668.97599792 C65.31876228 674.45418959 65.30385177 679.93225558 65.28125 685.41040039 C65.25266999 692.34977002 65.24204788 699.28903722 65.2375679 706.22845936 C65.23308446 712.92966441 65.21784672 719.63084193 65.203125 726.33203125 C65.20124428 727.5725355 65.19936356 728.81303974 65.19742584 730.09113503 C65.1714173 743.39205009 65.02517131 756.68421783 64.61230469 769.97924805 C64.56719191 771.65331207 64.56719191 771.65331207 64.52116776 773.36119556 C64.13513431 784.35000452 63.42562048 795.24415244 58 805 C57.53980469 805.83789062 57.07960938 806.67578125 56.60546875 807.5390625 C52.11559284 815.12050746 46.43973378 821.32040705 40.33935547 827.609375 C39.24908679 828.74137835 38.18491203 829.89846857 37.12890625 831.0625 C18.98661003 850.60731788 -8.27091945 856.77459364 -33.87890625 858.21875 C-68.09330779 859.04735306 -96.39055486 846.12580359 -121.05078125 822.8203125 C-122.03427682 821.8806505 -123.0173521 820.94054841 -124 820 C-124.48388184 819.54334961 -124.96776367 819.08669922 -125.46630859 818.61621094 C-140.56888073 804.32134447 -149.33664057 788.37469684 -155.56665039 768.73852539 C-157.99135933 761.22428556 -157.99135933 761.22428556 -163.71777344 756.00268555 C-165.78692543 754.99452535 -167.88005111 754.08369103 -170 753.1875 C-177.56036696 749.80618191 -184.28957533 745.88704031 -191 741 C-192.00675781 740.278125 -193.01351562 739.55625 -194.05078125 738.8125 C-199.94556613 734.49814664 -205.475053 729.9378682 -210.83203125 724.97265625 C-213.08320386 722.86393872 -213.08320386 722.86393872 -216.0625 720.6875 C-241.03206532 697.84300407 -251.47538329 663.31436231 -253.2109375 630.86914062 C-254.46037954 609.63939701 -263.60030701 598.8815609 -278.5 584.6875 C-299.00301581 564.29571212 -311.18402974 536.9563116 -317 509 C-317.37125 507.22689453 -317.37125 507.22689453 -317.75 505.41796875 C-323.69278738 469.96759124 -315.32419836 435.27664822 -303.66088867 402.0168457 C-300.9242603 393.66542826 -302.24475838 387.44711683 -305.3125 379.4375 C-310.14919156 366.24740375 -313.08218063 353.12095634 -313.23828125 339.01171875 C-313.25310799 337.90694939 -313.25310799 337.90694939 -313.26823425 336.77986145 C-313.73072126 293.42049179 -299.36952452 258.27965223 -269 227 C-267.69181024 225.70396814 -266.37995071 224.41161675 -265.0625 223.125 C-260.35935445 218.38793753 -257.77438743 215.1306091 -257.625 208.25 C-257.78344968 203.49650947 -258.44844668 199.05319492 -259.48828125 194.421875 C-260.35787406 190.30624489 -260.73433911 186.19364695 -261 182 C-261.05414063 181.15566406 -261.10828125 180.31132813 -261.1640625 179.44140625 C-262.06249597 150.65069735 -251.56456285 121.90133068 -233 100 C-232.56494141 99.48276367 -232.12988281 98.96552734 -231.68164062 98.43261719 C-212.02318617 75.32214922 -187.27453894 62.28571063 -157.8125 55.9375 C-144.44575781 52.94499149 -137.19259986 45.59339333 -127.9296875 35.97265625 C-110.38388845 17.91551622 -90.11213228 6.72796202 -66 0 C-65.31599121 -0.19352051 -64.63198242 -0.38704102 -63.92724609 -0.58642578 C-44.41637965 -5.79363383 -19.43574301 -5.02825453 0 0 Z " fill="#1C273B" transform="translate(689,411)"/>
<path d="M0 0 C6.36722128 3.62625169 12.35453674 7.61340249 14.70141602 14.79296875 C16.12883351 20.83409164 15.93028651 26.95831518 15.92578125 33.1328125 C15.93006638 34.44224823 15.9343515 35.75168396 15.93876648 37.10079956 C15.9461961 39.86606916 15.94596304 42.63121105 15.94067383 45.39648438 C15.9349094 48.8993372 15.95175196 52.40165602 15.9750185 55.90442085 C15.99351355 59.29307084 15.9895657 62.6816127 15.98828125 66.0703125 C15.997491 67.30725861 16.00670074 68.54420471 16.01618958 69.81863403 C15.90444174 91.24657466 7.93940687 108.5363987 -6.74609375 123.99609375 C-23.18618378 139.59445117 -45.98557232 146.32951798 -68.34375 145.75 C-82.96109833 145.04859173 -95.33206365 140.23760586 -105.375 129.5 C-111.07324122 122.09228642 -113.92830411 113.6191796 -113.19921875 104.23828125 C-111.5968375 94.96389279 -105.87484998 87.91226287 -98.375 82.5 C-88.88853853 77.75676926 -73.88992955 82.5272626 -64.375 85.5 C-63.01568359 86.06074219 -63.01568359 86.06074219 -61.62890625 86.6328125 C-58.14300467 87.9740086 -55.95011403 87.48623835 -52.375 86.5 C-47.27407807 83.33639792 -44.81460933 80.39523276 -43.375 74.5 C-42.89497368 70.55053683 -42.63180978 66.59446213 -42.375 62.625 C-42.20891879 60.29162492 -42.04223805 57.95829245 -41.875 55.625 C-41.7925 54.44164062 -41.71 53.25828125 -41.625 52.0390625 C-38.65323067 9.96995297 -38.65323067 9.96995297 -29.4375 1.625 C-20.75394036 -4.4003271 -9.41407237 -4.39641959 0 0 Z " fill="#1C273B" transform="translate(665.375,705.5)"/>
</svg>
