<?xml version="1.0" encoding="UTF-8"?>
<svg version="1.1" xmlns="http://www.w3.org/2000/svg" width="93" height="93">
<path d="M0 0 C0.495 1.485 0.495 1.485 1 3 C2.11375 3.0825 3.2275 3.165 4.375 3.25 C16.73773442 4.9417426 25.41405793 11.92154689 32.98828125 21.51953125 C39.94746117 32.20869345 41.09091613 44.23540178 39.4375 56.625 C39.293125 57.73875 39.14875 58.8525 39 60 C39.33 60.33 39.66 60.66 40 61 C40.29718836 63.82328946 40.42837659 65.40027277 38.75 67.75 C37 69 37 69 35.0625 69.3125 C32.31604384 70.22798539 31.71077026 71.8842232 30.234375 74.2578125 C24.77328058 81.96555969 15.17734157 87.64180304 6.05078125 89.6484375 C-8.1424952 91.28402634 -20.33495982 89.5305566 -32 81 C-35.18311042 78.2766722 -38.19780279 75.66820556 -40.03125 71.85546875 C-41.41212049 69.21065632 -43.27889235 69.02041537 -46 68 C-48.34443169 64.48335247 -47.94071872 63.15543733 -47.19140625 59.1328125 C-46.96155037 56.5715613 -47.45477873 54.50724995 -48 52 C-49.16246351 40.28008102 -46.28802051 28.66020439 -39.03125 19.3125 C-31.80406757 11.08463078 -24.75101391 5.8039997 -14 3 C-11.11328125 2.87890625 -11.11328125 2.87890625 -9 3 C-8.67 2.01 -8.34 1.02 -8 0 C-5.13822943 -1.43088528 -3.06624227 -0.59991697 0 0 Z M-5 3 C-4.67 3.99 -4.34 4.98 -4 6 C-3.34 5.34 -2.68 4.68 -2 4 C-2.99 3.67 -3.98 3.34 -5 3 Z M-29 14 C-29.825 14.556875 -30.65 15.11375 -31.5 15.6875 C-39.25221723 22.85830094 -44.36768902 33.67702292 -45.16796875 44.2109375 C-45.21214869 49.10607468 -45.03914488 53.45826821 -43 58 C-39.99405579 59.53146378 -39.99405579 59.53146378 -37 60 C-37 60.66 -37 61.32 -37 62 C-34.56183415 62.0809723 -32.12635616 62.14046972 -29.6875 62.1875 C-28.99720703 62.21263672 -28.30691406 62.23777344 -27.59570312 62.26367188 C-23.69530402 62.38904112 -23.69530402 62.38904112 -20.29492188 60.73242188 C-18.72011503 58.62555359 -18.64829364 57.59231522 -18.70703125 54.98828125 C-18.71669922 54.23095703 -18.72636719 53.47363281 -18.73632812 52.69335938 C-18.76146484 51.90767578 -18.78660156 51.12199219 -18.8125 50.3125 C-18.82603516 49.51521484 -18.83957031 48.71792969 -18.85351562 47.89648438 C-18.88882911 45.93070033 -18.94263553 43.96526418 -19 42 C-19.66 42 -20.32 42 -21 42 C-21 39.03 -21 36.06 -21 33 C-15.58860759 32.63924051 -15.58860759 32.63924051 -13.0625 34.1875 C-12 36 -12 36 -12.1875 38.625 C-13 41 -13 41 -15 42 C-15.08089542 44.77141717 -15.14044062 47.54047819 -15.1875 50.3125 C-15.21263672 51.09818359 -15.23777344 51.88386719 -15.26367188 52.69335938 C-15.27333984 53.45068359 -15.28300781 54.20800781 -15.29296875 54.98828125 C-15.3086792 55.68477783 -15.32438965 56.38127441 -15.34057617 57.09887695 C-14.90178211 59.54826 -13.75523481 60.30790103 -12 62 C-12.42105263 66.42105263 -12.42105263 66.42105263 -14 68 C-16.9375 68.25 -16.9375 68.25 -20 68 C-20.66 67.01 -21.32 66.02 -22 65 C-24.62697064 64.77862607 -27.00893964 64.71837975 -29.625 64.8125 C-30.33140625 64.82603516 -31.0378125 64.83957031 -31.765625 64.85351562 C-33.51074128 64.8888896 -35.25546608 64.94269779 -37 65 C-37.76569854 66.80242219 -37.76569854 66.80242219 -38 69 C-33.44290728 76.97902517 -24.30864051 83.25202101 -15.6875 85.9375 C-3.05430852 88.75867619 8.61162399 87.13817903 19.7421875 80.3203125 C24.09155812 77.1117604 27.61292705 73.88264923 30 69 C29.63912443 66.86196742 29.63912443 66.86196742 29 65 C25.04907941 64.92590599 21.09842706 64.87142594 17.14697266 64.83520508 C15.14080626 64.81267749 13.13483474 64.7745643 11.12890625 64.73632812 C9.87207031 64.72666016 8.61523438 64.71699219 7.3203125 64.70703125 C6.15773926 64.6913208 4.99516602 64.67561035 3.79736328 64.65942383 C2.8742334 64.77181396 1.95110352 64.8842041 1 65 C0.34 65.99 -0.32 66.98 -1 68 C-3.31 67.67 -5.62 67.34 -8 67 C-8 64.69 -8 62.38 -8 60 C-7.34 59.67 -6.68 59.34 -6 59 C-5.92396572 52.09496103 -5.87140682 45.19002993 -5.83520508 38.28466797 C-5.8201141 35.93534307 -5.79963908 33.58604637 -5.77368164 31.23681641 C-5.7373128 27.86093185 -5.72027662 24.48541963 -5.70703125 21.109375 C-5.69154739 20.05820496 -5.67606354 19.00703491 -5.66011047 17.92401123 C-5.65977058 16.45293915 -5.65977058 16.45293915 -5.65942383 14.95214844 C-5.65276199 14.09055115 -5.64610016 13.22895386 -5.63923645 12.34124756 C-6.08840766 9.42626069 -6.8964166 8.05707147 -9 6 C-16.44330487 6 -23.10426259 9.61247449 -29 14 Z M-0.72573853 7.69346619 C-2.18677818 10.33808618 -2.37977084 11.89953807 -2.38818359 14.90454102 C-2.39764008 15.87557266 -2.40709656 16.84660431 -2.4168396 17.84706116 C-2.41076691 18.88882004 -2.40469421 19.93057892 -2.3984375 21.00390625 C-2.40130768 22.07873764 -2.40417786 23.15356903 -2.40713501 24.26097107 C-2.4091752 26.53132657 -2.4036485 28.80169967 -2.39111328 31.07202148 C-2.375044 34.55296972 -2.39097225 38.03275954 -2.41015625 41.51367188 C-2.40817412 43.71875257 -2.40433107 45.92383254 -2.3984375 48.12890625 C-2.40451019 49.17268936 -2.41058289 50.21647247 -2.4168396 51.29188538 C-2.40738312 52.25976486 -2.39792664 53.22764435 -2.38818359 54.22485352 C-2.38579681 55.0766066 -2.38341003 55.92835968 -2.38095093 56.80592346 C-1.91349436 59.4982269 -1.17404589 60.38523664 1 62 C5.57354898 62.65631003 10.19726763 62.46299852 14.8125 62.4375 C16.08416016 62.45748047 17.35582031 62.47746094 18.66601562 62.49804688 C27.70759459 62.63946381 27.70759459 62.63946381 35 58 C38.65896612 49.2502984 37.20025809 39.33174725 33.8125 30.6875 C28.07988602 18.25591711 20.2607512 12.04264104 7.734375 6.8828125 C3.16120463 5.40343703 3.16120463 5.40343703 -0.72573853 7.69346619 Z M-43 62 C-43 63.32 -43 64.64 -43 66 C-42.01 65.67 -41.02 65.34 -40 65 C-40.33 64.01 -40.66 63.02 -41 62 C-41.66 62 -42.32 62 -43 62 Z M-18 62 C-18 62.99 -18 63.98 -18 65 C-17.01 65 -16.02 65 -15 65 C-15.66 64.67 -16.32 64.34 -17 64 C-17.33 63.34 -17.66 62.68 -18 62 Z M-5 62 C-5 62.99 -5 63.98 -5 65 C-4.34 65.33 -3.68 65.66 -3 66 C-2.67 65.01 -2.34 64.02 -2 63 C-2.99 62.67 -3.98 62.34 -5 62 Z M33 62 C33 62.99 33 63.98 33 65 C33.99 65 34.98 65 36 65 C36 64.01 36 63.02 36 62 C35.01 62 34.02 62 33 62 Z " fill="#F9FCFD" transform="translate(51,2)"/>
</svg>
