<?xml version="1.0" encoding="UTF-8"?>
<svg version="1.1" xmlns="http://www.w3.org/2000/svg" width="1680" height="2637">
<path d="M0 0 C0.73700764 -0.00058914 1.47401527 -0.00117828 2.23335648 -0.00178528 C27.94835841 -0.01625142 53.45233873 0.80097133 79.0625 3.25 C80.64337027 3.3962304 82.2242621 3.54222797 83.80517578 3.68798828 C105.70097234 5.73631761 127.34407615 8.97530242 148.98150635 12.87689209 C150.96762259 13.23298913 152.95521658 13.58081456 154.94287109 13.92822266 C244.45786276 29.63940025 331.93428652 62.27604762 455.0625 134.25 C456.09375 134.91773438 457.125 135.58546875 458.1875 136.2734375 C479.66186453 150.41072748 500.56221897 165.49226845 520.38183594 181.86914062 C522.6493871 183.73219545 524.94831347 185.55437336 527.25 187.375 C536.01265707 194.3703985 544.51021443 201.67179995 552.80859375 209.2109375 C554.8313269 211.04086247 556.87619435 212.83881728 558.9375 214.625 C570.19291229 224.47237997 580.83264622 234.86257004 591.39135742 245.44848633 C593.88411995 247.94663968 596.38222475 250.43936198 598.88085938 252.93164062 C600.48990428 254.54134591 602.09863918 256.15136115 603.70703125 257.76171875 C604.81036552 258.86201668 604.81036552 258.86201668 605.93598938 259.98454285 C609.97316447 264.03985864 613.84437971 268.18572549 617.57551575 272.52490234 C619.6414101 274.92161199 621.79054229 277.23843635 623.9375 279.5625 C628.01109909 284.02873514 631.87077703 288.61921379 635.6640625 293.32421875 C637.83519279 295.97271482 640.05615851 298.56222839 642.30566406 301.14355469 C649.07826487 308.92568121 655.35335762 317.02810486 661.55908203 325.26611328 C662.920269 327.06231421 664.29606558 328.84520707 665.68359375 330.62109375 C688.6140297 360.00874046 708.68126591 391.86334719 727.0625 424.25 C727.45969238 424.94528809 727.85688477 425.64057617 728.26611328 426.35693359 C747.45576364 460.00858053 763.80222031 494.90244629 777.80029297 531.00537109 C778.90312272 533.84030483 780.02616447 536.66571776 781.16015625 539.48828125 C811.50162445 615.84098904 827.17658434 698.57591459 759.28808594 1192.39453125 C755.67581122 1200.73921266 751.90525745 1209.00905312 748.0625 1217.25 C747.5576709 1218.33796875 747.0528418 1219.4259375 746.53271484 1220.546875 C740.03175593 1234.50463204 733.04459924 1248.10949463 725.54931641 1261.55712891 C724.06363676 1264.24794113 722.61108865 1266.95412195 721.16796875 1269.66796875 C710.80160121 1289.1118839 698.94446564 1307.54316554 686.75 1325.875 C686.33983643 1326.49221924 685.92967285 1327.10943848 685.50708008 1327.74536133 C677.60345493 1339.61904673 669.45085276 1351.3182202 660.75 1362.625 C660.21004395 1363.32850586 659.67008789 1364.03201172 659.11376953 1364.75683594 C648.95945821 1377.92189909 638.35365248 1390.74731146 627.42578125 1403.27734375 C571.92074024 1467.27306785 537.73186281 1551.87615514 497.75 1754.0625 C497.66841644 1754.92490295 497.58683289 1755.78730591 497.5027771 1756.67584229 C495.4716984 1778.49256916 494.88166381 1800.32097261 494.58569336 1822.22094727 C494.34138254 1839.63431076 493.91164174 1857.32925593 490 1874.375 C489.68409912 1875.77395508 489.68409912 1875.77395508 489.36181641 1877.20117188 C481.41709612 1910.7492322 466.9160904 1941.55911564 445.0625 1968.25 C444.63114746 1968.77754883 444.19979492 1969.30509766 443.75537109 1969.84863281 C435.22304197 1980.23446169 426.43824929 1990.88826294 416.1015625 1999.5234375 C413.61799371 2001.62638272 411.25699194 2003.84525678 408.875 2006.0625 C387.26423527 2025.71673459 361.73385705 2041.51249336 336.0625 2055.25 C334.67756348 2055.9927417 334.67756348 2055.9927417 333.26464844 2056.75048828 C330.36778436 2058.29937843 327.46639997 2059.83934558 324.5625 2061.375 C323.64742676 2061.86105713 322.73235352 2062.34711426 321.78955078 2062.84790039 C320.94118652 2063.29254639 320.09282227 2063.73719238 319.21875 2064.1953125 C318.08663086 2064.79110107 318.08663086 2064.79110107 316.93164062 2065.39892578 C315.0625 2066.25 315.0625 2066.25 313.0625 2066.25 C313.0625 2066.91 313.0625 2067.57 313.0625 2068.25 C314.31289062 2068.641875 315.56328125 2069.03375 316.8515625 2069.4375 C348.55670406 2080.03476715 377.7899023 2099.53287428 402.0625 2122.25 C402.99964844 2123.12140625 403.93679688 2123.9928125 404.90234375 2124.890625 C430.43064618 2149.17508903 449.66496948 2183.62514314 456.0625 2218.25 C456.22041016 2219.05421387 456.37832031 2219.85842773 456.54101562 2220.68701172 C462.30558747 2250.6307599 459.57984297 2284.98596481 445.0625 2312.25 C444.33009024 2313.70735948 443.59968968 2315.16573009 442.87109375 2316.625 C429.34598747 2343.19809114 411.0730277 2365.44145362 387.0625 2383.25 C385.55623047 2384.37341797 385.55623047 2384.37341797 384.01953125 2385.51953125 C350.96790541 2409.25 350.96790541 2409.25 340.0625 2409.25 C340.0625 2409.91 340.0625 2410.57 340.0625 2411.25 C340.61679688 2411.50523437 341.17109375 2411.76046875 341.7421875 2412.0234375 C355.46853981 2419.27945539 367.36769452 2431.13026475 379.0625 2441.25 C380.29806641 2442.31347656 380.29806641 2442.31347656 381.55859375 2443.3984375 C401.51505276 2460.67643036 418.74045008 2481.53858664 434.26660156 2502.79394531 C435.4269308 2504.38080124 436.59258911 2505.96378035 437.76464844 2507.54199219 C452.38945653 2527.23696686 462.13325983 2547.07278767 460.0625 2572.25 C459.23053214 2577.72437296 457.71909894 2582.97534295 456.0625 2588.25 C455.77375 2589.17425781 455.485 2590.09851562 455.1875 2591.05078125 C449.02822066 2608.29126404 435.11944942 2622.05030189 419.0625 2630.25 C414.79858111 2632.18859568 410.52389525 2633.82627309 406.0625 2635.25 C404.90621094 2635.61931641 404.90621094 2635.61931641 403.7265625 2635.99609375 C389.75486758 2639.55029684 374.49472767 2637.88347276 361.0625 2633.25 C360.175625 2632.97285156 359.28875 2632.69570312 358.375 2632.41015625 C340.23436739 2626.10163498 328.99974176 2611.48248547 318.55078125 2596.26953125 C311.60189536 2586.19089299 303.95523054 2576.87928977 295.5703125 2567.96875 C293.79747467 2566.04679497 292.12306591 2564.13322761 290.47265625 2562.11328125 C288.52380074 2559.79802827 286.67939028 2557.87198815 284.375 2555.9375 C281.36568744 2553.38042179 278.45258138 2550.75343292 275.5625 2548.0625 C205.01168535 2484.70636508 101.71401494 2471.11096145 -70.6875 2459.125 C-71.7340274 2459.08638855 -72.78055481 2459.0477771 -73.85879517 2459.00799561 C-81.88401748 2458.7176366 -89.91031133 2458.47868397 -97.9375 2458.25 C-99.36503468 2458.20725836 -100.79256549 2458.16438698 -102.22009277 2458.12139893 C-126.55060523 2457.39904965 -150.87802777 2457.15197147 -175.21767139 2457.04926538 C-177.60887922 2457.03906461 -180.00008407 2457.02833282 -182.39128876 2457.01742172 C-197.18400074 2456.95000566 -211.97670754 2456.88537537 -226.76953125 2456.84863281 C-234.16067876 2456.83020098 -241.55170745 2456.80121749 -248.94276738 2456.7606281 C-252.81256964 2456.73981729 -256.68222474 2456.72413726 -260.55208588 2456.72182083 C-299.4218429 2456.69180167 -299.4218429 2456.69180167 -312.25 2449.5625 C-313.23625366 2449.03922119 -313.23625366 2449.03922119 -314.24243164 2448.50537109 C-333.2046145 2438.19435138 -345.65270383 2423.05817205 -352.02734375 2402.46484375 C-352.32769531 2401.40394531 -352.62804687 2400.34304687 -352.9375 2399.25 C-353.11563232 2398.63745361 -353.29376465 2398.02490723 -353.47729492 2397.39379883 C-356.56143215 2383.02679141 -354.72463022 2366.6257638 -348.9375 2353.25 C-348.54175781 2352.30253906 -348.14601563 2351.35507813 -347.73828125 2350.37890625 C-344.96779056 2344.33168904 -341.15946987 2339.35195891 -336.9375 2334.25 C-336.215625 2333.26 -335.49375 2332.27 -334.75 2331.25 C-325.05900002 2319.89139288 -309.32797579 2312.17306539 -294.9375 2309.25 C-294.11943375 2309.07765083 -293.30136749 2308.90530167 -292.45851135 2308.7277298 C-287.66197654 2308.07693735 -282.93658806 2308.09991442 -278.10131836 2308.09851074 C-277.00723191 2308.09427833 -275.91314547 2308.09004592 -274.78590488 2308.08568525 C-271.11638311 2308.07266218 -267.44688309 2308.06663431 -263.77734375 2308.06054688 C-261.14489612 2308.05260206 -258.5124498 2308.04421391 -255.88000488 2308.03541565 C-250.19986497 2308.01706692 -244.51972458 2308.00221656 -238.83956909 2307.98963928 C-230.56827656 2307.97124235 -222.29701148 2307.94656895 -214.02574074 2307.92026538 C-200.52758633 2307.87743107 -187.02942398 2307.83836367 -173.53125 2307.80224609 C-172.7233981 2307.80008329 -171.91554619 2307.79792049 -171.08321393 2307.79569215 C-166.99791989 2307.78476776 -162.91262574 2307.7738862 -158.82733154 2307.76302338 C-150.75207446 2307.74153686 -142.67681815 2307.71976981 -134.6015625 2307.69775391 C-133.80925983 2307.69559504 -133.01695717 2307.69343617 -132.20064533 2307.69121188 C-118.80953822 2307.65461323 -105.41844308 2307.61460003 -92.02735233 2307.57245111 C-84.54410837 2307.54904837 -77.06086759 2307.527398 -69.5776062 2307.51036072 C-40.88872323 2307.44459398 -12.20433175 2307.3223905 16.48046875 2306.78320312 C17.54868929 2306.76323304 18.61690983 2306.74326296 19.71750069 2306.72268772 C40.23529522 2306.32964285 60.75980779 2305.82119268 81.26171875 2304.90625 C82.91719978 2304.83271301 82.91719978 2304.83271301 84.60612488 2304.75769043 C132.175305 2302.56848075 180.28219639 2299.61022082 227.0625 2290.25 C228.1973584 2290.02731445 229.3322168 2289.80462891 230.50146484 2289.57519531 C256.98671324 2284.30416623 287.25360622 2278.20662213 306.0625 2257.25 C307.96520467 2254.16163367 308.46931392 2252.00191827 307.77734375 2248.35546875 C302.62861987 2233.19064815 288.43340298 2222.80930903 275.0625 2215.25 C274.46904785 2214.91403809 273.8755957 2214.57807617 273.26416016 2214.23193359 C254.50415313 2203.83561519 233.80985778 2197.32697699 213.0625 2192.25 C211.45181641 2191.84467041 211.45181641 2191.84467041 209.80859375 2191.43115234 C186.63361972 2185.64729577 163.18109715 2181.99358153 139.55432129 2178.60809326 C137.33337961 2178.28892742 135.1133382 2177.96430942 132.89355469 2177.63720703 C88.25275925 2171.15179039 42.85401452 2168.77638826 -2.16192627 2166.39782715 C-4.79810474 2166.2574242 -7.43398728 2166.11247907 -10.06982422 2165.96582031 C-33.63052143 2164.66342263 -57.21056978 2163.90203626 -80.796875 2163.24609375 C-81.9707642 2163.21329134 -81.9707642 2163.21329134 -83.16836834 2163.17982626 C-109.86877514 2162.43770193 -136.56538081 2162.01421196 -163.27483177 2161.78224921 C-166.07682718 2161.75782381 -168.87881473 2161.73263179 -171.68080139 2161.70722389 C-188.74947567 2161.55297075 -205.8182044 2161.40906852 -222.88720703 2161.29638672 C-231.4667048 2161.23962941 -240.04597388 2161.16898567 -248.62523055 2161.08307922 C-253.96193773 2161.03037357 -259.29839359 2160.99408273 -264.63530684 2160.97100472 C-267.92805888 2160.95263115 -271.2204925 2160.91788445 -274.5130558 2160.87864685 C-276.01976539 2160.86386099 -277.52655667 2160.85554386 -279.03333855 2160.85465622 C-298.81951165 2160.83359582 -316.11338142 2154.57565172 -330.9375 2141.25 C-331.54851562 2140.73179687 -332.15953125 2140.21359375 -332.7890625 2139.6796875 C-344.14349171 2129.36219246 -352.98879523 2112.00347421 -354.13037109 2096.65722656 C-354.82642768 2072.75506523 -351.0903805 2054.67966747 -334.9375 2036.25 C-334.33292969 2035.55003906 -333.72835938 2034.85007812 -333.10546875 2034.12890625 C-321.71616899 2021.82846251 -304.50120442 2013.75759017 -287.75059509 2013.01812744 C-282.53412535 2012.85166391 -277.3161594 2012.78971826 -272.09765625 2012.72265625 C-270.12083801 2012.69009465 -268.14403637 2012.65651195 -266.16725159 2012.62197876 C-261.96476629 2012.54951353 -257.76224408 2012.48148558 -253.55963135 2012.4168396 C-242.49620826 2012.24422191 -231.43362357 2012.02654455 -220.37109375 2011.8046875 C-219.26839142 2011.78266203 -218.16568909 2011.76063656 -217.02957153 2011.73794365 C-123.76821332 2009.85356184 -29.95655864 2003.41846873 250.0625 1933.25 C250.95743164 1932.83008789 251.85236328 1932.41017578 252.77441406 1931.97753906 C286.40596608 1916.0389456 321.03671557 1894.12856228 338.5 1860.125 C338.81783447 1859.51712646 339.13566895 1858.90925293 339.46313477 1858.28295898 C344.28609854 1848.43861427 345.51216918 1838.12972339 345.72265625 1827.296875 C345.75724442 1826.09087646 345.79183258 1824.88487793 345.82746887 1823.64233398 C345.89997806 1821.08165205 345.96687243 1818.52080571 346.02850342 1815.95983887 C346.19116505 1809.28484745 346.40151158 1802.6113351 346.60546875 1795.9375 C346.64412048 1794.63770203 346.68277222 1793.33790405 346.72259521 1791.99871826 C349.48999635 1700.2242816 366.1275476 1608.89713055 425.68994141 1450.15087891 C427.09947015 1447.17186423 428.49309102 1444.18570039 429.88671875 1441.19921875 C439.83814847 1420.02607086 450.57707879 1399.05295529 463.0625 1379.25 C463.57635254 1378.42870605 464.09020508 1377.60741211 464.61962891 1376.76123047 C478.63826565 1354.3801791 493.22209586 1332.13843834 510.5546875 1312.15234375 C512.92297629 1309.4114737 515.22040063 1306.62727414 517.5 1303.8125 C520.38987685 1300.2541463 523.34144914 1296.76512495 526.35375977 1293.31103516 C580.32569567 1231.27492459 617.65265475 1153.92501005 660.0625 1024.25 C660.25672546 1023.52012878 660.45095093 1022.79025757 660.65106201 1022.03826904 C670.97795785 983.0607634 678.00336887 943.36166784 682.0625 903.25 C682.18625 902.03872437 682.18625 902.03872437 682.3125 900.80297852 C686.86729965 855.61195539 686.83429025 809.64339354 682.28387451 764.45562744 C682.06852312 762.3100103 681.86180716 760.16371108 681.65673828 758.01708984 C673.67762077 675.85042446 648.40605601 594.73287756 600.54492188 501.89111328 C599.08822237 499.29582751 597.64548632 496.69311796 596.203125 494.08984375 C582.00563719 468.66413546 565.78714256 444.35068304 548.0625 421.25 C546.9178125 419.73986328 546.9178125 419.73986328 545.75 418.19921875 C531.75655097 399.78976939 516.84200632 382.15177655 501.0625 365.25 C500.43375977 364.57614258 499.80501953 363.90228516 499.15722656 363.20800781 C497.06578618 360.96952079 494.97113099 358.73409496 492.875 356.5 C492.22168701 355.80277832 491.56837402 355.10555664 490.89526367 354.38720703 C484.5164378 347.61065867 478.05584235 341.03375044 470.99609375 334.96484375 C469.10755403 333.28995701 467.33094352 331.55052413 465.5625 329.75 C461.89962494 326.03795884 458.02100906 322.64208825 454.0625 319.25 C453.04268849 318.3662087 452.02318012 317.48206755 451.00390625 316.59765625 C420.72200612 290.39055964 388.40581563 266.84547765 354.0625 246.25 C353.36930664 245.83250488 352.67611328 245.41500977 351.96191406 244.98486328 C273.1526607 197.61287288 185.17531582 167.03281512 -166.20184326 168.80926514 C-199.17970004 177.09106495 -231.65565616 187.92282393 -262.9375 201.25 C-264.48147461 201.90355469 -264.48147461 201.90355469 -266.05664062 202.5703125 C-293.23477536 214.14955432 -319.86138274 227.20938968 -345.12402344 242.54394531 C-348.02419104 244.30256829 -350.93680349 246.03912241 -353.8515625 247.7734375 C-366.19941941 255.1577206 -378.19825736 262.9331384 -389.9375 271.25 C-390.71496582 271.80075195 -391.49243164 272.35150391 -392.29345703 272.91894531 C-409.90592482 285.4406214 -426.75627859 298.76712416 -443.20654297 312.77783203 C-445.01098818 314.31250123 -446.81987519 315.84183421 -448.62890625 317.37109375 C-456.69484324 324.20600163 -456.69484324 324.20600163 -464.26538086 331.57885742 C-465.9158448 333.22835745 -467.62953618 334.72712814 -469.41015625 336.234375 C-474.49092066 340.65270916 -479.23497042 345.39711992 -483.9831543 350.1652832 C-485.4974258 351.68491668 -487.0169743 353.19912517 -488.53710938 354.71289062 C-493.33711567 359.50961474 -498.03099625 364.35493117 -502.44604492 369.51342773 C-504.66486268 372.09690306 -506.99135206 374.57057691 -509.3125 377.0625 C-513.53024087 381.63297905 -517.5470264 386.3193887 -521.4453125 391.16796875 C-523.31619084 393.48164118 -525.20481879 395.77186579 -527.1171875 398.05078125 C-535.22220702 407.73368799 -542.84892202 417.6822972 -550.24365234 427.91650391 C-551.86269831 430.14695091 -553.50019278 432.36237867 -555.14453125 434.57421875 C-606.47356928 503.97886897 -642.43891984 585.58701517 -682.25 831.125 C-682.24777643 832.7046203 -682.24559997 834.28424066 -682.24346924 835.86386108 C-682.20007009 859.09988494 -681.81603093 882.16627631 -678.9375 905.25 C-678.83804077 906.06164612 -678.73858154 906.87329224 -678.6361084 907.70953369 C-667.92514016 994.61696787 -642.57083852 1077.59889651 -567.9375 1211.25 C-567.47037598 1211.94593262 -567.00325195 1212.64186523 -566.52197266 1213.35888672 C-563.37695738 1218.02456872 -560.17558865 1222.64850561 -556.9375 1227.25 C-556.18001465 1228.32846191 -556.18001465 1228.32846191 -555.40722656 1229.42871094 C-548.6245047 1239.04974103 -541.56538733 1248.35335408 -534.0703125 1257.4296875 C-531.03659755 1261.10640796 -528.1068592 1264.85730634 -525.1875 1268.625 C-522.13929739 1272.55046113 -519.02815522 1276.30872123 -515.625 1279.9375 C-504.70053751 1291.84085698 -495.67141479 1305.6898036 -486.9375 1319.25 C-486.48729492 1319.94464355 -486.03708984 1320.63928711 -485.57324219 1321.35498047 C-471.38631255 1343.29658892 -458.74073125 1365.94658294 -446.9375 1389.25 C-446.53305664 1390.04374023 -446.12861328 1390.83748047 -445.71191406 1391.65527344 C-443.74917901 1395.50791807 -441.81390827 1399.37253367 -439.91357422 1403.25634766 C-439.2283011 1404.65603256 -438.53951384 1406.05399982 -437.84814453 1407.45068359 C-413.74995989 1456.24721872 -395.86318376 1508.28041844 -381.21980286 1560.60505676 C-380.98742416 1561.43534897 -380.75504547 1562.26564117 -380.515625 1563.12109375 C-380.28957077 1563.92902878 -380.06351654 1564.73696381 -379.83061218 1565.56938171 C-369.4041292 1602.68683276 -353.01110777 1639.39958029 -318.04589844 1659.328125 C-287.16887702 1676.31279448 -253.50276474 1677.57162915 -219.03917408 1677.58451414 C-216.86161386 1677.58595672 -214.68407735 1677.59026444 -212.50652313 1677.59550858 C-204.86712594 1677.61386546 -197.22779744 1677.62219571 -189.58837891 1677.62060547 C-182.53199232 1677.61940157 -175.47591027 1677.64058973 -168.41960073 1677.6720928 C-162.29831776 1677.69842217 -156.17713348 1677.70896615 -150.05579448 1677.70769465 C-146.42697093 1677.70719074 -142.79842052 1677.71255318 -139.16965485 1677.73405075 C-111.76249937 1677.9247049 -111.76249937 1677.9247049 -85.9375 1669.5 C-84.89154663 1668.98675171 -84.89154663 1668.98675171 -83.82446289 1668.46313477 C-77.89257776 1665.44723731 -72.8661789 1661.7183078 -67.9375 1657.25 C-67.23367188 1656.66347656 -66.52984375 1656.07695313 -65.8046875 1655.47265625 C-61.81137667 1652.1246523 -58.33899808 1648.56926364 -54.96875 1644.6015625 C-52.43919103 1641.67311154 -49.81865674 1638.83704799 -47.1875 1636 C-46.14451803 1634.87371016 -45.10154938 1633.74740798 -44.05859375 1632.62109375 C-43.27911377 1631.77973877 -43.27911377 1631.77973877 -42.48388672 1630.92138672 C-35.9789557 1623.89063873 -29.52251971 1616.81616482 -23.125 1609.6875 C-20.85887684 1607.16239133 -18.58559385 1604.64383372 -16.3125 1602.125 C-10.02495766 1595.1340321 -3.8794879 1588.02817408 2.23095703 1580.88256836 C5.49760661 1577.06541098 8.78369532 1573.26603141 12.08325195 1569.47729492 C17.02507816 1563.8000219 21.90146884 1558.08634747 26.63671875 1552.234375 C28.50093707 1549.94087614 30.37849398 1547.66185623 32.26953125 1545.390625 C38.79146693 1537.54641637 45.15329622 1529.61601718 51.30981445 1521.48144531 C54.79657988 1516.88041828 58.36482174 1512.35935012 62 1507.875 C68.35650499 1500.00394111 74.31966522 1491.85770029 80.28027344 1483.68505859 C82.03384765 1481.28914775 83.79956628 1478.90277177 85.5703125 1476.51953125 C98.66757107 1458.88536177 111.06441381 1440.83442278 123.25 1422.5625 C123.8013562 1421.73600952 124.3527124 1420.90951904 124.92077637 1420.0579834 C175.79554116 1343.74015865 220.06168697 1263.67429562 296.0625 1046.25 C296.22766113 1045.32203613 296.39282227 1044.39407227 296.56298828 1043.43798828 C298.9906936 1029.47679976 299.36913519 1015.57212388 299.4375 1001.4375 C299.44544586 1000.57816864 299.45339172 999.71883728 299.46157837 998.83346558 C299.57580562 982.76428274 297.94008983 967.02660199 293.375 951.5625 C293.12226318 950.69512207 292.86952637 949.82774414 292.60913086 948.93408203 C290.03592424 940.51760039 286.41347133 932.87792703 282.0625 925.25 C281.24845703 923.77853516 281.24845703 923.77853516 280.41796875 922.27734375 C266.367287 898.51767509 241.69338597 884.32046212 215.58203125 877.31640625 C179.41136587 868.6171323 147.32251887 878.76282607 116.0625 897.25 C100.54160599 907.00141411 86.59020877 918.89986149 74.0625 932.25 C73.26972656 933.00539063 72.47695313 933.76078125 71.66015625 934.5390625 C68.33361076 940.18361647 71.17897643 947.17903558 72.72558594 953.18725586 C72.93989258 954.01233643 73.15419922 954.83741699 73.375 955.6875 C77.54786837 972.49014844 80.49436246 989.92180513 81.0625 1007.25 C81.1140625 1008.11109375 81.165625 1008.9721875 81.21875 1009.859375 C82.3598452 1041.2394931 67.18683728 1070.466017 46.359375 1092.9453125 C32.92517083 1106.42521124 16.22863815 1115.3857702 -3 1115.5625 C-23.94740604 1115.58280443 -41.84853136 1103.94691251 -56.625 1090 C-76.89119796 1068.80586257 -86.3792232 1041.52789951 -86.25 1012.5 C-86.24751251 1011.82536713 -86.24502502 1011.15073425 -86.24246216 1010.45565796 C-86.10923288 986.89276156 -82.69189702 963.41595466 -74.82836914 941.1027832 C-73.66534887 937.37850481 -73.99151238 935.02128101 -74.9375 931.25 C-79.72803714 923.15527541 -86.49422673 916.06500057 -92.9375 909.25 C-93.63359375 908.50105469 -94.3296875 907.75210938 -95.046875 906.98046875 C-113.7082624 887.53584794 -140.99419008 870.64744717 -168.52124023 869.83276367 C-203.61005886 869.56608737 -236.66126821 880.86569552 -262.3125 905.125 C-289.45156297 933.72119387 -297.73724444 973.2141552 -297.125 1011.4921875 C-295.48429825 1072.66985397 -271.98583329 1130.43241509 -240.9375 1182.25 C-240.0011424 1183.83063458 -239.06493315 1185.41135706 -238.12890625 1186.9921875 C-221.76669153 1214.40229025 -202.49296269 1240.05965573 -182.9375 1265.25 C-182.50083008 1265.81428711 -182.06416016 1266.37857422 -181.61425781 1266.95996094 C-175.76568054 1274.50963628 -169.76601437 1281.89568432 -163.5625 1289.15625 C-161.09834036 1292.0455132 -158.70089 1294.98518458 -156.3125 1297.9375 C-152.73116048 1302.34089076 -148.98489897 1306.5539658 -145.16015625 1310.74609375 C-142.9754395 1313.20725971 -140.92250576 1315.73660566 -138.875 1318.3125 C-133.50757783 1324.95338789 -127.59702941 1331.06707744 -121.71875 1337.25390625 C-118.90989267 1340.21157267 -116.14762351 1343.20111105 -113.4375 1346.25 C-109.40114341 1350.77257163 -105.27322168 1355.20524608 -101.125 1359.625 C-100.08653931 1360.73246582 -100.08653931 1360.73246582 -99.02709961 1361.86230469 C-95.42717207 1365.68049921 -91.77611349 1369.41639975 -87.99560547 1373.05541992 C-72.23039113 1388.28277435 -63.13623289 1406.98472525 -62.75 1429 C-62.96915053 1449.57823435 -70.74545875 1467.85474008 -85.1171875 1482.55859375 C-99.90907561 1496.67439833 -118.57330727 1502.94192935 -138.73608398 1502.71826172 C-159.47422842 1502.0339764 -176.19571524 1493.49902315 -190.9375 1479.25 C-192.61777425 1477.26141854 -194.28489628 1475.26163583 -195.9375 1473.25 C-197.58016923 1471.55967655 -199.25029685 1469.89587396 -200.9375 1468.25 C-203.73367134 1465.48369917 -206.52270279 1462.71022678 -209.3125 1459.9375 C-210.40691406 1458.8556543 -210.40691406 1458.8556543 -211.5234375 1457.75195312 C-215.59673363 1453.69684136 -219.48589819 1449.55506717 -223.23535156 1445.19946289 C-226.101476 1441.91690357 -229.12282412 1438.78261808 -232.125 1435.625 C-237.48952487 1429.94628531 -242.67960157 1424.16077467 -247.72265625 1418.19555664 C-250.78306689 1414.57894332 -253.91520233 1411.04883409 -257.125 1407.5625 C-261.0931734 1403.2347306 -264.83242191 1398.77122506 -268.51953125 1394.203125 C-271.29251544 1390.81641087 -274.13993136 1387.5006135 -277 1384.1875 C-281.03656349 1379.50146138 -284.99477015 1374.77302355 -288.828125 1369.91796875 C-290.43159655 1367.88987418 -292.04601631 1365.87330202 -293.671875 1363.86328125 C-300.97930091 1354.81616378 -308.01759081 1345.59590307 -314.9375 1336.25 C-315.49727539 1335.4967041 -316.05705078 1334.7434082 -316.63378906 1333.96728516 C-339.1542009 1303.65714962 -359.90743536 1272.36447643 -378.61865234 1239.55419922 C-379.866214 1237.37454595 -381.12919538 1235.20452185 -382.39453125 1233.03515625 C-390.16658986 1219.5568902 -396.60240039 1205.44505468 -402.9375 1191.25 C-403.38625488 1190.24727051 -403.83500977 1189.24454102 -404.29736328 1188.21142578 C-427.41681312 1136.03921597 -443.88583713 1076.95745875 -444.140625 1019.65234375 C-444.14768463 1018.58791046 -444.15474426 1017.52347717 -444.16201782 1016.42678833 C-444.39104076 971.76731483 -444.39104076 971.76731483 -440.9375 952.25 C-440.63948486 950.52861816 -440.63948486 950.52861816 -440.33544922 948.77246094 C-431.10465028 897.01084233 -409.87089388 847.71168052 -373.6015625 809.1015625 C-371.09852656 806.42235981 -368.67069394 803.69093537 -366.25 800.9375 C-362.40446183 796.66467981 -358.34197599 792.93180722 -353.9375 789.25 C-353.01582031 788.44046875 -352.09414063 787.6309375 -351.14453125 786.796875 C-336.37353244 773.87812748 -320.23182318 763.47528788 -302.9375 754.25 C-302.06448242 753.78207031 -301.19146484 753.31414063 -300.29199219 752.83203125 C-276.93128188 740.50876035 -250.90883711 731.95756209 -224.9375 727.25 C-224.12667969 727.10127441 -223.31585937 726.95254883 -222.48046875 726.79931641 C-165.0590682 716.57656707 -110.26176133 724.40144537 -61.5 757.8125 C-58.95740395 759.59602768 -56.44091159 761.41194922 -53.9375 763.25 C-53.3698291 763.66604492 -52.8021582 764.08208984 -52.21728516 764.51074219 C-35.59387144 776.79443671 -20.32397223 790.81171884 -5.6875 805.375 C-5.03080322 806.02702393 -4.37410645 806.67904785 -3.69750977 807.35083008 C-3.09092529 807.95950928 -2.48434082 808.56818848 -1.859375 809.1953125 C-1.31893555 809.73687988 -0.77849609 810.27844727 -0.22167969 810.83642578 C1.0625 812.25 1.0625 812.25 2.0625 814.25 C5.39377958 813.67440094 6.87206288 812.73917861 9.125 810.25 C13.24577123 805.95535657 17.77177088 802.29996027 22.41259766 798.58349609 C24.19842942 797.14013813 25.96517963 795.67543292 27.73046875 794.20703125 C37.17629364 786.37967936 46.90906759 779.13281063 57.0625 772.25 C57.73861328 771.78883789 58.41472656 771.32767578 59.11132812 770.85253906 C112.64188977 734.55583003 170.81762718 718.41740784 234.9375 730.4375 C285.19454201 740.45092516 330.98592746 762.66388488 368.0625 798.25 C368.90578857 799.05244141 368.90578857 799.05244141 369.76611328 799.87109375 C377.87067931 807.61998051 385.18417236 815.66120488 391.87792969 824.65966797 C392.94887819 826.09745827 394.03971628 827.52038116 395.1328125 828.94140625 C425.75946618 869.54962114 441.06156547 919.08126238 446.0625 969.25 C446.16836426 970.30477539 446.16836426 970.30477539 446.27636719 971.38085938 C446.73866891 976.33653811 446.94238986 981.27706792 447.0625 986.25 C447.08973145 987.29494629 447.11696289 988.33989258 447.14501953 989.41650391 C448.09659678 1032.42899262 442.30775153 1074.52699794 432.0625 1116.25 C431.80807129 1117.30155273 431.55364258 1118.35310547 431.29150391 1119.43652344 C417.36031516 1176.31838442 394.96071532 1231.66913261 370.62744141 1284.82763672 C369.13079496 1288.10064606 367.6486441 1291.3798986 366.16796875 1294.66015625 C359.23881092 1309.89832411 351.84405123 1324.89577005 344.375 1339.875 C343.88944641 1340.85137421 343.40389282 1341.82774841 342.90362549 1342.83370972 C336.60138198 1355.49106836 330.04751984 1367.95634966 323.0625 1380.25 C322.42046631 1381.38808105 321.77843262 1382.52616211 321.11694336 1383.69873047 C308.77325565 1405.50236651 295.59957662 1426.70548461 281.57885742 1447.46459961 C277.74272385 1453.15745173 274.02062809 1458.89073208 270.4140625 1464.73046875 C264.14095691 1474.86213859 257.43347441 1484.69897836 250.75 1494.5625 C249.50822201 1496.40022744 248.26668467 1498.23811752 247.02539062 1500.07617188 C239.08174068 1511.83094693 231.08611629 1523.54969972 223.0625 1535.25 C222.10977241 1536.64021159 221.15705398 1538.03042946 220.2043457 1539.4206543 C208.49040398 1556.50840967 196.67389327 1573.51589256 184.49267578 1590.27441406 C182.35144869 1593.23221701 180.23917721 1596.21034032 178.125 1599.1875 C166.21449403 1615.92120777 153.87461283 1632.35569384 141.32421875 1648.61328125 C140.07809654 1650.22976796 138.83533533 1651.84877676 137.59375 1653.46875 C124.57521114 1670.45091139 111.25443784 1687.15405579 97.26123047 1703.34790039 C94.18942649 1706.90889459 91.20039678 1710.52442292 88.25 1714.1875 C85.2575912 1717.87544165 82.15653191 1721.27788164 78.7421875 1724.57421875 C76.91872107 1726.39344456 75.24231721 1728.29767911 73.5625 1730.25 C71.3169206 1732.85647609 69.01698488 1735.33934521 66.5625 1737.75 C64.14917283 1740.12042357 61.88978147 1742.55736308 59.6875 1745.125 C54.03468438 1751.66304401 47.89123572 1757.64943509 41.32421875 1763.26171875 C39.0740597 1765.23983785 36.90445666 1767.29088792 34.73339844 1769.35498047 C26.66578539 1776.97929116 18.01375675 1783.69775822 9.0625 1790.25 C8.46904785 1790.68473633 7.8755957 1791.11947266 7.26416016 1791.56738281 C-0.80327155 1797.42651609 -9.18038226 1802.51562973 -17.9375 1807.25 C-19.04738281 1807.8584375 -20.15726563 1808.466875 -21.30078125 1809.09375 C-33.82159694 1815.67909251 -46.82004882 1819.85803841 -60.6875 1822.5625 C-61.50162354 1822.72194092 -62.31574707 1822.88138184 -63.15454102 1823.0456543 C-76.02877325 1825.36698528 -89.08038572 1825.39998166 -102.11865234 1825.39526367 C-103.7960416 1825.39826393 -105.47343017 1825.40166842 -107.15081787 1825.40544128 C-111.6679889 1825.41420074 -116.18514092 1825.41661607 -120.70231962 1825.41725707 C-123.53852372 1825.41797256 -126.37472313 1825.42011629 -129.21092606 1825.42275429 C-139.14599153 1825.43198348 -149.08104367 1825.43609252 -159.01611328 1825.43530273 C-168.21020313 1825.4347037 -177.40423397 1825.44522757 -186.59830892 1825.4610464 C-194.5445509 1825.47422057 -202.49077384 1825.47948248 -210.43702662 1825.47884732 C-215.15930617 1825.47859507 -219.88153327 1825.48129204 -224.60380173 1825.49202538 C-249.33196824 1825.54433028 -273.75335963 1825.23543419 -298.1875 1820.9375 C-299.45416504 1820.71876221 -300.72083008 1820.50002441 -302.02587891 1820.2746582 C-327.32848451 1815.78953255 -351.74073533 1808.37173649 -374.9375 1797.25 C-375.6171582 1796.93063477 -376.29681641 1796.61126953 -376.99707031 1796.28222656 C-435.77528977 1768.59377789 -479.29110306 1717.17508577 -504.9375 1658.25 C-505.3617627 1657.27562988 -505.78602539 1656.30125977 -506.22314453 1655.29736328 C-514.54588305 1635.72322148 -520.11430887 1615.32272727 -525.95922852 1594.90893555 C-537.93488269 1553.12550482 -552.60553209 1512.6762038 -570.9375 1473.25 C-571.3804541 1472.28578125 -571.8234082 1471.3215625 -572.27978516 1470.328125 C-578.57326679 1456.63381844 -585.54665919 1443.38216871 -592.9375 1430.25 C-593.3387207 1429.5295752 -593.73994141 1428.80915039 -594.15332031 1428.06689453 C-607.03184442 1405.02839976 -622.21624844 1383.42503133 -639.46728516 1363.48144531 C-644.84939073 1357.24187522 -649.91126227 1350.77744049 -654.9375 1344.25 C-655.8349292 1343.09153564 -655.8349292 1343.09153564 -656.75048828 1341.90966797 C-685.70133297 1304.51027489 -711.244963 1264.74356398 -733.46777344 1223.00146484 C-734.77045029 1220.5627326 -736.08845239 1218.13334215 -737.4140625 1215.70703125 C-775.88474655 1144.75942939 -801.79877719 1065.97862358 -797.00683594 595.27461243 C-790.22987888 572.66345894 -782.79839094 550.13404058 -773.9375 528.25 C-773.5751123 527.35087891 -773.21272461 526.45175781 -772.83935547 525.52539062 C-758.68155467 490.57051615 -742.96626416 455.8592465 -723.9375 423.25 C-723.44862305 422.40646973 -722.95974609 421.56293945 -722.45605469 420.69384766 C-703.24481125 387.6025694 -682.07752452 355.90589444 -658.73535156 325.59130859 C-657.18650286 323.57427178 -655.64816771 321.55013598 -654.1171875 319.51953125 C-648.92319167 312.6491664 -643.44291185 306.0839668 -637.80078125 299.58203125 C-635.31770588 296.71279062 -632.93040709 293.77787529 -630.5625 290.8125 C-625.7173026 284.83557766 -620.44084947 279.28798876 -615.1640625 273.6953125 C-612.77561908 271.15955218 -610.45054285 268.58665442 -608.1875 265.9375 C-604.78563739 261.97725085 -601.06365068 258.36254161 -597.3515625 254.6953125 C-595.24816401 252.56468555 -593.26219755 250.39519577 -591.3125 248.125 C-585.99613376 241.93709831 -580.18552457 236.40828334 -574.00390625 231.09765625 C-571.72600522 229.06089408 -569.58331412 226.92525925 -567.4375 224.75 C-564.10629193 221.37899935 -560.68638372 218.2048597 -557.08984375 215.12109375 C-554.55697838 212.91920171 -552.09417478 210.64804174 -549.625 208.375 C-545.13601943 204.28119791 -540.52506524 200.39530333 -535.796875 196.58203125 C-533.29930224 194.54507642 -530.84496921 192.46642373 -528.40185547 190.36474609 C-520.81568789 183.85066364 -512.91376179 177.79571433 -504.9375 171.76953125 C-503.13561061 170.40051763 -501.34574597 169.01816092 -499.5625 167.625 C-469.60136772 144.25531682 -437.10930052 123.7124289 -403.9375 105.25 C-403.02194336 104.74001465 -402.10638672 104.2300293 -401.16308594 103.70458984 C-329.5162084 63.97088971 -252.8615398 35.20294609 -67.5625 2.5625 C-66.86081696 2.50138031 -66.15913391 2.44026062 -65.43618774 2.37728882 C-60.60590868 1.96264105 -55.77349096 1.59135744 -50.9375 1.25 C-50.25875824 1.20087463 -49.58001648 1.15174927 -48.88070679 1.10113525 C-32.60979544 -0.03589059 -16.30230809 0.00598232 0 0 Z " fill="#FFFFFF" transform="translate(845.9375,-0.25)"/>
</svg>
