<?xml version="1.0" encoding="UTF-8"?>
<svg version="1.1" xmlns="http://www.w3.org/2000/svg" width="302" height="392">
<path d="M0 0 C3.02875868 3.02875868 2.88361841 6.76425821 3.42041016 10.85595703 C3.54749863 11.77308472 3.6745871 12.6902124 3.80552673 13.63513184 C4.22472877 16.67498524 4.6319177 19.71632271 5.0390625 22.7578125 C5.32693101 24.8625581 5.61554508 26.96720186 5.90487671 29.07174683 C6.66526228 34.61755346 7.41548187 40.16468998 8.16363525 45.7121582 C8.92850865 51.37013686 9.7029296 57.02680737 10.4765625 62.68359375 C11.99375387 73.78779888 13.5002152 84.89343145 15 96 C15.5418544 95.08692078 16.0837088 94.17384155 16.64198303 93.23309326 C18.6824591 89.79481516 20.723217 86.3567044 22.76405334 82.91864014 C23.6416715 81.44008766 24.51921662 79.96149183 25.39668274 78.48284912 C31.75478022 67.76879392 38.13694188 57.06976506 44.56005859 46.39453125 C47.29374715 41.84858052 50.02134148 37.29897104 52.75 32.75 C53.76560215 31.05727795 54.78122488 29.36456826 55.796875 27.671875 C56.22323242 26.9612793 56.64958984 26.25068359 57.08886719 25.51855469 C57.38954102 25.01743164 57.69021484 24.51630859 58 24 C58.66 24.33 59.32 24.66 60 25 C54.06 50.74 48.12 76.48 42 103 C48.16722652 97.6626146 48.16722652 97.6626146 54 92.0625 C54.66 91.39476562 55.32 90.72703125 56 90.0390625 C56.66 89.36617188 57.32 88.69328125 58 88 C62.54100433 83.37030418 67.15238996 78.94557547 72.06738281 74.71435547 C75.76811922 71.43156478 79.16253902 67.83917827 82.59375 64.27929688 C84.02698953 62.81718878 85.50962542 61.40382308 87 60 C87.66 60 88.32 60 89 60 C86.86392057 66.78032575 84.30052671 73.318539 81.55078125 79.87109375 C81.13330124 80.87463394 80.71582123 81.87817413 80.28569031 82.91212463 C78.51292375 87.17350167 76.73287223 91.43182227 74.95288086 95.69018555 C73.64931023 98.81180079 72.34990325 101.9351251 71.05078125 105.05859375 C70.64459061 106.02623154 70.23839996 106.99386932 69.81990051 107.99082947 C69.4491893 108.88258377 69.07847809 109.77433807 68.6965332 110.69311523 C68.36804886 111.47871323 68.03956451 112.26431122 67.7011261 113.07371521 C66.88599102 114.97157757 66.88599102 114.97157757 67 117 C76.55742936 110.3178309 85.86227885 103.34735149 95.06518555 96.18359375 C96.37096558 95.17619141 96.37096558 95.17619141 97.703125 94.1484375 C98.48333008 93.54177246 99.26353516 92.93510742 100.06738281 92.31005859 C102 91 102 91 104 91 C93.84046596 127.97025294 72.98124824 159.13392034 39.625 178.5 C30.0375377 183.88978028 19.78064181 188.08987784 9.52441406 192.02612305 C7.49682585 192.80833285 5.49838255 193.66589083 3.51171875 194.546875 C-2.12138773 195.27372745 -6.4982801 193.01191037 -11.625 190.8125 C-12.72223389 190.35560791 -13.81946777 189.89871582 -14.94995117 189.42797852 C-30.25127974 182.93212106 -45.24788235 175.80522946 -58 165 C-58.85464844 164.29488281 -59.70929688 163.58976563 -60.58984375 162.86328125 C-82.10383759 144.39903692 -94.54455967 117.57933776 -103 91 C-97.94616997 92.58974848 -94.28700225 95.64603939 -90.1875 98.875 C-88.68285906 100.04369961 -87.17763519 101.21164905 -85.671875 102.37890625 C-84.90423828 102.97590332 -84.13660156 103.57290039 -83.34570312 104.18798828 C-79.57271801 107.1025486 -75.75643694 109.95857023 -71.9375 112.8125 C-71.24100342 113.33376465 -70.54450684 113.8550293 -69.8269043 114.39208984 C-68.21850244 115.59548375 -66.6093436 116.79786582 -65 118 C-68.18807433 109.25712182 -71.53131966 100.59813851 -75.12109375 92.01171875 C-75.47329987 91.16715118 -75.82550598 90.32258362 -76.18838501 89.4524231 C-77.64270967 85.96910192 -79.09961817 82.48697143 -80.5690918 79.01000977 C-81.6574798 76.43073109 -82.7339587 73.84675169 -83.80859375 71.26171875 C-84.14491318 70.47431808 -84.4812326 69.68691742 -84.82774353 68.87565613 C-87.11358128 63.34074385 -87.11358128 63.34074385 -86 60 C-85.29875 60.71285156 -84.5975 61.42570312 -83.875 62.16015625 C-82.91680707 63.12774323 -81.95846561 64.09518313 -81 65.0625 C-80.54238281 65.52849609 -80.08476563 65.99449219 -79.61328125 66.47460938 C-76.8777552 69.22887191 -74.06671035 71.8373946 -71.125 74.37109375 C-66.15626097 78.67328021 -61.59940168 83.34982875 -57 88.0390625 C-49.68321471 95.90441875 -49.68321471 95.90441875 -41 102 C-41.21519791 101.08180481 -41.43039581 100.16360962 -41.65211487 99.21759033 C-43.67807943 90.56794877 -45.69443624 81.91611682 -47.70138645 73.262043 C-48.73351092 68.81287306 -49.76901484 64.36454638 -50.81225586 59.91796875 C-51.81874807 55.62746559 -52.81634434 51.33498316 -53.80778313 47.04097748 C-54.18776702 45.4023741 -54.57096094 43.76451172 -54.95739937 42.12741852 C-55.49775365 39.83584283 -56.02667635 37.54190774 -56.55297852 35.24707031 C-56.71553635 34.56949677 -56.87809418 33.89192322 -57.045578 33.19381714 C-57.80432738 29.82952661 -58.2496415 27.27429002 -57 24 C-51.6224875 32.6642789 -46.37035247 41.39419437 -41.18765259 50.17602539 C-32.30055987 65.22770088 -23.22383412 80.15234734 -14 95 C-11.96075947 85.63396217 -10.71491766 76.19130339 -9.43359375 66.69921875 C-9.19254041 64.93182648 -8.95116631 63.16447793 -8.70948792 61.39717102 C-8.07762474 56.77174749 -7.44919158 52.14586529 -6.82177734 47.51983643 C-5.81499191 40.09927127 -4.80397637 32.67928414 -3.79100227 25.25956154 C-3.4388995 22.67565502 -3.08890105 20.09146969 -2.73912048 17.50724792 C-2.52333564 15.92238412 -2.30748335 14.3375295 -2.09155273 12.75268555 C-1.9473716 11.68112717 -1.9473716 11.68112717 -1.80027771 10.58792114 C-1.31357158 7.02982477 -0.75237941 3.51196361 0 0 Z " fill="#0B1C3B" transform="translate(152,157)"/>
<path d="M0 0 C84.81 0 169.62 0 257 0 C257.0928125 50.0259375 257.0928125 50.0259375 257.1875 101.0625 C257.21481201 111.55554932 257.24212402 122.04859863 257.27026367 132.85961914 C257.28381348 145.76843262 257.28381348 145.76843262 257.28633118 151.83006287 C257.28910273 156.0232682 257.30025058 160.21635718 257.31672668 164.40953064 C257.33757069 169.78702336 257.34342506 175.16435113 257.33921683 180.54188049 C257.34009451 182.49739952 257.34588348 184.45292538 257.35764539 186.40840924 C257.45913896 204.13059619 256.31299438 222.29348767 251.25 239.375 C250.99250977 240.27307373 250.73501953 241.17114746 250.46972656 242.09643555 C244.84035439 261.1352696 236.21486279 279.02660361 223 294 C222.26910156 294.83917969 221.53820312 295.67835938 220.78515625 296.54296875 C218.55646901 299.06119484 216.28848116 301.53610941 214 304 C213.41089844 304.65484375 212.82179687 305.3096875 212.21484375 305.984375 C193.90923329 325.45671667 168.66959858 337.01420708 144 346 C143.26120605 346.27376465 142.52241211 346.5475293 141.76123047 346.82958984 C130.72250371 350.86249302 123.27852412 349.43867761 112.4375 345.625 C111.44169922 345.2748584 110.44589844 344.9247168 109.41992188 344.56396484 C68.03821888 329.58160627 33.91684305 302.98028627 14.77734375 262.85546875 C2.2585477 235.94237676 -0.17331103 207.52684998 -0.11352539 178.23486328 C-0.11321844 176.25072163 -0.11335359 174.26657988 -0.11389065 172.28243828 C-0.11411478 167.00828493 -0.10835348 161.73415465 -0.10128021 156.46000671 C-0.0955506 151.49604221 -0.09531521 146.53208309 -0.09460449 141.56811523 C-0.08937423 127.08707381 -0.07541297 112.60603661 -0.0625 98.125 C-0.041875 65.74375 -0.02125 33.3625 0 0 Z M11 11 C10.938125 42.22625 10.87625 73.4525 10.8125 105.625 C10.78518799 115.44846191 10.75787598 125.27192383 10.72973633 135.39306641 C10.71969687 144.2755569 10.71969687 144.2755569 10.71366882 153.15805054 C10.71089806 157.08380322 10.6997535 161.00943153 10.68327332 164.93515015 C10.48837271 213.54881169 15.06436174 258.0747274 50 295 C50.75925781 295.82371094 51.51851562 296.64742188 52.30078125 297.49609375 C58.87245405 304.39043461 66.06107699 309.81142637 74 315 C74.62729004 315.4125 75.25458008 315.825 75.90087891 316.25 C88.19503903 324.20778759 101.37258791 329.73743257 115 335 C116.06951904 335.43094971 116.06951904 335.43094971 117.16064453 335.87060547 C125.57911141 339.24106225 130.63094028 339.28643501 139 336 C140.56133583 335.44851584 142.12395824 334.90066735 143.6875 334.35546875 C181.66740568 320.82350348 214.58890783 296.62689235 232.375 259.625 C241.04664016 240.76351968 246.20243168 219.24763447 246.12025452 198.47679138 C246.12111053 197.67065399 246.12196655 196.8645166 246.12284851 196.03395081 C246.1244905 193.35130532 246.11900173 190.66872367 246.11352539 187.98608398 C246.11321877 186.02257572 246.11335304 184.05906734 246.11389065 182.09555912 C246.1141157 176.85425702 246.10833472 171.61297791 246.10128021 166.37168121 C246.09557034 161.44704621 246.09531628 156.52241669 246.09460449 151.59777832 C246.08936455 137.21101585 246.07540333 122.82425763 246.0625 108.4375 C246.041875 76.283125 246.02125 44.12875 246 11 C168.45 11 90.9 11 11 11 Z " fill="#0B1C3B" transform="translate(24,27)"/>
<path d="M0 0 C0.91579834 0.00136963 1.83159668 0.00273926 2.77514648 0.00415039 C10.0238036 0.1658234 15.80347513 1.73919637 22.5234375 4.30859375 C32.7390315 7.9400112 42.20543589 6.43868178 52.1484375 2.62890625 C65.06176585 -2.10598081 78.89109986 -0.39009619 91.45703125 4.296875 C101.08246206 7.68502664 108.46702998 6.55426256 117.9375 3.5625 C132.99437879 -1.16436039 146.57979493 -1.15229488 161.41796875 4.25390625 C165.53720407 5.73869277 169.58627345 6.65757157 173.875 7.5 C173.875 13.11 173.875 18.72 173.875 24.5 C164.87896668 24.5 164.87896668 24.5 161.76953125 23.44140625 C161.09599609 23.22033203 160.42246094 22.99925781 159.72851562 22.77148438 C159.05498047 22.53751953 158.38144531 22.30355469 157.6875 22.0625 C143.72256074 17.37248747 132.83024075 17.63519597 118.875 22.5 C106.65856058 26.41534808 96.09534351 24.85817234 84.3359375 20.69140625 C71.05864446 16.12078054 58.72043986 18.88487755 45.875 23.6015625 C36.02815045 26.5504888 26.7560459 24.44532004 17.25 21.5 C3.56960552 17.33318541 -6.04809173 17.98792773 -19.6171875 22.36425781 C-20.47183594 22.63592773 -21.32648437 22.90759766 -22.20703125 23.1875 C-22.96218018 23.43886719 -23.7173291 23.69023437 -24.49536133 23.94921875 C-27.125 24.5 -27.125 24.5 -35.125 24.5 C-35.125 18.89 -35.125 13.28 -35.125 7.5 C-27.6875 5.6875 -27.6875 5.6875 -25.40454102 5.13745117 C-21.75296607 4.23546291 -18.25259628 3.19646901 -14.72265625 1.89453125 C-9.79587297 0.22323805 -5.17472883 -0.03508454 0 0 Z " fill="#0B1C3B" transform="translate(83.125,131.5)"/>
<path d="M0 0 C40.37254902 0 40.37254902 0 48.6875 7.1875 C51.90234738 11.73296397 53.24831174 16.62659411 52.83984375 22.17578125 C51.87715173 27.13878572 49.80017703 29.59984161 46 33 C46 33.66 46 34.32 46 35 C47.11375 35.61875 47.11375 35.61875 48.25 36.25 C52.05191556 38.66940081 54.1267389 41.7440755 55.75 45.9375 C56.51883517 52.28039013 55.95595149 57.35031852 53 63 C48.55527935 68.58764882 42.80285872 71.29928532 36 73 C24.12 73 12.24 73 0 73 C0 48.91 0 24.82 0 0 Z M17 13 C17 18.28 17 23.56 17 29 C25.10890307 29.6827843 25.10890307 29.6827843 32.75 27.5 C35.10568771 24.88256921 35.41600699 24.27524131 35.625 20.9375 C35.38461393 17.04852057 35.38461393 17.04852057 33.1875 15.0625 C29.38379253 13.21498494 26.49338623 12.8883131 22.3125 12.9375 C20.559375 12.958125 18.80625 12.97875 17 13 Z M17 41 C17 47.27 17 53.54 17 60 C20.3103125 60.0928125 20.3103125 60.0928125 23.6875 60.1875 C24.92886719 60.22230469 26.17023438 60.25710937 27.44921875 60.29296875 C32.20179198 59.90084225 34.68203836 58.31796164 38 55 C38.56438777 49.54604653 38.56438777 49.54604653 36.625 44.625 C30.6064206 40.89921275 23.9130994 41 17 41 Z " fill="#0B1C3B" transform="translate(129,50)"/>
<path d="M0 0 C5.94 0 11.88 0 18 0 C18.01981934 1.28575928 18.03963867 2.57151855 18.06005859 3.89624023 C18.13654196 8.69916266 18.22519138 13.5017989 18.31738281 18.30444336 C18.35549688 20.37697673 18.39037933 22.44957229 18.421875 24.5222168 C18.46790941 27.51373415 18.52583813 30.50482977 18.5859375 33.49609375 C18.59748871 34.41208847 18.60903992 35.32808319 18.62094116 36.27183533 C18.82272298 46.84639757 18.82272298 46.84639757 23.4375 56 C28.21667219 59.73008561 33.17372573 59.49913565 39 59 C42.41752594 57.81940013 44.2782172 56.83585674 46.62817383 54.11450195 C48.75062059 49.29584145 48.48116508 44.56618105 48.51171875 39.35546875 C48.52966995 38.2305452 48.54762115 37.10562164 48.56611633 35.9466095 C48.62021716 32.36027757 48.65411525 28.77407875 48.6875 25.1875 C48.72067317 22.75323669 48.75516282 20.31899094 48.79101562 17.88476562 C48.87594396 11.9232731 48.94275691 5.96182005 49 0 C55.27 0 61.54 0 68 0 C68.04978339 6.3496794 68.08589985 12.69924282 68.10986328 19.04907227 C68.11986317 21.2050169 68.13346747 23.36094818 68.15087891 25.5168457 C68.17539347 28.63235796 68.18654353 31.74768946 68.1953125 34.86328125 C68.20563507 35.81270096 68.21595764 36.76212067 68.22659302 37.74031067 C68.22831853 48.25045169 67.36242931 57.96541685 60 66 C51.0090573 73.49513291 40.55876181 75.94143761 29 75 C19.04500813 73.55866375 12.584008 70.83179221 5.6875 63.5625 C-0.04216548 54.86189686 -0.14993968 46.0834193 -0.09765625 36.03515625 C-0.0962413 35.00184677 -0.09482635 33.96853729 -0.09336853 32.90391541 C-0.08779839 29.6234134 -0.07525141 26.34298117 -0.0625 23.0625 C-0.05748114 20.83007911 -0.05291891 18.59765715 -0.04882812 16.36523438 C-0.03783874 10.91012961 -0.02059476 5.45507661 0 0 Z " fill="#0C1C3B" transform="translate(48,50)"/>
<path d="M0 0 C-0.30822621 2.2922454 -0.62170874 4.58378455 -0.9375 6.875 C-1.11152344 8.15117188 -1.28554687 9.42734375 -1.46484375 10.7421875 C-2 14 -2 14 -3 16 C-5.77795122 14.90565558 -8.45117224 13.77441388 -11.125 12.4375 C-18.25330749 9.41571748 -25.86675119 9.14853038 -33.0625 11.98828125 C-38.21802449 14.68037972 -40.8159681 18.75832344 -43 24 C-45.45678866 32.48708811 -43.95009134 40.24566685 -40 48 C-36.48040089 52.30066084 -31.74940228 54.66124843 -26.2734375 55.3359375 C-19.68683912 55.42470567 -14.55335122 54.53150074 -8.47265625 51.97265625 C-6 51 -6 51 -1 50 C-0.34 54.62 0.32 59.24 1 64 C-11.65357606 71.59214563 -24.75917919 72.49757273 -38.91015625 68.98046875 C-48.11750357 66.0587947 -55.23614656 59.31628022 -60 51 C-64.54213871 41.22806812 -64.83181265 27.49803443 -61.16015625 17.37109375 C-56.74991574 8.35757191 -51.16867391 2.14069144 -42 -2 C-41.25363281 -2.33773437 -40.50726563 -2.67546875 -39.73828125 -3.0234375 C-27.13784488 -7.68709646 -11.85800228 -5.92900114 0 0 Z " fill="#0B1C3B" transform="translate(256,54)"/>
<path d="M0 0 C3.32858528 0.95596048 6.82141505 1.21888782 10.2578125 1.6484375 C10.2578125 7.5884375 10.2578125 13.5284375 10.2578125 19.6484375 C2.41358173 19.6484375 2.41358173 19.6484375 -1.23828125 18.3359375 C-2.03556641 18.06426758 -2.83285156 17.79259766 -3.65429688 17.51269531 C-4.48767578 17.22749023 -5.32105469 16.94228516 -6.1796875 16.6484375 C-20.52268608 12.13149464 -31.34644787 12.87592955 -45.51586914 17.49072266 C-59.51065778 21.96201362 -70.40160067 18.98467223 -83.7421875 13.6484375 C-84.4021875 7.7084375 -85.0621875 1.7684375 -85.7421875 -4.3515625 C-81.19893387 -3.41406572 -76.97429632 -2.47591088 -72.6796875 -0.7265625 C-61.39816545 3.0731168 -50.19835684 0.75364895 -39.36328125 -3.16015625 C-26.18119157 -7.4973055 -12.68150514 -4.93464426 0 0 Z " fill="#0B1C3B" transform="translate(246.7421875,165.3515625)"/>
<path d="M0 0 C12.86423997 4.59628574 23.88733619 3.01693247 36.4296875 -1.46875 C39.5625 -2.5625 39.5625 -2.5625 41.5625 -2.5625 C41.42055236 -0.49972893 41.27377784 1.56271031 41.125 3.625 C41.00318359 5.34783203 41.00318359 5.34783203 40.87890625 7.10546875 C40.77449219 8.20503906 40.67007813 9.30460938 40.5625 10.4375 C40.53736328 11.78328125 40.53736328 11.78328125 40.51171875 13.15625 C39.5625 15.4375 39.5625 15.4375 36.203125 17.23828125 C34.74974409 17.77078443 33.28507395 18.27313347 31.8125 18.75 C31.04260742 19.0063623 30.27271484 19.26272461 29.47949219 19.52685547 C17.56468204 23.24560065 8.15443608 21.47845482 -3.4375 17.4375 C-8.48044582 15.78951655 -13.14849283 15.01905616 -18.4375 15 C-19.53529785 14.99528687 -19.53529785 14.99528687 -20.65527344 14.99047852 C-27.38238107 15.13467223 -33.0203992 16.85299958 -39.265625 19.24609375 C-44.75611988 21.30841018 -48.37270484 21.4375 -54.4375 21.4375 C-54.4375 15.4975 -54.4375 9.5575 -54.4375 3.4375 C-51.83875 3.06625 -51.83875 3.06625 -49.1875 2.6875 C-44.66927088 1.94689405 -40.50661502 0.8899957 -36.1875 -0.625 C-24.11114519 -4.80108141 -11.97012072 -4.46665181 0 0 Z " fill="#0B1C3B" transform="translate(102.4375,163.5625)"/>
<path d="M0 0 C0.67126129 2.4363189 1.33716354 4.87388883 2 7.3125 C2.19078125 8.00279297 2.3815625 8.69308594 2.578125 9.40429688 C3.37716184 12.35787949 4 14.92559219 4 18 C2.31197266 18.02126953 2.31197266 18.02126953 0.58984375 18.04296875 C-8.89197318 18.29229888 -16.68863407 19.53733138 -25.5625 22.85546875 C-30.42012467 24.47283696 -34.90171658 24.7904815 -40 25 C-40 19.06 -40 13.12 -40 7 C-37.3703125 6.62875 -37.3703125 6.62875 -34.6875 6.25 C-29.28536012 5.36346229 -24.47998703 3.83990956 -19.3828125 1.88671875 C-13.05620553 -0.46760876 -6.65538734 -0.10658094 0 0 Z " fill="#0B1C3B" transform="translate(88,189)"/>
<path d="M0 0 C10.94130946 -0.43189379 20.21351961 1.9960116 30.55078125 5.3515625 C33.641601 6.16986566 36.83482527 6.54783218 40 7 C40 12.94 40 18.88 40 25 C33.41042635 24.7291956 28.12454451 23.81347462 21.9375 21.5 C13.32037761 18.3021956 5.16122363 18.21305171 -4 18 C-2.68 12.06 -1.36 6.12 0 0 Z " fill="#0B1C3C" transform="translate(217,189)"/>
<path d="M0 0 C0.63276855 0.13422363 1.26553711 0.26844727 1.91748047 0.40673828 C3.01020264 0.63852783 3.01020264 0.63852783 4.125 0.875 C6.80600028 1.44369703 9.2906062 2.10423918 11.875 3.03125 C15.27402179 4.08494676 18.32812498 4.40784439 21.875 4.625 C23.02742188 4.69976562 24.17984375 4.77453125 25.3671875 4.8515625 C26.67042969 4.92503906 26.67042969 4.92503906 28 5 C25.69596272 11.05793218 22.94641939 16.83187848 19 22 C13.32485768 23.68152365 8.04671364 20.69663454 3 18 C0.85531351 15.85531351 1.2604212 11.41555106 0.9375 8.4375 C0.84662109 7.63119141 0.75574219 6.82488281 0.66210938 5.99414062 C0.43752551 3.99652623 0.21826764 1.9983144 0 0 Z " fill="#0B1C3B" transform="translate(165,191)"/>
<path d="M0 0 C-0.25023457 4.01033821 -0.59028741 8.00280401 -1 12 C-1.06445312 12.7425 -1.12890625 13.485 -1.1953125 14.25 C-1.5 16.0625 -1.5 16.0625 -3 19 C-5.88660306 20.63104807 -8.73883287 21.46159977 -12 22 C-12.97710937 22.185625 -13.95421875 22.37125 -14.9609375 22.5625 C-18.53085429 21.90174419 -18.79629898 21.41031621 -20.7734375 18.53515625 C-21.66295943 17.05748774 -22.52948386 15.56578172 -23.375 14.0625 C-23.82488281 13.30775391 -24.27476563 12.55300781 -24.73828125 11.77539062 C-28 6.24831402 -28 6.24831402 -28 5 C-27.20078125 4.97421875 -26.4015625 4.9484375 -25.578125 4.921875 C-18.35718057 4.54896238 -12.23074095 3.38986355 -5.4609375 0.83984375 C-3 0 -3 0 0 0 Z " fill="#0B1C3B" transform="translate(140,191)"/>
</svg>
