<?xml version="1.0" encoding="UTF-8"?>
<svg version="1.1" xmlns="http://www.w3.org/2000/svg" width="840" height="583">
<path d="M0 0 C252.45 0 504.9 0 765 0 C765.66 3.63 766.32 7.26 767 11 C769.61272623 16.3222201 772.62530208 18.57271707 778 21 C781.3 21.66 784.6 22.32 788 23 C788 190.31 788 357.62 788 530 C784.37 530.66 780.74 531.32 777 532 C771.67006265 534.56626613 768.16269766 538.51140075 766 544 C765.67 546.97 765.34 549.94 765 553 C512.55 553 260.1 553 0 553 C-0.66 549.37 -1.32 545.74 -2 542 C-4.46944792 537.14929873 -7.14929873 534.46944792 -12 532 C-15.63 531.34 -19.26 530.68 -23 530 C-23 362.69 -23 195.38 -23 23 C-17.06 21.515 -17.06 21.515 -11 20 C-5.84981212 16.964254 -5.84981212 16.964254 -3.25 12.25 C-2.84265625 11.43015625 -2.4353125 10.6103125 -2.015625 9.765625 C-0.66318404 6.37982628 -0.66318404 6.37982628 0 0 Z M4 4 C3.01 7.3 2.02 10.6 1 14 C-3.91570861 21.98653869 -10.17266454 24.47790415 -19 27 C-19 191.67 -19 356.34 -19 526 C-14.05 527.485 -14.05 527.485 -9 529 C-2.13292295 532.91070702 0.8116949 538.61910653 3 546 C3.33 547.32 3.66 548.64 4 550 C253.81 550 503.62 550 761 550 C761.66 547.03 762.32 544.06 763 541 C765.386937 535.49101859 768.60066587 531.75060418 774 529 C777.3 528.01 780.6 527.02 784 526 C784 361.33 784 196.66 784 27 C780.04 25.68 776.08 24.36 772 23 C766.52977141 19.9739161 764.25878061 14.63826391 762 9 C761.67 7.35 761.34 5.7 761 4 C511.19 4 261.38 4 4 4 Z " fill="#1E1E1E" transform="translate(34,11)"/>
<path d="M0 0 C15.84 0 31.68 0 48 0 C48.66 3.63 49.32 7.26 50 11 C52.61272623 16.3222201 55.62530208 18.57271707 61 21 C64.3 21.66 67.6 22.32 71 23 C71 190.31 71 357.62 71 530 C67.37 530.66 63.74 531.32 60 532 C54.67006265 534.56626613 51.16269766 538.51140075 49 544 C48.67 546.97 48.34 549.94 48 553 C32.49 553 16.98 553 1 553 C1 552.01 1 551.02 1 550 C15.19 550 29.38 550 44 550 C44.33 547.03 44.66 544.06 45 541 C48.13218373 533.92963086 52.97786547 529.60885381 60.125 526.75 C63 526 63 526 67 526 C67 361.33 67 196.66 67 27 C64.69 26.67 62.38 26.34 60 26 C52.28073185 22.75790738 48.61531133 18.8957121 44.91796875 11.53515625 C44 9 44 9 44 4 C-205.81 4 -455.62 4 -713 4 C-713 3.67 -713 3.34 -713 3 C-477.71 3 -242.42 3 0 3 C0 2.01 0 1.02 0 0 Z " fill="#3B3B3B" transform="translate(751,11)"/>
<path d="M0 0 C219.12 0 438.24 0 664 0 C664 0.99 664 1.98 664 3 C444.88 3 225.76 3 0 3 C0 2.01 0 1.02 0 0 Z " fill="#000000" transform="translate(88,561)"/>
<path d="M0 0 C246.51 0 493.02 0 747 0 C748.98 3.96 750.96 7.92 753 12 C758.13081937 17.42124311 761.79575545 18.79811353 769 22 C769 183.37 769 344.74 769 511 C766.03 512.32 763.06 513.64 760 515 C759.34 514.67 758.68 514.34 758 514 C764.625 510 764.625 510 768 510 C768 349.29 768 188.58 768 23 C765.525 22.505 765.525 22.505 763 22 C755.18606067 18.07264615 749.46944842 12.03621076 746 4 C746 3.01 746 2.02 746 1 C500.15 1 254.3 1 1 1 C0.67 2.65 0.34 4.3 0 6 C-3.48810506 13.28511978 -8.91628945 18.22800833 -16 22 C-17.65 22.33 -19.3 22.66 -21 23 C-21 183.71 -21 344.42 -21 510 C-19.35 510.33 -17.7 510.66 -16 511 C-13.61328125 512.26953125 -13.61328125 512.26953125 -11.3125 513.8125 C-10.54550781 514.31394531 -9.77851562 514.81539062 -8.98828125 515.33203125 C-6.89520929 517.08790891 -6.01746202 518.49171127 -5 521 C-5.47308594 520.61328125 -5.94617188 520.2265625 -6.43359375 519.828125 C-7.42552734 519.04695312 -7.42552734 519.04695312 -8.4375 518.25 C-9.07558594 517.73953125 -9.71367188 517.2290625 -10.37109375 516.703125 C-13.99452754 514.35569984 -18.05473812 512.75344973 -22 511 C-22 349.63 -22 188.26 -22 22 C-18.7 20.35 -15.4 18.7 -12 17 C-5.6564391 12.91192742 -2.73559922 6.83899806 0 0 Z " fill="#3C3C3C" transform="translate(43,21)"/>
<path d="M0 0 C0.66 0.33 1.32 0.66 2 1 C1.55269531 1.46148438 1.10539063 1.92296875 0.64453125 2.3984375 C0.03996094 3.05070313 -0.56460938 3.70296875 -1.1875 4.375 C-2.07501953 5.31472656 -2.07501953 5.31472656 -2.98046875 6.2734375 C-5.86402847 10.166522 -7.83338866 14.66677731 -10 19 C-255.85 19 -501.7 19 -755 19 C-756.98 15.37 -758.96 11.74 -761 8 C-760.67 7.34 -760.34 6.68 -760 6 C-759.15841464 7.26538369 -758.32700252 8.53753779 -757.5 9.8125 C-756.80390625 10.87404297 -756.80390625 10.87404297 -756.09375 11.95703125 C-755 14 -755 14 -755 17 C-509.15 17 -263.3 17 -10 17 C-9.67 15.02 -9.34 13.04 -9 11 C-7.6953125 8.76953125 -7.6953125 8.76953125 -6.125 6.8125 C-5.61195313 6.15894531 -5.09890625 5.50539063 -4.5703125 4.83203125 C-3.11553779 3.13479408 -1.60623326 1.55333336 0 0 Z " fill="#9D9D9D" transform="translate(799,536)"/>
</svg>
