<?xml version="1.0" encoding="UTF-8"?>
<svg version="1.1" xmlns="http://www.w3.org/2000/svg" width="215" height="214">
<path d="M0 0 C10.00488457 6.35422101 15.54133524 14.25681822 19.26953125 25.44140625 C19.83971643 32.9846758 19.96649939 39.49855878 16.83203125 46.50390625 C15.35079846 50.35924037 15.06468949 51.84354605 16.421875 55.8046875 C17.67708284 58.19037851 18.95682037 60.51273614 20.30859375 62.83984375 C26.13454816 72.98666806 27.55159635 85.19586477 27.43554688 96.6953125 C27.44899958 99.05069078 27.44899958 99.05069078 28.26953125 102.44140625 C31.03694564 104.78634938 31.03694564 104.78634938 34.26953125 106.44140625 C41.13723472 112.90193363 45.86833443 120.48264695 46.5078125 129.98046875 C46.83557326 142.0397025 44.75701857 151.34766984 36.26953125 160.44140625 C27.97527759 168.03013211 18.5987094 170.77320131 7.51171875 170.74609375 C3.20564451 170.34142653 -0.33220793 168.97727875 -4.2578125 167.21875 C-7.28673913 166.2665282 -8.72054086 166.4642168 -11.73046875 167.44140625 C-13.71636122 168.49520156 -15.67270937 169.60556194 -17.60546875 170.75390625 C-31.51345789 178.44197743 -46.06364148 179.63944199 -61.73046875 179.44140625 C-61.96636719 180.17230469 -62.20226562 180.90320313 -62.4453125 181.65625 C-65.77759932 188.87789285 -73.43213673 193.87022479 -80.625 196.78515625 C-90.93537306 199.99877902 -101.00282138 199.03898591 -110.73046875 194.44140625 C-119.98771926 188.77476771 -125.87037067 180.91554922 -128.73046875 170.44140625 C-129.54188578 161.50638388 -129.35018617 153.94964337 -125.41015625 145.7734375 C-124.48793534 142.60926574 -125.26085186 141.34965412 -126.73046875 138.44140625 C-127.18164062 137.51585937 -127.6328125 136.5903125 -128.09765625 135.63671875 C-128.59523438 134.62351563 -129.0928125 133.6103125 -129.60546875 132.56640625 C-133.89438091 123.23356562 -136.87445946 114.17494297 -136.74584961 103.8918457 C-136.6002811 96.45748119 -136.6002811 96.45748119 -140.27734375 90.2734375 C-142.35530116 88.37456936 -144.55337235 86.65164654 -146.76953125 84.91796875 C-152.87182856 79.81393643 -155.26104882 72.63783662 -156.51171875 64.94140625 C-157.48236028 53.84836014 -153.80543814 44.02326553 -146.79296875 35.484375 C-139.44952497 28.21047141 -130.10353987 24.86627766 -119.98046875 24.19140625 C-115.74570436 24.23212514 -112.02686677 25.36918589 -108.02734375 26.6875 C-107.269375 26.93628906 -106.51140625 27.18507813 -105.73046875 27.44140625 C-105.08207031 27.70308594 -104.43367188 27.96476562 -103.765625 28.234375 C-100.61936992 28.5544355 -99.01506019 27.03343213 -96.41796875 25.31640625 C-81.00348525 15.91000401 -64.42055489 14.03731799 -46.73046875 14.44140625 C-46.43140625 13.83039062 -46.13234375 13.219375 -45.82421875 12.58984375 C-42.0487364 5.1737177 -35.43525357 1.37443066 -27.92578125 -1.7109375 C-19.33954403 -3.98870459 -8.07934578 -3.95020824 0 0 Z M-37.73046875 16.44140625 C-42.35178846 22.38310302 -44.07170644 28.02708984 -43.60546875 35.44140625 C-42.6063732 43.01594462 -39.11970082 49.05217418 -33.73046875 54.44140625 C-27.21134114 58.87499639 -19.0084037 61.28001709 -11.16796875 59.94140625 C-2.54496028 57.53427668 3.73033622 52.02724744 8.26953125 44.44140625 C11.1691987 38.51026829 11.34725334 31.30528488 9.58203125 24.9765625 C6.37187428 17.15180489 1.83422455 11.6758825 -5.8984375 8.16796875 C-17.65087484 3.50708742 -29.68637563 6.74117631 -37.73046875 16.44140625 Z M-87.73046875 42.44140625 C-87.18803237 45.96724271 -86.50455823 49.41388315 -85.66796875 52.87890625 C-83.58074822 62.38208456 -85.07142366 71.59858623 -90.29296875 79.87890625 C-90.70675781 80.47574219 -91.12054688 81.07257813 -91.546875 81.6875 C-92.80400576 83.43292635 -92.80400576 83.43292635 -93.6328125 85.5390625 C-95.02089598 87.94474455 -96.19496456 88.37960666 -98.73046875 89.44140625 C-99.46523437 89.84359375 -100.2 90.24578125 -100.95703125 90.66015625 C-106.79817781 93.78050816 -112.17891311 95.50746108 -118.73046875 96.44140625 C-118.34169622 108.31840711 -116.29415299 119.36146259 -109.73046875 129.44140625 C-107.99796875 128.94640625 -107.99796875 128.94640625 -106.23046875 128.44140625 C-93.50988092 125.69696447 -81.97871361 126.58736259 -70.8359375 133.640625 C-61.82884239 140.50425951 -59.64723994 150.10238328 -56.73046875 160.44140625 C-44.69444589 161.16037222 -31.84631674 158.18530491 -21.73046875 151.44140625 C-21.94703125 150.59578125 -22.16359375 149.75015625 -22.38671875 148.87890625 C-25.26493591 137.15283632 -26.16369876 127.18171006 -20.10546875 116.31640625 C-14.29308673 107.23103242 -6.20427944 101.56809256 4.26953125 99.19140625 C5.60078375 98.93055272 6.93348066 98.67645219 8.26953125 98.44140625 C9.12592459 86.99903967 6.8111786 75.02024702 0.26953125 65.44140625 C-0.51808594 65.66957031 -1.30570312 65.89773437 -2.1171875 66.1328125 C-13.76912147 69.20781993 -24.97071737 69.49491989 -35.73046875 63.44140625 C-45.7489053 56.70270832 -49.96165378 47.49769225 -52.28515625 35.93359375 C-52.43210937 35.11117187 -52.5790625 34.28875 -52.73046875 33.44140625 C-64.8047879 32.39651325 -77.68936796 35.63577127 -87.73046875 42.44140625 Z M-140.66015625 42.99609375 C-146.19548809 49.53405174 -147.48006853 55.70650258 -147.171875 64.2265625 C-146.07106608 72.24395846 -142.10586789 78.07225963 -135.8203125 83.03515625 C-128.96840673 87.64578443 -121.89504853 88.53704018 -113.73046875 87.44140625 C-104.85314527 84.71380757 -99.56893049 79.01957035 -94.79296875 71.31640625 C-92.51475913 65.12252384 -92.63929288 57.20772296 -94.45703125 50.93359375 C-97.60382077 44.20509258 -103.46629122 38.63111903 -110.04296875 35.25390625 C-121.84267746 31.68655245 -131.90732379 34.24326129 -140.66015625 42.99609375 Z M-11.73046875 118.44140625 C-16.63788158 125.31972072 -16.67647705 133.27484481 -15.73046875 141.44140625 C-14.84872862 144.52254311 -13.59863646 146.85157874 -11.73046875 149.44140625 C-11.30636719 150.06660156 -10.88226563 150.69179687 -10.4453125 151.3359375 C-5.54955589 157.81360989 0.75140827 160.29290619 8.64453125 161.44140625 C15.97821536 161.87340447 22.89057704 159.56758187 28.70703125 155.06640625 C34.71673299 148.91012642 37.3197034 143.17187873 37.64453125 134.62890625 C37.50881391 127.33636117 35.60171658 122.13238932 30.83203125 116.62890625 C29.98640625 115.90703125 29.14078125 115.18515625 28.26953125 114.44140625 C27.50640625 113.74015625 26.74328125 113.03890625 25.95703125 112.31640625 C13.13494208 103.37076264 -1.85915562 107.02204605 -11.73046875 118.44140625 Z M-114.73046875 145.44140625 C-119.22952894 152.50765352 -120.49311723 159.12853779 -119.73046875 167.44140625 C-118.01035679 174.60163132 -114.66996947 180.05387723 -108.73046875 184.44140625 C-101.14189045 188.846811 -93.88270834 190.27121692 -85.28515625 188.28515625 C-76.98859569 185.54500781 -71.62615151 180.14064414 -67.73046875 172.44140625 C-64.94525217 165.82651686 -65.10118566 158.73934269 -67.63671875 152.05078125 C-71.11935211 145.13257715 -76.39834709 139.65163915 -83.54296875 136.50390625 C-95.57049423 132.69952196 -106.50198867 136.22769795 -114.73046875 145.44140625 Z " fill="#264EF5" transform="translate(161.73046875,7.55859375)"/>
</svg>
