<?xml version="1.0" encoding="UTF-8"?>
<svg version="1.1" xmlns="http://www.w3.org/2000/svg" width="865" height="391">
<path d="M0 0 C0.59941406 0.45890625 1.19882813 0.9178125 1.81640625 1.390625 C3.5 2.6875 3.5 2.6875 6 5 C6 5.99 6 6.98 6 8 C6.66 8 7.32 8 8 8 C13.51665819 19.08949694 17.75987978 30.63512019 22.08377075 42.22616577 C23.85308289 46.96907309 25.63317146 51.70791466 27.41242981 56.44709778 C28.31728289 58.85768237 29.22156949 61.26847968 30.12528992 63.67948914 C34.06795638 74.19613719 38.05582077 84.69510409 42.0625 95.1875 C43.35441649 98.57282137 44.64599221 101.95827269 45.9375 105.34375 C46.26155319 106.19304077 46.58560638 107.04233154 46.91947937 107.9173584 C49.51554211 114.72360751 52.10267238 121.53322715 54.6875 128.34375 C55.08784958 129.3982132 55.48819916 130.45267639 55.90068054 131.53909302 C57.92261979 136.86495099 59.94285906 142.19144341 61.96020508 147.51904297 C65.77721885 157.58930597 69.62920707 167.64318642 73.57421875 177.6640625 C74.28788832 179.48535095 75.00135396 181.30671932 75.71459961 183.12817383 C77.03634609 186.50344245 78.37395243 189.87180182 79.72094727 193.23706055 C80.3094159 194.73720896 80.89726384 196.23760105 81.484375 197.73828125 C81.75726852 198.40667023 82.03016205 199.0750592 82.31132507 199.76370239 C83.77929751 203.56522365 84.25814308 206.08302482 83 210 C77.07356401 210.12349116 71.14787471 210.21428772 65.22045898 210.2746582 C63.20372475 210.29982071 61.18708187 210.3339543 59.1706543 210.37719727 C56.2736968 210.43777325 53.37794339 210.46619169 50.48046875 210.48828125 C49.57725388 210.51408768 48.674039 210.5398941 47.74345398 210.56648254 C45.39895266 210.5675358 43.28959827 210.50251656 41 210 C39.11425781 207.9987793 39.11425781 207.9987793 38 205 C37.6269146 204.09517632 37.6269146 204.09517632 37.24629211 203.17207336 C36.3474302 200.97428436 35.51656132 198.75773549 34.69140625 196.53125 C34.37313873 195.68477905 34.05487122 194.83830811 33.72695923 193.96618652 C32.66764167 191.14578888 31.61516601 188.32288625 30.5625 185.5 C29.80756497 183.48678505 29.05210077 181.47376847 28.29614258 179.4609375 C26.68852762 175.17915615 25.08325845 170.89650556 23.47949219 166.61328125 C19.81541003 156.83326381 16.12228488 147.06421018 12.43173218 137.29415894 C10.33760564 131.74986764 8.24481402 126.20507282 6.15234375 120.66015625 C5.73283951 119.5485463 5.31333527 118.43693634 4.88111877 117.29164124 C2.22678466 110.25641709 -0.42330715 103.21960787 -3.07060242 96.18173218 C-4.86474001 91.41250972 -6.66038668 86.64385607 -8.45614624 81.87524414 C-9.30262082 79.62617773 -10.14837351 77.37683946 -10.99331665 75.12719727 C-13.64149284 68.07680164 -16.30932706 61.03428591 -19 54 C-19.55820435 52.5335202 -19.55820435 52.5335202 -20.12768555 51.03741455 C-21.20452325 48.21983785 -22.29515089 45.40803144 -23.390625 42.59765625 C-23.87193878 41.33265541 -23.87193878 41.33265541 -24.36297607 40.042099 C-24.66632874 39.27289627 -24.9696814 38.50369354 -25.28222656 37.71118164 C-25.67308441 36.70336388 -25.67308441 36.70336388 -26.07183838 35.67518616 C-27.02565499 33.65141859 -27.02565499 33.65141859 -30 32 C-35.60709952 31.20343938 -35.60709952 31.20343938 -40.33496094 33.82226562 C-44.24057269 37.88053054 -45.81560819 43.22450924 -47.7734375 48.40234375 C-48.21366241 49.53434708 -48.65388733 50.6663504 -49.10745239 51.83265686 C-50.29536388 54.89373117 -51.47166784 57.95895751 -52.64309692 61.02636719 C-53.87513662 64.24344819 -55.12261698 67.45452529 -56.36914062 70.66601562 C-58.11339706 75.16313157 -59.85370148 79.66172913 -61.58787155 84.16274452 C-64.89383465 92.74299234 -68.25431604 101.30054469 -71.64599609 109.84719849 C-73.10363751 113.52166955 -74.5559619 117.19823773 -76.0078125 120.875 C-76.30979553 121.6396608 -76.61177856 122.40432159 -76.9229126 123.19215393 C-79.78989366 130.45729677 -82.64117403 137.72857927 -85.4921875 145 C-85.98115927 146.24667186 -86.47015269 147.49333524 -86.95916748 148.73999023 C-87.45129635 149.99462796 -87.94342281 151.24926664 -88.43554688 152.50390625 C-88.68013767 153.12746506 -88.92472847 153.75102386 -89.17673111 154.39347839 C-90.83630376 158.62494108 -92.49353112 162.85731816 -94.15039062 167.08984375 C-98.40973306 177.95841792 -102.69989367 188.81315865 -107.1015625 199.625 C-107.67153458 201.03060181 -107.67153458 201.03060181 -108.25302124 202.46459961 C-108.77480453 203.73895874 -108.77480453 203.73895874 -109.30712891 205.0390625 C-109.61131744 205.78365723 -109.91550598 206.52825195 -110.22891235 207.29541016 C-111 209 -111 209 -112 210 C-115.10251201 210.08874135 -118.1826812 210.11518455 -121.28515625 210.09765625 C-122.21597519 210.0962413 -123.14679413 210.09482635 -124.1058197 210.09336853 C-127.09141191 210.08775172 -130.07693029 210.0751964 -133.0625 210.0625 C-135.08137913 210.05748716 -137.10025943 210.05292388 -139.11914062 210.04882812 C-144.07945572 210.03777683 -149.03971532 210.02050095 -154 210 C-155.14256602 206.12478088 -154.64776535 204.30167199 -153.140625 200.515625 C-152.69436768 199.37834961 -152.24811035 198.24107422 -151.78833008 197.06933594 C-151.2757074 195.79616194 -150.76292445 194.52305246 -150.25 193.25 C-149.71213252 191.89134687 -149.17530101 190.53228324 -148.6394043 189.17285156 C-147.43889584 186.1335341 -146.23132214 183.09714136 -145.01904297 180.0625 C-142.8542169 174.64091134 -140.70973108 169.2113676 -138.56640625 163.78125 C-135.3434582 155.61992335 -132.11402625 147.4611968 -128.87890625 139.3046875 C-124.68170791 128.72215293 -120.49189496 118.1367183 -116.30706787 107.54928589 C-115.25321528 104.88313438 -114.19913337 102.21707362 -113.14501953 99.55102539 C-109.44325274 90.18758955 -105.74581312 80.82246125 -102.05354309 71.45527649 C-99.58081141 65.18270967 -97.10326008 58.91205826 -94.62321472 52.64237976 C-92.88837664 48.25469373 -91.16133875 43.86404258 -89.44059753 39.47080994 C-88.36373277 36.72528417 -87.28102359 33.98208872 -86.19692993 31.2394104 C-85.46970232 29.39420733 -84.74969636 27.54616299 -84.0300293 25.69799805 C-78.47257996 11.67589333 -72.76167824 -0.54017486 -58.43359375 -7.0390625 C-40.32115048 -14.19100639 -14.96235048 -13.16415416 0 0 Z " fill="#060606" transform="translate(185,149)"/>
<path d="M0 0 C13.91819477 -0.07048168 27.83636135 -0.12297775 41.75469875 -0.15543652 C48.21909761 -0.17102322 54.6833757 -0.1921324 61.14770508 -0.22631836 C67.39823133 -0.25916288 73.64864216 -0.27690547 79.89924812 -0.28463173 C82.27159502 -0.29013052 84.64393634 -0.30086684 87.01623344 -0.31719017 C121.46124593 -0.54455005 121.46124593 -0.54455005 134.5625 6.6875 C135.21814941 7.02982666 135.87379883 7.37215332 136.54931641 7.72485352 C141.27598156 10.30693696 145.05904684 13.35688999 148.6171875 17.43359375 C149.93516422 19.1236487 149.93516422 19.1236487 152 20 C152 20.99 152 21.98 152 23 C152.66 23 153.32 23 154 23 C154.79913872 24.83008867 155.58890755 26.66426966 156.375 28.5 C156.81585937 29.5209375 157.25671875 30.541875 157.7109375 31.59375 C160.53777143 39.06344452 161.29534519 45.57752651 161.2746582 53.49584961 C161.27976913 54.51643967 161.28488007 55.53702972 161.29014587 56.58854675 C161.30398154 59.94320634 161.30308974 63.29765912 161.30078125 66.65234375 C161.30467122 68.99589615 161.30900652 71.33944786 161.31376648 73.68299866 C161.32121555 78.58776132 161.32094672 83.49245198 161.31567383 88.3972168 C161.30987826 94.66934704 161.32681899 100.94118207 161.3500185 107.21326351 C161.36477913 112.0509665 161.3656244 116.88859875 161.36250877 121.72632027 C161.36302072 124.03828072 161.36823458 126.35024526 161.37832069 128.66218376 C161.39071396 131.89990083 161.38387593 135.13704732 161.37231445 138.37475586 C161.37995819 139.3210083 161.38760193 140.26726074 161.39547729 141.2421875 C161.32904604 149.69688823 159.69603443 157.1565854 153.8125 163.49609375 C148.46565714 167.93259052 141.46085507 170.1135582 134.58229065 170.14044189 C133.70367874 170.14615204 132.82506683 170.15186218 131.91983032 170.15774536 C130.96345673 170.15886322 130.00708313 170.15998108 129.02172852 170.16113281 C128.00814774 170.16609772 126.99456696 170.17106262 125.95027161 170.17617798 C122.59314291 170.19079404 119.23606156 170.19760283 115.87890625 170.203125 C113.53922017 170.20887954 111.19953409 170.21463724 108.85984802 170.22039795 C103.94798564 170.23090817 99.03613962 170.23674984 94.12426758 170.24023438 C87.85691938 170.24570088 81.58979044 170.26968941 75.32251072 170.29820633 C70.48464854 170.3169182 65.64683809 170.32204298 60.80894279 170.32357025 C58.50028226 170.32658106 56.19162228 170.33455593 53.88299751 170.34775543 C34.9942872 170.44798891 17.2751652 170.01782948 2.625 156.375 C-9.71865574 143.19784982 -10.57535585 128.45894643 -10.3125 111.3359375 C-9.90227059 99.65465518 -6.53106813 89.41421005 1.96484375 81.0703125 C13.0377538 71.73943351 26.6948652 68.65348657 40.85595703 68.77294922 C42.24803123 68.77251114 42.24803123 68.77251114 43.66822815 68.77206421 C46.69818885 68.77344385 49.72789541 68.78893999 52.7578125 68.8046875 C54.87344224 68.80842249 56.98907372 68.81126717 59.10470581 68.81326294 C64.64486555 68.82086108 70.18491869 68.84047644 75.72503662 68.8626709 C81.38959308 68.88321197 87.05416694 68.89228226 92.71875 68.90234375 C103.81254657 68.92372621 114.90626438 68.95781559 126 69 C125.8066364 65.83010489 125.56371816 62.66579347 125.3125 59.5 C125.25900391 58.613125 125.20550781 57.72625 125.15039062 56.8125 C124.53754275 49.56490772 122.41738068 44.0153359 116.875 39.125 C109.07559951 36.07306068 100.69020115 35.70237055 92.40380859 35.69702148 C91.4089444 35.68858215 90.4140802 35.68014282 89.3890686 35.67144775 C86.14218608 35.64591741 82.89539386 35.63359296 79.6484375 35.62109375 C77.37968237 35.60490215 75.11093411 35.58772043 72.8421936 35.56959534 C66.90137902 35.52412571 60.96055513 35.48919479 55.01965332 35.45739746 C45.47606618 35.40529562 35.93257889 35.34054556 26.38911819 35.26918221 C23.05364142 35.24630095 19.71817765 35.23007004 16.38265991 35.21446228 C14.35585378 35.2010654 12.32904906 35.18745146 10.30224609 35.17358398 C9.36934753 35.17097061 8.43644897 35.16835724 7.47528076 35.16566467 C1.11365024 35.11365024 1.11365024 35.11365024 0 34 C-0.08847743 31.47905924 -0.11527301 28.98569107 -0.09765625 26.46484375 C-0.0962413 25.71159317 -0.09482635 24.95834259 -0.09336853 24.18226624 C-0.08775376 21.7673044 -0.07519883 19.35243399 -0.0625 16.9375 C-0.0574869 15.30403779 -0.05292366 13.67057414 -0.04882812 12.03710938 C-0.03777954 8.02470415 -0.02050506 4.01236759 0 0 Z M29 103.0625 C25.76404346 107.81531117 24.70129611 112.74000757 25.2265625 118.47265625 C26.25262246 123.68121487 27.8749208 127.8749208 31.6875 131.6875 C37.33055166 134.8903131 43.62815815 135.29740626 49.98901367 135.2746582 C50.74292892 135.27976913 51.49684418 135.28488007 52.27360535 135.29014587 C54.73847629 135.30392329 57.20306415 135.3030951 59.66796875 135.30078125 C61.39333702 135.30467278 63.11870434 135.30900839 64.84407043 135.31376648 C68.44742959 135.32120171 72.05069069 135.32095564 75.65405273 135.31567383 C80.26753326 135.30986199 84.88061456 135.32686438 89.49402905 135.3500185 C93.05168495 135.36475374 96.60924441 135.36562819 100.16692543 135.36250877 C101.86815498 135.36302141 103.56939002 135.3682483 105.27058983 135.37832069 C107.64704801 135.39067324 110.02272404 135.38390266 112.39916992 135.37231445 C113.44738922 135.38378006 113.44738922 135.38378006 114.51678467 135.39547729 C118.81803244 135.34917657 121.65415779 134.76766987 125 132 C126.55833456 128.6125213 126.11320343 124.71600863 126.09765625 121.046875 C126.0962413 120.38665344 126.09482635 119.72643188 126.09336853 119.04620361 C126.08779245 116.94742206 126.07524447 114.84874905 126.0625 112.75 C126.0574819 111.32291821 126.05291954 109.89583475 126.04882812 108.46875 C126.03783088 104.97913168 126.0205828 101.48957644 126 98 C115.2205092 97.93029071 104.4410726 97.87708277 93.66140175 97.84456348 C88.65520859 97.82895076 83.6491704 97.80779321 78.64306641 97.77368164 C73.80604925 97.74093091 68.96918054 97.72311399 64.132061 97.71536827 C62.29260295 97.70985286 60.45315243 97.69908299 58.61375809 97.68280983 C43.07539181 97.25929996 43.07539181 97.25929996 29 103.0625 Z " fill="#040404" transform="translate(495,189)"/>
<path d="M0 0 C1.47459938 -0.00262848 1.47459938 -0.00262848 2.97898865 -0.00531006 C6.20492352 -0.00968596 9.43080292 -0.00680702 12.65673828 -0.00341797 C14.9049582 -0.00409191 17.15317804 -0.00506269 19.40139771 -0.00631714 C24.1001251 -0.00778805 28.79883342 -0.00565783 33.49755859 -0.00097656 C39.53038474 0.00474011 45.56316659 0.00142567 51.59599113 -0.00454903 C56.23180478 -0.0081542 60.86760783 -0.0070166 65.50342178 -0.00442123 C67.72905609 -0.00375286 69.95469136 -0.00457726 72.18032455 -0.00690079 C75.28039878 -0.0094287 78.38039999 -0.00558562 81.48046875 0 C82.86746727 -0.00303635 82.86746727 -0.00303635 84.28248596 -0.00613403 C85.12350357 -0.00331421 85.96452118 -0.00049438 86.83102417 0.00241089 C87.56359877 0.00278791 88.29617336 0.00316494 89.05094719 0.00355339 C90.85205078 0.12939453 90.85205078 0.12939453 92.85205078 1.12939453 C92.87670366 5.81078707 92.89488817 10.49214212 92.90698242 15.17358398 C92.91202235 16.76734068 92.91885428 18.36109272 92.92749023 19.95483398 C92.93957077 22.24089706 92.94528233 24.5268992 92.94970703 26.81298828 C92.95486832 27.52966171 92.9600296 28.24633514 92.96534729 28.98472595 C92.96554341 30.70003126 92.91397086 32.41520719 92.85205078 34.12939453 C90.75154782 36.2298975 86.09446447 35.29423533 83.19238281 35.30297852 C82.2833168 35.30966553 81.37425079 35.31635254 80.43763733 35.32324219 C78.45474739 35.33733275 76.47184084 35.3492139 74.48892593 35.35918999 C71.34370254 35.37557246 68.19860002 35.39881464 65.05343628 35.42408752 C56.10746284 35.49490063 47.16143697 35.55470954 38.21533203 35.60620117 C32.74815803 35.63815249 27.28111763 35.67948145 21.81405258 35.72639656 C19.73543604 35.74233622 17.65678865 35.75469451 15.57812881 35.76330376 C-1.50109093 34.99227232 -1.50109093 34.99227232 -17.21044922 40.12939453 C-21.47536325 46.73313238 -21.53398445 53.35040664 -20.14404297 60.90283203 C-18.75737211 64.00244924 -16.93140599 65.21120766 -14.14794922 67.12939453 C-5.71683322 69.53490232 3.32450577 69.41051435 12.02783203 69.40283203 C14.51025842 69.4231202 16.99268027 69.44397097 19.47509766 69.46533203 C23.31880577 69.48786285 27.16233248 69.50439115 31.00610352 69.51025391 C51.84888135 69.56363875 73.73023596 69.7231694 89.85205078 85.12939453 C90.18205078 86.11939453 90.51205078 87.10939453 90.85205078 88.12939453 C91.32384766 88.58443359 91.79564453 89.03947266 92.28173828 89.50830078 C94.23968812 91.5295674 94.97583321 93.44559656 95.97705078 96.06689453 C96.47591797 97.34886719 96.47591797 97.34886719 96.98486328 98.65673828 C101.36261648 111.13925079 100.87279778 129.25884285 96.10986328 141.58251953 C90.11397354 153.72326522 81.64650555 162.3101499 68.85205078 167.12939453 C60.87785462 169.53777874 53.53392743 170.5622145 45.22436523 170.48583984 C44.13181931 170.48788422 43.03927338 170.48992859 41.91362 170.49203491 C38.34734675 170.4950131 34.78154932 170.47666485 31.21533203 170.45751953 C28.72381199 170.45445844 26.23229024 170.45258498 23.74076843 170.45184326 C18.54382686 170.44725992 13.34704196 170.43290173 8.15014648 170.41064453 C1.47386123 170.38220128 -5.20226372 170.3714147 -11.87860394 170.36696243 C-17.01106496 170.36281885 -22.1435011 170.35301293 -27.27594948 170.34108734 C-29.7396506 170.3353765 -32.20335413 170.3306205 -34.66705894 170.32682037 C-38.09261734 170.31998752 -41.51807649 170.30637369 -44.94360352 170.29052734 C-45.96843842 170.28940948 -46.99327332 170.28829163 -48.04916382 170.28713989 C-48.97558182 170.28142975 -49.90199982 170.2757196 -50.85649109 170.26983643 C-52.07061944 170.26537443 -52.07061944 170.26537443 -53.30927563 170.2608223 C-55.14794922 170.12939453 -55.14794922 170.12939453 -56.14794922 169.12939453 C-56.23642665 166.60845377 -56.26322223 164.1150856 -56.24560547 161.59423828 C-56.24419052 160.8409877 -56.24277557 160.08773712 -56.24131775 159.31166077 C-56.23570298 156.89669893 -56.22314805 154.48182852 -56.21044922 152.06689453 C-56.20543612 150.43343232 -56.20087288 148.79996867 -56.19677734 147.16650391 C-56.18572876 143.15409868 -56.16845428 139.14176213 -56.14794922 135.12939453 C-54.8650148 135.12352829 -53.58208038 135.11766205 -52.26026917 135.11161804 C-40.15156266 135.05432835 -28.04303467 134.98153382 -15.93451023 134.89367962 C-9.70985275 134.84901125 -3.48526019 134.80974711 2.73950195 134.78295898 C8.75021212 134.75689111 14.76067199 134.71646346 20.77122688 134.66620827 C23.06082094 134.64956322 25.35045827 134.63803428 27.64010429 134.63178062 C30.85481692 134.62211408 34.06889259 134.59402325 37.28344727 134.56176758 C38.69362625 134.56392021 38.69362625 134.56392021 40.1322937 134.56611633 C47.07027641 134.46809387 53.37086318 133.36092505 59.28955078 129.56689453 C62.65331119 124.3194283 63.35145686 118.32819525 62.22705078 112.25439453 C61.20208952 108.57621077 60.06939515 106.36366146 56.85205078 104.12939453 C50.90295322 101.41389054 44.73185041 101.81457305 38.32470703 101.78564453 C36.49304237 101.76371033 36.49304237 101.76371033 34.62437439 101.74133301 C30.72113324 101.69491752 26.81794045 101.66071223 22.91455078 101.62939453 C-28.79119191 101.20941661 -28.79119191 101.20941661 -45.30029297 86.16845703 C-57.19482997 73.89737044 -57.60999439 59.70847661 -57.42138672 43.60205078 C-57.08951473 32.11632259 -53.90543765 22.83484489 -46.14794922 14.12939453 C-43.6438809 11.80598044 -41.05736541 9.91331123 -38.14794922 8.12939453 C-37.53306641 7.75169922 -36.91818359 7.37400391 -36.28466797 6.98486328 C-25.26139138 0.89125076 -12.33898926 -0.02737141 0 0 Z " fill="#060606" transform="translate(750.14794921875,188.87060546875)"/>
<path d="M0 0 C11.88 0 23.76 0 36 0 C36 12.87 36 25.74 36 39 C39.22523438 38.98839844 42.45046875 38.97679687 45.7734375 38.96484375 C48.88769431 38.95705113 52.00195005 38.95097553 55.11621094 38.94506836 C57.28516117 38.94003109 59.454108 38.93320109 61.62304688 38.92456055 C64.73568563 38.91246849 67.8482796 38.90676572 70.9609375 38.90234375 C71.934935 38.89718246 72.9089325 38.89202118 73.91244507 38.88670349 C74.81322784 38.88662796 75.71401062 38.88655243 76.64208984 38.88647461 C77.43706879 38.884254 78.23204773 38.88203339 79.05111694 38.87974548 C81 39 81 39 83 40 C83.02465288 44.68139254 83.04283739 49.36274759 83.05493164 54.04418945 C83.05997157 55.63794614 83.0668035 57.23169819 83.07543945 58.82543945 C83.08751999 61.11150253 83.09323155 63.39750467 83.09765625 65.68359375 C83.10281754 66.40026718 83.10797882 67.11694061 83.11329651 67.85533142 C83.11349263 69.57063672 83.06192007 71.28581266 83 73 C82 74 82 74 80.13340759 74.12025452 C79.31844315 74.11803391 78.5034787 74.11581329 77.66381836 74.11352539 C76.7429393 74.11344986 75.82206024 74.11337433 74.87327576 74.11329651 C73.87224319 74.10813522 72.87121063 74.10297394 71.83984375 74.09765625 C70.31043907 74.09553383 70.31043907 74.09553383 68.75013733 74.09336853 C65.47922893 74.08775097 62.20838787 74.0751955 58.9375 74.0625 C56.72591244 74.05748726 54.51432382 74.05292396 52.30273438 74.04882812 C46.86846643 74.03777584 41.43423803 74.02102063 36 74 C36.08475202 84.09319559 36.17976734 94.1862391 36.28752708 104.27921677 C36.33726101 108.96687672 36.38359116 113.6545166 36.421875 118.34228516 C36.45901952 122.87466563 36.50545439 127.40686814 36.55806351 131.93909454 C36.57645381 133.65961809 36.59161703 135.38017955 36.60334396 137.10076141 C36.11449055 154.83768813 36.11449055 154.83768813 42 171 C47.23658392 174.99634036 52.64440566 175.12557804 59.05078125 175.31640625 C59.70958786 175.33718735 60.36839447 175.35796844 61.04716492 175.37937927 C63.13551185 175.44435489 65.22397612 175.50351575 67.3125 175.5625 C68.7350378 175.60573479 70.15756406 175.6493506 71.58007812 175.69335938 C75.05326297 175.79998216 78.52657726 175.90139348 82 176 C82.02465392 180.53897705 82.04283789 185.07791543 82.05493164 189.61694336 C82.0599714 191.16219766 82.0668032 192.70744716 82.07543945 194.25268555 C82.08752076 196.46925029 82.09323173 198.68575218 82.09765625 200.90234375 C82.10539818 201.94454323 82.10539818 201.94454323 82.11329651 203.00779724 C82.11349277 204.6722933 82.06189129 206.33665499 82 208 C80.47323415 209.52676585 79.09129169 209.14934715 76.96191406 209.17700195 C75.67356659 209.19625481 75.67356659 209.19625481 74.35919189 209.21589661 C73.42081482 209.22328354 72.48243774 209.23067047 71.515625 209.23828125 C70.06576202 209.25038887 70.06576202 209.25038887 68.58660889 209.26274109 C66.52862351 209.27661229 64.47061483 209.28732077 62.41259766 209.29516602 C59.30454573 209.31220104 56.19760772 209.35603647 53.08984375 209.40039062 C37.65538515 209.52199776 24.14323632 208.44690431 12.29296875 197.41015625 C-0.91014965 183.20426937 -0.43736092 164.19905111 -0.29296875 146.0703125 C-0.28736143 143.98282173 -0.28309671 141.89532697 -0.28010559 139.80783081 C-0.2687462 134.35972866 -0.23935738 128.91187308 -0.20599365 123.46386719 C-0.17509897 117.88610162 -0.16155911 112.30829554 -0.14648438 106.73046875 C-0.11447777 95.8202052 -0.06339139 84.91012324 0 74 C-0.6612085 74.00523682 -1.32241699 74.01047363 -2.00366211 74.01586914 C-4.98159851 74.03657656 -7.95951982 74.04964012 -10.9375 74.0625 C-12.49887695 74.07506836 -12.49887695 74.07506836 -14.09179688 74.08789062 C-15.08115234 74.09111328 -16.07050781 74.09433594 -17.08984375 74.09765625 C-18.46450806 74.10551147 -18.46450806 74.10551147 -19.86694336 74.11352539 C-22 74 -22 74 -23 73 C-23.08847743 70.47905924 -23.11527301 67.98569107 -23.09765625 65.46484375 C-23.0962413 64.71159317 -23.09482635 63.95834259 -23.09336853 63.18226624 C-23.08775376 60.7673044 -23.07519883 58.35243399 -23.0625 55.9375 C-23.0574869 54.30403779 -23.05292366 52.67057414 -23.04882812 51.03710938 C-23.03862875 47.0246757 -23.01905645 43.01244064 -23 39 C-15.41 39 -7.82 39 0 39 C0 26.13 0 13.26 0 0 Z " fill="#040404" transform="translate(293,150)"/>
<path d="M0 0 C11.88 0 23.76 0 36 0 C36.0225848 30.68495273 36.04049793 61.3699028 36.05106533 92.05486181 C36.05231611 95.67370021 36.05361042 99.29253858 36.05493164 102.91137695 C36.05519395 103.6318528 36.05545626 104.35232865 36.05572652 105.0946371 C36.06008331 116.77574418 36.06797091 128.45684636 36.0771528 140.13795053 C36.08648908 152.11495649 36.09205555 164.09195987 36.09408849 176.06896931 C36.09534006 182.80000169 36.09836182 189.53102383 36.10573006 196.26205254 C36.11248605 202.58942067 36.11461783 208.91677304 36.11310768 215.24414444 C36.1133842 217.57387058 36.11539181 219.90359721 36.11920547 222.23332024 C36.12413615 225.39905111 36.12300061 228.56472139 36.12025452 231.73045349 C36.12316736 232.66525919 36.1260802 233.60006489 36.12908131 234.56319803 C36.11412121 240.88587879 36.11412121 240.88587879 35 242 C32.49075847 242.10087212 30.00963616 242.13972032 27.5 242.1328125 C26.74912109 242.13376923 25.99824219 242.13472595 25.22460938 242.13571167 C23.63411373 242.13639338 22.04361533 242.13453972 20.453125 242.13037109 C18.01035345 242.12502267 15.56776579 242.13031634 13.125 242.13671875 C11.58333293 242.13605797 10.04166597 242.1347768 8.5 242.1328125 C7.76458984 242.13483673 7.02917969 242.13686096 6.27148438 242.13894653 C1.11495161 242.11495161 1.11495161 242.11495161 0 241 C-0.09804809 237.90285742 -0.12990642 234.82799884 -0.12025452 231.73045349 C-0.12110894 230.74546295 -0.12196337 229.7604724 -0.12284368 228.74563366 C-0.12450147 225.41821365 -0.11897225 222.09084316 -0.11352539 218.76342773 C-0.11324356 216.3889262 -0.11340118 214.01442458 -0.1139679 211.6399231 C-0.11422605 205.8440998 -0.10987473 200.04829294 -0.10353024 194.25247341 C-0.0963963 187.51097875 -0.09488635 180.76948647 -0.09374207 174.02798856 C-0.09155123 162.00473954 -0.08489027 149.98149729 -0.07543945 137.95825195 C-0.06626616 126.27596063 -0.05918492 114.59367115 -0.05493164 102.91137695 C-0.05466892 102.19177374 -0.05440619 101.47217053 -0.05413551 100.73076116 C-0.05283051 97.12087064 -0.05156679 93.5109801 -0.05032361 89.90108955 C-0.03995 59.93405482 -0.02205639 29.96702855 0 0 Z " fill="#080808" transform="translate(406,117)"/>
<path d="M0 0 C2.06167529 0.05063077 4.11136411 0.02068956 6.1730957 -0.01782227 C13.60489065 -0.02498998 19.37467225 0.74453908 24.99023438 5.93603516 C27.51255436 9.37481853 27.5388174 12.23173447 27.12036133 16.36303711 C27.08813477 17.08620117 27.0559082 17.80936523 27.02270508 18.55444336 C26.74040101 23.74299743 26.74040101 23.74299743 25.49536133 24.98803711 C22.81804753 25.08784925 20.17231958 25.12683586 17.49536133 25.11303711 C16.37000977 25.11883789 16.37000977 25.11883789 15.22192383 25.12475586 C9.62197186 25.11464764 9.62197186 25.11464764 8.49536133 23.98803711 C8.45443195 21.65506278 8.4529441 19.32098486 8.49536133 16.98803711 C4.20536133 16.98803711 -0.08463867 16.98803711 -4.50463867 16.98803711 C-4.50463867 19.95803711 -4.50463867 22.92803711 -4.50463867 25.98803711 C-3.1047168 25.90682617 -1.70479492 25.82561523 -0.26245117 25.74194336 C1.61508706 25.67622952 3.49269674 25.61253547 5.37036133 25.55053711 C6.28817383 25.49188477 7.20598633 25.43323242 8.15161133 25.37280273 C14.72068575 25.21088893 19.3565222 26.54415156 24.57202148 30.63671875 C28.32663372 35.22680132 27.93757744 40.23273674 27.74536133 45.92553711 C27.80336914 47.63773438 27.80336914 47.63773438 27.86254883 49.38452148 C27.80754169 54.14538949 27.47118942 57.60218168 24.69067383 61.55102539 C17.87326977 67.86078034 10.9428495 68.20873569 1.99536133 67.98803711 C0.74110352 68.01897461 -0.5131543 68.04991211 -1.80541992 68.08178711 C-10.06382143 68.01260678 -14.62638087 66.40776536 -20.72924805 60.80053711 C-21.31512695 60.20241211 -21.90100586 59.60428711 -22.50463867 58.98803711 C-22.83463867 58.65803711 -23.16463867 58.32803711 -23.50463867 57.98803711 C-23.6037317 55.65643656 -23.63434371 53.32173769 -23.62963867 50.98803711 C-23.6322168 49.70928711 -23.63479492 48.43053711 -23.63745117 47.11303711 C-23.50463867 43.98803711 -23.50463867 43.98803711 -22.50463867 42.98803711 C-21.16196454 42.90171837 -19.81489545 42.88097238 -18.46948242 42.89038086 C-17.6605957 42.89360352 -16.85170898 42.89682617 -16.01831055 42.90014648 C-15.16817383 42.90852539 -14.31803711 42.9169043 -13.44213867 42.92553711 C-12.58813477 42.93004883 -11.73413086 42.93456055 -10.85424805 42.93920898 C-8.73768204 42.95103338 -6.62115182 42.96896942 -4.50463867 42.98803711 C-4.50463867 45.62803711 -4.50463867 48.26803711 -4.50463867 50.98803711 C-0.21463867 50.98803711 4.07536133 50.98803711 8.49536133 50.98803711 C8.16536133 48.01803711 7.83536133 45.04803711 7.49536133 41.98803711 C6.1212207 42.03444336 4.74708008 42.08084961 3.33129883 42.12866211 C1.51100814 42.16619388 -0.30930615 42.20259253 -2.12963867 42.23803711 C-3.03327148 42.27155273 -3.9369043 42.30506836 -4.86791992 42.33959961 C-10.71827141 42.4250062 -14.0838001 41.95357337 -18.50463867 37.98803711 C-18.50463867 37.32803711 -18.50463867 36.66803711 -18.50463867 35.98803711 C-19.14401367 35.67866211 -19.78338867 35.36928711 -20.44213867 35.05053711 C-22.50463867 33.98803711 -22.50463867 33.98803711 -23.50463867 32.98803711 C-23.98213545 29.14707871 -24.06305118 25.29136769 -24.19213867 21.42553711 C-24.27141602 20.35239258 -24.35069336 19.27924805 -24.43237305 18.17358398 C-24.55333248 13.57993867 -24.41300022 10.31765661 -21.77685547 6.45898438 C-15.33681082 0.43910314 -8.46587713 -0.23541585 0 0 Z " fill="#010101" transform="translate(199.504638671875,41.011962890625)"/>
<path d="M0 0 C6.27 0 12.54 0 19 0 C23.27241634 13.10207677 27.31782317 26.25414155 31.1824646 39.48138428 C31.6850667 41.19954767 32.18996385 42.9170414 32.69717407 44.6338501 C33.41829416 47.07816587 34.13029026 49.52496131 34.83984375 51.97265625 C35.05826935 52.70834335 35.27669495 53.44403046 35.5017395 54.20201111 C36.55427273 57.87302007 37.36690285 61.17178376 37 65 C34.94266743 67.05733257 30.93718511 66.32120168 28.125 66.375 C27.02478516 66.43107422 27.02478516 66.43107422 25.90234375 66.48828125 C23.7578125 66.5234375 23.7578125 66.5234375 20 66 C17.97544512 63.58156284 17 62.17225772 17 59 C12.05 59 7.1 59 2 59 C1.34 61.31 0.68 63.62 0 66 C-2.81256281 66.02684312 -5.62487241 66.04676188 -8.4375 66.0625 C-9.23994141 66.07087891 -10.04238281 66.07925781 -10.86914062 66.08789062 C-12.91295221 66.0965143 -14.95683902 66.0522815 -17 66 C-17.33 65.67 -17.66 65.34 -18 65 C-17.51867468 58.40774931 -15.824297 52.35136905 -13.9453125 46.03515625 C-13.64309784 45.00241074 -13.34088318 43.96966522 -13.0295105 42.90562439 C-12.39184705 40.73059167 -11.75125891 38.5564145 -11.10791016 36.38305664 C-10.12961854 33.07810278 -9.15970246 29.77078523 -8.19140625 26.46289062 C-7.56819527 24.34100276 -6.94451285 22.21925328 -6.3203125 20.09765625 C-6.0327005 19.11926285 -5.7450885 18.14086945 -5.44876099 17.13282776 C-5.17192474 16.19833298 -4.8950885 15.2638382 -4.60986328 14.30102539 C-4.37083282 13.49242569 -4.13180237 12.68382599 -3.88552856 11.85072327 C-2.65230963 7.88070348 -1.31460587 3.94381762 0 0 Z M9 34 C8.34 37.3 7.68 40.6 7 44 C8.65 44 10.3 44 12 44 C11.34 40.7 10.68 37.4 10 34 C9.67 34 9.34 34 9 34 Z " fill="#040404" transform="translate(251,42)"/>
<path d="M0 0 C0.74886475 0.00523682 1.49772949 0.01047363 2.26928711 0.01586914 C3.07817383 0.0190918 3.88706055 0.02231445 4.72045898 0.02563477 C5.5705957 0.03401367 6.42073242 0.04239258 7.29663086 0.05102539 C8.15063477 0.05553711 9.00463867 0.06004883 9.88452148 0.06469727 C12.00108749 0.07652166 14.11761771 0.0944577 16.23413086 0.11352539 C19.513204 7.00372972 21.41191651 14.29079316 23.48413086 21.61352539 C24.27574662 24.39293427 25.07049827 27.17143424 25.86694336 29.94946289 C26.06492523 30.64095428 26.2629071 31.33244568 26.46688843 32.04489136 C27.72423429 36.41262557 29.04305349 40.75625551 30.41381836 45.09008789 C30.74349609 46.13616211 31.07317383 47.18223633 31.4128418 48.26000977 C32.02895258 50.19926455 32.65415222 52.13566276 33.28979492 54.06860352 C33.56275391 54.93163086 33.83571289 55.7946582 34.11694336 56.68383789 C34.35815918 57.4239209 34.599375 58.16400391 34.84790039 58.92651367 C35.31341027 61.56244131 34.89391194 63.53941805 34.23413086 66.11352539 C31.60906284 66.14043383 28.98426913 66.16031944 26.35913086 66.17602539 C25.61276367 66.1844043 24.86639648 66.1927832 24.09741211 66.20141602 C18.46069336 66.22680664 18.46069336 66.22680664 16.23413086 65.11352539 C15.73913086 62.14352539 15.73913086 62.14352539 15.23413086 59.11352539 C10.28413086 59.44352539 5.33413086 59.77352539 0.23413086 60.11352539 C-0.75586914 62.58852539 -0.75586914 62.58852539 -1.76586914 65.11352539 C-3.57774756 66.92540381 -6.03564424 66.24587001 -8.44360352 66.25024414 C-9.18932617 66.24637695 -9.93504883 66.24250977 -10.70336914 66.23852539 C-11.81615234 66.24432617 -11.81615234 66.24432617 -12.95141602 66.25024414 C-18.51259912 66.2401604 -18.51259912 66.2401604 -20.76586914 65.11352539 C-19.11107783 55.52347752 -16.26737381 46.34927283 -13.45336914 37.05102539 C-12.73562257 34.66380662 -12.01916496 32.27620347 -11.30276489 29.88858032 C-10.8297298 28.31370748 -10.3556786 26.73913946 -9.88058472 25.16488647 C-8.67737311 21.17434978 -7.49014024 17.18003914 -6.33081055 13.17651367 C-6.10222855 12.38902237 -5.87364655 11.60153107 -5.63813782 10.79017639 C-5.20335112 9.28841355 -4.77125837 7.78586744 -4.34220886 6.28245544 C-2.56947737 0.1651883 -2.56947737 0.1651883 0 0 Z M7.23413086 35.11352539 C6.24413086 38.08352539 5.25413086 41.05352539 4.23413086 44.11352539 C6.21413086 44.11352539 8.19413086 44.11352539 10.23413086 44.11352539 C9.57413086 41.14352539 8.91413086 38.17352539 8.23413086 35.11352539 C7.90413086 35.11352539 7.57413086 35.11352539 7.23413086 35.11352539 Z " fill="#020202" transform="translate(79.765869140625,41.886474609375)"/>
<path d="M0 0 C14.85 0 29.7 0 45 0 C46.36538938 2.73077876 46.13231826 4.95560367 46.125 8 C46.12886719 9.60875 46.12886719 9.60875 46.1328125 11.25 C46 14 46 14 45 16 C36.42 16 27.84 16 19 16 C19 18.97 19 21.94 19 25 C23.62 25 28.24 25 33 25 C33.02685095 27.47923801 33.04676547 29.9581884 33.0625 32.4375 C33.07087891 33.14455078 33.07925781 33.85160156 33.08789062 34.58007812 C33.09653588 36.38693559 33.05220011 38.19387603 33 40 C32 41 32 41 29.05859375 41.09765625 C27.86363281 41.08605469 26.66867187 41.07445312 25.4375 41.0625 C23.64119141 41.04896484 23.64119141 41.04896484 21.80859375 41.03515625 C20.88175781 41.02355469 19.95492188 41.01195312 19 41 C19 43.97 19 46.94 19 50 C19.78238037 49.99476318 20.56476074 49.98952637 21.37084961 49.98413086 C24.89305833 49.96342894 28.4152543 49.95036162 31.9375 49.9375 C33.16919922 49.92912109 34.40089844 49.92074219 35.66992188 49.91210938 C36.83974609 49.90888672 38.00957031 49.90566406 39.21484375 49.90234375 C40.84087524 49.89448853 40.84087524 49.89448853 42.49975586 49.88647461 C45 50 45 50 46 51 C46.12548989 52.95530764 46.17575363 54.91570479 46.1875 56.875 C46.20167969 57.94492188 46.21585937 59.01484375 46.23046875 60.1171875 C46 63 46 63 44 66 C42.1337738 66.36749268 42.1337738 66.36749268 39.84155273 66.35644531 C38.98403915 66.35944641 38.12652557 66.36244751 37.24302673 66.36553955 C36.31591385 66.35319275 35.38880096 66.34084595 34.43359375 66.328125 C33.48436539 66.32625183 32.53513702 66.32437866 31.55714417 66.32244873 C29.548884 66.31571989 27.54063711 66.30178898 25.5324707 66.28125 C22.44665449 66.25009243 19.36134852 66.24028067 16.27539062 66.234375 C14.32811873 66.22520557 12.38085206 66.21483 10.43359375 66.203125 C9.50445663 66.19887512 8.57531952 66.19462524 7.61802673 66.19024658 C6.76366531 66.18063904 5.90930389 66.17103149 5.02905273 66.16113281 C3.89559669 66.15089081 3.89559669 66.15089081 2.73924255 66.14044189 C1 66 1 66 0 65 C-0.09409479 62.97505769 -0.11743122 60.9468013 -0.11352539 58.91967773 C-0.11344986 57.61840439 -0.11337433 56.31713104 -0.11329651 54.97642517 C-0.10818909 53.54548098 -0.10297308 52.11453718 -0.09765625 50.68359375 C-0.09579203 49.2277074 -0.09436815 47.77182043 -0.09336853 46.31593323 C-0.08954365 42.47720621 -0.07971364 38.63851681 -0.06866455 34.79980469 C-0.05665498 30.19764229 -0.05204804 25.59546734 -0.04621124 20.99329376 C-0.03650185 13.99550298 -0.01734513 6.9977948 0 0 Z " fill="#070707" transform="translate(347,42)"/>
<path d="M0 0 C14.85 0 29.7 0 45 0 C45 4.95 45 9.9 45 15 C44 16 44 16 41.49975586 16.11352539 C40.41573486 16.10828857 39.33171387 16.10305176 38.21484375 16.09765625 C37.04501953 16.09443359 35.87519531 16.09121094 34.66992188 16.08789062 C33.43822266 16.07951172 32.20652344 16.07113281 30.9375 16.0625 C29.08415039 16.05573242 29.08415039 16.05573242 27.19335938 16.04882812 C24.12885883 16.03699608 21.06445279 16.02051173 18 16 C18 18.97 18 21.94 18 25 C22.95 25 27.9 25 33 25 C33.020625 27.454375 33.04125 29.90875 33.0625 32.4375 C33.071604 33.21150146 33.08070801 33.98550293 33.09008789 34.78295898 C33.09724913 36.52221717 33.05024702 38.26145304 33 40 C32 41 32 41 29.05859375 41.09765625 C27.86363281 41.08605469 26.66867187 41.07445312 25.4375 41.0625 C23.64119141 41.04896484 23.64119141 41.04896484 21.80859375 41.03515625 C20.88175781 41.02355469 19.95492188 41.01195312 19 41 C18.97494385 41.72179443 18.9498877 42.44358887 18.92407227 43.18725586 C18.80848698 46.437535 18.68559226 49.68749688 18.5625 52.9375 C18.52318359 54.07380859 18.48386719 55.21011719 18.44335938 56.38085938 C18.40146484 57.46044922 18.35957031 58.54003906 18.31640625 59.65234375 C18.27974854 60.65257568 18.24309082 61.65280762 18.20532227 62.68334961 C18 65 18 65 17 66 C14.3226862 66.09981214 11.67695825 66.13879875 9 66.125 C7.87464844 66.13080078 7.87464844 66.13080078 6.7265625 66.13671875 C1.12661053 66.12661053 1.12661053 66.12661053 0 65 C-0.09409479 62.97505769 -0.11743122 60.9468013 -0.11352539 58.91967773 C-0.11344986 57.61840439 -0.11337433 56.31713104 -0.11329651 54.97642517 C-0.10818909 53.54548098 -0.10297308 52.11453718 -0.09765625 50.68359375 C-0.09579203 49.2277074 -0.09436815 47.77182043 -0.09336853 46.31593323 C-0.08954365 42.47720621 -0.07971364 38.63851681 -0.06866455 34.79980469 C-0.05665498 30.19764229 -0.05204804 25.59546734 -0.04621124 20.99329376 C-0.03650185 13.99550298 -0.01734513 6.9977948 0 0 Z " fill="#040404" transform="translate(295,42)"/>
<path d="M0 0 C12.36652165 -1.68088644 12.36652165 -1.68088644 18 0 C22.5070146 3.48390327 24.88469523 8.84162522 27 14 C27 14.66 27 15.32 27 16 C27.66 16 28.32 16 29 16 C29.27972656 15.29488281 29.55945313 14.58976562 29.84765625 13.86328125 C30.22792969 12.91839844 30.60820312 11.97351562 31 11 C31.52400391 9.56720703 31.52400391 9.56720703 32.05859375 8.10546875 C33.71784158 4.59425592 34.98435798 2.49304497 38 0 C44.2044952 -1.41540047 50.73125122 -0.61998614 57 0 C56.42631229 4.02121339 55.18268 6.69315874 52.98046875 10.08984375 C52.37009766 11.03923828 51.75972656 11.98863281 51.13085938 12.96679688 C50.48955078 13.94712891 49.84824219 14.92746094 49.1875 15.9375 C48.55779297 16.91396484 47.92808594 17.89042969 47.27929688 18.89648438 C42.28476578 26.62673974 42.28476578 26.62673974 39.82226562 29.85449219 C37.61128066 33.67098875 37.4749141 36.16112798 37.42578125 40.55078125 C37.40453438 41.59989937 37.40453438 41.59989937 37.38285828 42.67021179 C37.34121475 44.88446811 37.32575814 47.09790845 37.3125 49.3125 C37.28344974 51.54456796 37.24898375 53.77643056 37.21000671 56.00834656 C37.17729542 58.02015655 37.15921532 60.03218851 37.1418457 62.04418945 C37 65 37 65 36 66 C33.3226862 66.09981214 30.67695825 66.13879875 28 66.125 C26.87464844 66.13080078 26.87464844 66.13080078 25.7265625 66.13671875 C20.12661053 66.12661053 20.12661053 66.12661053 19 65 C19.02555354 62.91433567 19.10733577 60.8293401 19.2109375 58.74609375 C19.77734738 37.81577849 16.15675679 25.92381459 3 9 C1.5094061 7.0239161 0.23584778 5.15362214 -1 3 C-0.67 2.01 -0.34 1.02 0 0 Z " fill="#050505" transform="translate(456,42)"/>
<path d="M0 0 C16.17 0 32.34 0 49 0 C49 5.28 49 10.56 49 16 C44.05 16 39.1 16 34 16 C34.00523682 17.47911865 34.01047363 18.9582373 34.01586914 20.48217773 C34.03391238 25.9481547 34.04542952 31.41412901 34.05493164 36.88012695 C34.05997341 39.24992312 34.06680665 41.61971615 34.07543945 43.98950195 C34.0875119 47.38754039 34.09322971 50.78553785 34.09765625 54.18359375 C34.10281754 55.25024765 34.10797882 56.31690155 34.11329651 57.4158783 C34.11337204 58.39681961 34.11344757 59.37776093 34.11352539 60.38842773 C34.115746 61.25668686 34.11796661 62.12494598 34.12025452 63.01951599 C34 65 34 65 33 66 C30.34177343 66.12658222 27.72112576 66.18520214 25.0625 66.1875 C24.32064453 66.19974609 23.57878906 66.21199219 22.81445312 66.22460938 C20.87486371 66.22988478 18.9357629 66.12188902 17 66 C15 64 15 64 14.75949097 61.93722534 C14.76393219 61.08895172 14.76837341 60.2406781 14.77294922 59.36669922 C14.77310028 58.40585419 14.77325134 57.44500916 14.77340698 56.45504761 C14.78372955 55.41542877 14.79405212 54.37580994 14.8046875 53.3046875 C14.8075174 52.24210724 14.81034729 51.17952698 14.81326294 50.08474731 C14.82448361 46.68138501 14.84959163 43.27828314 14.875 39.875 C14.88502736 37.57161838 14.89415363 35.26823264 14.90234375 32.96484375 C14.92442907 27.30980655 14.95792511 21.65492187 15 16 C14.00097656 16.01160156 13.00195312 16.02320312 11.97265625 16.03515625 C10.68230469 16.04417969 9.39195312 16.05320312 8.0625 16.0625 C6.77472656 16.07410156 5.48695313 16.08570312 4.16015625 16.09765625 C1 16 1 16 0 15 C0 10.05 0 5.1 0 0 Z " fill="#040404" transform="translate(399,42)"/>
<path d="M0 0 C5.94 0 11.88 0 18 0 C18.02255381 8.45767731 18.0409167 16.91533141 18.05181217 25.37303066 C18.05704031 29.29988658 18.06413669 33.22672094 18.07543945 37.15356445 C18.0862708 40.94014257 18.09227736 44.7266999 18.09487724 48.51329231 C18.09673105 49.96104319 18.10035081 51.40879288 18.10573006 52.85653496 C18.11294367 54.87757135 18.11340808 56.89862848 18.11352539 58.91967773 C18.115746 60.07217514 18.11796661 61.22467255 18.12025452 62.41209412 C18 65 18 65 17 66 C14.33997189 66.15317991 11.7237812 66.23159875 9.0625 66.25 C8.32064453 66.270625 7.57878906 66.29125 6.81445312 66.3125 C4.66015625 66.328125 4.66015625 66.328125 1 66 C-1.31720358 62.52419463 -1.24837561 61.19174074 -1.24291992 57.09155273 C-1.24599655 55.87696884 -1.24907318 54.66238495 -1.25224304 53.41099548 C-1.24505753 52.09845291 -1.23787201 50.78591034 -1.23046875 49.43359375 C-1.22927651 48.07503808 -1.22882388 46.71648158 -1.2290802 45.35792542 C-1.22751666 42.51240876 -1.2192363 39.66701815 -1.20581055 36.8215332 C-1.18880471 33.17067549 -1.18499675 29.51995606 -1.18575573 25.86906338 C-1.18548409 23.06470922 -1.18000412 20.26038541 -1.17275429 17.45604134 C-1.16801716 15.45405064 -1.16629131 13.45205356 -1.16459656 11.45005798 C-1.15821671 10.23862625 -1.15183685 9.02719452 -1.14526367 7.77905273 C-1.14145187 6.70888412 -1.13764008 5.63871552 -1.13371277 4.53611755 C-1 2 -1 2 0 0 Z " fill="#0A0A0A" transform="translate(122,42)"/>
<path d="M0 0 C14.85 0 29.7 0 45 0 C45 4.95 45 9.9 45 15 C44 16 44 16 41.49975586 16.11352539 C40.41573486 16.10828857 39.33171387 16.10305176 38.21484375 16.09765625 C37.04501953 16.09443359 35.87519531 16.09121094 34.66992188 16.08789062 C33.43822266 16.07951172 32.20652344 16.07113281 30.9375 16.0625 C29.08415039 16.05573242 29.08415039 16.05573242 27.19335938 16.04882812 C24.12885883 16.03699608 21.06445279 16.02051173 18 16 C18 18.97 18 21.94 18 25 C22.95 25 27.9 25 33 25 C33.020625 27.454375 33.04125 29.90875 33.0625 32.4375 C33.071604 33.21150146 33.08070801 33.98550293 33.09008789 34.78295898 C33.09724913 36.52221717 33.05024702 38.26145304 33 40 C32 41 32 41 29.05859375 41.09765625 C27.86363281 41.08605469 26.66867187 41.07445312 25.4375 41.0625 C23.64119141 41.04896484 23.64119141 41.04896484 21.80859375 41.03515625 C20.88175781 41.02355469 19.95492188 41.01195312 19 41 C18.97494385 41.72179443 18.9498877 42.44358887 18.92407227 43.18725586 C18.80848698 46.437535 18.68559226 49.68749688 18.5625 52.9375 C18.52318359 54.07380859 18.48386719 55.21011719 18.44335938 56.38085938 C18.40146484 57.46044922 18.35957031 58.54003906 18.31640625 59.65234375 C18.27974854 60.65257568 18.24309082 61.65280762 18.20532227 62.68334961 C18 65 18 65 17 66 C14.3226862 66.09981214 11.67695825 66.13879875 9 66.125 C7.87464844 66.13080078 7.87464844 66.13080078 6.7265625 66.13671875 C1.12661053 66.12661053 1.12661053 66.12661053 0 65 C-0.09409479 62.97505769 -0.11743122 60.9468013 -0.11352539 58.91967773 C-0.11344986 57.61840439 -0.11337433 56.31713104 -0.11329651 54.97642517 C-0.10818909 53.54548098 -0.10297308 52.11453718 -0.09765625 50.68359375 C-0.09579203 49.2277074 -0.09436815 47.77182043 -0.09336853 46.31593323 C-0.08954365 42.47720621 -0.07971364 38.63851681 -0.06866455 34.79980469 C-0.05665498 30.19764229 -0.05204804 25.59546734 -0.04621124 20.99329376 C-0.03650185 13.99550298 -0.01734513 6.9977948 0 0 Z M2 2 C2 22.13 2 42.26 2 63 C6.95 63 11.9 63 17 63 C17 54.75 17 46.5 17 38 C21.62 38 26.24 38 31 38 C31 34.7 31 31.4 31 28 C26.38 28 21.76 28 17 28 C17 23.05 17 18.1 17 13 C25.91 13 34.82 13 44 13 C44 9.37 44 5.74 44 2 C30.14 2 16.28 2 2 2 Z " fill="#6F6F6F" transform="translate(295,42)"/>
<path d="M0 0 C5.28 0 10.56 0 16 0 C16 0.99 16 1.98 16 3 C11.38 3 6.76 3 2 3 C2 5.97 2 8.94 2 12 C3.39992187 11.91878906 4.79984375 11.83757812 6.2421875 11.75390625 C8.11972573 11.68819241 9.99733541 11.62449836 11.875 11.5625 C13.25171875 11.47452148 13.25171875 11.47452148 14.65625 11.38476562 C21.22532442 11.22285182 25.86116087 12.55611446 31.07666016 16.64868164 C34.83127239 21.23876421 34.44221611 26.24469963 34.25 31.9375 C34.30800781 33.64969727 34.30800781 33.64969727 34.3671875 35.39648438 C34.31218036 40.15735238 33.97582809 43.61414458 31.1953125 47.56298828 C24.37790844 53.87274323 17.44748818 54.22069858 8.5 54 C6.61861328 54.04640625 6.61861328 54.04640625 4.69921875 54.09375 C-3.55918275 54.02456967 -8.1217422 52.41972825 -14.22460938 46.8125 C-14.81048828 46.214375 -15.39636719 45.61625 -16 45 C-16.33 44.67 -16.66 44.34 -17 44 C-17.07271741 41.64686445 -17.08370868 39.29166332 -17.0625 36.9375 C-17.05347656 35.64714844 -17.04445312 34.35679688 -17.03515625 33.02734375 C-17.02355469 32.02832031 -17.01195312 31.02929688 -17 30 C-16.01 29.67 -15.02 29.34 -14 29 C-13.98582031 30.03640625 -13.97164062 31.0728125 -13.95703125 32.140625 C-13.91011907 33.51046057 -13.86187173 34.88025087 -13.8125 36.25 C-13.80669922 36.93191406 -13.80089844 37.61382812 -13.79492188 38.31640625 C-13.64196366 41.81744991 -13.35653424 43.62482372 -10.9128418 46.19628906 C-7.26738365 48.45365599 -4.95773106 48.51622909 -0.6875 48.53125 C0.00384033 48.5350769 0.69518066 48.53890381 1.4074707 48.54284668 C2.86313338 48.54555787 4.31884544 48.53825211 5.77441406 48.52148438 C7.99395045 48.5000584 10.21025096 48.52130772 12.4296875 48.546875 C13.84896543 48.54423158 15.26824135 48.53910629 16.6875 48.53125 C17.97011719 48.52673828 19.25273437 48.52222656 20.57421875 48.51757812 C24.61222433 47.90750317 26.27642913 47.02654384 29 44 C29.77192047 41.31636342 29.77192047 41.31636342 29.70703125 38.359375 C29.73603516 37.28945312 29.76503906 36.21953125 29.79492188 35.1171875 C29.80072266 34.00601563 29.80652344 32.89484375 29.8125 31.75 C29.83763672 30.62335938 29.86277344 29.49671875 29.88867188 28.3359375 C29.94754892 25.55694092 29.98382525 22.77951967 30 20 C29.401875 19.71125 28.80375 19.4225 28.1875 19.125 C26 18 26 18 23 16 C20.48497823 15.63303819 20.48497823 15.63303819 17.67578125 15.5859375 C16.64775391 15.54726562 15.61972656 15.50859375 14.56054688 15.46875 C13.48869141 15.4378125 12.41683594 15.406875 11.3125 15.375 C10.22904297 15.33632812 9.14558594 15.29765625 8.02929688 15.2578125 C5.35314666 15.16349884 2.67659658 15.08065874 0 15 C0 10.05 0 5.1 0 0 Z " fill="#4D4D4D" transform="translate(193,55)"/>
<path d="M0 0 C2.06167529 0.05063077 4.11136411 0.02068956 6.1730957 -0.01782227 C13.60489065 -0.02498998 19.37467225 0.74453908 24.99023438 5.93603516 C27.51255436 9.37481853 27.5388174 12.23173447 27.12036133 16.36303711 C27.08813477 17.08620117 27.0559082 17.80936523 27.02270508 18.55444336 C26.74040101 23.74299743 26.74040101 23.74299743 25.49536133 24.98803711 C22.79881279 25.06123332 20.12844675 25.08046248 17.43286133 25.05053711 C16.67424805 25.04602539 15.91563477 25.04151367 15.1340332 25.03686523 C13.25444262 25.02504391 11.37489234 25.00710789 9.49536133 24.98803711 C9.00036133 23.00803711 9.00036133 23.00803711 8.49536133 20.98803711 C13.44536133 20.98803711 18.39536133 20.98803711 23.49536133 20.98803711 C23.49536133 16.69803711 23.49536133 12.40803711 23.49536133 7.98803711 C22.17536133 7.65803711 20.85536133 7.32803711 19.49536133 6.98803711 C18.83536133 6.32803711 18.17536133 5.66803711 17.49536133 4.98803711 C13.11377195 4.58812732 8.71739595 4.65903956 4.31958008 4.67236328 C2.13547516 4.6755153 -0.04726463 4.65209786 -2.23120117 4.62670898 C-3.62182447 4.62443512 -5.0124514 4.6237329 -6.40307617 4.62475586 C-8.30065674 4.62028442 -8.30065674 4.62028442 -10.23657227 4.61572266 C-13.71897693 5.01245559 -14.93251601 5.7278114 -17.50463867 7.98803711 C-18.16463867 7.98803711 -18.82463867 7.98803711 -19.50463867 7.98803711 C-19.50463867 16.56803711 -19.50463867 25.14803711 -19.50463867 33.98803711 C-18.18463867 34.31803711 -16.86463867 34.64803711 -15.50463867 34.98803711 C-14.84463867 35.97803711 -14.18463867 36.96803711 -13.50463867 37.98803711 C-11.08892738 38.49708094 -11.08892738 38.49708094 -8.27807617 38.49975586 C-6.73120117 38.55292969 -6.73120117 38.55292969 -5.15307617 38.60717773 C-4.0728418 38.62973633 -2.99260742 38.65229492 -1.87963867 38.67553711 C-0.79166992 38.70969727 0.29629883 38.74385742 1.41723633 38.77905273 C4.10984196 38.86172045 6.80211424 38.93080798 9.49536133 38.98803711 C9.49536133 39.64803711 9.49536133 40.30803711 9.49536133 40.98803711 C5.89040003 42.79051776 1.71537785 42.25836271 -2.25463867 42.30053711 C-3.14924805 42.32954102 -4.04385742 42.35854492 -4.96557617 42.38842773 C-10.76954258 42.44407048 -14.11437064 41.90584252 -18.50463867 37.98803711 C-18.50463867 37.32803711 -18.50463867 36.66803711 -18.50463867 35.98803711 C-19.14401367 35.67866211 -19.78338867 35.36928711 -20.44213867 35.05053711 C-22.50463867 33.98803711 -22.50463867 33.98803711 -23.50463867 32.98803711 C-23.98213545 29.14707871 -24.06305118 25.29136769 -24.19213867 21.42553711 C-24.27141602 20.35239258 -24.35069336 19.27924805 -24.43237305 18.17358398 C-24.55333248 13.57993867 -24.41300022 10.31765661 -21.77685547 6.45898438 C-15.33681082 0.43910314 -8.46587713 -0.23541585 0 0 Z " fill="#575757" transform="translate(199.504638671875,41.011962890625)"/>
<path d="M0 0 C0 0.99 0 1.98 0 3 C-1.98567708 3.390625 -3.97135417 3.78125 -5.95703125 4.171875 C-9.29527249 5.52504353 -10.61130414 8.16537958 -12.09503174 11.35128784 C-12.43395447 12.2226236 -12.7728772 13.09395935 -13.12207031 13.99169922 C-13.51443878 14.99130676 -13.90680725 15.99091431 -14.31106567 17.02081299 C-14.93826004 18.64633087 -14.93826004 18.64633087 -15.578125 20.3046875 C-16.021633 21.43928406 -16.46514099 22.57388062 -16.92208862 23.74285889 C-17.87468953 26.18213568 -18.82503933 28.62214735 -19.77154541 31.06378174 C-21.25804683 34.8982841 -22.75301223 38.72944906 -24.24951172 42.56005859 C-26.00181287 47.04686864 -27.75238454 51.53434378 -29.50027275 56.02287483 C-33.34729025 65.90130367 -37.22855087 75.76598448 -41.125 85.625 C-41.71851165 87.12825292 -42.31201758 88.6315081 -42.90551758 90.13476562 C-48.55730534 104.44169708 -54.26881913 118.72470924 -60 133 C-60.66 133 -61.32 133 -62 133 C-61.4680995 126.2787656 -59.05321955 120.57552562 -56.51171875 114.375 C-56.05722351 113.24788605 -55.60272827 112.12077209 -55.13446045 110.95950317 C-53.91155365 107.92953436 -52.68211851 104.9023165 -51.45002365 101.87607574 C-50.17220762 98.73219992 -48.90355404 95.58463771 -47.63500977 92.43701172 C-47.38396956 91.81414465 -47.13292936 91.19127758 -46.87428188 90.54953575 C-46.37001466 89.29828027 -45.86578873 88.04700815 -45.36160469 86.79571915 C-44.61130867 84.93448429 -43.86006408 83.07363466 -43.10862732 81.21286011 C-39.4767575 72.21151134 -35.91724724 63.18608756 -32.4375 54.125 C-31.98898682 52.96427979 -31.54047363 51.80355957 -31.07836914 50.60766602 C-28.85902751 44.85937307 -26.65984683 39.10402301 -24.48396301 33.33917236 C-23.32424809 30.27697545 -22.15127482 27.21995772 -20.9758606 24.16375732 C-20.41756979 22.70300217 -19.86501885 21.24003762 -19.31881714 19.77471924 C-14.02076695 5.57008077 -14.02076695 5.57008077 -8 1 C-5.07175348 0.02391783 -3.04386724 -0.08226668 0 0 Z " fill="#6C6C6C" transform="translate(153,177)"/>
<path d="M0 0 C0.66 0 1.32 0 2 0 C1.68991116 1.60463449 1.37683713 3.20869231 1.0625 4.8125 C0.80146484 6.15248047 0.80146484 6.15248047 0.53515625 7.51953125 C0 10 0 10 -1 13 C-1.66 13 -2.32 13 -3 13 C-2.94328125 13.94746094 -2.8865625 14.89492188 -2.828125 15.87109375 C-2.83312486 20.84970799 -4.3089756 25.33549355 -5.75 30.0625 C-6.303827 31.92304569 -6.85721097 33.78372332 -7.41015625 35.64453125 C-7.68230957 36.55154785 -7.95446289 37.45856445 -8.23486328 38.39306641 C-8.92283712 40.73709469 -9.56679673 43.08564387 -10.18359375 45.44921875 C-10.51488281 46.70347656 -10.84617187 47.95773438 -11.1875 49.25 C-11.46980469 50.34828125 -11.75210938 51.4465625 -12.04296875 52.578125 C-12.35878906 53.37734375 -12.67460938 54.1765625 -13 55 C-14.485 55.495 -14.485 55.495 -16 56 C-16 58.31 -16 60.62 -16 63 C-10.72 63 -5.44 63 0 63 C0 61.02 0 59.04 0 57 C6.27 57 12.54 57 19 57 C19.495 58.98 19.495 58.98 20 61 C24.29 61 28.58 61 33 61 C32.34 55.72 31.68 50.44 31 45 C33.68191633 47.68191633 34.1339305 50.18015751 35.1875 53.8125 C35.55230469 55.03582031 35.91710937 56.25914063 36.29296875 57.51953125 C36.97222817 60.86328895 36.96456542 62.7745424 36 66 C33.37493198 66.02690844 30.75013827 66.04679404 28.125 66.0625 C27.37863281 66.07087891 26.63226563 66.07925781 25.86328125 66.08789062 C20.2265625 66.11328125 20.2265625 66.11328125 18 65 C17.505 62.03 17.505 62.03 17 59 C12.05 59.33 7.1 59.66 2 60 C1.01 62.475 1.01 62.475 0 65 C-1.81187842 66.81187842 -4.2697751 66.13234462 -6.67773438 66.13671875 C-7.42345703 66.13285156 -8.16917969 66.12898438 -8.9375 66.125 C-10.0502832 66.13080078 -10.0502832 66.13080078 -11.18554688 66.13671875 C-16.74672998 66.12663501 -16.74672998 66.12663501 -19 65 C-17.34520869 55.40995213 -14.50150467 46.23574744 -11.6875 36.9375 C-10.96975343 34.55028123 -10.25329582 32.16267808 -9.53689575 29.77505493 C-9.06386066 28.20018209 -8.58980946 26.62561407 -8.11471558 25.05136108 C-6.91150397 21.06082438 -5.7242711 17.06651375 -4.56494141 13.06298828 C-4.33635941 12.27549698 -4.1077774 11.48800568 -3.87226868 10.676651 C-3.43748198 9.17488816 -3.00538923 7.67234205 -2.57633972 6.16893005 C-1.11042978 1.11042978 -1.11042978 1.11042978 0 0 Z " fill="#6B6B6B" transform="translate(78,42)"/>
<path d="M0 0 C14.85 0 29.7 0 45 0 C45 0.66 45 1.32 45 2 C30.81 2 16.62 2 2 2 C2 22.46 2 42.92 2 64 C16.19 64 30.38 64 45 64 C44.67 64.66 44.34 65.32 44 66 C37.8944529 66.02464513 31.78893449 66.04283371 25.68334961 66.05493164 C23.60456844 66.05997288 21.52579084 66.06680574 19.44702148 66.07543945 C16.46597414 66.08751422 13.48497351 66.09323024 10.50390625 66.09765625 C9.10078941 66.10539818 9.10078941 66.10539818 7.66932678 66.11329651 C6.37810158 66.11340981 6.37810158 66.11340981 5.06079102 66.11352539 C4.29912125 66.115746 3.53745148 66.11796661 2.75270081 66.12025452 C1 66 1 66 0 65 C-0.09409479 62.97505769 -0.11743122 60.9468013 -0.11352539 58.91967773 C-0.11344986 57.61840439 -0.11337433 56.31713104 -0.11329651 54.97642517 C-0.10818909 53.54548098 -0.10297308 52.11453718 -0.09765625 50.68359375 C-0.09579203 49.2277074 -0.09436815 47.77182043 -0.09336853 46.31593323 C-0.08954365 42.47720621 -0.07971364 38.63851681 -0.06866455 34.79980469 C-0.05665498 30.19764229 -0.05204804 25.59546734 -0.04621124 20.99329376 C-0.03650185 13.99550298 -0.01734513 6.9977948 0 0 Z " fill="#6D6D6D" transform="translate(347,42)"/>
<path d="M0 0 C12.36652165 -1.68088644 12.36652165 -1.68088644 18 0 C22.5070146 3.48390327 24.88469523 8.84162522 27 14 C27 14.66 27 15.32 27 16 C27.66 16 28.32 16 29 16 C29.26554687 15.27425781 29.53109375 14.54851563 29.8046875 13.80078125 C31.00072948 10.99829072 32.40329107 8.69520648 34.125 6.1875 C34.66382813 5.39730469 35.20265625 4.60710938 35.7578125 3.79296875 C36.16773438 3.20128906 36.57765625 2.60960937 37 2 C37.495 2.99 37.495 2.99 38 4 C35.9346597 9.95303969 32.59952412 14.86281509 29 20 C28.01 19.67 27.02 19.34 26 19 C24.96514123 16.68191636 23.9644586 14.34824702 23 12 C22.34 11.67 21.68 11.34 21 11 C21 9.68 21 8.36 21 7 C20.01 6.67 19.02 6.34 18 6 C17.67 4.68 17.34 3.36 17 2 C12.38 2.33 7.76 2.66 3 3 C3.63808594 3.96421875 4.27617187 4.9284375 4.93359375 5.921875 C5.76852414 7.19772368 6.60314329 8.47377608 7.4375 9.75 C8.06881836 10.70132813 8.06881836 10.70132813 8.71289062 11.671875 C9.31713867 12.6 9.31713867 12.6 9.93359375 13.546875 C10.30540771 14.11245117 10.67722168 14.67802734 11.06030273 15.26074219 C12 17 12 17 12.48071289 19.06347656 C13.31128563 22.16084514 15.74300091 23.79673899 18 26 C21.1985117 30.22531066 21.30336512 33.25957778 21.07421875 38.48828125 C21.04777786 39.19147995 21.02133698 39.89467865 20.99409485 40.6191864 C20.90676546 42.85119773 20.79747373 45.08150127 20.6875 47.3125 C20.62419559 48.83132024 20.56233109 50.35020123 20.50195312 51.86914062 C20.35397583 55.58073555 20.17629962 59.28921154 20 63 C25.61 63 31.22 63 37 63 C36.67 63.99 36.34 64.98 36 66 C33.35409986 66.02684679 30.70846904 66.04676357 28.0625 66.0625 C27.30775391 66.07087891 26.55300781 66.07925781 25.77539062 66.08789062 C23.85005687 66.09652441 21.92464419 66.05224333 20 66 C19.505 65.505 19.505 65.505 19 65 C19.02555354 62.91433567 19.10733577 60.8293401 19.2109375 58.74609375 C19.77734738 37.81577849 16.15675679 25.92381459 3 9 C1.5094061 7.0239161 0.23584778 5.15362214 -1 3 C-0.67 2.01 -0.34 1.02 0 0 Z " fill="#4D4D4D" transform="translate(456,42)"/>
<path d="M0 0 C0.33 0 0.66 0 1 0 C1.02694851 1.95825873 1.04637218 3.91662226 1.0625 5.875 C1.07410156 6.96554688 1.08570313 8.05609375 1.09765625 9.1796875 C1 12 1 12 0 14 C-8.58 14 -17.16 14 -26 14 C-26 16.97 -26 19.94 -26 23 C-21.38 23 -16.76 23 -12 23 C-11.97314905 25.47923801 -11.95323453 27.9581884 -11.9375 30.4375 C-11.92912109 31.14455078 -11.92074219 31.85160156 -11.91210938 32.58007812 C-11.90346412 34.38693559 -11.94779989 36.19387603 -12 38 C-13 39 -13 39 -15.94140625 39.09765625 C-17.13636719 39.08605469 -18.33132813 39.07445312 -19.5625 39.0625 C-21.35880859 39.04896484 -21.35880859 39.04896484 -23.19140625 39.03515625 C-24.11824219 39.02355469 -25.04507812 39.01195312 -26 39 C-26 41.97 -26 44.94 -26 48 C-26.33 48 -26.66 48 -27 48 C-27 44.37 -27 40.74 -27 37 C-22.71 37 -18.42 37 -14 37 C-14 33.37 -14 29.74 -14 26 C-18.62 26 -23.24 26 -28 26 C-28 21.05 -28 16.1 -28 11 C-18.76 11 -9.52 11 0 11 C0 7.37 0 3.74 0 0 Z " fill="#6C6C6C" transform="translate(392,44)"/>
<path d="M0 0 C0.66 0 1.32 0 2 0 C1.43585262 7.32629238 -0.23784493 13.92109628 -2.375 20.9375 C-2.83132812 22.46793945 -2.83132812 22.46793945 -3.296875 24.02929688 C-4.19061131 27.02178577 -5.09430657 30.01111137 -6 33 C-7.9381082 39.436582 -7.9381082 39.436582 -9.84375 45.8828125 C-11.34748322 51.02056766 -13.05962569 56.01046606 -15 61 C-9.72 61 -4.44 61 1 61 C1.33 59.35 1.66 57.7 2 56 C3.2077558 59.62326739 2.54311128 60.64146369 1 64 C-1.81256281 64.02684312 -4.62487241 64.04676188 -7.4375 64.0625 C-8.23994141 64.07087891 -9.04238281 64.07925781 -9.86914062 64.08789062 C-11.91295221 64.0965143 -13.95683902 64.0522815 -16 64 C-16.33 63.67 -16.66 63.34 -17 63 C-16.52034155 56.38013832 -14.80429399 50.30455139 -12.91015625 43.96484375 C-12.60556992 42.92735489 -12.30098358 41.88986603 -11.98716736 40.82093811 C-11.01807557 37.52471778 -10.04047768 34.23109355 -9.0625 30.9375 C-8.40893095 28.72087236 -7.75593051 26.50407699 -7.10351562 24.28710938 C-5.9046767 20.21500303 -4.7021859 16.14401039 -3.49633789 12.07397461 C-2.30759618 8.05568294 -1.14229417 4.03172918 0 0 Z " fill="#5A5A5A" transform="translate(250,44)"/>
<path d="M0 0 C5.94 0 11.88 0 18 0 C18 0.66 18 1.32 18 2 C12.39 2 6.78 2 1 2 C1 22.13 1 42.26 1 63 C6.61 63 12.22 63 18 63 C17.67 63.99 17.34 64.98 17 66 C14.37438891 66.08074203 11.75124324 66.1403623 9.125 66.1875 C8.37863281 66.21263672 7.63226563 66.23777344 6.86328125 66.26367188 C4.6953125 66.29296875 4.6953125 66.29296875 1 66 C-1.31720358 62.52419463 -1.24837561 61.19174074 -1.24291992 57.09155273 C-1.24599655 55.87696884 -1.24907318 54.66238495 -1.25224304 53.41099548 C-1.24505753 52.09845291 -1.23787201 50.78591034 -1.23046875 49.43359375 C-1.22927651 48.07503808 -1.22882388 46.71648158 -1.2290802 45.35792542 C-1.22751666 42.51240876 -1.2192363 39.66701815 -1.20581055 36.8215332 C-1.18880471 33.17067549 -1.18499675 29.51995606 -1.18575573 25.86906338 C-1.18548409 23.06470922 -1.18000412 20.26038541 -1.17275429 17.45604134 C-1.16801716 15.45405064 -1.16629131 13.45205356 -1.16459656 11.45005798 C-1.15821671 10.23862625 -1.15183685 9.02719452 -1.14526367 7.77905273 C-1.14145187 6.70888412 -1.13764008 5.63871552 -1.13371277 4.53611755 C-1 2 -1 2 0 0 Z " fill="#818181" transform="translate(122,42)"/>
<path d="M0 0 C5.61 0 11.22 0 17 0 C17 0.99 17 1.98 17 3 C12.05 3 7.1 3 2 3 C2.00785522 5.21867798 2.00785522 5.21867798 2.01586914 7.48217773 C2.03391238 12.9481547 2.04542952 18.41412901 2.05493164 23.88012695 C2.05997341 26.24992312 2.06680665 28.61971615 2.07543945 30.98950195 C2.0875119 34.38754039 2.09322971 37.78553785 2.09765625 41.18359375 C2.10281754 42.25024765 2.10797882 43.31690155 2.11329651 44.4158783 C2.11340981 45.88729027 2.11340981 45.88729027 2.11352539 47.38842773 C2.115746 48.25668686 2.11796661 49.12494598 2.12025452 50.01951599 C2 52 2 52 1 53 C-1.69654854 53.07319621 -4.36691458 53.09242537 -7.0625 53.0625 C-8.20041992 53.05573242 -8.20041992 53.05573242 -9.36132812 53.04882812 C-11.24091871 53.0370068 -13.12046899 53.01907078 -15 53 C-15.495 51.515 -15.495 51.515 -16 50 C-10.72 50 -5.44 50 0 50 C0 33.5 0 17 0 0 Z " fill="#6D6D6D" transform="translate(431,55)"/>
<path d="M0 0 C5.28 0 10.56 0 16 0 C16 0.99 16 1.98 16 3 C11.38 3 6.76 3 2 3 C2 5.97 2 8.94 2 12 C4.09988281 11.87818359 4.09988281 11.87818359 6.2421875 11.75390625 C8.11972573 11.68819241 9.99733541 11.62449836 11.875 11.5625 C13.25171875 11.47452148 13.25171875 11.47452148 14.65625 11.38476562 C21.20965399 11.22323806 25.90662128 12.53851833 31.12060547 16.61352539 C34.83867506 21.3347686 34.03114622 26.71083828 33.625 32.4375 C33.57988281 33.64599609 33.53476563 34.85449219 33.48828125 36.09960938 C33.37081353 39.07154273 33.20689163 42.03317407 33 45 C32.67 45 32.34 45 32 45 C32.00954712 43.94087402 32.00954712 43.94087402 32.01928711 42.86035156 C32.02798074 39.65582741 31.9833265 36.45418881 31.9375 33.25 C31.94845703 32.13882813 31.95941406 31.02765625 31.97070312 29.8828125 C32.09034247 24.13338837 32.09034247 24.13338837 29.41455078 19.37695312 C27.3048794 18.11741105 27.3048794 18.11741105 24 17 C23.67 16.67 23.34 16.34 23 16 C21.29436222 15.84259395 19.58272756 15.74906608 17.87109375 15.68359375 C16.83662109 15.64169922 15.80214844 15.59980469 14.73632812 15.55664062 C13.64771484 15.51732422 12.55910156 15.47800781 11.4375 15.4375 C10.34501953 15.39431641 9.25253906 15.35113281 8.12695312 15.30664062 C5.41813232 15.20018042 2.70908349 15.09955193 0 15 C0 10.05 0 5.1 0 0 Z " fill="#7A7A7A" transform="translate(193,55)"/>
<path d="M0 0 C0.66 0 1.32 0 2 0 C2 20.13 2 40.26 2 61 C7.28 61 12.56 61 18 61 C17.67 61.99 17.34 62.98 17 64 C14.35409986 64.02684679 11.70846904 64.04676357 9.0625 64.0625 C8.30775391 64.07087891 7.55300781 64.07925781 6.77539062 64.08789062 C4.85005687 64.09652441 2.92464419 64.05224333 1 64 C0 63 0 63 -0.12025452 60.48802185 C-0.11803391 59.37105423 -0.11581329 58.25408661 -0.11352539 57.10327148 C-0.11344986 55.84203964 -0.11337433 54.5808078 -0.11329651 53.28135681 C-0.1081891 51.89460206 -0.10297309 50.50784771 -0.09765625 49.12109375 C-0.09579201 47.71004791 -0.09436814 46.29900143 -0.09336853 44.88795471 C-0.08954379 41.16759465 -0.0797139 37.4472734 -0.06866455 33.72692871 C-0.05844948 29.93319219 -0.05387071 26.13944942 -0.04882812 22.34570312 C-0.03809158 14.89711769 -0.0210157 7.44856428 0 0 Z " fill="#575757" transform="translate(295,44)"/>
<path d="M0 0 C33.66 0 67.32 0 102 0 C102 0.33 102 0.66 102 1 C52.995 1.495 52.995 1.495 3 2 C2.67 12.89 2.34 23.78 2 35 C1.34 34.67 0.68 34.34 0 34 C0 22.78 0 11.56 0 0 Z " fill="#717171" transform="translate(694,324)"/>
<path d="M0 0 C17.49 0 34.98 0 53 0 C53 0.99 53 1.98 53 3 C35.51 3 18.02 3 0 3 C0 2.01 0 1.02 0 0 Z " fill="#BDBDBD" transform="translate(744,287)"/>
<path d="M0 0 C2.68191633 2.68191633 3.1339305 5.18015751 4.1875 8.8125 C4.55230469 10.03582031 4.91710937 11.25914063 5.29296875 12.51953125 C5.97222817 15.86328895 5.96456542 17.7745424 5 21 C2.37493198 21.02690844 -0.24986173 21.04679404 -2.875 21.0625 C-3.62136719 21.07087891 -4.36773437 21.07925781 -5.13671875 21.08789062 C-10.7734375 21.11328125 -10.7734375 21.11328125 -13 20 C-13.625 16.9375 -13.625 16.9375 -14 14 C-15.05960938 14.02320312 -16.11921875 14.04640625 -17.2109375 14.0703125 C-18.5989513 14.08906944 -19.9869727 14.10726972 -21.375 14.125 C-22.42300781 14.15013672 -22.42300781 14.15013672 -23.4921875 14.17578125 C-25.32897486 14.19344267 -27.16601963 14.10303261 -29 14 C-29.66 13.34 -30.32 12.68 -31 12 C-24.73 12 -18.46 12 -12 12 C-11.67 13.32 -11.34 14.64 -11 16 C-6.71 16 -2.42 16 2 16 C1.34 10.72 0.68 5.44 0 0 Z " fill="#333333" transform="translate(109,87)"/>
<path d="M0 0 C16.17 0 32.34 0 49 0 C49 0.66 49 1.32 49 2 C33.49 2 17.98 2 2 2 C2 5.96 2 9.92 2 14 C6.62 14 11.24 14 16 14 C16 14.66 16 15.32 16 16 C13.52076199 16.02685095 11.0418116 16.04676547 8.5625 16.0625 C7.85544922 16.07087891 7.14839844 16.07925781 6.41992188 16.08789062 C4.61306441 16.09653588 2.80612397 16.05220011 1 16 C0.67 15.67 0.34 15.34 0 15 C0 10.05 0 5.1 0 0 Z " fill="#7B7B7B" transform="translate(399,42)"/>
<path d="M0 0 C8.25 0 16.5 0 25 0 C25 10.56 25 21.12 25 32 C24.01 32.495 24.01 32.495 23 33 C23 22.77 23 12.54 23 2 C15.41 2 7.82 2 0 2 C0 1.34 0 0.68 0 0 Z " fill="#3F3F3F" transform="translate(350,326)"/>
<path d="M0 0 C0 0.66 0 1.32 0 2 C-1.32064453 2.45439453 -1.32064453 2.45439453 -2.66796875 2.91796875 C-11.28455615 5.98692875 -11.28455615 5.98692875 -18 12 C-19.34826493 13.09066959 -20.70302506 14.17333554 -22.0625 15.25 C-26.29664589 18.8758376 -28.20448439 22.79064221 -30 28 C-30.66 28 -31.32 28 -32 28 C-29.50599987 17.95274233 -24.2469269 10.72666682 -15.41015625 5.28515625 C-5.49848024 0 -5.49848024 0 0 0 Z " fill="#737373" transform="translate(519,260)"/>
<path d="M0 0 C2.07768497 7.114497 -0.29565665 13.41551185 -3 20 C2.28 20 7.56 20 13 20 C13.33 18.35 13.66 16.7 14 15 C15.2077558 18.62326739 14.54311128 19.64146369 13 23 C10.18743719 23.02684312 7.37512759 23.04676188 4.5625 23.0625 C3.76005859 23.07087891 2.95761719 23.07925781 2.13085938 23.08789062 C0.08704779 23.0965143 -1.95683902 23.0522815 -4 23 C-4.33 22.67 -4.66 22.34 -5 22 C-4.55232416 14.3895108 -2.1918139 7.25847209 0 0 Z " fill="#686868" transform="translate(238,85)"/>
<path d="M0 0 C2.7659729 2.7659729 3.32398177 5.96818308 4.34765625 9.640625 C4.56441513 10.40042664 4.78117401 11.16022827 5.00450134 11.9430542 C5.46226527 13.55278393 5.91681708 15.16343002 6.3684082 16.77490234 C7.05645221 19.22843386 7.75487727 21.67881984 8.45507812 24.12890625 C8.89905848 25.6951366 9.34243717 27.26153766 9.78515625 28.828125 C9.99245865 29.55646545 10.19976105 30.28480591 10.41334534 31.03521729 C11.52103149 35.00333886 12.40774064 38.92256827 13 43 C12.67 42.34 12.34 41.68 12 41 C11.34 41 10.68 41 10 41 C9.20723961 38.47950607 8.41576535 35.95861986 7.625 33.4375 C7.40328125 32.73302734 7.1815625 32.02855469 6.953125 31.30273438 C4.82929525 24.52521884 2.8751577 17.76020007 1.375 10.8125 C1.11460938 9.62269531 0.85421875 8.43289062 0.5859375 7.20703125 C0 4 0 4 0 0 Z " fill="#585858" transform="translate(96,43)"/>
<path d="M0 0 C4.95 0 9.9 0 15 0 C15.020625 2.454375 15.04125 4.90875 15.0625 7.4375 C15.071604 8.21150146 15.08070801 8.98550293 15.09008789 9.78295898 C15.09724913 11.52221717 15.05024702 13.26145304 15 15 C14 16 14 16 11.05859375 16.09765625 C9.86363281 16.08605469 8.66867187 16.07445313 7.4375 16.0625 C5.64119141 16.04896484 5.64119141 16.04896484 3.80859375 16.03515625 C2.88175781 16.02355469 1.95492188 16.01195313 1 16 C1 18.97 1 21.94 1 25 C0.67 25 0.34 25 0 25 C0 21.37 0 17.74 0 14 C4.29 14 8.58 14 13 14 C13 10.04 13 6.08 13 2 C8.71 2 4.42 2 0 2 C0 1.34 0 0.68 0 0 Z " fill="#808080" transform="translate(365,67)"/>
<path d="M0 0 C6.27 0 12.54 0 19 0 C18.14958207 4.25208964 17.73239716 5.83972382 15.49609375 9.20703125 C15.00302734 9.95791016 14.50996094 10.70878906 14.00195312 11.48242188 C13.48568359 12.25134766 12.96941406 13.02027344 12.4375 13.8125 C11.65729492 14.99489258 11.65729492 14.99489258 10.86132812 16.20117188 C9.58123434 18.13892853 8.2940192 20.07152677 7 22 C6 19 6 19 6.890625 16.66015625 C7.33921875 15.80292969 7.7878125 14.94570313 8.25 14.0625 C8.68828125 13.20785156 9.1265625 12.35320313 9.578125 11.47265625 C10.91751382 9.14344437 12.24405626 7.03444019 14 5 C14.66 5 15.32 5 16 5 C16 4.01 16 3.02 16 2 C10.72 2 5.44 2 0 2 C0 1.34 0 0.68 0 0 Z " fill="#5C5C5C" transform="translate(494,42)"/>
<path d="M0 0 C0.66 0 1.32 0 2 0 C1.07254179 6.90796459 -0.87031805 12.13528096 -6 17 C-12.27481842 21.35991694 -18.43826207 22.82302315 -26 23 C-26 22.01 -26 21.02 -26 20 C-25.0925 20.12375 -24.185 20.2475 -23.25 20.375 C-17.34608127 20.38709819 -11.78621081 17.22579413 -7 14 C-4.80241005 10.93035054 -3.30904049 7.64502457 -1.8125 4.1875 C-1.46832031 3.39730469 -1.12414062 2.60710937 -0.76953125 1.79296875 C-0.38861328 0.90544922 -0.38861328 0.90544922 0 0 Z " fill="#646464" transform="translate(654,336)"/>
<path d="M0 0 C0.99 0 1.98 0 3 0 C0.94400621 7.44161488 -1.70849094 14.50768649 -4.6875 21.625 C-5.10322266 22.62917969 -5.51894531 23.63335937 -5.94726562 24.66796875 C-6.96054096 27.11380576 -7.97816796 29.5577285 -9 32 C-9.66 32 -10.32 32 -11 32 C-10.51124142 24.83500716 -7.65719662 18.64289389 -4.9375 12.0625 C-4.46505859 10.90169922 -3.99261719 9.74089844 -3.50585938 8.54492188 C-2.34423681 5.69366649 -1.1754504 2.84557614 0 0 Z " fill="#6C6C6C" transform="translate(89,311)"/>
<path d="M0 0 C3.76384414 3.76384414 4.55006833 9.71340555 6.05102539 14.74853516 C6.68407838 16.86356835 7.33452266 18.97271293 7.98632812 21.08203125 C8.39169776 22.42676042 8.79602923 23.77180306 9.19921875 25.1171875 C9.56877686 26.34034668 9.93833496 27.56350586 10.3190918 28.82373047 C10.95509686 31.79053786 11.08326728 33.22383076 10 36 C6.76419808 29.62478175 4.25321137 23.14396871 2.1875 16.3125 C1.96876221 15.61261963 1.75002441 14.91273926 1.5246582 14.19165039 C0.10212523 9.31840163 -0.19931543 5.07400135 0 0 Z " fill="#595959" transform="translate(269,42)"/>
<path d="M0 0 C0.99 0 1.98 0 3 0 C6.44419134 10.37357631 6.44419134 10.37357631 6 16 C2.7 16 -0.6 16 -4 16 C-3.47606294 10.13190493 -2.23891142 5.45126259 0 0 Z M1 5 C0.01 7.97 -0.98 10.94 -2 14 C-0.02 14 1.96 14 4 14 C3.34 11.03 2.68 8.06 2 5 C1.67 5 1.34 5 1 5 Z " fill="#5A5A5A" transform="translate(86,72)"/>
<path d="M0 0 C0.66 0 1.32 0 2 0 C2.02684679 2.64590014 2.04676357 5.29153096 2.0625 7.9375 C2.07087891 8.69224609 2.07925781 9.44699219 2.08789062 10.22460938 C2.09652441 12.14994313 2.05224333 14.07535581 2 16 C1 17 1 17 -2.59765625 17.09765625 C-4.08596867 17.0909822 -5.57426432 17.07902183 -7.0625 17.0625 C-7.82111328 17.05798828 -8.57972656 17.05347656 -9.36132812 17.04882812 C-11.24091871 17.0370068 -13.12046899 17.01907078 -15 17 C-15.33 16.01 -15.66 15.02 -16 14 C-10.72 14 -5.44 14 0 14 C0 9.38 0 4.76 0 0 Z " fill="#7D7D7D" transform="translate(224,49)"/>
<path d="M0 0 C9.73352607 2.68024631 17.76567905 7.11262647 24.625 14.58203125 C25.96499864 16.12032588 25.96499864 16.12032588 28 17 C28 17.99 28 18.98 28 20 C28.66 20 29.32 20 30 20 C33 25.75 33 25.75 33 28 C32.34 28 31.68 28 31 28 C30.34 26.02 29.68 24.04 29 22 C28.34 22 27.68 22 27 22 C27 21.01 27 20.02 27 19 C26.01 18.67 25.02 18.34 24 18 C24 17.34 24 16.68 24 16 C23.34 16 22.68 16 22 16 C21.46632813 15.26265625 20.93265625 14.5253125 20.3828125 13.765625 C17.31731011 10.20763206 14.07856349 8.70514581 9.875 6.75 C8.78251953 6.2240625 8.78251953 6.2240625 7.66796875 5.6875 C5.78336711 4.78177648 3.8921162 3.88991839 2 3 C1.34 2.67 0.68 2.34 0 2 C0 1.34 0 0.68 0 0 Z " fill="#747474" transform="translate(619,192)"/>
<path d="M0 0 C0 0.99 0 1.98 0 3 C-2.97851562 3.5859375 -2.97851562 3.5859375 -5.95703125 4.171875 C-9.19432981 5.48412604 -10.36591452 7.61675354 -11.79370117 10.73144531 C-12.62778799 12.72522637 -13.41487705 14.73164177 -14.1875 16.75 C-14.46013672 17.44738281 -14.73277344 18.14476562 -15.01367188 18.86328125 C-15.68131025 20.57337254 -16.34141552 22.28640154 -17 24 C-17.66 23.67 -18.32 23.34 -19 23 C-17.15564376 14.54670059 -14.92041634 6.67829033 -8 1 C-5.07175348 0.02391783 -3.04386724 -0.08226668 0 0 Z " fill="#767676" transform="translate(153,177)"/>
<path d="M0 0 C2.39692342 3.83507747 2.63714778 7.57320287 3 12 C0.94266743 14.05733257 -3.06281489 13.32120168 -5.875 13.375 C-6.97521484 13.43107422 -6.97521484 13.43107422 -8.09765625 13.48828125 C-10.2421875 13.5234375 -10.2421875 13.5234375 -14 13 C-16.44986761 10.14976492 -17 8.7566505 -17 5 C-16.01 5.33 -15.02 5.66 -14 6 C-14 7.32 -14 8.64 -14 10 C-8.72 10 -3.44 10 2 10 C1.34 8.35 0.68 6.7 0 5 C-0.125 2.1875 -0.125 2.1875 0 0 Z " fill="#707070" transform="translate(285,95)"/>
<path d="M0 0 C0.99 0 1.98 0 3 0 C3.67413211 1.91405367 4.3390332 3.83136026 5 5.75 C5.37125 6.81734375 5.7425 7.8846875 6.125 8.984375 C7 12 7 12 7 16 C4.03 16 1.06 16 -2 16 C-2.20674944 10.21101581 -1.59162079 5.57067277 0 0 Z M1 4 C0.34 7.3 -0.32 10.6 -1 14 C0.65 14 2.3 14 4 14 C3.34 10.7 2.68 7.4 2 4 C1.67 4 1.34 4 1 4 Z " fill="#5F5F5F" transform="translate(259,72)"/>
<path d="M0 0 C0.66 0 1.32 0 2 0 C1.68991116 1.60463449 1.37683713 3.20869231 1.0625 4.8125 C0.88847656 5.70582031 0.71445313 6.59914063 0.53515625 7.51953125 C0 10 0 10 -1 13 C-1.66 13 -2.32 13 -3 13 C-2.9484375 13.98097656 -2.896875 14.96195313 -2.84375 15.97265625 C-2.84375 20.42498013 -4.08348288 24.25303186 -5.5 28.4375 C-5.73847656 29.16904297 -5.97695312 29.90058594 -6.22265625 30.65429688 C-6.80596172 32.4392116 -7.40169935 34.22005557 -8 36 C-9.02895921 32.91312236 -9.00632555 32.05181334 -8.36328125 29.0078125 C-8.19997314 28.22583496 -8.03666504 27.44385742 -7.8684082 26.63818359 C-7.6849585 25.80883301 -7.50150879 24.97948242 -7.3125 24.125 C-7.12969482 23.2788916 -6.94688965 22.4327832 -6.75854492 21.56103516 C-2.54393449 2.54393449 -2.54393449 2.54393449 0 0 Z " fill="#5A5A5A" transform="translate(78,42)"/>
<path d="M0 0 C0.66 0 1.32 0 2 0 C3.33203125 2.01171875 3.33203125 2.01171875 4.8125 4.6875 C6.59057459 7.77298238 8.21423872 10.49030042 10.8125 12.9375 C13 15 13 15 14 18 C14.99 18 15.98 18 17 18 C17 18.66 17 19.32 17 20 C19.64 20.66 22.28 21.32 25 22 C24.67 22.99 24.34 23.98 24 25 C13.04808069 19.68509798 4.92428079 13.41107376 0 2 C0 1.34 0 0.68 0 0 Z " fill="#676767" transform="translate(696,260)"/>
<path d="M0 0 C0.33 0.66 0.66 1.32 1 2 C-1.0653403 7.95303969 -4.40047588 12.86281509 -8 18 C-8.99 17.67 -9.98 17.34 -11 17 C-12.05047644 14.68895182 -13.05007438 12.35416349 -14 10 C-14.66 9.34 -15.32 8.68 -16 8 C-14.125 8.1875 -14.125 8.1875 -12 9 C-10.75 11.5625 -10.75 11.5625 -10 14 C-9.34 14 -8.68 14 -8 14 C-7.73445313 13.27425781 -7.46890625 12.54851563 -7.1953125 11.80078125 C-5.99927052 8.99829072 -4.59670893 6.69520648 -2.875 4.1875 C-2.33617187 3.39730469 -1.79734375 2.60710938 -1.2421875 1.79296875 C-0.83226562 1.20128906 -0.42234375 0.60960937 0 0 Z " fill="#373737" transform="translate(493,44)"/>
<path d="M0 0 C0.66 0.33 1.32 0.66 2 1 C2 9.25 2 17.5 2 26 C0.02 26.99 -1.96 27.98 -4 29 C-4.66 28.67 -5.32 28.34 -6 28 C-5.19175781 27.59265625 -4.38351563 27.1853125 -3.55078125 26.765625 C0.50832193 22.36463717 -0.21767546 17.53027723 -0.1875 11.75 C-0.16236328 10.62335938 -0.13722656 9.49671875 -0.11132812 8.3359375 C-0.05245108 5.55694092 -0.01617475 2.77951967 0 0 Z " fill="#313131" transform="translate(223,75)"/>
<path d="M0 0 C17.49 0 34.98 0 53 0 C53 0.99 53 1.98 53 3 C51.68 3 50.36 3 49 3 C49 2.34 49 1.68 49 1 C32.83 1 16.66 1 0 1 C0 0.67 0 0.34 0 0 Z " fill="#636363" transform="translate(744,287)"/>
<path d="M0 0 C0.33 0 0.66 0 1 0 C-1.49774476 21.64712125 -1.49774476 21.64712125 -5 30 C-5.66 30.33 -6.32 30.66 -7 31 C-5.95166149 20.10979695 -3.55519031 10.32633522 0 0 Z " fill="#606060" transform="translate(70,67)"/>
<path d="M0 0 C0 0.66 0 1.32 0 2 C-0.96679688 2.14695313 -1.93359375 2.29390625 -2.9296875 2.4453125 C-10.62050817 3.73173387 -16.56918601 5.26370429 -23.046875 9.890625 C-23.69140625 10.25671875 -24.3359375 10.6228125 -25 11 C-25.99 10.67 -26.98 10.34 -28 10 C-19.87792424 2.89318371 -10.73484293 -0.44728512 0 0 Z " fill="#777777" transform="translate(144,139)"/>
<path d="M0 0 C0.99 0 1.98 0 3 0 C0.92957946 7.60837466 -1.85830477 14.7728592 -5 22 C-5.66 21.67 -6.32 21.34 -7 21 C-5.42503263 13.69787858 -2.76671785 6.92735461 0 0 Z " fill="#6C6C6C" transform="translate(115,245)"/>
<path d="M0 0 C0 0.99 0 1.98 0 3 C-0.73605469 3.08636719 -1.47210937 3.17273438 -2.23046875 3.26171875 C-8.5136543 4.16643107 -12.13051983 4.8406931 -16 10 C-16.33 10.66 -16.66 11.32 -17 12 C-17.66 12 -18.32 12 -19 12 C-19 10.68 -19 9.36 -19 8 C-18.34 8 -17.68 8 -17 8 C-16.67 7.01 -16.34 6.02 -16 5 C-10.47851691 1.52351065 -6.63830378 -0.14751786 0 0 Z " fill="#787878" transform="translate(747,222)"/>
<path d="M0 0 C5.94 0 11.88 0 18 0 C17.67 0.99 17.34 1.98 17 3 C11.72 3 6.44 3 1 3 C0.67 2.01 0.34 1.02 0 0 Z " fill="#636363" transform="translate(475,105)"/>
<path d="M0 0 C2.72955604 2.48748532 4.58924341 5.26381791 6.5625 8.375 C7.16191406 9.31085937 7.76132812 10.24671875 8.37890625 11.2109375 C9.87943462 13.79256944 11.11776021 16.1482195 12 19 C11.67 19.99 11.34 20.98 11 22 C9.15209906 19.09232609 7.32432824 16.17251108 5.5 13.25 C4.71302734 12.0125 4.71302734 12.0125 3.91015625 10.75 C3.41386719 9.95078125 2.91757812 9.1515625 2.40625 8.328125 C1.94541016 7.5949707 1.48457031 6.86181641 1.00976562 6.10644531 C0 4 0 4 0 0 Z " fill="#505050" transform="translate(458,45)"/>
<path d="M0 0 C0 2 0 2 -2.0625 4.25 C-11.20429104 13 -11.20429104 13 -14 13 C-12.63924722 7.3868948 -8.37378806 4.38968575 -4 1 C-2 0 -2 0 0 0 Z " fill="#696969" transform="translate(714,197)"/>
<path d="M0 0 C5.61 0 11.22 0 17 0 C17 0.99 17 1.98 17 3 C11.72 3 6.44 3 1 3 C0.67 2.01 0.34 1.02 0 0 Z " fill="#616161" transform="translate(415,105)"/>
<path d="M0 0 C-6.44883373 4.8854801 -14.62298259 10 -23 10 C-23 9.34 -23 8.68 -23 8 C-17.87674471 5.54510684 -13.66104589 4.49658297 -8 4 C-8 3.34 -8 2.68 -8 2 C-3.61016949 -1.20338983 -3.61016949 -1.20338983 0 0 Z " fill="#969696" transform="translate(833,348)"/>
<path d="M0 0 C3.03333922 3.03333922 2.6646334 5.7743808 3 10 C2 11 2 11 -1.59765625 11.09765625 C-3.08596867 11.0909822 -4.57426432 11.07902183 -6.0625 11.0625 C-7.20041992 11.05573242 -7.20041992 11.05573242 -8.36132812 11.04882812 C-10.24091871 11.0370068 -12.12046899 11.01907078 -14 11 C-14.33 10.34 -14.66 9.68 -15 9 C-9.72 9 -4.44 9 1 9 C0.67 6.03 0.34 3.06 0 0 Z " fill="#717171" transform="translate(112,97)"/>
<path d="M0 0 C6.875 3.875 6.875 3.875 8 5 C8.08748207 6.92667507 8.10697334 8.85651861 8.09765625 10.78515625 C8.09443359 11.95498047 8.09121094 13.12480469 8.08789062 14.33007812 C8.07951172 15.56177734 8.07113281 16.79347656 8.0625 18.0625 C8.05798828 19.29806641 8.05347656 20.53363281 8.04882812 21.80664062 C8.03699608 24.87114117 8.02051173 27.93554721 8 31 C7.67 31 7.34 31 7 31 C6.99589111 30.2886792 6.99178223 29.5773584 6.98754883 28.84448242 C6.95467451 25.62464003 6.8840379 22.40670559 6.8125 19.1875 C6.80669922 18.06794922 6.80089844 16.94839844 6.79492188 15.79492188 C6.76591797 14.72177734 6.73691406 13.64863281 6.70703125 12.54296875 C6.68346558 11.0583313 6.68346558 11.0583313 6.65942383 9.54370117 C6.23476 6.75991972 6.23476 6.75991972 3.5065918 5.2902832 C2.6794165 4.86448975 1.85224121 4.43869629 1 4 C0.1875 1.8125 0.1875 1.8125 0 0 Z " fill="#6D6D6D" transform="translate(218,69)"/>
<path d="M0 0 C0.66 0 1.32 0 2 0 C3.14682599 1.68772587 4.21766316 3.42741219 5.25 5.1875 C8.08973759 9.81918941 10.70851977 12.75522227 15 16 C15 16.66 15 17.32 15 18 C15.66 18 16.32 18 17 18 C16.67 18.66 16.34 19.32 16 20 C2.03358209 8.33768657 2.03358209 8.33768657 0 0 Z " fill="#6B6B6B" transform="translate(489,331)"/>
<path d="M0 0 C0.66 0 1.32 0 2 0 C1.06324588 6.97720313 -1.15620066 11.8403007 -6 17 C-6.66 17.33 -7.32 17.66 -8 18 C-7.34628206 14.46992315 -5.83671699 12.06119499 -4 9 C-2.60774353 6.02517862 -1.29535882 3.0181203 0 0 Z " fill="#8B8B8B" transform="translate(654,336)"/>
<path d="M0 0 C-1 2 -1 2 -3.1796875 2.81640625 C-4.06914063 3.06261719 -4.95859375 3.30882812 -5.875 3.5625 C-6.75929688 3.81128906 -7.64359375 4.06007813 -8.5546875 4.31640625 C-9.36164062 4.54199219 -10.16859375 4.76757812 -11 5 C-11.99 5.33 -12.98 5.66 -14 6 C-14.33 6.99 -14.66 7.98 -15 9 C-15.66 9 -16.32 9 -17 9 C-15.1588394 4.31340938 -11.86868804 1.98106122 -7.5 -0.3125 C-4.61570676 -1.10568064 -2.84848122 -0.81385178 0 0 Z " fill="#777777" transform="translate(538,286)"/>
<path d="M0 0 C0.66 0.33 1.32 0.66 2 1 C-2.61982648 4.59388924 -5.35147348 5.49005829 -11.3671875 5.390625 C-12.04677521 5.38496521 -12.72636292 5.37930542 -13.42654419 5.37347412 C-15.57677549 5.35125351 -17.72528074 5.30109198 -19.875 5.25 C-21.3411216 5.22991614 -22.80726958 5.21166868 -24.2734375 5.1953125 C-27.84951008 5.15143811 -31.42458631 5.08251443 -35 5 C-35 4.34 -35 3.68 -35 3 C-34.08186523 2.98018066 -33.16373047 2.96036133 -32.21777344 2.93994141 C-28.80328175 2.86173045 -25.38922298 2.77503416 -21.97509766 2.68261719 C-20.49894464 2.64439334 -19.02270057 2.60952897 -17.54638672 2.578125 C-15.42121906 2.53233014 -13.29667458 2.47436163 -11.171875 2.4140625 C-9.2552002 2.36693115 -9.2552002 2.36693115 -7.29980469 2.31884766 C-4.22277417 2.02152583 -2.64669437 1.43895702 0 0 Z " fill="#4A4A4A" transform="translate(220,102)"/>
<path d="M0 0 C0.66 0 1.32 0 2 0 C2.83739781 2.1234016 3.66980283 4.2487728 4.5 6.375 C4.9640625 7.55835938 5.428125 8.74171875 5.90625 9.9609375 C7 13 7 13 7 15 C6.01 15 5.02 15 4 15 C3.32532438 13.25307205 2.66055844 11.50231475 2 9.75 C1.62875 8.77546875 1.2575 7.8009375 0.875 6.796875 C0 4 0 4 0 0 Z " fill="#6D6D6D" transform="translate(236,273)"/>
<path d="M0 0 C0.66 0 1.32 0 2 0 C2.83739781 2.1234016 3.66980283 4.2487728 4.5 6.375 C4.9640625 7.55835938 5.428125 8.74171875 5.90625 9.9609375 C7 13 7 13 7 15 C6.01 15 5.02 15 4 15 C3.32532438 13.25307205 2.66055844 11.50231475 2 9.75 C1.62875 8.77546875 1.2575 7.8009375 0.875 6.796875 C0 4 0 4 0 0 Z " fill="#6B6B6B" transform="translate(217,223)"/>
<path d="M0 0 C1.52384464 3.04768928 0.23059725 4.94779213 -0.8125 8.125 C-2.39516164 13.05918042 -3.81354002 17.95754508 -5 23 C-5.33 23 -5.66 23 -6 23 C-5.61013659 14.06002861 -5.02026968 7.53040452 0 0 Z " fill="#4B4B4B" transform="translate(244,72)"/>
<path d="M0 0 C5.94 0 11.88 0 18 0 C18 1.65 18 3.3 18 5 C17.67 4.01 17.34 3.02 17 2 C12.05 2 7.1 2 2 2 C1.67 2.66 1.34 3.32 1 4 C0.67 2.68 0.34 1.36 0 0 Z " fill="#282828" transform="translate(251,42)"/>
<path d="M0 0 C3.81936528 1.55603771 6.26044438 3.95604931 9 7 C9 7.66 9 8.32 9 9 C9.99 9 10.98 9 12 9 C12 9.66 12 10.32 12 11 C13.98 11.66 15.96 12.32 18 13 C17.67 13.66 17.34 14.32 17 15 C10.05718138 11.31206415 4.634476 7.4299518 0 1 C0 0.67 0 0.34 0 0 Z " fill="#7D7D7D" transform="translate(301,341)"/>
<path d="M0 0 C0.99 0 1.98 0 3 0 C1.25267359 6.26480445 -0.97120279 10.88233868 -5 16 C-6 13 -6 13 -5.29296875 11.1328125 C-4.92816406 10.47023438 -4.56335938 9.80765625 -4.1875 9.125 C-2.59292521 6.13448257 -1.19222714 3.17927237 0 0 Z " fill="#808080" transform="translate(844,326)"/>
<path d="M0 0 C0.99 0 1.98 0 3 0 C0.02112676 10.88028169 0.02112676 10.88028169 -3 15 C-3.33 15 -3.66 15 -4 15 C-3.43179252 9.54520815 -2.05362055 5.08940744 0 0 Z " fill="#6B6B6B" transform="translate(76,344)"/>
<path d="M0 0 C0.66 0 1.32 0 2 0 C2.23074219 0.61488281 2.46148437 1.22976563 2.69921875 1.86328125 C4.70747896 6.84027394 5.95007774 9.61531449 11 12 C11 12.66 11 13.32 11 14 C7.66272214 12.82744291 5.22562513 11.81131596 3 9 C3 8.34 3 7.68 3 7 C2.01 6.67 1.02 6.34 0 6 C-0.38218767 4.34385343 -0.71395102 2.67542976 -1 1 C-0.67 0.67 -0.34 0.34 0 0 Z " fill="#7D7D7D" transform="translate(329,312)"/>
<path d="M0 0 C0.66 0 1.32 0 2 0 C3.00460531 2.12282669 4.00355602 4.24833021 5 6.375 C5.556875 7.55835938 6.11375 8.74171875 6.6875 9.9609375 C8 13 8 13 8 15 C7.01 15 6.02 15 5 15 C4.16260219 12.8765984 3.33019717 10.7512272 2.5 8.625 C1.80390625 6.84996094 1.80390625 6.84996094 1.09375 5.0390625 C0 2 0 2 0 0 Z " fill="#727272" transform="translate(191,157)"/>
<path d="M0 0 C0.66 0 1.32 0 2 0 C3.5912689 4.873261 4.21192221 8.80790596 4 14 C3.34 14 2.68 14 2 14 C0.66416101 9.15758367 -0.25328119 5.06562383 0 0 Z " fill="#676767" transform="translate(845,287)"/>
<path d="M0 0 C1 2 1 2 0.36328125 3.953125 C-1.76614759 8.60778729 -4.0132272 12.83985217 -7 17 C-8 14 -8 14 -7.109375 11.66015625 C-6.66078125 10.80292969 -6.2121875 9.94570313 -5.75 9.0625 C-5.31171875 8.20785156 -4.8734375 7.35320313 -4.421875 6.47265625 C-3.09274283 4.16128079 -1.64953386 2.09102675 0 0 Z " fill="#565656" transform="translate(508,47)"/>
<path d="M0 0 C4.69023454 0.56606279 9.34500026 1.18537505 14 2 C14 2.99 14 3.98 14 5 C8.58609132 4.53328373 4.79482068 3.75702189 0 1 C0 0.67 0 0.34 0 0 Z " fill="#646464" transform="translate(512,353)"/>
<path d="M0 0 C1.6440388 5.90359388 -0.15741308 9.68559837 -3 15 C-3.66 15 -4.32 15 -5 15 C-4.37321829 11.33827525 -3.35548154 8.1181005 -1.9375 4.6875 C-1.39416016 3.36298828 -1.39416016 3.36298828 -0.83984375 2.01171875 C-0.56269531 1.34785156 -0.28554687 0.68398438 0 0 Z " fill="#464646" transform="translate(108,263)"/>
<path d="M0 0 C1.6440388 5.90359388 -0.15741308 9.68559837 -3 15 C-3.66 15 -4.32 15 -5 15 C-4.37321829 11.33827525 -3.35548154 8.1181005 -1.9375 4.6875 C-1.39416016 3.36298828 -1.39416016 3.36298828 -0.83984375 2.01171875 C-0.56269531 1.34785156 -0.28554687 0.68398437 0 0 Z " fill="#464646" transform="translate(121,230)"/>
<path d="M0 0 C1.6440388 5.90359388 -0.15741308 9.68559837 -3 15 C-3.66 15 -4.32 15 -5 15 C-4.37321829 11.33827525 -3.35548154 8.1181005 -1.9375 4.6875 C-1.39416016 3.36298828 -1.39416016 3.36298828 -0.83984375 2.01171875 C-0.56269531 1.34785156 -0.28554687 0.68398437 0 0 Z " fill="#464646" transform="translate(134,197)"/>
<path d="M0 0 C0.66 0 1.32 0 2 0 C2.6708712 1.6232687 3.33657029 3.24867578 4 4.875 C4.556875 6.23238281 4.556875 6.23238281 5.125 7.6171875 C6 10 6 10 6 12 C5.01 12 4.02 12 3 12 C-0.42857143 4.71428571 -0.42857143 4.71428571 0 0 Z " fill="#707070" transform="translate(242,289)"/>
<path d="M0 0 C0.66 0 1.32 0 2 0 C2.6708712 1.6232687 3.33657029 3.24867578 4 4.875 C4.556875 6.23238281 4.556875 6.23238281 5.125 7.6171875 C6 10 6 10 6 12 C5.01 12 4.02 12 3 12 C-0.42857143 4.71428571 -0.42857143 4.71428571 0 0 Z " fill="#6F6F6F" transform="translate(223,239)"/>
<path d="M0 0 C4.68871343 1.31870065 7.62831989 4.12561671 11.1328125 7.34375 C13.10343191 9.16801905 13.10343191 9.16801905 16 11 C16 11.66 16 12.32 16 13 C14.3125 12.875 14.3125 12.875 12 12 C10.79593664 10.53559862 9.59516653 9.06775504 8.4375 7.56640625 C6.02978287 4.9427797 3.1526659 3.60724144 0 2 C0 1.34 0 0.68 0 0 Z " fill="#5F5F5F" transform="translate(175,143)"/>
<path d="M0 0 C3.90390165 0.82582535 6.41738462 1.43313098 9.3125 4.25 C11.06810636 7.11098815 12.09980372 9.77429667 13 13 C12.34 13 11.68 13 11 13 C9.921875 11.390625 9.921875 11.390625 8.75 9.25 C6.33820435 5.18234466 4.04788248 3.35342005 0 1 C0 0.67 0 0.34 0 0 Z " fill="#737373" transform="translate(608,225)"/>
<path d="M0 0 C0.66 0 1.32 0 2 0 C2.6708712 1.6232687 3.33657029 3.24867578 4 4.875 C4.556875 6.23238281 4.556875 6.23238281 5.125 7.6171875 C6 10 6 10 6 12 C5.34 12 4.68 12 4 12 C4 11.34 4 10.68 4 10 C3.34 10 2.68 10 2 10 C0.39644899 6.49223216 -0.22036864 3.85645121 0 0 Z " fill="#717171" transform="translate(204,189)"/>
<path d="M0 0 C0.66 0 1.32 0 2 0 C0.64746536 6.45054982 -1.03060233 12.71105679 -3 19 C-4.28339322 15.14982035 -3.44990097 12.22453786 -2.625 8.375 C-2.48578125 7.68148437 -2.3465625 6.98796875 -2.203125 6.2734375 C-1.14043257 1.14043257 -1.14043257 1.14043257 0 0 Z " fill="#4C4C4C" transform="translate(73,59)"/>
<path d="M0 0 C0.99 0 1.98 0 3 0 C3.66 4.29 4.32 8.58 5 13 C4.34 13 3.68 13 3 13 C2.49487756 11.39743892 1.99608373 9.79288208 1.5 8.1875 C1.2215625 7.29417969 0.943125 6.40085937 0.65625 5.48046875 C0 3 0 3 0 0 Z " fill="#646464" transform="translate(294,321)"/>
<path d="M0 0 C0.99 0 1.98 0 3 0 C3.33 2.31 3.66 4.62 4 7 C2.35 7.33 0.7 7.66 -1 8 C-1.125 2.25 -1.125 2.25 0 0 Z " fill="#535353" transform="translate(259,72)"/>
<path d="M0 0 C0.33 1.32 0.66 2.64 1 4 C0.01 3.67 -0.98 3.34 -2 3 C-3.69867188 2.85222064 -5.40177489 2.75252934 -7.10546875 2.68359375 C-8.57983398 2.62075195 -8.57983398 2.62075195 -10.08398438 2.55664062 C-11.10814453 2.51732422 -12.13230469 2.47800781 -13.1875 2.4375 C-14.22326172 2.39431641 -15.25902344 2.35113281 -16.32617188 2.30664062 C-18.8839819 2.20055634 -21.44188845 2.09849854 -24 2 C-24 1.67 -24 1.34 -24 1 C-20.37503356 0.83259796 -16.7500216 0.66620297 -13.125 0.5 C-12.09246094 0.45230469 -11.05992187 0.40460938 -9.99609375 0.35546875 C-9.00996094 0.31035156 -8.02382812 0.26523438 -7.0078125 0.21875 C-6.09660645 0.17685547 -5.18540039 0.13496094 -4.24658203 0.09179688 C-2.83190448 0.03399218 -1.41585803 0 0 0 Z " fill="#3B3B3B" transform="translate(218,68)"/>
<path d="M0 0 C0.66 0 1.32 0 2 0 C1.07743626 4.05928044 0.35416746 5.71365184 -2.9375 8.375 C-6 10 -6 10 -9 10 C-9 9.34 -9 8.68 -9 8 C-7.329375 7.13375 -7.329375 7.13375 -5.625 6.25 C-2.66807857 4.57739798 -1.07684279 3.35017758 0 0 Z " fill="#6D6D6D" transform="translate(812,314)"/>
<path d="M0 0 C0.99 0.33 1.98 0.66 3 1 C3 2.32 3 3.64 3 5 C7.95 5 12.9 5 18 5 C18 5.33 18 5.66 18 6 C12.39 6 6.78 6 1 6 C0.67 4.02 0.34 2.04 0 0 Z " fill="#535353" transform="translate(268,100)"/>
<path d="M0 0 C0.99 0.33 1.98 0.66 3 1 C3.33 2.32 3.66 3.64 4 5 C8.95 5 13.9 5 19 5 C19 5.33 19 5.66 19 6 C10.585 6.495 10.585 6.495 2 7 C1.34 4.69 0.68 2.38 0 0 Z " fill="#515151" transform="translate(94,100)"/>
<path d="M0 0 C0.66 0.66 1.32 1.32 2 2 C1.61233695 5.58588324 0.41433748 8.69987921 -1 12 C-1.66 12 -2.32 12 -3 12 C-2.49202991 7.6822542 -1.80317221 3.96697886 0 0 Z " fill="#565656" transform="translate(81,331)"/>
<path d="M0 0 C0.66 0.66 1.32 1.32 2 2 C1.61233695 5.58588324 0.41433748 8.69987921 -1 12 C-1.66 12 -2.32 12 -3 12 C-2.49202991 7.6822542 -1.80317221 3.96697886 0 0 Z " fill="#575757" transform="translate(94,298)"/>
<path d="M0 0 C0.33 0 0.66 0 1 0 C1.19294408 4.82360189 0.75747614 8.49646738 -1 13 C-1.66 13 -2.32 13 -3 13 C-2.52060632 8.28596212 -2.03165952 4.33420699 0 0 Z " fill="#535353" transform="translate(85,75)"/>
<path d="M0 0 C0.66 0 1.32 0 2 0 C2.99 3.3 3.98 6.6 5 10 C4.01 10 3.02 10 2 10 C0.39644899 6.49223216 -0.22036864 3.85645121 0 0 Z " fill="#686868" transform="translate(249,307)"/>
<path d="M0 0 C3.63 0.33 7.26 0.66 11 1 C11 1.99 11 2.98 11 4 C6.94393835 3.53199289 3.53411321 3.12046792 0 1 C0 0.67 0 0.34 0 0 Z " fill="#636363" transform="translate(722,284)"/>
<path d="M0 0 C0.66 0 1.32 0 2 0 C2.99 3.3 3.98 6.6 5 10 C4.01 10 3.02 10 2 10 C0.39644899 6.49223216 -0.22036864 3.85645121 0 0 Z " fill="#686868" transform="translate(230,257)"/>
<path d="M0 0 C0.66 0 1.32 0 2 0 C2.99 3.3 3.98 6.6 5 10 C4.01 10 3.02 10 2 10 C0.39644899 6.49223216 -0.22036864 3.85645121 0 0 Z " fill="#666666" transform="translate(211,207)"/>
<path d="M0 0 C0.66 0 1.32 0 2 0 C2.99 3.3 3.98 6.6 5 10 C4.01 10 3.02 10 2 10 C0.39644899 6.49223216 -0.22036864 3.85645121 0 0 Z " fill="#696969" transform="translate(200,178)"/>
<path d="M0 0 C0.66 0 1.32 0 2 0 C3.28317892 3.84953676 3.06643637 6.94738135 3 11 C2.34 11 1.68 11 1 11 C-0.17571451 7.32589215 -0.07366746 3.83070817 0 0 Z " fill="#5D5D5D" transform="translate(485,313)"/>
<path d="M0 0 C2.97 0.33 5.94 0.66 9 1 C9 1.99 9 2.98 9 4 C6.03 3.67 3.06 3.34 0 3 C0 2.01 0 1.02 0 0 Z " fill="#838383" transform="translate(598,222)"/>
<path d="M0 0 C-1.59622656 1.03320481 -3.20229106 2.05122429 -4.8125 3.0625 C-6.15248047 3.91521484 -6.15248047 3.91521484 -7.51953125 4.78515625 C-10 6 -10 6 -13 5 C-5.19759185 -1.50200679 -5.19759185 -1.50200679 0 0 Z " fill="#6E6E6E" transform="translate(129,144)"/>
<path d="M0 0 C0.66 0 1.32 0 2 0 C0.41037341 4.03520597 -1.28232318 8.01811282 -3 12 C-3.66 12 -4.32 12 -5 12 C-4.54738642 10.56068883 -4.08767021 9.12361001 -3.625 7.6875 C-3.24214844 6.48673828 -3.24214844 6.48673828 -2.8515625 5.26171875 C-2 3 -2 3 0 0 Z " fill="#8F8F8F" transform="translate(492,276)"/>
<path d="M0 0 C0.99 0 1.98 0 3 0 C2.67 2.64 2.34 5.28 2 8 C1.01 8 0.02 8 -1 8 C-0.67 5.36 -0.34 2.72 0 0 Z " fill="#7C7C7C" transform="translate(519,296)"/>
<path d="M0 0 C1.38545753 3.84849313 0.91355473 7.06468732 0 11 C-2.05078125 13.21875 -2.05078125 13.21875 -4 15 C-3.52229477 13.06213915 -3.04278429 11.12472326 -2.5625 9.1875 C-2.29566406 8.10855469 -2.02882812 7.02960938 -1.75390625 5.91796875 C-1.23922588 3.9259157 -0.65062825 1.95188476 0 0 Z " fill="#868686" transform="translate(245,61)"/>
<path d="M0 0 C6.875 3.625 6.875 3.625 8 7 C5.125 6.3125 5.125 6.3125 2 5 C0.625 2.375 0.625 2.375 0 0 Z " fill="#8A8A8A" transform="translate(218,69)"/>
<path d="M0 0 C2.31 0 4.62 0 7 0 C7 0.99 7 1.98 7 3 C4.69 3 2.38 3 0 3 C0 2.01 0 1.02 0 0 Z " fill="#5F5F5F" transform="translate(800,356)"/>
<path d="M0 0 C4.93210831 1.23302708 7.21774571 2.71960878 10 7 C10 7.66 10 8.32 10 9 C9.34 9 8.68 9 8 9 C7.79375 8.4225 7.5875 7.845 7.375 7.25 C5.50906354 4.19664942 2.99167574 2.88605645 0 1 C0 0.67 0 0.34 0 0 Z " fill="#6A6A6A" transform="translate(804,290)"/>
<path d="M0 0 C0.66 0 1.32 0 2 0 C2 2.97 2 5.94 2 9 C1.01 9 0.02 9 -1 9 C-0.67 6.03 -0.34 3.06 0 0 Z " fill="#686868" transform="translate(486,289)"/>
<path d="M0 0 C0.33 0.66 0.66 1.32 1 2 C-0.1875 5.5625 -0.1875 5.5625 -2 9 C-3.32 9.33 -4.64 9.66 -6 10 C-4.02 6.7 -2.04 3.4 0 0 Z " fill="#6F6F6F" transform="translate(493,44)"/>
<path d="M0 0 C2.31 1.65 4.62 3.3 7 5 C6.67 5.99 6.34 6.98 6 8 C6 7.34 6 6.68 6 6 C5.4225 5.9175 4.845 5.835 4.25 5.75 C1.3840696 4.79468987 0.0009236 3.21530827 -2 1 C-1.34 0.67 -0.68 0.34 0 0 Z " fill="#434343" transform="translate(217,43)"/>
<path d="M0 0 C0.66 0 1.32 0 2 0 C1.6875 2.875 1.6875 2.875 1 6 C-2 8 -2 8 -5 8 C-5 7.34 -5 6.68 -5 6 C-4.360625 5.7525 -3.72125 5.505 -3.0625 5.25 C-0.81258459 4.18437567 -0.81258459 4.18437567 -0.25 1.875 C-0.1675 1.25625 -0.085 0.6375 0 0 Z " fill="#838383" transform="translate(620,317)"/>
<path d="M0 0 C0.99 0 1.98 0 3 0 C3 2.31 3 4.62 3 7 C2.01 7 1.02 7 0 7 C0 4.69 0 2.38 0 0 Z " fill="#8C8C8C" transform="translate(327,303)"/>
<path d="M0 0 C0.598125 0.226875 1.19625 0.45375 1.8125 0.6875 C-2.9375 4.6875 -2.9375 4.6875 -5.1875 4.6875 C-5.5175 5.3475 -5.8475 6.0075 -6.1875 6.6875 C-5.78066505 4.32785727 -5.28935661 2.82815912 -3.875 0.875 C-2.1875 -0.3125 -2.1875 -0.3125 0 0 Z " fill="#3E3E3E" transform="translate(185.1875,44.3125)"/>
<path d="M0 0 C0.99 0 1.98 0 3 0 C3 2.64 3 5.28 3 8 C2.34 8 1.68 8 1 8 C0.67 5.36 0.34 2.72 0 0 Z " fill="#6A6A6A" transform="translate(693,248)"/>
<path d="M0 0 C0.66 0 1.32 0 2 0 C3.0064275 1.66279327 4.00585407 3.32983484 5 5 C5.99 5.66 6.98 6.32 8 7 C8 7.66 8 8.32 8 9 C5.50638429 7.79618552 3.31856917 6.54571278 1 5 C0.3125 2.375 0.3125 2.375 0 0 Z " fill="#727272" transform="translate(728,249)"/>
<path d="M0 0 C0 0.99 0 1.98 0 3 C-2.97 3 -5.94 3 -9 3 C-7.14340032 -0.71319936 -3.69365381 -0.09982848 0 0 Z " fill="#525252" transform="translate(153,177)"/>
<path d="M0 0 C-0.66 0 -1.32 0 -2 0 C-2 0.66 -2 1.32 -2 2 C-4.64 2.66 -7.28 3.32 -10 4 C-10 3.34 -10 2.68 -10 2 C-3.375 -1.125 -3.375 -1.125 0 0 Z " fill="#6E6E6E" transform="translate(820,354)"/>
<path d="M0 0 C0.66 0 1.32 0 2 0 C2.66 2.31 3.32 4.62 4 7 C3.01 7 2.02 7 1 7 C0.67 4.69 0.34 2.38 0 0 Z " fill="#818181" transform="translate(263,344)"/>
<path d="M0 0 C0.66 0 1.32 0 2 0 C2.66 2.31 3.32 4.62 4 7 C3.01 7 2.02 7 1 7 C0.67 4.69 0.34 2.38 0 0 Z " fill="#737373" transform="translate(258,331)"/>
<path d="M0 0 C0.66 0 1.32 0 2 0 C2.33 2.31 2.66 4.62 3 7 C2.01 6.67 1.02 6.34 0 6 C-0.38218767 4.34385343 -0.71395102 2.67542976 -1 1 C-0.67 0.67 -0.34 0.34 0 0 Z " fill="#6E6E6E" transform="translate(652,224)"/>
<path d="M0 0 C2.875 0.625 2.875 0.625 6 2 C7.375 5.125 7.375 5.125 8 8 C7.34 8 6.68 8 6 8 C4.97388051 6.34928604 3.97691857 4.68029994 3 3 C1.41754725 1.24850835 1.41754725 1.24850835 0 0 Z " fill="#7E7E7E" transform="translate(154,179)"/>
<path d="M0 0 C0.33 0.99 0.66 1.98 1 3 C-0.32 4.32 -1.64 5.64 -3 7 C-3.99 6.67 -4.98 6.34 -6 6 C-4.02 4.02 -2.04 2.04 0 0 Z " fill="#353535" transform="translate(837,340)"/>
<path d="M0 0 C0.99 0 1.98 0 3 0 C2.1875 2.9375 2.1875 2.9375 1 6 C0.01 6.33 -0.98 6.66 -2 7 C-1.34 4.69 -0.68 2.38 0 0 Z " fill="#636363" transform="translate(844,326)"/>
<path d="M0 0 C0.66 0 1.32 0 2 0 C1.67 2.64 1.34 5.28 1 8 C0.01 8 -0.98 8 -2 8 C-2 7.01 -2 6.02 -2 5 C-1.34 5 -0.68 5 0 5 C0 3.35 0 1.7 0 0 Z " fill="#808080" transform="translate(847,316)"/>
<path d="M0 0 C0.99 0 1.98 0 3 0 C3 1.98 3 3.96 3 6 C2.01 6 1.02 6 0 6 C0 4.02 0 2.04 0 0 Z " fill="#828282" transform="translate(518,305)"/>
<path d="M0 0 C0.99 0 1.98 0 3 0 C3 1.98 3 3.96 3 6 C2.01 6 1.02 6 0 6 C0 4.02 0 2.04 0 0 Z " fill="#7E7E7E" transform="translate(726,242)"/>
<path d="M0 0 C2.97 0.495 2.97 0.495 6 1 C6 1.66 6 2.32 6 3 C4.02 3 2.04 3 0 3 C0 2.01 0 1.02 0 0 Z " fill="#696969" transform="translate(528,356)"/>
<path d="M0 0 C0.66 0 1.32 0 2 0 C2.66 2.31 3.32 4.62 4 7 C3.34 7 2.68 7 2 7 C2 6.34 2 5.68 2 5 C1.34 5 0.68 5 0 5 C0 3.35 0 1.7 0 0 Z " fill="#828282" transform="translate(255,323)"/>
<path d="M0 0 C1.10844919 3.32534757 0.84454356 5.62182575 0 9 C-0.66 9 -1.32 9 -2 9 C-1.125 2.25 -1.125 2.25 0 0 Z " fill="#565656" transform="translate(108,263)"/>
<path d="M0 0 C1.10844919 3.32534757 0.84454356 5.62182575 0 9 C-0.66 9 -1.32 9 -2 9 C-1.125 2.25 -1.125 2.25 0 0 Z " fill="#565656" transform="translate(121,230)"/>
<path d="M0 0 C1.10844919 3.32534757 0.84454356 5.62182575 0 9 C-0.66 9 -1.32 9 -2 9 C-1.125 2.25 -1.125 2.25 0 0 Z " fill="#565656" transform="translate(134,197)"/>
</svg>
